<?xml version="1.0" standalone="no"?>
<!DOCTYPE svg PUBLIC "-//W3C//DTD SVG 1.1//EN" "http://www.w3.org/Graphics/SVG/1.1/DTD/svg11.dtd" >
<svg xmlns="http://www.w3.org/2000/svg" xmlns:xlink="http://www.w3.org/1999/xlink" version="1.1">
<metadata>
Created by FontForge 20170731 at Thu May 27 15:01:31 2021
 By Aleksey,,,
Copyright (c) 1989, 1990, 1999, 2002 Adobe Systems Incorporated.  All Rights Reserved. (c) 1981, 1999, 2002 Heidelberger Druckmaschinen AG. All rights reserved.
</metadata>
<defs>
<font id="EurostileLTStd-Cn" horiz-adv-x="948" >
  <font-face 
    font-family="Eurostile LT Std Condensed"
    font-weight="400"
    font-stretch="condensed"
    units-per-em="2048"
    panose-1="2 11 4 6 2 2 2 6 2 4"
    ascent="1536"
    descent="-512"
    x-height="1044"
    cap-height="1483"
    bbox="-342 -426 2048 1958"
    underline-thickness="102"
    underline-position="-307"
    unicode-range="U+0020-FB02"
  />
<missing-glyph horiz-adv-x="1024" 
d="M0 0v1434h1024v-1434h-1024zM512 809l348 522h-696zM573 717l349 -522v1044zM164 102h696l-348 523zM102 1239v-1044l349 522z" />
    <glyph glyph-name="fi" unicode="fi" horiz-adv-x="985" 
d="M180 0v926h-129v118h129v189q0 142 66.5 204t206.5 62q30 0 92 -4v-117q-29 2 -86 2q-72 0 -110 -32t-38 -115v-189h230v-118h-230v-926h-131zM711 0v1044h131v-1044h-131zM711 1309v174h131v-174h-131z" />
    <glyph glyph-name="fl" unicode="fl" horiz-adv-x="985" 
d="M711 0v1483h131v-1483h-131zM180 0v926h-129v118h129v189q0 142 66.5 204t206.5 62q30 0 92 -4v-117q-29 2 -86 2q-72 0 -110 -32t-38 -115v-189h230v-118h-230v-926h-131z" />
    <glyph glyph-name=".notdef" horiz-adv-x="1024" 
d="M0 0v1434h1024v-1434h-1024zM512 809l348 522h-696zM573 717l349 -522v1044zM164 102h696l-348 523zM102 1239v-1044l349 522z" />
    <glyph glyph-name=".null" horiz-adv-x="0" 
 />
    <glyph glyph-name="nonmarkingreturn" horiz-adv-x="682" 
 />
    <glyph glyph-name="space" unicode=" " horiz-adv-x="569" 
 />
    <glyph glyph-name="exclam" unicode="!" horiz-adv-x="454" 
d="M156 401v1082h143v-1082h-143zM156 0v188h143v-188h-143z" />
    <glyph glyph-name="quotedbl" unicode="&#x22;" horiz-adv-x="606" 
d="M121 1073v410h119v-410h-119zM367 1073v410h118v-410h-118z" />
    <glyph glyph-name="numbersign" unicode="#" horiz-adv-x="1138" 
d="M440 903l-45 -323h299l45 323h-299zM201 0l67 473h-219v107h234l45 323h-219v107h233l68 473h116l-71 -473h299l67 473h117l-68 -473h220v-107h-234l-45 -323h219v-107h-233l-68 -473h-117l68 473h-299l-64 -473h-116z" />
    <glyph glyph-name="dollar" unicode="$" horiz-adv-x="1138" 
d="M639 680v-567q63 1 104.5 6.5t73.5 20t49 34.5t28 56.5t14 78t3 107.5q0 63 -1.5 96t-11.5 67.5t-25 48.5t-48 27.5t-75 17.5t-111 7zM520 825v543q-88 0 -136.5 -9.5t-80.5 -40.5t-42.5 -82t-10.5 -142q0 -56 3 -91.5t13.5 -67t28 -49.5t49 -31.5t73 -20t103.5 -9.5z
M520 -225v209h-55q-107 0 -178.5 21t-113.5 67t-59.5 112t-17.5 164v117h131v-113q0 -73 9 -115.5t36 -71.5t73.5 -39.5t125.5 -10.5h49v571q-85 5 -143.5 15t-105 31t-74.5 50t-46.5 77t-25 107t-6.5 144q0 222 76 305.5t280 83.5h45v182h119v-182q81 -3 133 -8.5t101 -20
t76.5 -39t49 -64.5t29.5 -96t8 -136v-66h-131v39q0 48 -2 82.5t-9 62.5t-14 46t-25 31.5t-33.5 20t-47.5 11t-59.5 5.5t-75.5 1v-545q88 -5 145.5 -13t106 -27t75 -46.5t45 -75.5t25 -109t6.5 -151q0 -122 -16.5 -197.5t-62 -127t-123 -72t-201.5 -20.5v-209h-119z" />
    <glyph glyph-name="percent" unicode="%" horiz-adv-x="1630" 
d="M1118 530v-161q0 -50 0.5 -79.5t3.5 -61.5t7 -48t13 -33t19.5 -23.5t29 -12.5t39.5 -7.5t52 -1.5t52 1.5t39.5 7.5t29 12.5t19.5 23.5t13 33t7 48t3.5 61.5t0.5 79.5v161q0 50 -0.5 79.5t-3.5 61.5t-7 48t-13 33t-19.5 23.5t-29 12.5t-39.5 7.5t-52 1.5t-52 -1.5
t-39.5 -7.5t-29 -12.5t-19.5 -23.5t-13 -33t-7 -48t-3.5 -61.5t-0.5 -79.5zM301 -16l907 1515h119l-907 -1515h-119zM184 1114v-162q0 -67 1 -102.5t7 -70.5t15 -49t29.5 -26.5t45 -15t66.5 -2.5t66.5 2.5t45 15t29.5 26.5t15 49t7 70.5t1 102.5v162q0 67 -1 102.5t-7 70.5
t-15 49t-29.5 26.5t-45 15t-66.5 2.5t-66.5 -2.5t-45 -15t-29.5 -26.5t-15 -49t-7 -70.5t-1 -102.5zM999 231v437q0 64 10.5 105.5t40 75.5t86.5 50t146 16t146 -16t86.5 -50t40 -75.5t10.5 -105.5v-437q0 -64 -10.5 -105.5t-40 -75.5t-86.5 -50t-146 -16t-146 16t-86.5 50
t-40 75.5t-10.5 105.5zM66 815v436q0 64 10.5 105.5t39.5 76t86 50.5t146 16t146 -16t86.5 -50.5t40 -76t10.5 -105.5v-436q0 -64 -10.5 -105.5t-40 -76t-86.5 -50.5t-146 -16t-146 16t-86 50.5t-39.5 76t-10.5 105.5z" />
    <glyph glyph-name="ampersand" unicode="&#x26;" horiz-adv-x="1138" 
d="M268 580v-248q0 -118 56.5 -161.5t207.5 -43.5q128 0 178 33.5t50 115.5v58l-314 381q-11 18 -47 18q-57 0 -94 -37.5t-37 -115.5zM1040 0l-153 178q-28 -116 -111.5 -155t-257.5 -39q-91 0 -151 7.5t-106 30t-71 53t-40.5 88t-20 123t-4.5 169.5q0 99 10.5 171t27.5 116
t44.5 71t56 37.5t68.5 13.5q-86 110 -107 148q-45 80 -45 186q0 88 11.5 140t47 91t100.5 54.5t173 15.5q61 0 109 -5t83 -16.5t60 -24t41 -34t25 -39.5t13.5 -48.5t5.5 -52t1 -58.5v-125h-131v133q0 29 -8 50t-28 39.5t-60 28t-99 9.5q-49 0 -78.5 -2.5t-58.5 -11.5
t-43.5 -27.5t-23.5 -49.5t-9 -77q0 -45 18 -84.5t60 -91.5l393 -484v299h144v-469l223 -258z" />
    <glyph glyph-name="quotesingle" unicode="'" horiz-adv-x="344" 
d="M113 1073v410h118v-410h-118z" />
    <glyph glyph-name="parenleft" unicode="(" horiz-adv-x="606" 
d="M506 1499v-131q-110 0 -151.5 -51.5t-43.5 -159.5v-831q2 -108 43.5 -159.5t151.5 -51.5v-131q-94 0 -153 20t-99.5 73.5t-57 144.5t-16.5 237v565q0 146 16.5 237t57 144.5t99.5 73.5t153 20z" />
    <glyph glyph-name="parenright" unicode=")" horiz-adv-x="606" 
d="M100 -16v131q110 0 151.5 51.5t43.5 159.5v831q-2 108 -43.5 159.5t-151.5 51.5v131q94 0 153 -20t99.5 -73.5t57 -144.5t16.5 -237v-565q0 -146 -16.5 -237t-57 -144.5t-99.5 -73.5t-153 -20z" />
    <glyph glyph-name="asterisk" unicode="*" horiz-adv-x="946" 
d="M377 1204l-123 256l90 39l111 -248zM254 768l123 256l78 -47l-111 -248zM602 729l-110 248l77 47l123 -256zM492 1251l110 248l90 -39l-123 -256zM829 1067h-245v94h245v-94zM362 1067h-245v94h245v-94z" />
    <glyph glyph-name="plus" unicode="+" horiz-adv-x="1228" 
d="M96 459v119h459v458h119v-458h459v-119h-459v-459h-119v459h-459z" />
    <glyph glyph-name="comma" unicode="," horiz-adv-x="569" 
d="M213 0v188h143v-223q0 -43 -4 -74t-13.5 -51.5t-20.5 -32.5t-31 -18.5t-38 -8t-48 -1.5v82q44 0 58.5 24.5t14.5 114.5h-61z" />
    <glyph glyph-name="hyphen" unicode="-" horiz-adv-x="606" 
d="M78 483v119h450v-119h-450z" />
    <glyph glyph-name="period" unicode="." horiz-adv-x="569" 
d="M213 0v188h143v-188h-143z" />
    <glyph glyph-name="slash" unicode="/" horiz-adv-x="606" 
d="M-66 -16l611 1515h127l-611 -1515h-127z" />
    <glyph glyph-name="zero" unicode="0" horiz-adv-x="1138" 
d="M1040 1038v-594q0 -102 -10.5 -175t-36.5 -124.5t-60 -82.5t-91.5 -48.5t-119 -23.5t-153.5 -6t-153.5 6t-119 23.5t-91.5 48.5t-60 82.5t-36.5 124.5t-10.5 175v594q0 102 10.5 175t36.5 124.5t60 83t91.5 49t119 23.5t153.5 6t153.5 -6t119 -23.5t91.5 -49t60 -83
t36.5 -124.5t10.5 -175zM897 401v680q0 41 -1.5 73t-8 59t-12 46.5t-19.5 35t-25 25.5t-34.5 17t-41.5 10.5t-52.5 5.5t-60.5 2.5t-73 0.5q-78 0 -115.5 -1.5t-83.5 -10t-63.5 -24.5t-36 -47.5t-23.5 -77t-5 -114.5v-680q0 -69 5 -114t23.5 -76.5t36 -47.5t63.5 -24.5
t83 -10t116 -1.5q68 0 101 1t76.5 6t61.5 16t40.5 29.5t30 49t13 72t5.5 100.5z" />
    <glyph glyph-name="one" unicode="1" horiz-adv-x="1138" 
d="M573 0v1339h-4l-303 -387l-96 88l356 443h191v-1483h-144z" />
    <glyph glyph-name="two" unicode="2" horiz-adv-x="1138" 
d="M111 0v262q0 87 8.5 148.5t31 109t54.5 77t87.5 51t120.5 33.5t162 21q75 7 118.5 14.5t83 24.5t57 37.5t31 62.5t17 91.5t3.5 130.5q0 64 -3.5 104.5t-16 76.5t-33 55t-57 33.5t-85 19t-121.5 4.5q-76 0 -124.5 -3.5t-86.5 -16.5t-57.5 -29.5t-32 -51t-15.5 -73.5
t-3 -103v-71h-131v88q0 48 1.5 79.5t6 71t14 65t26 54.5t40 47t57.5 36t78.5 28t102.5 16t130 6q90 0 153 -7t116 -25.5t86 -49t56 -79.5t32.5 -115t9.5 -158q0 -60 -1.5 -102t-6.5 -89t-14 -79t-24.5 -66t-38 -56t-54 -43.5t-73 -34.5t-94 -22.5t-118.5 -13.5
q-96 -6 -159 -19.5t-101.5 -32t-58 -52t-25.5 -69t-6 -93.5v-150h764v-143h-907z" />
    <glyph glyph-name="three" unicode="3" horiz-adv-x="1138" 
d="M481 686v131q62 0 98.5 0.5t80 3t67 6t51.5 12t41 18.5t28.5 27t21 36.5t11.5 48.5t7.5 61t1.5 76q0 43 -1 67t-5 54t-12 44.5t-23.5 32t-37.5 25t-55 15t-75.5 10t-99.5 2.5q-49 0 -78.5 -0.5t-65 -3.5t-55.5 -9t-43 -16.5t-34.5 -25.5t-22.5 -37t-15 -51.5t-4 -67.5
v-115h-131v129q0 66 11 117.5t29 87.5t49.5 61t63.5 39.5t81 22.5t92 10t106 2q72 0 129.5 -4.5t103.5 -12.5t80.5 -23t60 -31.5t42.5 -43t27.5 -53t16 -66t7.5 -77t2 -90.5q0 -149 -38 -229t-138 -109v-4q39 -12 63 -23.5t49.5 -35t39.5 -56.5t23 -86.5t9 -126.5t-2 -119
t-9.5 -95.5t-20.5 -78.5t-37 -58t-56.5 -44t-81 -27.5t-110 -17t-143.5 -4.5q-101 0 -171 6.5t-126.5 24t-90 44t-55.5 72t-30.5 103.5t-8.5 141v102h131q0 -71 0.5 -105t5.5 -79.5t12.5 -63t25.5 -42.5t39.5 -32t60 -16t82.5 -10.5t110 -1.5q62 0 104.5 1.5t79.5 8.5t59 15
t40 26t26.5 36t14.5 52.5t7 67t1 86.5q0 70 -3 111t-23.5 74t-39.5 47t-78 23t-109.5 10t-162.5 1z" />
    <glyph glyph-name="four" unicode="4" horiz-adv-x="1138" 
d="M745 479v860h-4l-579 -860h583zM745 0v336h-702v205l633 942h213v-1004h186v-143h-186v-336h-144z" />
    <glyph glyph-name="five" unicode="5" horiz-adv-x="1138" 
d="M135 741v742h848v-131h-704v-451h4q52 72 117.5 93.5t199.5 21.5q81 0 142.5 -9.5t108 -27.5t78 -50t52 -70t32 -95t15.5 -118t4 -146q0 -87 -4.5 -151.5t-16 -118.5t-28 -91t-45 -65.5t-62 -45t-84 -27t-105.5 -14t-132 -3.5q-83 0 -144 6.5t-121.5 27.5t-98.5 56
t-61.5 95.5t-23.5 143.5v111h132q0 -52 1.5 -85t7 -66.5t14.5 -52.5t26.5 -38t40 -27.5t58.5 -16t78.5 -9.5t102.5 -2t102.5 2.5t78 12t57.5 19.5t39 34.5t25 46.5t13 66.5t6 84t1 107.5q0 64 -1 96t-5 77.5t-12.5 66.5t-24.5 49t-39.5 39t-58.5 23.5t-81 16.5t-108 4
q-152 0 -211 -23t-90 -108h-123z" />
    <glyph glyph-name="six" unicode="6" horiz-adv-x="1138" 
d="M1010 1118h-131q-3 43 -5 68.5t-8.5 54t-14.5 42.5t-23.5 29.5t-35 22t-51 12.5t-68 7.5t-89.5 1.5q-73 0 -116.5 -2.5t-87 -13t-66 -29t-41 -51.5t-25 -80.5t-6.5 -116.5v-289h4q59 85 129.5 108t224.5 23q93 0 157 -7.5t115.5 -28t82 -52t50.5 -85t27.5 -121.5
t7.5 -167q0 -102 -10.5 -175t-36.5 -124.5t-60 -82.5t-91.5 -48.5t-119 -23.5t-153.5 -6t-153.5 6t-119 23.5t-91.5 48.5t-60 82.5t-36.5 124.5t-10.5 175v594q0 102 10.5 175t36.5 124.5t60 83t91.5 49t119 23.5t153.5 6q133 0 213 -15t134 -58.5t74 -115.5t20 -192z
M897 451q0 60 -2 102t-10.5 77t-17.5 57t-30 39.5t-41 26t-58.5 14t-74 6.5t-94.5 1q-79 0 -125 -3t-87.5 -16t-60 -31.5t-33 -58t-18 -87.5t-3.5 -127q0 -60 2 -102t10 -77.5t17.5 -57.5t30 -39.5t41 -26t58 -14t73.5 -6.5t95 -1t95 1t73.5 6.5t58 14t41.5 26t30 39.5
t17.5 57.5t10.5 77.5t2 102z" />
    <glyph glyph-name="seven" unicode="7" horiz-adv-x="1138" 
d="M236 0l653 1339h-791v144h910v-217l-621 -1266h-151z" />
    <glyph glyph-name="eight" unicode="8" horiz-adv-x="1138" 
d="M242 414q0 -68 4 -110.5t18.5 -77t34.5 -52t60 -29.5t87 -15t123 -3q77 0 124 3t87 15t60 29.5t34.5 52t18.5 77t4 110.5t-4 110.5t-18.5 77t-34 52t-60 29t-87.5 14.5t-124 3q-76 0 -123 -3t-87 -14.5t-60 -29t-34.5 -52t-18.5 -77t-4 -110.5zM250 1100q0 -64 1.5 -92
t10.5 -67.5t28 -53.5t55 -30.5t89.5 -21t134.5 -4.5t134.5 4.5t90 21t55.5 31t28 53t10.5 67t1.5 92.5t-1.5 92.5t-10.5 67t-28 52.5t-55.5 30.5t-90 21t-134.5 4.5t-134.5 -4.5t-90 -21t-55 -30.5t-27.5 -53t-10.5 -67t-1.5 -92zM98 397q0 70 3.5 115.5t14 90t30.5 73
t53 52.5t82 40v4q-51 17 -83.5 45.5t-49.5 72t-23 92t-6 120.5v61q0 74 9 126t32 90.5t54.5 61t85.5 36t115.5 18t153.5 4.5t153.5 -4.5t115.5 -18t86 -36.5t55 -61t32 -90t9 -126v-61q0 -72 -6 -120.5t-23 -92t-49.5 -72t-83.5 -45.5v-4q49 -16 82 -40t53 -52t30.5 -73
t13.5 -90t3 -116q0 -81 -9 -141.5t-24 -105t-45 -74.5t-63 -48.5t-87.5 -28t-108 -12.5t-134.5 -3t-134.5 3t-108 12.5t-87.5 28t-63 48.5t-45 74.5t-24 105t-9 141.5z" />
    <glyph glyph-name="nine" unicode="9" horiz-adv-x="1138" 
d="M129 365h131q3 -43 5 -68.5t8.5 -54t14.5 -42.5t23.5 -29.5t35 -22t51 -12.5t68 -7.5t89.5 -1.5q73 0 116.5 2.5t87 13t66 29t41 51.5t25 80.5t6.5 116.5v289h-4q-59 -85 -129.5 -108t-224.5 -23q-93 0 -157 7.5t-116 27.5t-82.5 51.5t-50.5 85t-27.5 121.5t-7.5 167
q0 102 10.5 175t36.5 124.5t60 83t91.5 49t119 23.5t153.5 6t153.5 -6t119 -23.5t91.5 -49t60 -83t36.5 -124.5t10.5 -175v-594q0 -102 -10.5 -175t-36.5 -124.5t-60 -82.5t-91.5 -48.5t-119 -23.5t-153.5 -6q-133 0 -213 15t-133.5 58.5t-73.5 115.5t-20 192zM242 1032
q0 -60 2 -101.5t10 -77t17 -57.5t30 -39.5t41.5 -26t58.5 -14t73.5 -6.5t94.5 -1t97.5 1.5t75.5 7.5t58 15t41 27t29 40t16 57.5t9 75.5t2 99q0 60 -2 102t-10.5 77.5t-17.5 57.5t-30 39.5t-41.5 26t-58 14t-73.5 6.5t-95 1t-95 -1t-73.5 -6.5t-58 -14t-41 -26t-30 -39.5
t-17.5 -57.5t-10 -77.5t-2 -102z" />
    <glyph glyph-name="colon" unicode=":" horiz-adv-x="569" 
d="M213 797v188h143v-188h-143zM213 0v188h143v-188h-143z" />
    <glyph glyph-name="semicolon" unicode=";" horiz-adv-x="569" 
d="M213 0v188h143v-223q0 -43 -4 -74t-13.5 -51.5t-20.5 -32.5t-31 -18.5t-38 -8t-48 -1.5v82q44 0 58.5 24.5t14.5 114.5h-61zM213 797v188h143v-188h-143z" />
    <glyph glyph-name="less" unicode="&#x3c;" horiz-adv-x="1228" 
d="M1133 1053v-127l-891 -408l891 -407v-127l-1037 475v119z" />
    <glyph glyph-name="equal" unicode="=" horiz-adv-x="1228" 
d="M96 662v118h1037v-118h-1037zM96 256v119h1037v-119h-1037z" />
    <glyph glyph-name="greater" unicode="&#x3e;" horiz-adv-x="1228" 
d="M96 -16v127l891 407l-891 408v127l1037 -475v-119z" />
    <glyph glyph-name="question" unicode="?" horiz-adv-x="872" 
d="M51 1026v156q0 63 12 112.5t30 82.5t49.5 56.5t60.5 36t73 19.5t77 8.5t83 1.5q101 0 171 -16t112 -43.5t65 -77t30 -102.5t7 -134q0 -90 -4 -153.5t-16.5 -110.5t-26 -75.5t-42 -52t-53.5 -36.5t-71 -32q-66 -27 -95.5 -41t-50.5 -33t-24.5 -36.5t-3.5 -51.5v-103h-143
v86q0 49 2 76.5t13 57.5t26 46.5t51 40.5t77 43.5t113 51.5q29 13 42.5 20.5t30 23t22.5 33.5t12.5 52t8 78t1.5 112q0 39 -0.5 60t-4 48.5t-10 41.5t-18.5 31t-30 24.5t-44 15.5t-60.5 10.5t-80.5 2.5q-50 0 -79 -1t-60.5 -6.5t-47 -13.5t-31.5 -26.5t-22 -39.5t-12 -59
t-7 -79t-1 -105h-131zM291 0v188h143v-188h-143z" />
    <glyph glyph-name="at" unicode="@" horiz-adv-x="1638" 
d="M510 610q0 -93 55.5 -155t139.5 -62q90 0 170 76.5t124.5 186t44.5 214.5q0 93 -47 151t-129 58q-75 0 -143.5 -47t-114.5 -118t-73 -152t-27 -152zM1114 1016l49 131h127l-198 -588q-21 -62 -21 -115q0 -51 47 -51q81 0 161 74t129.5 185t49.5 216q0 158 -85.5 279.5
t-222 183.5t-296.5 62q-141 0 -267 -52.5t-215 -141.5t-140.5 -210.5t-51.5 -255.5q0 -178 86.5 -324.5t243.5 -232.5t352 -86q160 0 308 69t241 191h123q-98 -169 -282 -267.5t-390 -98.5q-176 0 -326 57t-254 158t-162.5 242.5t-58.5 306.5q0 103 28.5 200.5t80 180
t125 151.5t160 117t188 75t207.5 27q198 0 364 -80t264.5 -225t98.5 -324q0 -119 -47.5 -230t-120.5 -186.5t-160.5 -121t-167.5 -45.5q-56 0 -93.5 36.5t-47.5 100.5h-4q-52 -63 -125.5 -100t-159.5 -37q-123 0 -203.5 92t-80.5 227q0 103 38 206.5t103 186.5t162 135
t207 52q43 0 85.5 -14t85.5 -54.5t66 -101.5z" />
    <glyph glyph-name="A" unicode="A" horiz-adv-x="1175" 
d="M862 457l-264 882h-20l-265 -882h549zM1004 0l-97 313h-639l-96 -313h-149l464 1483h201l465 -1483h-149z" />
    <glyph glyph-name="B" unicode="B" horiz-adv-x="1175" 
d="M268 696v-553h410q67 0 111 9.5t72.5 27t42.5 53t19 77t5 110.5q0 57 -3 94t-12.5 71t-26.5 53t-45 33t-67.5 19.5t-95.5 5.5h-410zM268 1339v-499h437q60 0 99.5 17t59.5 52t27.5 77t7.5 104q0 39 -0.5 61.5t-4.5 53t-11 47t-20.5 36t-33 29t-49 16t-67.5 6.5h-445z
M125 0v1483h584q103 0 168.5 -20.5t101.5 -67t49.5 -108t13.5 -157.5q0 -78 -5 -126t-20 -94t-46.5 -75.5t-81.5 -50.5v-4q48 -12 81 -33.5t53 -50.5t30.5 -77t14 -99t3.5 -131q0 -104 -17 -174t-58 -120t-111 -72.5t-176 -22.5h-584z" />
    <glyph glyph-name="C" unicode="C" horiz-adv-x="1175" 
d="M1087 494v-113q0 -82 -8.5 -141t-31 -104.5t-55 -74t-86 -46t-119 -24.5t-158.5 -7q-104 0 -175.5 7.5t-134 28t-100.5 55.5t-65.5 92.5t-38.5 136t-11 188.5v499q0 110 11 188.5t38.5 136t65.5 92.5t100.5 55.5t134 28t175.5 7.5q89 0 148.5 -5t115.5 -19t89 -40.5
t58.5 -69.5t36 -105t10.5 -148v-106h-131v96q0 59 -6 99.5t-23.5 69t-39 45t-62.5 26t-84 12t-112 2.5q-67 0 -113.5 -2.5t-88.5 -10t-67.5 -18.5t-47.5 -32.5t-33 -47t-19 -66.5t-10 -85.5t-2 -110.5v-483q0 -66 2 -110.5t10 -85.5t19 -66.5t33 -47t47.5 -32.5t67.5 -18.5
t88.5 -10t113.5 -2.5q57 0 100 3t77 10.5t58 17.5t41 27.5t26.5 35.5t15.5 47t7.5 57t1.5 70v99h131z" />
    <glyph glyph-name="D" unicode="D" horiz-adv-x="1251" 
d="M125 0v1483h567q92 0 162 -16.5t118 -42t81 -75t51.5 -97t28 -128.5t12 -148t2.5 -175q0 -134 -2.5 -216.5t-12.5 -178t-30 -150t-54 -110.5t-85 -83.5t-123 -45t-168 -17.5h-547zM268 1339v-1196h449q73 0 121.5 18t82 56t51 111t25 169t7.5 244q0 128 -4 214t-16.5 157
t-32 111.5t-53 68t-76 37.5t-105.5 10h-449z" />
    <glyph glyph-name="E" unicode="E" horiz-adv-x="1024" 
d="M125 0v1483h795v-144h-652v-499h619v-144h-619v-553h647v-143h-790z" />
    <glyph glyph-name="F" unicode="F" 
d="M125 0v1483h768v-144h-625v-520h600v-143h-600v-676h-143z" />
    <glyph glyph-name="G" unicode="G" horiz-adv-x="1214" 
d="M592 586v143h528v-332q0 -84 -11.5 -147.5t-29.5 -108t-54 -74t-69 -46t-92.5 -25t-107.5 -10.5t-129 -2q-103 0 -174.5 7.5t-133.5 28t-100 55.5t-65.5 92.5t-38.5 136t-11 188.5v499q0 110 11 188.5t38.5 136t65.5 92.5t100 55.5t133.5 28t174.5 7.5q70 0 119.5 -2
t105 -9.5t92.5 -20t73 -35.5t57 -55t33.5 -78t12.5 -105v-150h-143v54q0 60 -4.5 98.5t-20 69t-37 47t-64.5 27t-93.5 13.5t-130.5 3q-67 0 -113 -2.5t-87.5 -10t-67 -18.5t-47.5 -32.5t-33 -47t-19 -66.5t-10 -85.5t-2 -110.5v-483q0 -66 2 -110.5t10 -85.5t19 -66.5
t33 -47t47.5 -32.5t67 -18.5t87.5 -10t113 -2.5q88 0 126.5 1.5t89 11t68 27t37.5 53.5t24.5 87t4.5 131v148h-385z" />
    <glyph glyph-name="H" unicode="H" horiz-adv-x="1251" 
d="M125 0v1483h143v-643h713v643h145v-1483h-143v684h-715v-684h-143z" />
    <glyph glyph-name="I" unicode="I" horiz-adv-x="454" 
d="M156 0v1483h143v-1483h-143z" />
    <glyph glyph-name="J" unicode="J" 
d="M680 319v1164h143v-1168q0 -99 -24.5 -165t-77 -102t-119.5 -50t-166 -14t-166 14t-119.5 50t-77 102t-24.5 165v217h144v-213q0 -115 50.5 -153.5t192.5 -38.5t193 38.5t51 153.5z" />
    <glyph glyph-name="K" unicode="K" horiz-adv-x="1099" 
d="M125 0v1483h143v-643h133l502 643h178l-559 -717l621 -766h-185l-565 696h-125v-696h-143z" />
    <glyph glyph-name="L" unicode="L" 
d="M125 0v1483h143v-1327h625v-156h-768z" />
    <glyph glyph-name="M" unicode="M" horiz-adv-x="1630" 
d="M125 0v1483h240l448 -1309h4l449 1309h239v-1483h-143v1327h-4l-465 -1327h-156l-465 1327h-4v-1327h-143z" />
    <glyph glyph-name="N" unicode="N" horiz-adv-x="1290" 
d="M125 0v1483h227l666 -1327h4v1327h143v-1483h-227l-666 1327h-4v-1327h-143z" />
    <glyph glyph-name="O" unicode="O" horiz-adv-x="1253" 
d="M1006 500v483q0 66 -2 110.5t-10 85.5t-19 66.5t-33 47t-47.5 32.5t-67 18.5t-87.5 10t-113 2.5t-113 -2.5t-87.5 -10t-67 -18.5t-47.5 -32.5t-33 -47t-19 -66.5t-10 -85.5t-2 -110.5v-483q0 -66 2 -110.5t10 -85.5t19 -66.5t33 -47t47.5 -32.5t67 -18.5t87.5 -10
t113 -2.5t113 2.5t87.5 10t67 18.5t47.5 32.5t33 47t19 66.5t10 85.5t2 110.5zM104 492v499q0 110 11 188.5t38.5 136t65.5 92.5t100 55.5t133.5 28t174.5 7.5t174 -7.5t133.5 -28t100 -55.5t65 -92.5t38.5 -136t11 -188.5v-499q0 -110 -11 -188.5t-38.5 -136t-65 -92.5
t-100 -55.5t-133.5 -28t-174 -7.5t-174.5 7.5t-133.5 28t-100 55.5t-65.5 92.5t-38.5 136t-11 188.5z" />
    <glyph glyph-name="P" unicode="P" horiz-adv-x="1099" 
d="M268 1339v-618h416q90 0 136.5 25t68.5 91t22 193q0 83 -6.5 137t-19 89t-38.5 52.5t-57.5 24t-82.5 6.5h-439zM125 0v1483h623q75 0 129.5 -22t88.5 -59t54 -96.5t27.5 -124.5t7.5 -151q0 -97 -12 -170.5t-37.5 -122.5t-57 -81t-78 -49t-93 -23t-109.5 -6h-400v-578
h-143z" />
    <glyph glyph-name="Q" unicode="Q" horiz-adv-x="1253" 
d="M248 983v-483q0 -58 0.5 -96t5 -77t9 -62t17 -47t25 -36t36.5 -24t47.5 -16.5t63.5 -9t78 -5t97 -0.5q172 0 244 15.5t100 70.5l-365 309l78 92l315 -266q7 46 7 152v483q0 58 -0.5 96t-5 77t-9 62t-17 47t-25 36t-36.5 24t-47.5 16.5t-63.5 9t-78 5t-97 0.5t-97 -0.5
t-78 -5t-63.5 -9t-47.5 -16.5t-36.5 -24t-25 -36t-17 -47t-9 -62t-5 -77t-0.5 -96zM104 492v499q0 111 9.5 188.5t35.5 136t62 92.5t98.5 55.5t136 28.5t181.5 7t181.5 -7t135.5 -28.5t98.5 -55.5t62 -92.5t35 -136t9.5 -188.5v-499q0 -152 -23 -250l107 -90l-78 -95l-74 64
q-50 -80 -154.5 -108.5t-299.5 -28.5q-108 0 -181.5 7t-136 28.5t-98.5 55.5t-62 92.5t-35.5 136t-9.5 188.5z" />
    <glyph glyph-name="R" unicode="R" horiz-adv-x="1214" 
d="M125 0v1483h606q135 0 210.5 -36.5t112 -127.5t36.5 -256q0 -128 -19.5 -208.5t-60 -123.5t-109.5 -61v-4q86 -24 125 -88.5t39 -171.5v-406h-143v338q0 150 -57 204t-224 54h-373v-596h-143zM268 1339v-600h465q112 0 162.5 72t50.5 227q0 73 -3 119.5t-15 82.5
t-27.5 53.5t-48 29t-68 14t-96.5 2.5h-420z" />
    <glyph glyph-name="S" unicode="S" horiz-adv-x="1097" 
d="M90 350v115h131v-86q0 -58 4.5 -95.5t19 -67.5t35.5 -46t60.5 -26.5t86.5 -13.5t122 -3q59 0 94 1t72.5 6t56.5 12t39 23.5t27.5 35.5t15 52.5t9 71t1.5 93.5q0 59 -1.5 84.5t-10 61.5t-25.5 50t-50.5 32t-83 26t-124.5 14l-151 12q-96 8 -155 29.5t-95 68.5t-49 115.5
t-13 178.5q0 91 9 155t33 110t55 73t85.5 42t114 20t150.5 5q94 0 158 -6.5t115 -25.5t81.5 -47.5t50.5 -77.5t28.5 -110t10.5 -151h-131v33q0 145 -63.5 193.5t-249.5 48.5q-73 0 -120 -3.5t-83 -16.5t-54 -28.5t-29.5 -49t-14 -68.5t-2.5 -96q0 -56 3.5 -92t16.5 -66.5
t32.5 -47.5t56.5 -30.5t83.5 -19.5t118.5 -11q101 -7 161.5 -15t116.5 -27t84 -45.5t50 -74t28.5 -109.5t6.5 -155q0 -88 -10 -152.5t-34.5 -111t-58.5 -76t-87.5 -47t-116 -24t-150.5 -6.5q-107 0 -179.5 9.5t-129 33t-88.5 65.5t-48 104.5t-16 153.5z" />
    <glyph glyph-name="T" unicode="T" horiz-adv-x="983" 
d="M420 0v1339h-406v144h955v-144h-406v-1339h-143z" />
    <glyph glyph-name="U" unicode="U" horiz-adv-x="1216" 
d="M125 379v1104h143v-1147q0 -120 71 -164.5t267 -44.5q199 0 270.5 44t71.5 165v1147h144v-1104q0 -120 -25.5 -196t-86.5 -120.5t-148.5 -61.5t-225.5 -17q-135 0 -222 17t-147.5 61.5t-86 121t-25.5 195.5z" />
    <glyph glyph-name="V" unicode="V" horiz-adv-x="1138" 
d="M469 0l-444 1483h145l397 -1340h4l398 1340h145l-444 -1483h-201z" />
    <glyph glyph-name="W" unicode="W" horiz-adv-x="1896" 
d="M1280 0l-330 1339h-4l-330 -1339h-208l-388 1483h140l348 -1340h4l328 1340h217l327 -1340h5l348 1340h139l-387 -1483h-209z" />
    <glyph glyph-name="X" unicode="X" horiz-adv-x="1175" 
d="M39 0l444 754l-417 729h161l361 -635l360 635h162l-422 -729l449 -754h-166l-383 668l-383 -668h-166z" />
    <glyph glyph-name="Y" unicode="Y" horiz-adv-x="1064" 
d="M461 0v616l-463 867h149l385 -721l386 721h149l-463 -867v-616h-143z" />
    <glyph glyph-name="Z" unicode="Z" horiz-adv-x="1064" 
d="M53 0v143l785 1196h-756v144h919v-144l-784 -1196h795v-143h-959z" />
    <glyph glyph-name="bracketleft" unicode="[" horiz-adv-x="606" 
d="M180 0v1483h266v-131h-135v-1221h135v-131h-266z" />
    <glyph glyph-name="backslash" unicode="\" horiz-adv-x="606" 
d="M545 -16l-611 1515h127l611 -1515h-127z" />
    <glyph glyph-name="bracketright" unicode="]" horiz-adv-x="606" 
d="M160 0v131h135v1221h-135v131h266v-1483h-266z" />
    <glyph glyph-name="asciicircum" unicode="^" horiz-adv-x="1228" 
d="M96 584l459 899h119l459 -899h-129l-390 768l-389 -768h-129z" />
    <glyph glyph-name="underscore" unicode="_" horiz-adv-x="1024" 
d="M1024 -256h-1024v102h1024v-102z" />
    <glyph glyph-name="grave" unicode="`" horiz-adv-x="417" 
d="M233 1163l-282 285h160l227 -285h-105z" />
    <glyph glyph-name="a" unicode="a" 
d="M721 0v90q-56 -61 -122 -83.5t-183 -22.5q-97 0 -162.5 22t-100.5 67t-49 101.5t-14 136.5q0 84 12 139t46 100.5t100 67t168 21.5q100 0 154.5 -9t82 -27.5t52.5 -57.5h4v190q0 65 -5.5 98.5t-29 61.5t-69.5 37.5t-128 9.5q-46 0 -80 -4t-57.5 -9t-39 -18.5t-24 -25
t-12.5 -35t-5 -41.5t-1 -53h-131v55q0 44 5.5 75.5t26.5 67t58 57t104.5 36t161.5 14.5q108 0 178 -17t109.5 -56t54.5 -91.5t15 -132.5v-764h-119zM221 317q0 -116 57.5 -159t192.5 -43t192.5 43t57.5 159t-57.5 159.5t-192.5 43.5t-192.5 -43.5t-57.5 -159.5z" />
    <glyph glyph-name="b" unicode="b" horiz-adv-x="985" 
d="M752 522q0 112 -7 181.5t-21.5 117t-45.5 70t-70.5 31t-105.5 8.5q-140 0 -195 -76.5t-55 -269.5q0 -104 3 -171t13.5 -124t26.5 -87t45 -51.5t67 -28.5t95 -7q55 0 90 5t65.5 21t46.5 42t28 73.5t16 110t4 155.5zM121 0v1483h131v-570h4q50 86 119.5 117t169.5 31
q103 0 169 -26t107 -90.5t57.5 -164.5t16.5 -258t-16.5 -257.5t-60 -164.5t-113.5 -90.5t-181 -25.5q-109 0 -170 34t-98 113h-4v-131h-131z" />
    <glyph glyph-name="c" unicode="c" horiz-adv-x="909" 
d="M817 696h-131q0 145 -41.5 195.5t-169.5 50.5q-43 0 -70.5 -2t-55 -9.5t-43 -18.5t-30.5 -34t-22 -51.5t-12.5 -75t-7 -99.5t-1.5 -130t1.5 -130t7 -99.5t12.5 -75t22 -51.5t30.5 -34t43 -18.5t55 -9.5t70.5 -2q141 0 185.5 54t44.5 223h131v-68q0 -100 -22.5 -165
t-71.5 -100t-111.5 -48.5t-155.5 -13.5q-66 0 -115.5 5.5t-89.5 19.5t-68 33t-48.5 52.5t-32.5 70.5t-19 94.5t-9.5 117t-2.5 145.5q0 112 6.5 190t23.5 141t44 101t71.5 63t101.5 34.5t138 9.5q108 0 173.5 -17.5t103.5 -62.5t51.5 -110.5t13.5 -174.5z" />
    <glyph glyph-name="d" unicode="d" horiz-adv-x="985" 
d="M233 522q0 -93 4 -155.5t16 -110t28 -73.5t46.5 -42t65.5 -21t90 -5q57 0 95 7t67 28.5t45 51.5t26.5 87t13.5 124t3 171q0 193 -55 269.5t-195 76.5q-66 0 -105.5 -8.5t-70.5 -31t-45.5 -70t-21.5 -117t-7 -181.5zM733 0v131h-4q-37 -79 -98 -113t-170 -34
q-111 0 -181 25.5t-113.5 90.5t-60 164.5t-16.5 257.5t16.5 258t57.5 164.5t107 90.5t169 26q100 0 169.5 -31t119.5 -117h4v570h131v-1483h-131z" />
    <glyph glyph-name="e" unicode="e" 
d="M233 623h476q0 44 -0.5 69.5t-2.5 59.5t-7 52.5t-13 42t-20 35.5t-29.5 26t-41.5 20t-54.5 10t-69.5 4t-69.5 -4t-54.5 -10t-41.5 -20t-29.5 -26t-20 -35.5t-13 -42t-7 -52.5t-2.5 -59.5t-0.5 -69.5zM840 492h-607v-97q0 -173 43.5 -233t176.5 -60q38 0 59 0.5t48.5 2
t41 4t32 8t27 13t19 19.5t14.5 26.5t8.5 35t5.5 44.5t1 56h131v-39q0 -84 -13 -134t-52 -87.5t-110.5 -52t-189.5 -14.5q-66 0 -115.5 5.5t-89.5 19.5t-68 33t-48.5 52.5t-32.5 70.5t-19 94.5t-9.5 117t-2.5 145.5q0 112 6.5 190t23.5 141t44 101t71.5 63t101.5 34.5
t138 9.5q116 0 188.5 -23t111.5 -77.5t52 -125.5t13 -186v-157z" />
    <glyph glyph-name="f" unicode="f" horiz-adv-x="530" 
d="M180 0v926h-129v118h129v189q0 142 66.5 204t206.5 62q30 0 92 -4v-117q-29 2 -86 2q-72 0 -110 -32t-38 -115v-189h230v-118h-230v-926h-131z" />
    <glyph glyph-name="g" unicode="g" horiz-adv-x="985" 
d="M252 549q0 -77 2.5 -125t10 -96t22.5 -74t40.5 -48t63 -30t90.5 -8q82 0 131.5 17t80 63t41.5 115.5t11 185.5t-11 185.5t-41.5 115.5t-80 63t-131.5 17q-53 0 -90.5 -8t-63 -30t-40.5 -48t-22.5 -74t-10 -96t-2.5 -125zM745 35v153h-4q-38 -84 -104 -117.5t-168 -33.5
q-56 0 -101.5 8.5t-80 22.5t-62 38t-46 49t-31.5 62t-20.5 70.5t-12 81t-5.5 86.5t-1 94t1 94t5.5 86.5t12 81t20.5 70.5t31.5 62t46 49t62 38t80 22.5t101.5 8.5q105 0 168 -34t104 -124h4v141h132v-1034q0 -118 -19.5 -192.5t-69.5 -120.5t-127 -64t-200 -18
q-161 0 -244 67t-80 224h131q0 -92 47.5 -126t173.5 -34q84 0 130.5 10t76.5 43.5t39.5 87t9.5 148.5z" />
    <glyph glyph-name="h" unicode="h" 
d="M109 0v1483h131v-574h4q50 85 112.5 118.5t175.5 33.5q173 0 240.5 -80.5t67.5 -243.5v-737h-131v707q0 40 -4 71t-16.5 63.5t-34 53t-58 34t-86.5 13.5q-130 0 -200 -63.5t-70 -219.5v-659h-131z" />
    <glyph glyph-name="i" unicode="i" horiz-adv-x="417" 
d="M143 0v1044h131v-1044h-131zM143 1309v174h131v-174h-131z" />
    <glyph glyph-name="j" unicode="j" horiz-adv-x="417" 
d="M143 -164v1208h131v-1237q0 -172 -182 -172q-29 0 -49 5v114q62 0 81 14.5t19 67.5zM143 1309v174h131v-174h-131z" />
    <glyph glyph-name="k" unicode="k" horiz-adv-x="796" 
d="M653 0l-356 492h-57v-492h-131v1483h131v-860h61l309 421h162l-366 -483l421 -561h-174z" />
    <glyph glyph-name="l" unicode="l" horiz-adv-x="417" 
d="M143 0v1483h131v-1483h-131z" />
    <glyph glyph-name="m" unicode="m" horiz-adv-x="1552" 
d="M109 0v1044h131v-155h4q53 91 112.5 131.5t163.5 40.5q115 0 188.5 -36.5t110.5 -133.5q59 94 130.5 132t183.5 38q158 0 234.5 -76.5t76.5 -232.5v-752h-131v676q0 76 -15 127.5t-45.5 78.5t-67.5 37.5t-91 10.5q-130 0 -191 -62t-61 -211v-657h-131v723
q0 115 -48.5 161t-158.5 46q-139 0 -201.5 -82.5t-62.5 -249.5v-598h-131z" />
    <glyph glyph-name="n" unicode="n" 
d="M109 0v1044h131v-135h4q50 85 112.5 118.5t175.5 33.5q173 0 240.5 -80.5t67.5 -243.5v-737h-131v707q0 40 -4 71t-16.5 63.5t-34 53t-58 34t-86.5 13.5q-130 0 -200 -63.5t-70 -219.5v-659h-131z" />
    <glyph glyph-name="o" unicode="o" horiz-adv-x="950" 
d="M233 522q0 -77 1.5 -130t7 -99.5t12.5 -75t22 -51.5t30.5 -34t43 -18.5t55 -9.5t70.5 -2t70.5 2t55 9.5t43 18.5t30.5 34t22 51.5t12.5 75t7 99.5t1.5 130t-1.5 130t-7 99.5t-12.5 75t-22 51.5t-30.5 34t-43 18.5t-55 9.5t-70.5 2t-70.5 -2t-55 -9.5t-43 -18.5t-30.5 -34
t-22 -51.5t-12.5 -75t-7 -99.5t-1.5 -130zM90 522q0 84 2.5 143t9.5 116.5t19 94.5t32.5 71t48.5 53.5t68 34.5t89.5 20.5t115.5 5.5t115.5 -5.5t89.5 -20.5t68 -34.5t48.5 -53.5t32.5 -71t19 -94.5t9.5 -116.5t2.5 -143q0 -69 -1.5 -120.5t-6 -101t-11.5 -85t-19 -69
t-27 -55.5t-37.5 -41.5t-49.5 -31t-62.5 -20t-77 -11.5t-93.5 -3t-93.5 3t-77 11.5t-62.5 20t-49.5 31t-37.5 41.5t-27 55.5t-19 69t-11.5 85t-6 101t-1.5 120.5z" />
    <glyph glyph-name="p" unicode="p" horiz-adv-x="985" 
d="M752 522q0 112 -7 181.5t-21.5 117t-45.5 70t-70.5 31t-105.5 8.5q-140 0 -195 -76.5t-55 -269.5q0 -104 3 -171t13.5 -124t26.5 -87t45 -51.5t67 -28.5t95 -7q55 0 90 5t65.5 21t46.5 42t28 73.5t16 110t4 155.5zM121 -365v1409h131v-131h4q50 86 119.5 117t169.5 31
q103 0 169 -26t107 -90.5t57.5 -164.5t16.5 -258t-16.5 -257.5t-60 -164.5t-113.5 -90.5t-181 -25.5q-109 0 -170 34t-98 113h-4v-496h-131z" />
    <glyph glyph-name="q" unicode="q" horiz-adv-x="985" 
d="M233 522q0 -93 4 -155.5t16 -110t28 -73.5t46.5 -42t65.5 -21t90 -5q57 0 95 7t67 28.5t45 51.5t26.5 87t13.5 124t3 171q0 193 -55 269.5t-195 76.5q-66 0 -105.5 -8.5t-70.5 -31t-45.5 -70t-21.5 -117t-7 -181.5zM733 -365v496h-4q-37 -79 -98 -113t-170 -34
q-111 0 -181 25.5t-113.5 90.5t-60 164.5t-16.5 257.5t16.5 258t57.5 164.5t107 90.5t169 26q100 0 169.5 -31t119.5 -117h4v131h131v-1409h-131z" />
    <glyph glyph-name="r" unicode="r" horiz-adv-x="757" 
d="M109 0v1044h131v-126h4q38 77 91.5 110t149.5 33q127 0 184.5 -63.5t57.5 -217.5v-84h-119q2 149 -29.5 197.5t-140.5 48.5q-198 3 -198 -215v-727h-131z" />
    <glyph glyph-name="s" unicode="s" 
d="M106 324h132q-2 -72 5 -111.5t32 -66.5t67.5 -35.5t118.5 -8.5q83 0 128.5 7t75 31t38 62t8.5 107q0 39 -1.5 59t-12 40t-24 28.5t-47 16.5t-71 11t-106.5 7q-70 4 -116.5 10t-86.5 19t-63 32t-39.5 50.5t-22.5 73t-6 100.5q0 72 7 117t27.5 84.5t59.5 60t102 32
t156 11.5q116 0 186 -13.5t110.5 -49.5t54 -87.5t13.5 -138.5h-131q0 41 -3.5 68t-15.5 47t-26 30t-45 16t-62 7.5t-87 1.5q-49 0 -79.5 -2t-57 -9t-39.5 -18t-23 -32.5t-13 -49t-3 -69.5q0 -41 2 -63.5t11.5 -43.5t22.5 -30t43.5 -17.5t64.5 -11.5t95 -6q84 -5 134.5 -10.5
t95 -18t65.5 -28.5t37 -47.5t20.5 -69.5t4.5 -99q0 -80 -8 -130t-30 -92.5t-65.5 -64.5t-111.5 -34t-170 -12q-67 0 -110 3.5t-87 15.5t-69.5 34.5t-46.5 60t-29.5 93.5t-8.5 133z" />
    <glyph glyph-name="t" unicode="t" horiz-adv-x="681" 
d="M143 199v727h-108v118h108v242h131v-242h338v-118h-338v-699q0 -66 25 -95.5t88 -29.5q42 0 64.5 6.5t42 31.5t27 75.5t7.5 136.5h119q0 -98 -13 -166.5t-33.5 -107.5t-56 -60.5t-69.5 -27.5t-86 -6q-142 0 -194 47.5t-52 167.5z" />
    <glyph glyph-name="u" unicode="u" 
d="M840 1044v-1044h-131v135h-4q-50 -85 -112.5 -118t-176.5 -33q-173 0 -240 80t-67 243v737h131v-706q0 -51 7 -89t27 -73.5t61 -54.5t103 -19q131 0 201 63.5t70 219.5v659h131z" />
    <glyph glyph-name="v" unicode="v" horiz-adv-x="798" 
d="M307 0l-293 1044h136l247 -913h4l248 913h135l-292 -1044h-185z" />
    <glyph glyph-name="w" unicode="w" horiz-adv-x="1290" 
d="M262 0l-248 1044h129l207 -911h4l197 911h188l197 -913h4l207 913h129l-248 -1044h-190l-191 913h-4l-190 -913h-191z" />
    <glyph glyph-name="x" unicode="x" horiz-adv-x="835" 
d="M39 0l303 543l-274 501h145l205 -382l205 382h145l-283 -501l312 -543h-154l-225 426l-225 -426h-154z" />
    <glyph glyph-name="y" unicode="y" horiz-adv-x="798" 
d="M143 -377v123q66 0 101.5 7.5t64 37.5t43.5 75t35 134h-59l-305 1044h129l266 -913h4l223 913h131l-280 -1153q-35 -141 -102.5 -208.5t-188.5 -67.5q-43 0 -62 8z" />
    <glyph glyph-name="z" unicode="z" horiz-adv-x="798" 
d="M47 0v143l539 783h-486v118h629v-131l-539 -794h531v-119h-674z" />
    <glyph glyph-name="braceleft" unicode="{" horiz-adv-x="606" 
d="M483 1483v-107h-86q-42 0 -64 -44t-22 -109v-236q1 -58 -17.5 -106t-45.5 -76t-49.5 -43t-38.5 -19v-4q16 -5 38.5 -20t49.5 -42.5t45.5 -75.5t17.5 -107v-234q0 -64 22 -109t64 -45h86v-106h-112q-86 0 -138.5 54t-52.5 145v237q0 240 -151 240v131q151 0 151 237v240
q0 91 52.5 145t138.5 54h112z" />
    <glyph glyph-name="bar" unicode="|" horiz-adv-x="454" 
d="M168 -16v1515h119v-1515h-119z" />
    <glyph glyph-name="braceright" unicode="}" horiz-adv-x="606" 
d="M123 0v106h86q42 0 64 44.5t22 109.5v236q-1 58 17.5 106t45.5 75.5t49.5 42.5t38.5 19v4q-16 5 -38.5 20t-49.5 43t-45.5 76t-17.5 107v234q0 64 -22 108.5t-64 44.5h-86v107h113q86 0 138 -54t52 -145v-237q0 -240 152 -240v-131q-152 0 -152 -238v-239q0 -91 -52 -145
t-138 -54h-113z" />
    <glyph glyph-name="asciitilde" unicode="~" horiz-adv-x="1228" 
d="M215 381l-74 90q92 176 256 176q82 0 236 -69q7 -3 25.5 -11.5t26 -12t23.5 -10.5t24.5 -10t22 -8t22.5 -7.5t20 -5.5t20 -4t17 -1q29 0 55 11.5t49.5 36t38 44.5t37.5 55l73 -90q-23 -32 -38.5 -52t-41 -46.5t-49.5 -41t-57 -25.5t-70 -11q-40 0 -81 12t-63.5 23
t-65.5 35q-59 33 -112 51t-122 18q-105 0 -172 -147z" />
    <glyph glyph-name="uni00A0" unicode="&#xa0;" horiz-adv-x="569" 
 />
    <glyph glyph-name="exclamdown" unicode="&#xa1;" horiz-adv-x="454" 
d="M156 -348v1081h143v-1081h-143zM156 946v189h143v-189h-143z" />
    <glyph glyph-name="cent" unicode="&#xa2;" horiz-adv-x="1138" 
d="M432 137l209 791q-18 2 -59 2q-43 0 -70.5 -2t-55 -9t-43 -18t-30.5 -33.5t-22 -50.5t-12.5 -72.5t-7 -96.5t-1.5 -126q0 -199 17.5 -279.5t74.5 -105.5zM332 -244l65 246q-39 9 -68 24.5t-50.5 36.5t-36 54.5t-23.5 69.5t-14 91t-6.5 110t-1.5 134q0 89 2 148t9 118
t18 95t31.5 70t48 52t68 32t90.5 19t118 5q34 0 92 -4l61 231h94l-65 -250q92 -27 126 -105t34 -237h-119q0 89 -16 137t-60 72l-205 -788q16 -2 58 -2q140 0 184.5 51.5t44.5 212.5h131v-68q0 -70 -10 -122t-32 -88t-50.5 -59t-71.5 -35.5t-88.5 -17.5t-107.5 -5
q-43 0 -93 4l-61 -232h-96z" />
    <glyph glyph-name="sterling" unicode="&#xa3;" horiz-adv-x="1138" 
d="M90 598v131h158q-17 357 -17 447q0 87 19.5 146t65.5 99.5t122.5 59t190.5 18.5q207 0 294 -73t87 -257v-106h-119q0 64 -3 104.5t-14 76.5t-28.5 55t-49.5 33.5t-74 19t-104 4.5q-80 0 -129 -10t-74 -34.5t-32.5 -54.5t-7.5 -81q0 -127 14 -447h436v-131h-430
q8 -125 8 -236q0 -86 -15.5 -139t-57.5 -76v-4h694v-143h-934v143q98 9 134 52.5t36 160.5q0 116 -6 242h-164z" />
    <glyph glyph-name="currency" unicode="&#xa4;" horiz-adv-x="1138" 
d="M61 313l113 113q-113 135 -113 315q0 179 113 318l-113 110l82 84l113 -112q136 108 313 108q178 0 314 -108l112 112l82 -84l-112 -110q112 -138 112 -318q0 -181 -112 -315l112 -113l-82 -84l-112 115q-136 -111 -314 -111q-177 0 -313 111l-113 -115zM193 741
q0 -166 110.5 -277.5t265.5 -111.5t266 111.5t111 277.5t-111 277.5t-266 111.5q-162 0 -269 -110.5t-107 -278.5z" />
    <glyph glyph-name="yen" unicode="&#xa5;" horiz-adv-x="1138" 
d="M504 0v338h-371v106h371v172l-8 17h-363v106h311l-403 744h143l385 -721l385 721h144l-398 -744h306v-106h-363l-8 -17v-172h371v-106h-371v-338h-131z" />
    <glyph glyph-name="brokenbar" unicode="&#xa6;" horiz-adv-x="454" 
d="M168 -16v567h119v-567h-119zM168 932v567h119v-567h-119z" />
    <glyph glyph-name="section" unicode="&#xa7;" horiz-adv-x="1062" 
d="M180 246v65h131q0 -39 0.5 -57.5t3.5 -44t8 -35.5t16 -24t25.5 -18t39 -9.5t53.5 -6.5t71 -1q123 0 166 29.5t43 111.5q0 39 -22 64.5t-79 55.5t-194 89q-187 81 -253 152.5t-66 189.5q0 72 37.5 139t97.5 109q-39 48 -51 86.5t-12 99.5q0 65 17 112.5t45 75t72 43.5
t88.5 21.5t104.5 5.5q185 0 255.5 -60.5t70.5 -207.5v-47h-131q0 60 -9 95.5t-33.5 55.5t-59.5 26.5t-97 6.5q-36 0 -59.5 -1.5t-51.5 -9t-43.5 -21.5t-26.5 -39.5t-11 -61.5q0 -43 16 -70.5t74 -63.5t176 -85q85 -35 141 -65.5t107 -72.5t75.5 -94.5t24.5 -117.5
q0 -42 -8.5 -75.5t-30 -64.5t-37 -48.5t-49.5 -51.5l-12 -12q35 -28 50 -75.5t15 -94.5q0 -77 -22.5 -129.5t-67.5 -80t-101 -39t-134 -11.5q-208 0 -285.5 55t-77.5 207zM385 645l336 -158q51 47 69.5 80t18.5 84q0 67 -37.5 109.5t-155.5 97.5l-270 127q-40 -20 -66 -61.5
t-26 -98.5q0 -63 28 -103.5t103 -76.5z" />
    <glyph glyph-name="dieresis" unicode="&#xa8;" horiz-adv-x="417" 
d="M-18 1188v174h131v-174h-131zM305 1188v174h131v-174h-131z" />
    <glyph glyph-name="copyright" unicode="&#xa9;" horiz-adv-x="1638" 
d="M1104 586h117q-31 -150 -132 -239t-245 -89q-203 0 -327 137.5t-124 345.5q0 212 119.5 347t325.5 135q153 0 258 -85t125 -237h-117q-20 93 -90 154t-174 61q-153 0 -240.5 -107t-87.5 -266q0 -153 92 -265.5t240 -112.5q104 0 174 63t86 158zM61 741q0 154 60 294.5
t161.5 242t242 161.5t294.5 60t294.5 -60t242 -161.5t161.5 -242t60 -294.5t-60 -294t-161.5 -241.5t-242 -161.5t-294.5 -60t-294.5 60t-242 161.5t-161.5 241.5t-60 294zM168 741q0 -133 51.5 -253.5t138.5 -207.5t207.5 -138.5t253.5 -51.5t253.5 51.5t207.5 138.5
t138.5 207.5t51.5 253.5q0 177 -87 327t-237 237.5t-327 87.5t-327 -87.5t-237 -237.5t-87 -327z" />
    <glyph glyph-name="ordfeminine" unicode="&#xaa;" horiz-adv-x="618" 
d="M469 852v51q-36 -36 -79.5 -49.5t-119.5 -13.5q-71 0 -116 12.5t-68 40t-31 60t-8 83.5t8 87t30.5 68.5t68.5 49t116 16.5q95 0 129.5 -11t49.5 -44h4v78q0 39 -4 59t-18 37t-42.5 23t-77.5 6t-77 -5t-40.5 -19t-15 -27t-2.5 -39h-106v39q0 26 3 42.5t16.5 38t38.5 34
t72.5 21.5t114.5 9q145 0 194.5 -42.5t49.5 -147.5v-457h-90zM154 1057q0 -63 36.5 -87t118.5 -24q80 0 116 24.5t36 86.5q0 59 -36 82.5t-116 23.5q-82 0 -118.5 -23t-36.5 -83z" />
    <glyph glyph-name="guillemotleft" unicode="&#xab;" horiz-adv-x="796" 
d="M549 174l-195 369l217 368h148l-215 -368l190 -369h-145zM272 174l-194 369l217 368h147l-215 -368l191 -369h-146z" />
    <glyph glyph-name="logicalnot" unicode="&#xac;" horiz-adv-x="1228" 
d="M96 662v118h1037v-559h-119v441h-918z" />
    <glyph glyph-name="uni00AD" unicode="&#xad;" horiz-adv-x="606" 
d="M78 483v119h450v-119h-450z" />
    <glyph glyph-name="registered" unicode="&#xae;" horiz-adv-x="1638" 
d="M61 741q0 154 60 294.5t161.5 242t242 161.5t294.5 60t294.5 -60t242 -161.5t161.5 -242t60 -294.5t-60 -294t-161.5 -241.5t-242 -161.5t-294.5 -60t-294.5 60t-242 161.5t-161.5 241.5t-60 294zM168 741q0 -133 51.5 -253.5t138.5 -207.5t207.5 -138.5t253.5 -51.5
t253.5 51.5t207.5 138.5t138.5 207.5t51.5 253.5q0 177 -87 327t-237 237.5t-327 87.5t-327 -87.5t-237 -237.5t-87 -327zM541 295v893h333q297 0 297 -250q0 -115 -61.5 -176t-157.5 -78l252 -389h-133l-242 387h-182v-387h-106zM647 1081v-293h166q38 0 63 1.5t57.5 6
t53 14.5t40 26.5t29 43t9.5 62.5q0 139 -207 139h-211z" />
    <glyph glyph-name="macron" unicode="&#xaf;" horiz-adv-x="417" 
d="M-92 1241v94h602v-94h-602z" />
    <glyph glyph-name="degree" unicode="&#xb0;" horiz-adv-x="819" 
d="M117 1206q0 122 85.5 207.5t207.5 85.5q121 0 206.5 -85.5t85.5 -207.5t-85.5 -207.5t-206.5 -85.5q-122 0 -207.5 85.5t-85.5 207.5zM211 1206q0 -83 58 -140.5t141 -57.5t140.5 57.5t57.5 140.5t-57.5 141t-140.5 58t-141 -58t-58 -141z" />
    <glyph glyph-name="plusminus" unicode="&#xb1;" horiz-adv-x="1228" 
d="M555 676v360h119v-360h459v-119h-459v-360h-119v360h-459v119h459zM96 0v119h1037v-119h-1037z" />
    <glyph glyph-name="twosuperior" unicode="&#xb2;" horiz-adv-x="739" 
d="M59 600v166q0 78 12.5 124.5t48.5 77.5t87.5 46.5t142.5 27.5q51 7 76.5 11.5t52.5 14.5t37 20.5t19.5 32.5t11.5 47.5t2 68.5q0 66 -12.5 96.5t-51 45t-120.5 14.5q-84 0 -122 -12.5t-51.5 -43t-13.5 -98.5v-39h-106v57q0 38 1.5 61t7.5 52t18 45.5t34 35t54.5 27.5
t80 15t109.5 6q87 0 139.5 -10.5t92 -42t55.5 -89t16 -151.5q0 -55 -4 -89t-18.5 -70.5t-42 -56.5t-76.5 -35t-121 -19q-63 -4 -104 -12t-66 -19t-38 -31.5t-16.5 -41.5t-3.5 -56v-69h486v-107h-617z" />
    <glyph glyph-name="threesuperior" unicode="&#xb3;" horiz-adv-x="739" 
d="M299 1004v94q62 0 95.5 1t66.5 7t47 15.5t26 29t14.5 45t2.5 66.5q0 36 -2 53t-10.5 35.5t-28 25.5t-52 12t-85.5 5q-43 0 -65.5 -1.5t-48.5 -8t-38 -20t-20 -37.5t-8 -60v-47h-119v75q0 47 8.5 81t28 56.5t42 36t59.5 20.5t70.5 9t84.5 2q73 0 124.5 -5.5t86.5 -19.5
t55.5 -30.5t31.5 -47t14 -60.5t3 -79q0 -90 -25 -138t-90 -66v-4q64 -15 91.5 -52.5t27.5 -144.5q0 -59 -2.5 -92.5t-13 -68t-29.5 -51.5t-54.5 -31.5t-85.5 -19.5t-124 -5q-103 0 -162.5 9t-97.5 36.5t-51 71.5t-13 120v62h119q0 -38 0.5 -57.5t3.5 -43.5t7.5 -35t14.5 -24
t23 -17.5t35 -9t47 -5.5t62 -1q47 0 76 2t52 9.5t34 16.5t18 30.5t8.5 43.5t1.5 62q0 29 -1 48.5t-7.5 36.5t-12 27t-23 18t-31 11.5t-46 5.5t-58.5 2.5t-77 0.5z" />
    <glyph glyph-name="acute" unicode="&#xb4;" horiz-adv-x="417" 
d="M80 1163l227 285h160l-283 -285h-104z" />
    <glyph glyph-name="mu" unicode="&#xb5;" 
d="M109 -365v1409h131v-716q0 -28 1 -48t5.5 -45t12.5 -42.5t23 -36t35.5 -29.5t51 -18t69.5 -7q131 0 201 63.5t70 219.5v659h131v-1044h-131v135h-4q-55 -88 -118.5 -119.5t-178.5 -31.5q-101 0 -168 61v-410h-131z" />
    <glyph glyph-name="paragraph" unicode="&#xb6;" horiz-adv-x="1228" 
d="M528 0v817q-163 0 -265.5 92.5t-102.5 229.5q0 171 98 257.5t277 86.5h444v-1483h-119v1376h-213v-1376h-119z" />
    <glyph glyph-name="periodcentered" unicode="&#xb7;" horiz-adv-x="569" 
d="M178 655q0 44 31.5 75.5t75.5 31.5t75 -31.5t31 -75.5t-31 -75t-75 -31t-75.5 31t-31.5 75z" />
    <glyph glyph-name="cedilla" unicode="&#xb8;" horiz-adv-x="417" 
d="M76 -170l123 170h80l-97 -123q8 1 21.5 4.5t25 5.5t21.5 2q71 0 119.5 -39t48.5 -108q0 -58 -37 -97.5t-87 -55t-108 -15.5q-89 0 -186 41l31 59q68 -30 131 -30q55 0 96 22.5t41 71.5q0 41 -30 61.5t-72 20.5t-88 -17z" />
    <glyph glyph-name="onesuperior" unicode="&#xb9;" horiz-adv-x="739" 
d="M360 600v789h-4l-182 -224l-78 56l221 262h175v-883h-132z" />
    <glyph glyph-name="ordmasculine" unicode="&#xba;" horiz-adv-x="618" 
d="M166 1167q0 -53 2 -87t8.5 -60t15 -39.5t27 -22t38 -10.5t52.5 -2q66 0 93 13.5t39 59t12 150.5q0 80 -4.5 122t-22.5 66.5t-42.5 30t-74.5 5.5q-40 0 -62 -4t-40 -15t-26 -37.5t-11.5 -64t-3.5 -101.5v-4zM47 1169q0 63 2 102t7.5 78.5t17.5 61t30 41t47 28.5t67 14
t91 5t91 -5t67 -14t47 -28.5t30 -41t17.5 -61t7.5 -78.5t2 -102q0 -73 -2.5 -116.5t-12 -85.5t-25.5 -62.5t-46.5 -37t-72 -22t-103.5 -5.5t-103.5 5.5t-72 22t-46.5 37t-25.5 62.5t-12 85.5t-2.5 116.5z" />
    <glyph glyph-name="guillemotright" unicode="&#xbb;" horiz-adv-x="796" 
d="M78 174l215 369l-191 368h146l194 -368l-217 -369h-147zM354 174l215 369l-190 368h145l195 -368l-217 -369h-148z" />
    <glyph glyph-name="onequarter" unicode="&#xbc;" horiz-adv-x="1708" 
d="M1446 293v508h-4l-367 -508h371zM969 186v136l405 561h191v-590h98v-107h-98v-186h-119v186h-477zM326 -16l907 1515h119l-908 -1515h-118zM309 600v789h-4l-182 -224l-78 56l221 262h174v-883h-131z" />
    <glyph glyph-name="onehalf" unicode="&#xbd;" horiz-adv-x="1708" 
d="M260 -16l907 1515h119l-907 -1515h-119zM309 600v789h-4l-182 -224l-78 56l221 262h174v-883h-131zM1042 0v166q0 78 12.5 124.5t48.5 77.5t87.5 46.5t142.5 27.5q51 7 76.5 11.5t52.5 14.5t37 20.5t19.5 32.5t11.5 47.5t2 68.5q0 66 -12.5 96.5t-51 45t-120.5 14.5
q-84 0 -122 -12.5t-51.5 -43t-13.5 -98.5v-39h-106v57q0 38 1.5 61t7.5 52t18 45.5t34 35t54.5 27.5t80 15t109.5 6q87 0 139.5 -10.5t92 -42t55.5 -89t16 -151.5q0 -55 -4 -89t-18.5 -70.5t-42 -56.5t-76.5 -35t-121 -19q-78 -4 -123.5 -14.5t-68.5 -32t-29 -45.5t-6 -68
v-70h485v-106h-617z" />
    <glyph glyph-name="threequarters" unicode="&#xbe;" horiz-adv-x="1708" 
d="M291 1004v94q62 0 95.5 1t66.5 7t47 15.5t26 29t14.5 45t2.5 66.5q0 36 -2 53t-10.5 35.5t-28 25.5t-52 12t-85.5 5q-36 0 -55.5 -1t-43.5 -4.5t-36.5 -11.5t-24.5 -22t-16.5 -36t-4.5 -52v-47h-118v75q0 56 14 94.5t36 60t62.5 33t79 14.5t100.5 3q73 0 124.5 -5.5
t87 -19.5t56 -30.5t31.5 -47t14 -60.5t3 -79q0 -90 -25 -138t-90 -66v-4q64 -15 91.5 -52.5t27.5 -144.5q0 -59 -2.5 -92.5t-13 -68t-29.5 -51.5t-54.5 -31.5t-85.5 -19.5t-124 -5q-103 0 -162.5 9t-97.5 36.5t-51 71.5t-13 120v62h119q0 -38 0.5 -57.5t3.5 -44t7 -35
t14.5 -23.5t23 -17t34.5 -9t47 -6t62 -1q70 0 105.5 4.5t56.5 25t25 48t4 86.5q0 29 -1 48.5t-7.5 36.5t-12 27t-23 18t-31 11.5t-46 5.5t-58.5 2.5t-77 0.5zM369 -16l907 1515h119l-908 -1515h-118zM1446 293v508h-4l-367 -508h371zM969 186v136l405 561h191v-590h98v-107
h-98v-186h-119v186h-477z" />
    <glyph glyph-name="questiondown" unicode="&#xbf;" horiz-adv-x="872" 
d="M438 631v102h144v-86q0 -49 -2 -76.5t-13.5 -57t-26.5 -46t-51 -40.5t-76.5 -43.5t-113.5 -51.5q-29 -13 -42.5 -20.5t-30 -23.5t-22.5 -34t-12.5 -52t-8 -78t-1.5 -112q0 -31 0.5 -48.5t2 -41.5t5 -36.5t10 -29.5t16 -25.5t23 -19t31.5 -15t41.5 -9.5t52.5 -6.5t66 -1.5
q50 0 79 1t60.5 6.5t47 13.5t31.5 26.5t22 39.5t12 59t7 79t1 105h131v-156q0 -63 -12 -113t-30 -83t-49.5 -56.5t-60.5 -36t-73 -19.5t-77.5 -8.5t-82.5 -1.5q-101 0 -171 16t-112 43.5t-65 77t-30 102.5t-7 134q0 90 4 153.5t16.5 110.5t26 75.5t42 52t53.5 37t71 32.5
q66 27 95.5 41t50.5 33t24.5 36.5t3.5 51.5zM438 946v189h144v-189h-144z" />
    <glyph glyph-name="Agrave" unicode="&#xc0;" horiz-adv-x="1175" 
d="M862 457l-264 882h-20l-265 -882h549zM1004 0l-97 313h-639l-96 -313h-149l464 1483h201l465 -1483h-149zM612 1550l-282 285h159l228 -285h-105z" />
    <glyph glyph-name="Aacute" unicode="&#xc1;" horiz-adv-x="1175" 
d="M862 457l-264 882h-20l-265 -882h549zM1004 0l-97 313h-639l-96 -313h-149l464 1483h201l465 -1483h-149zM459 1550l227 285h160l-283 -285h-104z" />
    <glyph glyph-name="Acircumflex" unicode="&#xc2;" horiz-adv-x="1175" 
d="M862 457l-264 882h-20l-265 -882h549zM1004 0l-97 313h-639l-96 -313h-149l464 1483h201l465 -1483h-149zM287 1550l231 285h139l232 -285h-133l-168 203l-170 -203h-131z" />
    <glyph glyph-name="Atilde" unicode="&#xc3;" horiz-adv-x="1175" 
d="M862 457l-264 882h-20l-265 -882h549zM1004 0l-97 313h-639l-96 -313h-149l464 1483h201l465 -1483h-149zM825 1784h82q-6 -76 -56 -136.5t-124 -60.5q-60 0 -152 47q-88 45 -135 45q-74 0 -90 -104h-82q6 77 56.5 138t124.5 61q63 0 151 -45q94 -48 135 -48
q39 0 61 29.5t29 73.5z" />
    <glyph glyph-name="Adieresis" unicode="&#xc4;" horiz-adv-x="1175" 
d="M862 457l-264 882h-20l-265 -882h549zM1004 0l-97 313h-639l-96 -313h-149l464 1483h201l465 -1483h-149zM360 1575v174h132v-174h-132zM684 1575v174h131v-174h-131z" />
    <glyph glyph-name="Aring" unicode="&#xc5;" horiz-adv-x="1175" 
d="M862 457l-264 882h-20l-265 -882h549zM1004 0l-97 313h-639l-96 -313h-149l464 1483h201l465 -1483h-149zM383 1753q0 85 60 145t145 60t145 -60t60 -145t-60 -145t-145 -60t-145 60t-60 145zM465 1753q0 -51 36 -87t87 -36t87 36t36 87t-36 87t-87 36t-87 -36t-36 -87z
" />
    <glyph glyph-name="AE" unicode="&#xc6;" horiz-adv-x="1744" 
d="M846 0v446h-522l-230 -446h-147l760 1483h933v-144h-651v-499h619v-144h-619v-553h647v-143h-790zM846 590v749h-66l-383 -749h449z" />
    <glyph glyph-name="Ccedilla" unicode="&#xc7;" horiz-adv-x="1175" 
d="M1087 494v-113q0 -121 -19.5 -195t-72.5 -120.5t-134.5 -63.5t-215.5 -18l-84 -107q8 1 21.5 4.5t25 5.5t21.5 2q71 0 119.5 -39t48.5 -108q0 -58 -37 -97.5t-87 -55t-108 -15.5q-89 0 -186 41l31 59q68 -30 131 -30q55 0 96 22.5t41 71.5q0 41 -30.5 61.5t-72.5 20.5
t-88 -17l-32 27l112 156q-108 3 -180.5 17t-130 46.5t-89 90t-47.5 143t-16 209.5v499q0 110 11 188.5t38.5 136t65.5 92.5t100.5 55.5t134 28t175.5 7.5q89 0 148.5 -5t115.5 -19t89 -40.5t58.5 -69.5t36 -105t10.5 -148v-106h-131v96q0 59 -6 99.5t-23.5 69t-39 45
t-62.5 26t-84 12t-112 2.5q-67 0 -113.5 -2.5t-88.5 -10t-67.5 -18.5t-47.5 -32.5t-33 -47t-19 -66.5t-10 -85.5t-2 -110.5v-483q0 -66 2 -110.5t10 -85.5t19 -66.5t33 -47t47.5 -32.5t67.5 -18.5t88.5 -10t113.5 -2.5q57 0 100 3t77 10.5t58 17.5t41 27.5t26.5 35.5
t15.5 47t7.5 57t1.5 70v99h131z" />
    <glyph glyph-name="Egrave" unicode="&#xc8;" horiz-adv-x="1024" 
d="M125 0v1483h795v-144h-652v-499h619v-144h-619v-553h647v-143h-790zM537 1550l-283 285h160l227 -285h-104z" />
    <glyph glyph-name="Eacute" unicode="&#xc9;" horiz-adv-x="1024" 
d="M125 0v1483h795v-144h-652v-499h619v-144h-619v-553h647v-143h-790zM383 1550l227 285h160l-283 -285h-104z" />
    <glyph glyph-name="Ecircumflex" unicode="&#xca;" horiz-adv-x="1024" 
d="M125 0v1483h795v-144h-652v-499h619v-144h-619v-553h647v-143h-790zM211 1550l231 285h140l231 -285h-133l-168 203l-170 -203h-131z" />
    <glyph glyph-name="Edieresis" unicode="&#xcb;" horiz-adv-x="1024" 
d="M125 0v1483h795v-144h-652v-499h619v-144h-619v-553h647v-143h-790zM285 1575v174h131v-174h-131zM608 1575v174h131v-174h-131z" />
    <glyph glyph-name="Igrave" unicode="&#xcc;" horiz-adv-x="454" 
d="M156 0v1483h143v-1483h-143zM252 1550l-283 285h160l227 -285h-104z" />
    <glyph glyph-name="Iacute" unicode="&#xcd;" horiz-adv-x="454" 
d="M156 0v1483h143v-1483h-143zM98 1550l228 285h159l-282 -285h-105z" />
    <glyph glyph-name="Icircumflex" unicode="&#xce;" horiz-adv-x="454" 
d="M156 0v1483h143v-1483h-143zM-74 1550l232 285h139l231 -285h-133l-168 203l-170 -203h-131z" />
    <glyph glyph-name="Idieresis" unicode="&#xcf;" horiz-adv-x="454" 
d="M156 0v1483h143v-1483h-143zM0 1575v174h131v-174h-131zM324 1575v174h131v-174h-131z" />
    <glyph glyph-name="Eth" unicode="&#xd0;" horiz-adv-x="1251" 
d="M125 0v709h-125v131h125v643h567q84 0 150.5 -13t113.5 -36t81.5 -59.5t55.5 -77.5t33 -97t16.5 -111t4.5 -126v-324q0 -195 -26 -319.5t-86.5 -195.5t-145.5 -97.5t-217 -26.5h-547zM268 1339v-499h367v-131h-367v-566h449q73 0 121.5 18t82 56t51 111t25 169t7.5 244
q0 128 -4 214t-16.5 157t-32 111.5t-53 68t-76 37.5t-105.5 10h-449z" />
    <glyph glyph-name="Ntilde" unicode="&#xd1;" horiz-adv-x="1290" 
d="M125 0v1483h227l666 -1327h4v1327h143v-1483h-227l-666 1327h-4v-1327h-143zM883 1784h82q-6 -76 -56.5 -136.5t-124.5 -60.5q-59 0 -151 47q-88 45 -135 45q-74 0 -90 -104h-82q6 78 56 138.5t124 60.5q63 0 151 -45q94 -48 136 -48q39 0 61 29.5t29 73.5z" />
    <glyph glyph-name="Ograve" unicode="&#xd2;" horiz-adv-x="1253" 
d="M1006 500v483q0 66 -2 110.5t-10 85.5t-19 66.5t-33 47t-47.5 32.5t-67 18.5t-87.5 10t-113 2.5t-113 -2.5t-87.5 -10t-67 -18.5t-47.5 -32.5t-33 -47t-19 -66.5t-10 -85.5t-2 -110.5v-483q0 -66 2 -110.5t10 -85.5t19 -66.5t33 -47t47.5 -32.5t67 -18.5t87.5 -10
t113 -2.5t113 2.5t87.5 10t67 18.5t47.5 32.5t33 47t19 66.5t10 85.5t2 110.5zM104 492v499q0 110 11 188.5t38.5 136t65.5 92.5t100 55.5t133.5 28t174.5 7.5t174 -7.5t133.5 -28t100 -55.5t65 -92.5t38.5 -136t11 -188.5v-499q0 -110 -11 -188.5t-38.5 -136t-65 -92.5
t-100 -55.5t-133.5 -28t-174 -7.5t-174.5 7.5t-133.5 28t-100 55.5t-65.5 92.5t-38.5 136t-11 188.5zM651 1550l-282 285h159l228 -285h-105z" />
    <glyph glyph-name="Oacute" unicode="&#xd3;" horiz-adv-x="1253" 
d="M1006 500v483q0 66 -2 110.5t-10 85.5t-19 66.5t-33 47t-47.5 32.5t-67 18.5t-87.5 10t-113 2.5t-113 -2.5t-87.5 -10t-67 -18.5t-47.5 -32.5t-33 -47t-19 -66.5t-10 -85.5t-2 -110.5v-483q0 -66 2 -110.5t10 -85.5t19 -66.5t33 -47t47.5 -32.5t67 -18.5t87.5 -10
t113 -2.5t113 2.5t87.5 10t67 18.5t47.5 32.5t33 47t19 66.5t10 85.5t2 110.5zM104 492v499q0 110 11 188.5t38.5 136t65.5 92.5t100 55.5t133.5 28t174.5 7.5t174 -7.5t133.5 -28t100 -55.5t65 -92.5t38.5 -136t11 -188.5v-499q0 -110 -11 -188.5t-38.5 -136t-65 -92.5
t-100 -55.5t-133.5 -28t-174 -7.5t-174.5 7.5t-133.5 28t-100 55.5t-65.5 92.5t-38.5 136t-11 188.5zM498 1550l227 285h160l-283 -285h-104z" />
    <glyph glyph-name="Ocircumflex" unicode="&#xd4;" horiz-adv-x="1253" 
d="M1006 500v483q0 66 -2 110.5t-10 85.5t-19 66.5t-33 47t-47.5 32.5t-67 18.5t-87.5 10t-113 2.5t-113 -2.5t-87.5 -10t-67 -18.5t-47.5 -32.5t-33 -47t-19 -66.5t-10 -85.5t-2 -110.5v-483q0 -66 2 -110.5t10 -85.5t19 -66.5t33 -47t47.5 -32.5t67 -18.5t87.5 -10
t113 -2.5t113 2.5t87.5 10t67 18.5t47.5 32.5t33 47t19 66.5t10 85.5t2 110.5zM104 492v499q0 110 11 188.5t38.5 136t65.5 92.5t100 55.5t133.5 28t174.5 7.5t174 -7.5t133.5 -28t100 -55.5t65 -92.5t38.5 -136t11 -188.5v-499q0 -110 -11 -188.5t-38.5 -136t-65 -92.5
t-100 -55.5t-133.5 -28t-174 -7.5t-174.5 7.5t-133.5 28t-100 55.5t-65.5 92.5t-38.5 136t-11 188.5zM326 1550l231 285h139l232 -285h-133l-168 203l-170 -203h-131z" />
    <glyph glyph-name="Otilde" unicode="&#xd5;" horiz-adv-x="1253" 
d="M1006 500v483q0 66 -2 110.5t-10 85.5t-19 66.5t-33 47t-47.5 32.5t-67 18.5t-87.5 10t-113 2.5t-113 -2.5t-87.5 -10t-67 -18.5t-47.5 -32.5t-33 -47t-19 -66.5t-10 -85.5t-2 -110.5v-483q0 -66 2 -110.5t10 -85.5t19 -66.5t33 -47t47.5 -32.5t67 -18.5t87.5 -10
t113 -2.5t113 2.5t87.5 10t67 18.5t47.5 32.5t33 47t19 66.5t10 85.5t2 110.5zM104 492v499q0 110 11 188.5t38.5 136t65.5 92.5t100 55.5t133.5 28t174.5 7.5t174 -7.5t133.5 -28t100 -55.5t65 -92.5t38.5 -136t11 -188.5v-499q0 -110 -11 -188.5t-38.5 -136t-65 -92.5
t-100 -55.5t-133.5 -28t-174 -7.5t-174.5 7.5t-133.5 28t-100 55.5t-65.5 92.5t-38.5 136t-11 188.5zM864 1784h82q-6 -76 -56 -136.5t-124 -60.5q-60 0 -152 47q-88 45 -135 45q-74 0 -90 -104h-82q6 78 56 138.5t124 60.5q64 0 152 -45q94 -48 135 -48q39 0 61 29.5
t29 73.5z" />
    <glyph glyph-name="Odieresis" unicode="&#xd6;" horiz-adv-x="1253" 
d="M1006 500v483q0 66 -2 110.5t-10 85.5t-19 66.5t-33 47t-47.5 32.5t-67 18.5t-87.5 10t-113 2.5t-113 -2.5t-87.5 -10t-67 -18.5t-47.5 -32.5t-33 -47t-19 -66.5t-10 -85.5t-2 -110.5v-483q0 -66 2 -110.5t10 -85.5t19 -66.5t33 -47t47.5 -32.5t67 -18.5t87.5 -10
t113 -2.5t113 2.5t87.5 10t67 18.5t47.5 32.5t33 47t19 66.5t10 85.5t2 110.5zM104 492v499q0 110 11 188.5t38.5 136t65.5 92.5t100 55.5t133.5 28t174.5 7.5t174 -7.5t133.5 -28t100 -55.5t65 -92.5t38.5 -136t11 -188.5v-499q0 -110 -11 -188.5t-38.5 -136t-65 -92.5
t-100 -55.5t-133.5 -28t-174 -7.5t-174.5 7.5t-133.5 28t-100 55.5t-65.5 92.5t-38.5 136t-11 188.5zM399 1575v174h131v-174h-131zM723 1575v174h131v-174h-131z" />
    <glyph glyph-name="multiply" unicode="&#xd7;" horiz-adv-x="1228" 
d="M1053 158l-72 -72l-367 365l-366 -365l-72 72l365 366l-365 367l72 74l366 -367l367 367l72 -74l-365 -367z" />
    <glyph glyph-name="Oslash" unicode="&#xd8;" horiz-adv-x="1253" 
d="M983 1219l-651 -1045q40 -28 108 -37.5t187 -9.5q67 0 113 2.5t87.5 10t67 18.5t47.5 32.5t33 47t19 66.5t10 85.5t2 110.5v483q0 171 -23 236zM272 266l648 1043q-40 28 -107.5 37.5t-185.5 9.5q-67 0 -113 -2.5t-87.5 -10t-67 -18.5t-47.5 -32.5t-33 -47t-19 -66.5
t-10 -85.5t-2 -110.5v-483q0 -170 24 -234zM164 -98l-86 51l102 166q-76 109 -76 373v499q0 110 11 188.5t38.5 136t65.5 92.5t100 55.5t133.5 28t174.5 7.5q135 0 222 -13.5t148 -51.5l93 147l86 -51l-103 -166q76 -109 76 -373v-499q0 -110 -11 -188.5t-38.5 -136
t-65 -92.5t-100 -55.5t-133.5 -28t-174 -7.5q-134 0 -223.5 14.5t-149.5 50.5z" />
    <glyph glyph-name="Ugrave" unicode="&#xd9;" horiz-adv-x="1216" 
d="M125 379v1104h143v-1147q0 -120 71 -164.5t267 -44.5q199 0 270.5 44t71.5 165v1147h144v-1104q0 -120 -25.5 -196t-86.5 -120.5t-148.5 -61.5t-225.5 -17q-135 0 -222 17t-147.5 61.5t-86 121t-25.5 195.5zM633 1550l-283 285h160l227 -285h-104z" />
    <glyph glyph-name="Uacute" unicode="&#xda;" horiz-adv-x="1216" 
d="M125 379v1104h143v-1147q0 -120 71 -164.5t267 -44.5q199 0 270.5 44t71.5 165v1147h144v-1104q0 -120 -25.5 -196t-86.5 -120.5t-148.5 -61.5t-225.5 -17q-135 0 -222 17t-147.5 61.5t-86 121t-25.5 195.5zM479 1550l228 285h159l-282 -285h-105z" />
    <glyph glyph-name="Ucircumflex" unicode="&#xdb;" horiz-adv-x="1216" 
d="M125 379v1104h143v-1147q0 -120 71 -164.5t267 -44.5q199 0 270.5 44t71.5 165v1147h144v-1104q0 -120 -25.5 -196t-86.5 -120.5t-148.5 -61.5t-225.5 -17q-135 0 -222 17t-147.5 61.5t-86 121t-25.5 195.5zM307 1550l232 285h139l231 -285h-133l-168 203l-170 -203h-131
z" />
    <glyph glyph-name="Udieresis" unicode="&#xdc;" horiz-adv-x="1216" 
d="M125 379v1104h143v-1147q0 -120 71 -164.5t267 -44.5q199 0 270.5 44t71.5 165v1147h144v-1104q0 -120 -25.5 -196t-86.5 -120.5t-148.5 -61.5t-225.5 -17q-135 0 -222 17t-147.5 61.5t-86 121t-25.5 195.5zM381 1575v174h131v-174h-131zM705 1575v174h131v-174h-131z
" />
    <glyph glyph-name="Yacute" unicode="&#xdd;" horiz-adv-x="1064" 
d="M461 0v616l-463 867h149l385 -721l386 721h149l-463 -867v-616h-143zM403 1550l228 285h160l-283 -285h-105z" />
    <glyph glyph-name="Thorn" unicode="&#xde;" horiz-adv-x="1099" 
d="M268 1126v-618h416q90 0 136.5 25t68.5 91t22 193q0 83 -6.5 137t-19 89t-38.5 52.5t-57.5 24t-82.5 6.5h-439zM125 0v1483h143v-213h480q75 0 129.5 -22t88.5 -59t54 -96.5t27.5 -124.5t7.5 -151q0 -97 -12 -170.5t-37.5 -122.5t-57 -81t-78 -49t-93 -23t-109.5 -6h-400
v-365h-143z" />
    <glyph glyph-name="germandbls" unicode="&#xdf;" 
d="M362 739v119q141 0 206 67t65 216q0 118 -53 172.5t-146 54.5q-98 0 -146 -44t-48 -144v-1180h-131v1159q0 83 17 144t45 98t72 59.5t91 30.5t108 8q82 0 142.5 -22t94.5 -55t53.5 -84t25.5 -97.5t6 -107.5q0 -82 -15 -141.5t-56 -106t-109 -66.5v-4q136 -22 196 -108
t60 -277q0 -446 -338 -446q-94 0 -146 28v148q24 -20 65 -32.5t77 -12.5q48 0 83 14t57 39t35 63.5t18 82t5 100.5q0 73 -6.5 123.5t-25 86.5t-41 57t-64.5 33.5t-85 17.5t-112 7z" />
    <glyph glyph-name="agrave" unicode="&#xe0;" 
d="M721 0v90q-56 -61 -122 -83.5t-183 -22.5q-97 0 -162.5 22t-100.5 67t-49 101.5t-14 136.5q0 84 12 139t46 100.5t100 67t168 21.5q100 0 154.5 -9t82 -27.5t52.5 -57.5h4v190q0 65 -5.5 98.5t-29 61.5t-69.5 37.5t-128 9.5q-46 0 -80 -4t-57.5 -9t-39 -18.5t-24 -25
t-12.5 -35t-5 -41.5t-1 -53h-131v55q0 44 5.5 75.5t26.5 67t58 57t104.5 36t161.5 14.5q108 0 178 -17t109.5 -56t54.5 -91.5t15 -132.5v-764h-119zM221 317q0 -116 57.5 -159t192.5 -43t192.5 43t57.5 159t-57.5 159.5t-192.5 43.5t-192.5 -43.5t-57.5 -159.5zM500 1163
l-283 285h160l227 -285h-104z" />
    <glyph glyph-name="aacute" unicode="&#xe1;" 
d="M721 0v90q-56 -61 -122 -83.5t-183 -22.5q-97 0 -162.5 22t-100.5 67t-49 101.5t-14 136.5q0 84 12 139t46 100.5t100 67t168 21.5q100 0 154.5 -9t82 -27.5t52.5 -57.5h4v190q0 65 -5.5 98.5t-29 61.5t-69.5 37.5t-128 9.5q-46 0 -80 -4t-57.5 -9t-39 -18.5t-24 -25
t-12.5 -35t-5 -41.5t-1 -53h-131v55q0 44 5.5 75.5t26.5 67t58 57t104.5 36t161.5 14.5q108 0 178 -17t109.5 -56t54.5 -91.5t15 -132.5v-764h-119zM221 317q0 -116 57.5 -159t192.5 -43t192.5 43t57.5 159t-57.5 159.5t-192.5 43.5t-192.5 -43.5t-57.5 -159.5zM346 1163
l227 285h160l-282 -285h-105z" />
    <glyph glyph-name="acircumflex" unicode="&#xe2;" 
d="M721 0v90q-56 -61 -122 -83.5t-183 -22.5q-97 0 -162.5 22t-100.5 67t-49 101.5t-14 136.5q0 84 12 139t46 100.5t100 67t168 21.5q100 0 154.5 -9t82 -27.5t52.5 -57.5h4v190q0 65 -5.5 98.5t-29 61.5t-69.5 37.5t-128 9.5q-46 0 -80 -4t-57.5 -9t-39 -18.5t-24 -25
t-12.5 -35t-5 -41.5t-1 -53h-131v55q0 44 5.5 75.5t26.5 67t58 57t104.5 36t161.5 14.5q108 0 178 -17t109.5 -56t54.5 -91.5t15 -132.5v-764h-119zM221 317q0 -116 57.5 -159t192.5 -43t192.5 43t57.5 159t-57.5 159.5t-192.5 43.5t-192.5 -43.5t-57.5 -159.5zM174 1163
l232 285h139l231 -285h-133l-168 203l-170 -203h-131z" />
    <glyph glyph-name="atilde" unicode="&#xe3;" 
d="M721 0v90q-56 -61 -122 -83.5t-183 -22.5q-97 0 -162.5 22t-100.5 67t-49 101.5t-14 136.5q0 84 12 139t46 100.5t100 67t168 21.5q100 0 154.5 -9t82 -27.5t52.5 -57.5h4v190q0 65 -5.5 98.5t-29 61.5t-69.5 37.5t-128 9.5q-46 0 -80 -4t-57.5 -9t-39 -18.5t-24 -25
t-12.5 -35t-5 -41.5t-1 -53h-131v55q0 44 5.5 75.5t26.5 67t58 57t104.5 36t161.5 14.5q108 0 178 -17t109.5 -56t54.5 -91.5t15 -132.5v-764h-119zM221 317q0 -116 57.5 -159t192.5 -43t192.5 43t57.5 159t-57.5 159.5t-192.5 43.5t-192.5 -43.5t-57.5 -159.5zM713 1397h82
q-6 -76 -56.5 -136.5t-124.5 -60.5q-59 0 -151 47q-88 45 -135 45q-74 0 -90 -104h-82q6 77 56 137.5t124 60.5q63 0 151 -45q92 -47 136 -47q39 0 61 29.5t29 73.5z" />
    <glyph glyph-name="adieresis" unicode="&#xe4;" 
d="M721 0v90q-56 -61 -122 -83.5t-183 -22.5q-97 0 -162.5 22t-100.5 67t-49 101.5t-14 136.5q0 84 12 139t46 100.5t100 67t168 21.5q100 0 154.5 -9t82 -27.5t52.5 -57.5h4v190q0 65 -5.5 98.5t-29 61.5t-69.5 37.5t-128 9.5q-46 0 -80 -4t-57.5 -9t-39 -18.5t-24 -25
t-12.5 -35t-5 -41.5t-1 -53h-131v55q0 44 5.5 75.5t26.5 67t58 57t104.5 36t161.5 14.5q108 0 178 -17t109.5 -56t54.5 -91.5t15 -132.5v-764h-119zM221 317q0 -116 57.5 -159t192.5 -43t192.5 43t57.5 159t-57.5 159.5t-192.5 43.5t-192.5 -43.5t-57.5 -159.5zM248 1188
v174h131v-174h-131zM571 1188v174h131v-174h-131z" />
    <glyph glyph-name="aring" unicode="&#xe5;" 
d="M721 0v90q-56 -61 -122 -83.5t-183 -22.5q-97 0 -162.5 22t-100.5 67t-49 101.5t-14 136.5q0 84 12 139t46 100.5t100 67t168 21.5q100 0 154.5 -9t82 -27.5t52.5 -57.5h4v190q0 65 -5.5 98.5t-29 61.5t-69.5 37.5t-128 9.5q-46 0 -80 -4t-57.5 -9t-39 -18.5t-24 -25
t-12.5 -35t-5 -41.5t-1 -53h-131v55q0 44 5.5 75.5t26.5 67t58 57t104.5 36t161.5 14.5q108 0 178 -17t109.5 -56t54.5 -91.5t15 -132.5v-764h-119zM221 317q0 -116 57.5 -159t192.5 -43t192.5 43t57.5 159t-57.5 159.5t-192.5 43.5t-192.5 -43.5t-57.5 -159.5zM270 1366
q0 85 60 145t145 60t145 -60t60 -145t-60 -145t-145 -60t-145 60t-60 145zM352 1366q0 -51 36 -87t87 -36t87 36t36 87t-36 87t-87 36t-87 -36t-36 -87z" />
    <glyph glyph-name="ae" unicode="&#xe6;" horiz-adv-x="1554" 
d="M90 311q0 84 12 139t46 100.5t100 67t168 21.5q100 0 154.5 -9t82 -27.5t52.5 -57.5h4v190q0 65 -5.5 98.5t-29 61.5t-69.5 37.5t-128 9.5q-46 0 -80 -4t-57.5 -9t-39 -18.5t-24 -25t-12.5 -35t-5 -41.5t-1 -53h-131v55q0 44 5.5 75.5t26.5 67t58 57t104.5 36t161.5 14.5
q122 0 186 -18.5t105 -75.5q55 53 123 73.5t184 20.5t188.5 -23t111.5 -77.5t52 -125.5t13 -186v-157h-606v-97q0 -173 43 -233t176 -60q38 0 59 0.5t48.5 2t41 4t32 8t27 13t19 19.5t14.5 26.5t8.5 35t5.5 44.5t1 56h131v-39q0 -84 -13 -134t-52 -87.5t-110.5 -52
t-189.5 -14.5q-137 0 -211 28.5t-116 112.5q-34 -41 -64 -67t-56 -41t-62.5 -22t-67.5 -9t-88 -2q-97 0 -162.5 22t-100.5 67t-49 101.5t-14 136.5zM221 317q0 -116 57.5 -159t192.5 -43t192.5 43t57.5 159t-57.5 159.5t-192.5 43.5t-192.5 -43.5t-57.5 -159.5zM840 623h475
q0 44 -0.5 69.5t-2.5 59.5t-7 52.5t-13 42t-20 35.5t-29.5 26t-41.5 20t-54.5 10t-69.5 4q-35 0 -63.5 -2.5t-51 -10t-39.5 -14.5t-30 -22t-22 -27t-15 -35.5t-9 -40.5t-4.5 -49t-2 -55t-0.5 -63z" />
    <glyph glyph-name="ccedilla" unicode="&#xe7;" horiz-adv-x="909" 
d="M817 696h-131q0 145 -41.5 195.5t-169.5 50.5q-43 0 -70.5 -2t-55 -9.5t-43 -18.5t-30.5 -34t-22 -51.5t-12.5 -75t-7 -99.5t-1.5 -130t1.5 -130t7 -99.5t12.5 -75t22 -51.5t30.5 -34t43 -18.5t55 -9.5t70.5 -2q141 0 185.5 54t44.5 223h131v-68q0 -95 -20 -158
t-63.5 -99t-100.5 -51t-140 -17l-84 -109q8 1 21.5 4.5t25 5.5t21.5 2q71 0 119.5 -39t48.5 -108q0 -58 -37 -97.5t-87 -55t-108 -15.5q-89 0 -186 41l30 59q68 -30 132 -30q55 0 96 22.5t41 71.5q0 41 -30.5 61.5t-72.5 20.5t-88 -17l-32 27l112 156q-59 2 -103 8.5t-80 22
t-61 35t-43 53.5t-29 70.5t-17.5 93t-8.5 114t-2 139.5q0 112 6.5 190t23.5 141t44 101t71.5 63t101.5 34.5t138 9.5q108 0 173.5 -17.5t103.5 -62.5t51.5 -110.5t13.5 -174.5z" />
    <glyph glyph-name="egrave" unicode="&#xe8;" 
d="M233 623h476q0 44 -0.5 69.5t-2.5 59.5t-7 52.5t-13 42t-20 35.5t-29.5 26t-41.5 20t-54.5 10t-69.5 4t-69.5 -4t-54.5 -10t-41.5 -20t-29.5 -26t-20 -35.5t-13 -42t-7 -52.5t-2.5 -59.5t-0.5 -69.5zM840 492h-607v-97q0 -173 43.5 -233t176.5 -60q38 0 59 0.5t48.5 2
t41 4t32 8t27 13t19 19.5t14.5 26.5t8.5 35t5.5 44.5t1 56h131v-39q0 -84 -13 -134t-52 -87.5t-110.5 -52t-189.5 -14.5q-66 0 -115.5 5.5t-89.5 19.5t-68 33t-48.5 52.5t-32.5 70.5t-19 94.5t-9.5 117t-2.5 145.5q0 112 6.5 190t23.5 141t44 101t71.5 63t101.5 34.5
t138 9.5q116 0 188.5 -23t111.5 -77.5t52 -125.5t13 -186v-157zM500 1163l-283 285h160l227 -285h-104z" />
    <glyph glyph-name="eacute" unicode="&#xe9;" 
d="M233 623h476q0 44 -0.5 69.5t-2.5 59.5t-7 52.5t-13 42t-20 35.5t-29.5 26t-41.5 20t-54.5 10t-69.5 4t-69.5 -4t-54.5 -10t-41.5 -20t-29.5 -26t-20 -35.5t-13 -42t-7 -52.5t-2.5 -59.5t-0.5 -69.5zM840 492h-607v-97q0 -173 43.5 -233t176.5 -60q38 0 59 0.5t48.5 2
t41 4t32 8t27 13t19 19.5t14.5 26.5t8.5 35t5.5 44.5t1 56h131v-39q0 -84 -13 -134t-52 -87.5t-110.5 -52t-189.5 -14.5q-66 0 -115.5 5.5t-89.5 19.5t-68 33t-48.5 52.5t-32.5 70.5t-19 94.5t-9.5 117t-2.5 145.5q0 112 6.5 190t23.5 141t44 101t71.5 63t101.5 34.5
t138 9.5q116 0 188.5 -23t111.5 -77.5t52 -125.5t13 -186v-157zM346 1163l227 285h160l-282 -285h-105z" />
    <glyph glyph-name="ecircumflex" unicode="&#xea;" 
d="M233 623h476q0 44 -0.5 69.5t-2.5 59.5t-7 52.5t-13 42t-20 35.5t-29.5 26t-41.5 20t-54.5 10t-69.5 4t-69.5 -4t-54.5 -10t-41.5 -20t-29.5 -26t-20 -35.5t-13 -42t-7 -52.5t-2.5 -59.5t-0.5 -69.5zM840 492h-607v-97q0 -173 43.5 -233t176.5 -60q38 0 59 0.5t48.5 2
t41 4t32 8t27 13t19 19.5t14.5 26.5t8.5 35t5.5 44.5t1 56h131v-39q0 -84 -13 -134t-52 -87.5t-110.5 -52t-189.5 -14.5q-66 0 -115.5 5.5t-89.5 19.5t-68 33t-48.5 52.5t-32.5 70.5t-19 94.5t-9.5 117t-2.5 145.5q0 112 6.5 190t23.5 141t44 101t71.5 63t101.5 34.5
t138 9.5q116 0 188.5 -23t111.5 -77.5t52 -125.5t13 -186v-157zM174 1163l232 285h139l231 -285h-133l-168 203l-170 -203h-131z" />
    <glyph glyph-name="edieresis" unicode="&#xeb;" 
d="M233 623h476q0 44 -0.5 69.5t-2.5 59.5t-7 52.5t-13 42t-20 35.5t-29.5 26t-41.5 20t-54.5 10t-69.5 4t-69.5 -4t-54.5 -10t-41.5 -20t-29.5 -26t-20 -35.5t-13 -42t-7 -52.5t-2.5 -59.5t-0.5 -69.5zM840 492h-607v-97q0 -173 43.5 -233t176.5 -60q38 0 59 0.5t48.5 2
t41 4t32 8t27 13t19 19.5t14.5 26.5t8.5 35t5.5 44.5t1 56h131v-39q0 -84 -13 -134t-52 -87.5t-110.5 -52t-189.5 -14.5q-66 0 -115.5 5.5t-89.5 19.5t-68 33t-48.5 52.5t-32.5 70.5t-19 94.5t-9.5 117t-2.5 145.5q0 112 6.5 190t23.5 141t44 101t71.5 63t101.5 34.5
t138 9.5q116 0 188.5 -23t111.5 -77.5t52 -125.5t13 -186v-157zM248 1188v174h131v-174h-131zM571 1188v174h131v-174h-131z" />
    <glyph glyph-name="igrave" unicode="&#xec;" horiz-adv-x="417" 
d="M143 0v1044h131v-1044h-131zM233 1163l-282 285h160l227 -285h-105z" />
    <glyph glyph-name="iacute" unicode="&#xed;" horiz-adv-x="417" 
d="M143 0v1044h131v-1044h-131zM80 1163l227 285h160l-283 -285h-104z" />
    <glyph glyph-name="icircumflex" unicode="&#xee;" horiz-adv-x="417" 
d="M143 0v1044h131v-1044h-131zM-92 1163l231 285h140l231 -285h-133l-168 203l-170 -203h-131z" />
    <glyph glyph-name="idieresis" unicode="&#xef;" horiz-adv-x="417" 
d="M143 0v1044h131v-1044h-131zM-18 1188v174h131v-174h-131zM305 1188v174h131v-174h-131z" />
    <glyph glyph-name="eth" unicode="&#xf0;" horiz-adv-x="950" 
d="M266 1155l-69 74l215 108q-96 58 -215 74l53 111q183 -32 297 -117l229 117l70 -74l-215 -109q47 -41 83.5 -92t60.5 -100.5t40.5 -116.5t25 -118.5t13 -129.5t5.5 -127.5t1 -132.5q0 -89 -2 -148t-9 -118t-18 -94.5t-31.5 -69.5t-48 -52t-68 -32t-90.5 -19t-118 -5
q-54 0 -96.5 3t-78.5 11.5t-63 19.5t-49.5 30.5t-37.5 40.5t-26 54t-17.5 66.5t-10.5 83t-5 97.5t-1 116q0 112 4.5 184t19 135.5t38.5 98.5t66.5 60.5t99.5 34.5t141 9q100 0 154 -24t100 -86l4 4q-66 240 -207 356zM233 506q0 -74 1.5 -125t7 -95.5t12.5 -71.5t22 -49.5
t30.5 -33.5t43 -18t55 -9t70.5 -2t70.5 2t55 9t43 18t30.5 33.5t22 49.5t12.5 71.5t7 95.5t1.5 125t-1.5 125t-7 95t-12.5 71.5t-22 49.5t-30.5 33t-43 18t-55 9t-70.5 2t-70.5 -2t-55 -9t-43 -18t-30.5 -33t-22 -49.5t-12.5 -71.5t-7 -95t-1.5 -125z" />
    <glyph glyph-name="ntilde" unicode="&#xf1;" 
d="M109 0v1044h131v-135h4q50 85 112.5 118.5t175.5 33.5q173 0 240.5 -80.5t67.5 -243.5v-737h-131v707q0 40 -4 71t-16.5 63.5t-34 53t-58 34t-86.5 13.5q-130 0 -200 -63.5t-70 -219.5v-659h-131zM713 1397h82q-6 -76 -56.5 -136.5t-124.5 -60.5q-59 0 -151 47
q-88 45 -135 45q-74 0 -90 -104h-82q6 77 56 137.5t124 60.5q63 0 151 -45q92 -47 136 -47q39 0 61 29.5t29 73.5z" />
    <glyph glyph-name="ograve" unicode="&#xf2;" horiz-adv-x="950" 
d="M233 522q0 -77 1.5 -130t7 -99.5t12.5 -75t22 -51.5t30.5 -34t43 -18.5t55 -9.5t70.5 -2t70.5 2t55 9.5t43 18.5t30.5 34t22 51.5t12.5 75t7 99.5t1.5 130t-1.5 130t-7 99.5t-12.5 75t-22 51.5t-30.5 34t-43 18.5t-55 9.5t-70.5 2t-70.5 -2t-55 -9.5t-43 -18.5t-30.5 -34
t-22 -51.5t-12.5 -75t-7 -99.5t-1.5 -130zM90 522q0 84 2.5 143t9.5 116.5t19 94.5t32.5 71t48.5 53.5t68 34.5t89.5 20.5t115.5 5.5t115.5 -5.5t89.5 -20.5t68 -34.5t48.5 -53.5t32.5 -71t19 -94.5t9.5 -116.5t2.5 -143q0 -69 -1.5 -120.5t-6 -101t-11.5 -85t-19 -69
t-27 -55.5t-37.5 -41.5t-49.5 -31t-62.5 -20t-77 -11.5t-93.5 -3t-93.5 3t-77 11.5t-62.5 20t-49.5 31t-37.5 41.5t-27 55.5t-19 69t-11.5 85t-6 101t-1.5 120.5zM500 1163l-283 285h160l227 -285h-104z" />
    <glyph glyph-name="oacute" unicode="&#xf3;" horiz-adv-x="950" 
d="M233 522q0 -77 1.5 -130t7 -99.5t12.5 -75t22 -51.5t30.5 -34t43 -18.5t55 -9.5t70.5 -2t70.5 2t55 9.5t43 18.5t30.5 34t22 51.5t12.5 75t7 99.5t1.5 130t-1.5 130t-7 99.5t-12.5 75t-22 51.5t-30.5 34t-43 18.5t-55 9.5t-70.5 2t-70.5 -2t-55 -9.5t-43 -18.5t-30.5 -34
t-22 -51.5t-12.5 -75t-7 -99.5t-1.5 -130zM90 522q0 84 2.5 143t9.5 116.5t19 94.5t32.5 71t48.5 53.5t68 34.5t89.5 20.5t115.5 5.5t115.5 -5.5t89.5 -20.5t68 -34.5t48.5 -53.5t32.5 -71t19 -94.5t9.5 -116.5t2.5 -143q0 -69 -1.5 -120.5t-6 -101t-11.5 -85t-19 -69
t-27 -55.5t-37.5 -41.5t-49.5 -31t-62.5 -20t-77 -11.5t-93.5 -3t-93.5 3t-77 11.5t-62.5 20t-49.5 31t-37.5 41.5t-27 55.5t-19 69t-11.5 85t-6 101t-1.5 120.5zM346 1163l227 285h160l-282 -285h-105z" />
    <glyph glyph-name="ocircumflex" unicode="&#xf4;" horiz-adv-x="950" 
d="M233 522q0 -77 1.5 -130t7 -99.5t12.5 -75t22 -51.5t30.5 -34t43 -18.5t55 -9.5t70.5 -2t70.5 2t55 9.5t43 18.5t30.5 34t22 51.5t12.5 75t7 99.5t1.5 130t-1.5 130t-7 99.5t-12.5 75t-22 51.5t-30.5 34t-43 18.5t-55 9.5t-70.5 2t-70.5 -2t-55 -9.5t-43 -18.5t-30.5 -34
t-22 -51.5t-12.5 -75t-7 -99.5t-1.5 -130zM90 522q0 84 2.5 143t9.5 116.5t19 94.5t32.5 71t48.5 53.5t68 34.5t89.5 20.5t115.5 5.5t115.5 -5.5t89.5 -20.5t68 -34.5t48.5 -53.5t32.5 -71t19 -94.5t9.5 -116.5t2.5 -143q0 -69 -1.5 -120.5t-6 -101t-11.5 -85t-19 -69
t-27 -55.5t-37.5 -41.5t-49.5 -31t-62.5 -20t-77 -11.5t-93.5 -3t-93.5 3t-77 11.5t-62.5 20t-49.5 31t-37.5 41.5t-27 55.5t-19 69t-11.5 85t-6 101t-1.5 120.5zM174 1163l232 285h139l231 -285h-133l-168 203l-170 -203h-131z" />
    <glyph glyph-name="otilde" unicode="&#xf5;" horiz-adv-x="950" 
d="M233 522q0 -77 1.5 -130t7 -99.5t12.5 -75t22 -51.5t30.5 -34t43 -18.5t55 -9.5t70.5 -2t70.5 2t55 9.5t43 18.5t30.5 34t22 51.5t12.5 75t7 99.5t1.5 130t-1.5 130t-7 99.5t-12.5 75t-22 51.5t-30.5 34t-43 18.5t-55 9.5t-70.5 2t-70.5 -2t-55 -9.5t-43 -18.5t-30.5 -34
t-22 -51.5t-12.5 -75t-7 -99.5t-1.5 -130zM90 522q0 84 2.5 143t9.5 116.5t19 94.5t32.5 71t48.5 53.5t68 34.5t89.5 20.5t115.5 5.5t115.5 -5.5t89.5 -20.5t68 -34.5t48.5 -53.5t32.5 -71t19 -94.5t9.5 -116.5t2.5 -143q0 -69 -1.5 -120.5t-6 -101t-11.5 -85t-19 -69
t-27 -55.5t-37.5 -41.5t-49.5 -31t-62.5 -20t-77 -11.5t-93.5 -3t-93.5 3t-77 11.5t-62.5 20t-49.5 31t-37.5 41.5t-27 55.5t-19 69t-11.5 85t-6 101t-1.5 120.5zM713 1397h82q-6 -76 -56.5 -136.5t-124.5 -60.5q-59 0 -151 47q-88 45 -135 45q-74 0 -90 -104h-82
q6 77 56 137.5t124 60.5q63 0 151 -45q92 -47 136 -47q39 0 61 29.5t29 73.5z" />
    <glyph glyph-name="odieresis" unicode="&#xf6;" horiz-adv-x="950" 
d="M233 522q0 -77 1.5 -130t7 -99.5t12.5 -75t22 -51.5t30.5 -34t43 -18.5t55 -9.5t70.5 -2t70.5 2t55 9.5t43 18.5t30.5 34t22 51.5t12.5 75t7 99.5t1.5 130t-1.5 130t-7 99.5t-12.5 75t-22 51.5t-30.5 34t-43 18.5t-55 9.5t-70.5 2t-70.5 -2t-55 -9.5t-43 -18.5t-30.5 -34
t-22 -51.5t-12.5 -75t-7 -99.5t-1.5 -130zM90 522q0 84 2.5 143t9.5 116.5t19 94.5t32.5 71t48.5 53.5t68 34.5t89.5 20.5t115.5 5.5t115.5 -5.5t89.5 -20.5t68 -34.5t48.5 -53.5t32.5 -71t19 -94.5t9.5 -116.5t2.5 -143q0 -69 -1.5 -120.5t-6 -101t-11.5 -85t-19 -69
t-27 -55.5t-37.5 -41.5t-49.5 -31t-62.5 -20t-77 -11.5t-93.5 -3t-93.5 3t-77 11.5t-62.5 20t-49.5 31t-37.5 41.5t-27 55.5t-19 69t-11.5 85t-6 101t-1.5 120.5zM248 1188v174h131v-174h-131zM571 1188v174h131v-174h-131z" />
    <glyph glyph-name="divide" unicode="&#xf7;" horiz-adv-x="1228" 
d="M96 459v119h1037v-119h-1037zM492 98q0 51 36 87t86 36t86.5 -36.5t36.5 -86.5q0 -46 -37 -84.5t-84 -38.5q-51 0 -87.5 36.5t-36.5 86.5zM492 938q0 51 35.5 87t86.5 36t87 -36t36 -87t-36 -87t-87 -36t-86.5 36t-35.5 87z" />
    <glyph glyph-name="oslash" unicode="&#xf8;" horiz-adv-x="950" 
d="M252 240l401 661q-23 25 -64 33t-114 8q-43 0 -70.5 -2t-55 -9.5t-43 -18.5t-30.5 -34t-22 -51.5t-12.5 -75t-7 -99.5t-1.5 -130q0 -202 19 -282zM154 -92l-78 43l82 135q-39 57 -53.5 158.5t-14.5 277.5q0 84 2.5 143t9.5 116.5t19 94.5t32.5 71t48.5 53.5t68 34.5
t89.5 20.5t115.5 5.5q169 0 248 -47l74 123l77 -43l-83 -138q40 -55 54.5 -156t14.5 -278q0 -69 -1.5 -120.5t-6 -101t-11.5 -85t-19 -69t-27 -55.5t-37.5 -41.5t-49.5 -31t-62.5 -20t-77 -11.5t-93.5 -3q-173 0 -248 45zM698 805l-401 -662q26 -25 66.5 -33t111.5 -8
q43 0 70.5 2t55 9.5t43 18.5t30.5 34t22 51.5t12.5 75t7 99.5t1.5 130q0 203 -19 283z" />
    <glyph glyph-name="ugrave" unicode="&#xf9;" 
d="M840 1044v-1044h-131v135h-4q-50 -85 -112.5 -118t-176.5 -33q-173 0 -240 80t-67 243v737h131v-706q0 -51 7 -89t27 -73.5t61 -54.5t103 -19q131 0 201 63.5t70 219.5v659h131zM500 1163l-283 285h160l227 -285h-104z" />
    <glyph glyph-name="uacute" unicode="&#xfa;" 
d="M840 1044v-1044h-131v135h-4q-50 -85 -112.5 -118t-176.5 -33q-173 0 -240 80t-67 243v737h131v-706q0 -51 7 -89t27 -73.5t61 -54.5t103 -19q131 0 201 63.5t70 219.5v659h131zM346 1163l227 285h160l-282 -285h-105z" />
    <glyph glyph-name="ucircumflex" unicode="&#xfb;" 
d="M840 1044v-1044h-131v135h-4q-50 -85 -112.5 -118t-176.5 -33q-173 0 -240 80t-67 243v737h131v-706q0 -51 7 -89t27 -73.5t61 -54.5t103 -19q131 0 201 63.5t70 219.5v659h131zM174 1163l232 285h139l231 -285h-133l-168 203l-170 -203h-131z" />
    <glyph glyph-name="udieresis" unicode="&#xfc;" 
d="M840 1044v-1044h-131v135h-4q-50 -85 -112.5 -118t-176.5 -33q-173 0 -240 80t-67 243v737h131v-706q0 -51 7 -89t27 -73.5t61 -54.5t103 -19q131 0 201 63.5t70 219.5v659h131zM248 1188v174h131v-174h-131zM571 1188v174h131v-174h-131z" />
    <glyph glyph-name="yacute" unicode="&#xfd;" horiz-adv-x="798" 
d="M143 -377v123q66 0 101.5 7.5t64 37.5t43.5 75t35 134h-59l-305 1044h129l266 -913h4l223 913h131l-280 -1153q-35 -141 -102.5 -208.5t-188.5 -67.5q-43 0 -62 8zM270 1163l228 285h159l-282 -285h-105z" />
    <glyph glyph-name="thorn" unicode="&#xfe;" horiz-adv-x="985" 
d="M752 522q0 112 -7 181.5t-21.5 117t-45.5 70t-70.5 31t-105.5 8.5q-140 0 -195 -76.5t-55 -269.5q0 -104 3 -171t13.5 -124t26.5 -87t45 -51.5t67 -28.5t95 -7q55 0 90 5t65.5 21t46.5 42t28 73.5t16 110t4 155.5zM121 -365v1848h131v-570h4q50 86 119.5 117t169.5 31
q103 0 169 -26t107 -90.5t57.5 -164.5t16.5 -258t-16.5 -257.5t-60 -164.5t-113.5 -90.5t-181 -25.5q-109 0 -170 34t-98 113h-4v-496h-131z" />
    <glyph glyph-name="ydieresis" unicode="&#xff;" horiz-adv-x="798" 
d="M143 -377v123q66 0 101.5 7.5t64 37.5t43.5 75t35 134h-59l-305 1044h129l266 -913h4l223 913h131l-280 -1153q-35 -141 -102.5 -208.5t-188.5 -67.5q-43 0 -62 8zM172 1188v174h131v-174h-131zM496 1188v174h131v-174h-131z" />
    <glyph glyph-name="dotlessi" unicode="&#x131;" horiz-adv-x="417" 
d="M143 0v1044h131v-1044h-131z" />
    <glyph glyph-name="Lslash" unicode="&#x141;" 
d="M125 0v596l-131 -88v135l131 88v752h143v-654l367 248v-135l-367 -248v-538h625v-156h-768z" />
    <glyph glyph-name="lslash" unicode="&#x142;" horiz-adv-x="417" 
d="M143 0v684l-108 -90v129l108 90v670h131v-563l109 88v-129l-109 -88v-791h-131z" />
    <glyph glyph-name="OE" unicode="&#x152;" horiz-adv-x="1857" 
d="M958 500v483q0 58 -0.5 96t-4.5 77t-8.5 62t-16.5 47t-23 36t-34 24t-45 16.5t-59 9t-72.5 5t-90.5 0.5q-84 0 -136 -4.5t-95 -20t-65 -38.5t-37 -68t-19 -99.5t-4 -142.5v-483q0 -88 4 -142.5t19 -99.5t37 -68t65 -38.5t95 -20t136 -4.5q55 0 90.5 0.5t72.5 5t59 9
t45 16.5t34 24t23 36t16.5 47t8.5 62t4.5 77t0.5 96zM958 0v100h-4q-45 -68 -115 -92t-212 -24q-103 0 -174.5 7.5t-133.5 28t-100 55.5t-65.5 92.5t-38.5 136t-11 188.5v499q0 110 11 188.5t38.5 136t65.5 92.5t100 55.5t133.5 28t174.5 7.5q59 0 106 -4.5t96.5 -17t82 -39
t42.5 -66.5h4v111h795v-144h-651v-499h618v-144h-618v-553h647v-143h-791z" />
    <glyph glyph-name="oe" unicode="&#x153;" horiz-adv-x="1554" 
d="M221 522q0 -74 1.5 -126t7.5 -96.5t13 -72t22 -50t31 -33.5t44.5 -18t57 -9t73.5 -2q57 0 90 3.5t63.5 19t44.5 39.5t25 72.5t14 111t3 161.5t-3 161.5t-14 111.5t-25 73t-44.5 39.5t-63.5 19t-90 3.5q-60 0 -94.5 -3.5t-66 -19t-46 -39.5t-26 -73t-14.5 -111t-3 -162z
M842 623h473q0 40 -0.5 63t-2 54.5t-5 49t-9 41t-14.5 35.5t-22 27t-30 22.5t-39.5 14.5t-50.5 9.5t-63 2.5t-63.5 -2.5t-51 -10t-39.5 -14.5t-30 -22t-22 -27t-15 -35.5t-9 -40.5t-4.5 -49t-2 -55t-0.5 -63zM1446 492h-604v-97q0 -173 43 -233t176 -60q38 0 58.5 0.5t48 2
t41 4t32 8t26.5 13t18.5 19.5t14.5 26.5t8.5 35t5.5 44.5t1 56h131v-39q0 -84 -13 -134t-52 -87.5t-110.5 -52t-189.5 -14.5q-125 0 -193.5 22t-117.5 94q-32 -69 -104.5 -92.5t-190.5 -23.5q-68 0 -118 5t-90.5 19t-68 32t-48 52t-31.5 69.5t-18 94.5t-9 118t-2 148t2 148
t9 118t18 95t31.5 70t48 52t68 32t90.5 19t118 5q123 0 194.5 -23.5t108.5 -91.5q21 38 50.5 62t71 35t81.5 14.5t100 3.5q116 0 188.5 -23t111.5 -77.5t52 -125.5t13 -186v-157z" />
    <glyph glyph-name="Scaron" unicode="&#x160;" horiz-adv-x="1097" 
d="M90 350v115h131v-86q0 -58 4.5 -95.5t19 -67.5t35.5 -46t60.5 -26.5t86.5 -13.5t122 -3q59 0 94 1t72.5 6t56.5 12t39 23.5t27.5 35.5t15 52.5t9 71t1.5 93.5q0 59 -1.5 84.5t-10 61.5t-25.5 50t-50.5 32t-83 26t-124.5 14l-151 12q-96 8 -155 29.5t-95 68.5t-49 115.5
t-13 178.5q0 91 9 155t33 110t55 73t85.5 42t114 20t150.5 5q94 0 158 -6.5t115 -25.5t81.5 -47.5t50.5 -77.5t28.5 -110t10.5 -151h-131v33q0 145 -63.5 193.5t-249.5 48.5q-73 0 -120 -3.5t-83 -16.5t-54 -28.5t-29.5 -49t-14 -68.5t-2.5 -96q0 -56 3.5 -92t16.5 -66.5
t32.5 -47.5t56.5 -30.5t83.5 -19.5t118.5 -11q101 -7 161.5 -15t116.5 -27t84 -45.5t50 -74t28.5 -109.5t6.5 -155q0 -88 -10 -152.5t-34.5 -111t-58.5 -76t-87.5 -47t-116 -24t-150.5 -6.5q-107 0 -179.5 9.5t-129 33t-88.5 65.5t-48 104.5t-16 153.5zM479 1550l-231 285
h131l170 -203l168 203h133l-232 -285h-139z" />
    <glyph glyph-name="scaron" unicode="&#x161;" 
d="M106 324h132q-2 -72 5 -111.5t32 -66.5t67.5 -35.5t118.5 -8.5q83 0 128.5 7t75 31t38 62t8.5 107q0 39 -1.5 59t-12 40t-24 28.5t-47 16.5t-71 11t-106.5 7q-70 4 -116.5 10t-86.5 19t-63 32t-39.5 50.5t-22.5 73t-6 100.5q0 72 7 117t27.5 84.5t59.5 60t102 32
t156 11.5q116 0 186 -13.5t110.5 -49.5t54 -87.5t13.5 -138.5h-131q0 41 -3.5 68t-15.5 47t-26 30t-45 16t-62 7.5t-87 1.5q-49 0 -79.5 -2t-57 -9t-39.5 -18t-23 -32.5t-13 -49t-3 -69.5q0 -41 2 -63.5t11.5 -43.5t22.5 -30t43.5 -17.5t64.5 -11.5t95 -6q84 -5 134.5 -10.5
t95 -18t65.5 -28.5t37 -47.5t20.5 -69.5t4.5 -99q0 -80 -8 -130t-30 -92.5t-65.5 -64.5t-111.5 -34t-170 -12q-67 0 -110 3.5t-87 15.5t-69.5 34.5t-46.5 60t-29.5 93.5t-8.5 133zM406 1163l-232 285h131l170 -203l168 203h133l-231 -285h-139z" />
    <glyph glyph-name="Ydieresis" unicode="&#x178;" horiz-adv-x="1064" 
d="M461 0v616l-463 867h149l385 -721l386 721h149l-463 -867v-616h-143zM305 1575v174h131v-174h-131zM629 1575v174h131v-174h-131z" />
    <glyph glyph-name="Zcaron" unicode="&#x17d;" horiz-adv-x="1064" 
d="M53 0v143l785 1196h-756v144h919v-144l-784 -1196h795v-143h-959zM463 1550l-232 285h131l170 -203l168 203h134l-232 -285h-139z" />
    <glyph glyph-name="zcaron" unicode="&#x17e;" horiz-adv-x="798" 
d="M47 0v143l539 783h-486v118h629v-131l-539 -794h531v-119h-674zM330 1163l-232 285h131l170 -203l168 203h133l-231 -285h-139z" />
    <glyph glyph-name="florin" unicode="&#x192;" horiz-adv-x="1138" 
d="M317 819v131h189q12 82 22 136t25.5 117t33.5 103t45.5 80.5t61.5 62.5t80.5 36t104.5 14q17 0 34 -2.5t40 -7t32 -6.5v-135q-55 20 -100 20q-107 0 -157.5 -99t-82.5 -319h209v-131h-227l-115 -772q-19 -128 -46.5 -214.5t-65.5 -133t-80.5 -65.5t-98.5 -19
q-89 0 -149 41v135q59 -45 121 -45q29 0 47 4.5t40.5 24t38.5 57t33 106t31 168.5l104 713h-170z" />
    <glyph glyph-name="circumflex" unicode="&#x2c6;" horiz-adv-x="417" 
d="M-92 1163l231 285h140l231 -285h-133l-168 203l-170 -203h-131z" />
    <glyph glyph-name="caron" unicode="&#x2c7;" horiz-adv-x="417" 
d="M139 1163l-231 285h131l170 -203l168 203h133l-231 -285h-140z" />
    <glyph glyph-name="uni02C9" unicode="&#x2c9;" horiz-adv-x="417" 
d="M-92 1241v94h602v-94h-602z" />
    <glyph glyph-name="breve" unicode="&#x2d8;" horiz-adv-x="417" 
d="M-88 1434h82q9 -80 69 -123t144 -43q180 0 217 166h82q-13 -126 -95 -193t-210 -67q-126 0 -200 68t-89 192z" />
    <glyph glyph-name="dotaccent" unicode="&#x2d9;" horiz-adv-x="417" 
d="M143 1188v174h131v-174h-131z" />
    <glyph glyph-name="ring" unicode="&#x2da;" horiz-adv-x="417" 
d="M4 1366q0 85 60 145t145 60t145 -60t60 -145t-60 -145t-145 -60t-145 60t-60 145zM86 1366q0 -51 36 -87t87 -36t87 36t36 87t-36 87t-87 36t-87 -36t-36 -87z" />
    <glyph glyph-name="ogonek" unicode="&#x2db;" horiz-adv-x="417" 
d="M315 0h80q-66 -60 -111.5 -129.5t-45.5 -128.5q0 -43 28 -70.5t80 -27.5t92 16l25 -57q-71 -29 -162 -29q-88 0 -135 39t-47 106q0 70 59.5 154t136.5 127z" />
    <glyph glyph-name="tilde" unicode="&#x2dc;" horiz-adv-x="417" 
d="M446 1397h82q-6 -76 -56 -136.5t-124 -60.5q-59 0 -151 47q-88 45 -136 45q-74 0 -90 -104h-82q6 77 56.5 137.5t124.5 60.5q63 0 151 -45q92 -47 135 -47q39 0 61 29.5t29 73.5z" />
    <glyph glyph-name="hungarumlaut" unicode="&#x2dd;" horiz-adv-x="417" 
d="M-84 1163l227 285h160l-283 -285h-104zM244 1163l227 285h160l-283 -285h-104z" />
    <glyph glyph-name="uni03A9" unicode="&#x3a9;" horiz-adv-x="1476" 
d="M416 115v6q-124 111 -203.5 281.5t-79.5 379.5q0 154 47 285.5t129 222.5t194.5 142t241.5 51q176 0 314 -96t211 -253t73 -343q0 -216 -83 -392t-201 -278v-6h313v-115h-485v86q134 90 225.5 268t91.5 412q0 84 -18.5 168.5t-56.5 162t-91.5 137.5t-130 96t-164.5 36
q-141 0 -249.5 -81t-165 -218t-56.5 -305q0 -222 94 -407t224 -269v-86h-486v115h312z" />
    <glyph glyph-name="uni03BC" unicode="&#x3bc;" 
d="M109 -365v1409h131v-716q0 -28 1 -48t5.5 -45t12.5 -42.5t23 -36t35.5 -29.5t51 -18t69.5 -7q131 0 201 63.5t70 219.5v659h131v-1044h-131v135h-4q-55 -88 -118.5 -119.5t-178.5 -31.5q-101 0 -168 61v-410h-131z" />
    <glyph glyph-name="pi" unicode="&#x3c0;" horiz-adv-x="1161" 
d="M1104 965h-168v-658q0 -204 31 -307h-133q-35 64 -35 293v672h-385q-10 -230 -54.5 -528.5t-99.5 -436.5h-135q57 159 100 446.5t51 518.5q-162 0 -231 -27l-25 92q85 55 289 55h809z" />
    <glyph glyph-name="endash" unicode="&#x2013;" horiz-adv-x="1024" 
d="M0 483v119h1024v-119h-1024z" />
    <glyph glyph-name="emdash" unicode="&#x2014;" horiz-adv-x="2048" 
d="M0 483v119h2048v-119h-2048z" />
    <glyph glyph-name="quoteleft" unicode="&#x2018;" horiz-adv-x="344" 
d="M100 1073v223q0 64 8.5 102.5t29.5 56.5t43.5 23t62.5 5v-82q-24 0 -36 -8.5t-19 -39t-7 -91.5h62v-189h-144z" />
    <glyph glyph-name="quoteright" unicode="&#x2019;" horiz-adv-x="344" 
d="M244 1483v-223q0 -64 -8.5 -102.5t-29.5 -56.5t-43.5 -23t-62.5 -5v82q24 0 36 8.5t19 39t7 91.5h-62v189h144z" />
    <glyph glyph-name="quotesinglbase" unicode="&#x201a;" horiz-adv-x="344" 
d="M106 0v188h144v-223q0 -43 -4 -74t-13.5 -51.5t-21 -32.5t-31.5 -18.5t-38 -8t-48 -1.5v82q44 0 59 25t15 114h-62z" />
    <glyph glyph-name="quotedblleft" unicode="&#x201c;" horiz-adv-x="606" 
d="M362 1073v223q0 64 8.5 102.5t29.5 56.5t43.5 23t62.5 5v-82q-24 0 -36 -8.5t-19 -39t-7 -91.5h62v-189h-144zM100 1073v223q0 64 8.5 102.5t29.5 56.5t43.5 23t62.5 5v-82q-24 0 -36 -8.5t-19 -39t-7 -91.5h62v-189h-144z" />
    <glyph glyph-name="quotedblright" unicode="&#x201d;" horiz-adv-x="606" 
d="M244 1483v-223q0 -64 -8.5 -102.5t-30.5 -56.5t-45.5 -23t-65.5 -5v82q40 0 54 25t14 114h-62v189h144zM506 1483v-223q0 -64 -8.5 -102.5t-30.5 -56.5t-45.5 -23t-65.5 -5v82q40 0 54 25t14 114h-62v189h144z" />
    <glyph glyph-name="quotedblbase" unicode="&#x201e;" horiz-adv-x="606" 
d="M244 188v-223q0 -51 -6.5 -86t-17 -54.5t-30.5 -30t-39 -13t-51 -2.5v82q24 0 36 8.5t19 39t7 91.5h-62v188h144zM506 188v-223q0 -51 -6.5 -86t-17 -54.5t-30.5 -30t-39 -13t-51 -2.5v82q24 0 36 8.5t19 39t7 91.5h-62v188h144z" />
    <glyph glyph-name="dagger" unicode="&#x2020;" horiz-adv-x="798" 
d="M334 0v942h-240v119h240v422h131v-422h240v-119h-240v-942h-131z" />
    <glyph glyph-name="daggerdbl" unicode="&#x2021;" horiz-adv-x="798" 
d="M334 0v393h-203v119h203v496h-203v118h203v357h131v-357h203v-118h-203v-496h203v-119h-203v-393h-131z" />
    <glyph glyph-name="bullet" unicode="&#x2022;" horiz-adv-x="1024" 
d="M141 741q0 154 108.5 262.5t262.5 108.5t262.5 -108.5t108.5 -262.5t-108.5 -262t-262.5 -108t-262.5 108t-108.5 262z" />
    <glyph glyph-name="ellipsis" unicode="&#x2026;" horiz-adv-x="2048" 
d="M270 0v188h144v-188h-144zM952 0v188h144v-188h-144zM1634 0v188h144v-188h-144z" />
    <glyph glyph-name="perthousand" unicode="&#x2030;" horiz-adv-x="2050" 
d="M1614 551v-221q0 -39 0.5 -61.5t3 -50.5t8 -43t15 -31.5t24 -24t34.5 -12.5t48 -5t48 5t34.5 12.5t24 24t15 31.5t8 43t3 50.5t0.5 61.5v221q0 39 -0.5 61.5t-3 50.5t-8 42.5t-15 31.5t-24 24.5t-34.5 13t-48 5.5t-48 -5.5t-34.5 -13t-24 -24.5t-15 -31.5t-8 -42.5
t-3 -50.5t-0.5 -61.5zM197 -16l907 1515h119l-908 -1515h-118zM170 1151v-221q0 -39 0.5 -61.5t3 -50.5t8 -43t15 -31.5t24 -24t34.5 -12.5t48 -5t48 5t34.5 12.5t24 24t15 31.5t8 43t3 50.5t0.5 61.5v221q0 39 -0.5 61.5t-3 50.5t-8 42.5t-15 31.5t-24 24.5t-34.5 13
t-48 5.5t-48 -5.5t-34.5 -13t-24 -24.5t-15 -31.5t-8 -42.5t-3 -50.5t-0.5 -61.5zM1495 307v268q0 95 10.5 153.5t39 98.5t76.5 56t126 16t126 -16t76.5 -56t39 -98.5t10.5 -153.5v-268q0 -186 -50.5 -254.5t-201.5 -68.5t-201.5 68.5t-50.5 254.5zM51 907v269
q0 186 50.5 254.5t201.5 68.5t201.5 -68.5t50.5 -254.5v-269q0 -186 -50.5 -254.5t-201.5 -68.5t-201.5 68.5t-50.5 254.5zM866 307v268q0 95 10.5 153.5t39 98.5t76.5 56t126 16t126 -16t76.5 -56t39 -98.5t10.5 -153.5v-268q0 -186 -50.5 -254.5t-201.5 -68.5t-201.5 68.5
t-50.5 254.5zM985 551v-221q0 -39 0.5 -61.5t3 -50.5t8 -43t15 -31.5t24 -24t34.5 -12.5t48 -5t48 5t34.5 12.5t24 24t15 31.5t8 43t3 50.5t0.5 61.5v221q0 39 -0.5 61.5t-3 50.5t-8 42.5t-15 31.5t-24 24.5t-34.5 13t-48 5.5t-48 -5.5t-34.5 -13t-24 -24.5t-15 -31.5
t-8 -42.5t-3 -50.5t-0.5 -61.5z" />
    <glyph glyph-name="guilsinglleft" unicode="&#x2039;" horiz-adv-x="606" 
d="M315 174l-194 369l217 368h147l-215 -368l191 -369h-146z" />
    <glyph glyph-name="guilsinglright" unicode="&#x203a;" horiz-adv-x="606" 
d="M121 174l215 369l-191 368h146l194 -368l-217 -369h-147z" />
    <glyph glyph-name="fraction" unicode="&#x2044;" horiz-adv-x="342" 
d="M-342 -16l907 1515h119l-907 -1515h-119z" />
    <glyph glyph-name="Euro" unicode="&#x20ac;" horiz-adv-x="1138" 
d="M197 559h-160l37 107h123v161h-152l37 107h115v57q0 127 14.5 211.5t46 144.5t89.5 92t135.5 46t193.5 14q176 0 271.5 -49.5t144.5 -130.5l-54 -156q-40 75 -82 116t-109 62t-171 21q-79 0 -131 -5.5t-91.5 -23t-60 -41t-33.5 -71t-16.5 -99.5t-3.5 -139v-49h621
l-37 -107h-584v-161h526l-37 -107h-489v-59q0 -87 3.5 -139t16.5 -99.5t33.5 -71t60 -41t91.5 -23t131 -5.5q149 0 230.5 36.5t131.5 108.5v-184q-14 -15 -37.5 -29.5t-64.5 -31.5t-108.5 -27t-151.5 -10q-116 0 -193.5 14t-135.5 46t-89.5 92t-46 144.5t-14.5 211.5v67z
" />
    <glyph glyph-name="afii61289" unicode="&#x2113;" horiz-adv-x="987" 
d="M868 307l70 -57q-134 -256 -377 -256q-84 0 -149 31.5t-103.5 87.5t-59 125t-22.5 151q0 19 -2 27q-20 -15 -60 -49.5t-59 -49.5l-45 82q15 13 42.5 36.5t44 37.5t38.5 34t39 38v579q0 110 18 197t47.5 142t70 91t83 51t88.5 15q122 0 186 -93.5t64 -240.5
q0 -189 -110 -378.5t-316 -393.5v-70q1 -89 20 -156.5t51.5 -106.5t73 -58t87.5 -19q90 0 163.5 60.5t116.5 142.5zM356 1135v-482q156 173 242 326t86 303q0 231 -152 231q-32 0 -61.5 -20t-56 -62t-42.5 -118.5t-16 -177.5z" />
    <glyph glyph-name="trademark" unicode="&#x2122;" horiz-adv-x="2027" 
d="M383 639v737h-270v107h659v-107h-270v-737h-119zM1694 639v725h-4l-293 -725h-74l-293 725h-4v-725h-119v844h195l262 -656l254 656h194v-844h-118z" />
    <glyph glyph-name="Omega" unicode="&#x2126;" horiz-adv-x="1476" 
d="M416 115v6q-124 111 -203.5 281.5t-79.5 379.5q0 154 47 285.5t129 222.5t194.5 142t241.5 51q176 0 314 -96t211 -253t73 -343q0 -216 -83 -392t-201 -278v-6h313v-115h-485v86q134 90 225.5 268t91.5 412q0 84 -18.5 168.5t-56.5 162t-91.5 137.5t-130 96t-164.5 36
q-141 0 -249.5 -81t-165 -218t-56.5 -305q0 -222 94 -407t224 -269v-86h-486v115h312z" />
    <glyph glyph-name="estimated" unicode="&#x212e;" horiz-adv-x="1826" 
d="M1755 721h-1364q-10 0 -10 -10v-412q0 -28 16 -47q102 -106 235.5 -165.5t280.5 -59.5q159 0 299.5 67.5t243.5 184.5h121q-115 -135 -291 -214t-375 -79q-229 0 -422 101t-305 274.5t-112 379.5q0 154 66 294.5t178.5 242t268 161.5t326.5 60q138 0 267 -38.5
t232.5 -108.5t181.5 -163t120.5 -209t42.5 -239v-20zM1446 774v414q0 26 -21 51q-104 101 -235 158t-277 57t-278.5 -59.5t-235.5 -163.5q-18 -18 -18 -51v-406q0 -4 3 -9t7 -5h1045q4 0 7 5t3 9z" />
    <glyph glyph-name="partialdiff" unicode="&#x2202;" horiz-adv-x="1112" 
d="M209 1430l-49 100q145 117 336 117q79 0 153 -30t139.5 -93.5t114 -155t77 -223t28.5 -289.5q0 -248 -58.5 -441t-180 -308t-290.5 -115q-95 0 -171.5 41t-123 109.5t-70.5 153t-24 177.5q0 119 36 220.5t96 169t139 105.5t165 38q67 0 128 -22t103 -56.5t69.5 -65.5
t41.5 -59h2q2 25 2 94q0 280 -114 456.5t-275 176.5q-153 0 -274 -100zM489 109h3q98 0 177 77.5t124.5 199.5t60.5 271q-13 38 -39.5 77.5t-65 75.5t-92.5 58.5t-112 22.5q-86 0 -159 -56t-116 -151.5t-43 -208.5q0 -162 71.5 -264t190.5 -102z" />
    <glyph glyph-name="Delta" unicode="&#x2206;" horiz-adv-x="1325" 
d="M66 0v98l522 1401h157l515 -1399v-100h-1194zM205 115h905l-307 829q-15 46 -69.5 190.5t-69.5 198.5h-9q-10 -46 -62 -184.5t-63 -171.5z" />
    <glyph glyph-name="product" unicode="&#x220f;" horiz-adv-x="1427" 
d="M1372 1333h-227v-1534h-135v1534h-594v-1534h-135v1534h-228v127h1319v-127z" />
    <glyph glyph-name="summation" unicode="&#x2211;" horiz-adv-x="1134" 
d="M1087 -203h-1040v94l561 736l-536 735v98h983v-121h-791v-6l502 -688l-541 -708v-7h862v-133z" />
    <glyph glyph-name="minus" unicode="&#x2212;" horiz-adv-x="1228" 
d="M96 459v119h1037v-119h-1037z" />
    <glyph glyph-name="uni2215" unicode="&#x2215;" horiz-adv-x="342" 
d="M-342 -16l907 1515h119l-907 -1515h-119z" />
    <glyph glyph-name="uni2219" unicode="&#x2219;" horiz-adv-x="569" 
d="M178 655q0 44 31.5 75.5t75.5 31.5t75 -31.5t31 -75.5t-31 -75t-75 -31t-75.5 31t-31.5 75z" />
    <glyph glyph-name="radical" unicode="&#x221a;" horiz-adv-x="1169" 
d="M1165 1733l-454 -2048h-125l-332 979l-154 -58l-30 86l270 105l270 -793q30 -122 35 -147l2 -2q3 20 13 71.5t14 75.5l387 1731h104z" />
    <glyph glyph-name="infinity" unicode="&#x221e;" horiz-adv-x="1603" 
d="M1497 608v-2q0 -143 -93 -233t-220 -90q-94 0 -178.5 58t-202.5 189q-41 -47 -67 -75t-68 -65t-77.5 -57t-82.5 -35t-96 -15q-126 0 -217 91.5t-91 223.5q0 139 92 231.5t230 92.5q56 0 108.5 -19.5t102.5 -58.5t87 -76t87 -94q99 109 143 147q118 101 246 101
q133 0 215 -87.5t82 -226.5zM424 373h4q28 0 54.5 7t53.5 22.5t47.5 29t47.5 39.5t41.5 40.5t42 44.5t37.5 40q-32 40 -40.5 50.5t-39.5 45.5t-46 47t-45 36.5t-53 34t-54 18t-62 8.5q-96 0 -152.5 -70t-56.5 -170q0 -94 61.5 -158.5t159.5 -64.5zM1188 836h-2
q-39 0 -79 -16t-77 -45.5t-63.5 -55t-60.5 -63t-48 -50.5q80 -88 125.5 -131t99.5 -72.5t109 -29.5q95 0 152 69t57 158q0 110 -60 173t-153 63z" />
    <glyph glyph-name="integral" unicode="&#x222b;" horiz-adv-x="727" 
d="M692 1751l-26 -96q-29 22 -74 22q-68 0 -105 -51q-39 -45 -55 -133t-16 -244q0 -161 13 -525t13 -534q0 -283 -90 -421q-31 -50 -83 -75.5t-113 -25.5q-35 0 -72 10.5t-57 22.5l26 102q48 -24 92 -24q63 0 97 49q73 94 73 365q0 170 -14 539t-14 532q0 172 24.5 274
t83.5 164q77 80 187 80q30 0 61.5 -9.5t48.5 -21.5z" />
    <glyph glyph-name="approxequal" unicode="&#x2248;" horiz-adv-x="1163" 
d="M1004 891l59 -51q-97 -195 -262 -195q-40 0 -81 12t-71 27t-92 49q-119 70 -195 70q-65 0 -111.5 -40t-92.5 -114l-62 49q46 92 119.5 143.5t161.5 51.5q28 0 55.5 -5.5t54.5 -17t43.5 -19.5t44.5 -24l35 -20q8 -4 29 -15.5t29 -16t25 -13t27.5 -12t26 -8t30 -6
t30.5 -1.5q61 0 106.5 38t90.5 118zM1004 543l59 -49q-97 -195 -262 -195q-40 0 -81 12t-71 27t-92 49q-41 24 -64.5 36.5t-59.5 24t-68 11.5q-66 0 -113 -41.5t-94 -116.5l-62 49q46 93 119.5 145t161.5 52q36 0 73.5 -10t58 -19.5t57 -30t44.5 -24.5q5 -3 22 -12.5
t22 -12.5t20 -11t21.5 -11t20 -9t22.5 -8t21 -5t24 -4t24 -1q62 0 107 37.5t90 116.5z" />
    <glyph glyph-name="notequal" unicode="&#x2260;" horiz-adv-x="1163" 
d="M821 1044l-96 -204h330v-95h-367l-141 -305h508v-92h-547l-111 -244l-75 35l98 209h-314v92h353l139 305h-492v95h531l108 239z" />
    <glyph glyph-name="lessequal" unicode="&#x2264;" horiz-adv-x="1163" 
d="M1049 203l-930 467v98l930 467v-113l-830 -399v-4l830 -404v-112zM1055 20h-949v97h949v-97z" />
    <glyph glyph-name="greaterequal" unicode="&#x2265;" horiz-adv-x="1163" 
d="M119 1235l932 -467v-98l-932 -467v112l829 402v4l-829 401v113zM1053 20h-944v97h944v-97z" />
    <glyph glyph-name="lozenge" unicode="&#x25ca;" horiz-adv-x="1169" 
d="M1057 729l-418 -821h-113l-411 821l415 823h113zM928 725l-303 598q-29 72 -39 109h-4q-22 -67 -41 -109l-299 -590l303 -602q33 -79 37 -106h8q11 51 37 104z" />
    </font>
</defs>
</svg>
