<?xml version="1.0" standalone="no"?>
<!DOCTYPE svg PUBLIC "-//W3C//DTD SVG 1.1//EN" "http://www.w3.org/Graphics/SVG/1.1/DTD/svg11.dtd" >
<svg xmlns="http://www.w3.org/2000/svg" xmlns:xlink="http://www.w3.org/1999/xlink" version="1.1">
<metadata>
Created by FontForge 20170731 at Thu May 27 15:01:30 2021
 By Aleksey,,,
Copyright (c) 1987, 1992, 1998, 2002 Adobe Systems Incorporated.  All Rights Reserved.(c) 1987, 1992, 1998, 2002 Heidelberger Druckmaschinen AG. All rights reserved.
</metadata>
<defs>
<font id="EurostileLTStd-BoldOblique" horiz-adv-x="1474" >
  <font-face 
    font-family="Eurostile LT Std Bold"
    font-weight="700"
    font-style="oblique"
    font-stretch="normal"
    units-per-em="2048"
    panose-1="2 11 8 4 2 2 2 5 2 4"
    ascent="1536"
    descent="-512"
    x-height="1075"
    cap-height="1536"
    bbox="-354 -584 2712.66 2019"
    underline-thickness="102"
    underline-position="-307"
    slope="-12"
    unicode-range="U+0020-FB02"
  />
<missing-glyph horiz-adv-x="1329" 
d="M305 0v1434h1024v-1434h-1024zM817 809l348 522h-696zM879 717l348 -522v1044zM469 102h696l-348 523zM408 1239v-1044l348 522z" />
    <glyph glyph-name="fi" unicode="fi" horiz-adv-x="1333" 
d="M1475 1075l-230 -1075h-352l229 1075h353zM1571 1536l-58 -270h-352l58 270h352zM1085 1536l-55 -268q-33 10 -63 10q-40 0 -66.5 -2t-47 -11t-31.5 -17.5t-21 -31.5t-15 -42.5t-14 -59.5l-8 -39h240l-56 -258h-239l-174 -817h-353l174 817h-141l55 258h142l20 105
q19 88 47 146.5t74 102t119 66t171 32.5t242 9z" />
    <glyph glyph-name="fl" unicode="fl" horiz-adv-x="1363" 
d="M1571 1536l-326 -1536h-352l326 1536h352zM1004 1075l-56 -258h-239l-174 -817h-353l174 817h-141l55 258h142l20 105q19 88 47 146.5t74 102t119 66t171 32.5t242 9l-55 -268q-33 10 -63 10q-40 0 -66.5 -2t-47 -11t-31.5 -17.5t-21 -31.5t-15 -42.5t-14 -59.5l-8 -39
h240z" />
    <glyph glyph-name=".notdef" horiz-adv-x="1329" 
d="M305 0v1434h1024v-1434h-1024zM817 809l348 522h-696zM879 717l348 -522v1044zM469 102h696l-348 523zM408 1239v-1044l348 522z" />
    <glyph glyph-name=".null" horiz-adv-x="0" 
 />
    <glyph glyph-name="nonmarkingreturn" horiz-adv-x="682" 
 />
    <glyph glyph-name="space" unicode=" " horiz-adv-x="737" 
 />
    <glyph glyph-name="exclam" unicode="!" horiz-adv-x="714" 
d="M600 356l-76 -356h-331l75 356h332zM874 1536l-210 -932h-353l183 932h380z" />
    <glyph glyph-name="quotedbl" unicode="&#x22;" horiz-adv-x="905" 
d="M410 1536h282l-55 -266l-143 -264h-111l-29 264zM864 1536h283l-55 -266l-144 -264h-110l-29 264z" />
    <glyph glyph-name="numbersign" unicode="#" 
d="M903 1536h217l-170 -430h207l170 430h215l-170 -430h164l-51 -236h-201l-104 -266h192l-51 -235h-242l-145 -369h-217l145 369h-207l-145 -369h-217l145 369h-186l51 235h232l104 266h-197l52 236h239zM856 870l-104 -266h209l108 266h-213z" />
    <glyph glyph-name="dollar" unicode="$" 
d="M834 946l194 -18q226 -18 310 -40q144 -37 187 -134t5 -275q-30 -142 -82.5 -236t-139 -151t-201 -80.5t-278.5 -23.5l-41 -189h-198l41 189q-86 0 -150.5 5.5t-125 19.5t-100.5 39t-70.5 64t-42.5 93t-9 128.5t23 168.5h368q-9 -41 -11 -71t0 -51.5t14 -35.5t24.5 -22.5
t38 -12.5t48 -5t60.5 -1h199q41 0 60.5 0.5t50 3t45 8.5t34.5 17.5t31 28.5t21.5 41.5t17.5 58.5q19 84 -16.5 111.5t-177.5 39.5l-197 15q-124 8 -209 22t-144 39.5t-90 56.5t-42.5 82t-6.5 107t23 139q21 99 47.5 170.5t67 125t88.5 86.5t119 53.5t151.5 28t192.5 7.5
l34 168h199l-35 -168q80 -5 130 -10t111.5 -17.5t96 -32.5t69 -54t46.5 -82t11.5 -117t-19.5 -158h-359q7 34 8.5 58.5t-5.5 41.5t-18 27t-32.5 16t-45 7.5t-60.5 1.5h-199q-43 0 -70.5 -2.5t-56 -11t-46.5 -25t-32.5 -44.5t-23.5 -69q-17 -80 14 -102.5t154 -28.5z" />
    <glyph glyph-name="percent" unicode="%" horiz-adv-x="1857" 
d="M1915 492l-47 -226q-17 -74 -41 -123.5t-54 -80.5t-77.5 -47t-97.5 -21.5t-128 -5.5q-65 0 -107 3.5t-79 13.5t-56 28.5t-30.5 49.5t-10 75t12.5 106l49 225q17 74 40 123.5t51 81t73 47.5t94.5 21.5t126.5 5.5q65 0 108 -3.5t82 -13.5t59.5 -28.5t33.5 -49.5t11.5 -75
t-13.5 -106zM1669 297l35 170q7 31 9.5 51t-2 34.5t-10 21.5t-23.5 11t-34 4.5t-49 0.5q-30 0 -44 -0.5t-32 -4.5t-25.5 -11t-17 -21.5t-15.5 -34.5t-13 -51l-35 -170q-11 -50 -13 -75.5t12 -38.5t31.5 -15t61.5 -2q31 0 46 0.5t35 4.5t29 12t20.5 23t19 36.5t14.5 54.5z
M983 1272l-47 -225q-17 -74 -41 -123.5t-54 -80.5t-77 -47.5t-97 -22t-128 -5.5q-65 0 -107 3.5t-79.5 13.5t-56.5 28.5t-30.5 49.5t-10 75t12.5 106l49 226q17 74 40 123.5t51 80.5t73 47t94 21.5t127 5.5q65 0 108 -3.5t82 -13.5t59.5 -28.5t33.5 -49.5t11.5 -75
t-13.5 -106zM737 1077l35 170q7 31 9.5 51t-1.5 34.5t-9.5 21.5t-23.5 11t-34 4.5t-49 0.5q-36 0 -52 -1.5t-34.5 -7t-27 -19.5t-17.5 -35.5t-17 -59.5l-35 -170q-11 -50 -13 -75.5t12 -38.5t31.5 -15t61.5 -2q31 0 46 0.5t35 4.5t29 12t20.5 23t19 36.5t14.5 54.5z
M1845 1536l-1233 -1536h-245l1232 1536h246z" />
    <glyph glyph-name="ampersand" unicode="&#x26;" horiz-adv-x="1585" 
d="M1063 346l-334 352q-29 -3 -51 -16.5t-34.5 -29t-22.5 -43.5t-13.5 -44.5t-9.5 -48.5q-9 -43 -9 -75t4.5 -54t24 -36t34.5 -22t51.5 -11.5t59.5 -4t73 -0.5h10q141 0 217 33zM1374 0l-114 127q-47 -49 -103.5 -79.5t-129 -42.5t-119.5 -14.5t-132 -2.5q-72 0 -126.5 2
t-114 8t-102 17t-85.5 29.5t-70 44t-49 62t-30 83t-5.5 107.5t17.5 134q14 65 31 117t46.5 107t66 92t92 61t122.5 25q-58 63 -70 114t9 146q23 105 60 178t85 118.5t119.5 71t148.5 34.5t187 9q70 0 122.5 -3t105 -10.5t88 -21.5t67 -36t48.5 -53.5t26 -73.5t5 -97.5
t-20 -124.5l-16 -77h-352q16 69 18 101.5t-10 57.5q-14 19 -47.5 26t-100.5 7q-79 0 -112.5 -26.5t-50.5 -108.5q-10 -49 2 -80.5t47 -71.5l305 -335l43 202h326l-64 -301q-15 -72 -72 -149l138 -154z" />
    <glyph glyph-name="quotesingle" unicode="'" horiz-adv-x="450" 
d="M410 1536h282l-55 -266l-143 -264h-111l-29 264z" />
    <glyph glyph-name="parenleft" unicode="(" horiz-adv-x="788" 
d="M190 344l115 541q53 243 86 332q61 163 172 237q142 94 438 94l-71 -336q-46 0 -79 -11.5t-55 -30t-38.5 -54t-26.5 -71t-22 -93.5l-142 -663q-8 -35 -12 -56.5t-7.5 -52t-1 -49.5t10 -40.5t22.5 -33.5t40 -20t59 -8l-72 -336q-261 0 -367 63t-105 208t56 380z" />
    <glyph glyph-name="parenright" unicode=")" horiz-adv-x="788" 
d="M860 885l-115 -541q-22 -103 -37.5 -165t-39 -136t-47.5 -115t-61.5 -87t-82.5 -68.5t-107.5 -43.5t-140.5 -28.5t-178 -7.5l72 336q34 0 62.5 8.5t48 19.5t36.5 34t26.5 40t20 50t15 51.5t12.5 56.5l141 663q12 59 17 93.5t3.5 70.5t-15 54.5t-41.5 30t-74 11.5l71 336
q263 0 370.5 -73t98.5 -217t-52 -356q-2 -11 -3 -17z" />
    <glyph glyph-name="asterisk" unicode="*" 
d="M1403 1155l-273 -80l107 -219l-174 -115l-111 230l-221 -228l-131 113l207 221l-240 94l103 181l239 -92l58 276h190l-57 -276l284 92z" />
    <glyph glyph-name="plus" unicode="+" horiz-adv-x="1228" 
d="M641 684l84 391h236l-84 -391h395l-49 -235h-396l-88 -408h-235l88 408h-393l49 235h393z" />
    <glyph glyph-name="comma" unicode="," horiz-adv-x="737" 
d="M268 344h332l-74 -344q-20 -109 -62.5 -170.5t-126.5 -91.5t-224 -29l32 154q87 1 123.5 30t53.5 107h-127z" />
    <glyph glyph-name="hyphen" unicode="-" horiz-adv-x="557" 
d="M156 733h557l-72 -336h-557z" />
    <glyph glyph-name="period" unicode="." horiz-adv-x="737" 
d="M592 356l-76 -356h-332l76 356h332z" />
    <glyph glyph-name="slash" unicode="/" horiz-adv-x="1304" 
d="M1571 1536l-1278 -1767h-281l1278 1767h281z" />
    <glyph glyph-name="zero" unicode="0" 
d="M1067 1548q64 0 107.5 -1.5t101.5 -7t96 -16t82.5 -29.5t71 -46.5t50.5 -68t31.5 -92.5t4.5 -122t-21 -155l-102 -484q-23 -108 -61 -192.5t-79.5 -141t-102 -96t-112.5 -60t-128.5 -32t-131.5 -14t-139 -2.5q-64 0 -107.5 1.5t-101.5 7t-96 16t-82.5 29.5t-71 46.5
t-50.5 68t-31.5 92.5t-4.5 122t21 155l102 484q23 108 61 192.5t79.5 141t102 96t112.5 60t128.5 32t131.5 14t139 2.5zM995 1210q-46 0 -69.5 -0.5t-55.5 -4t-47.5 -10.5t-36 -20t-31 -31.5t-24 -47.5t-23 -65.5t-20.5 -86.5l-76 -352q-14 -67 -20 -110.5t2 -74.5t18 -46.5
t43.5 -23.5t62 -9.5t89.5 -1.5q37 0 57 0.5t47.5 2.5t41 5t33.5 10t29.5 16.5t23.5 24.5t21.5 34t17.5 45t18 57t16 71l76 352q14 67 20 110.5t-1.5 74.5t-17 46.5t-43 23.5t-62 9.5t-89.5 1.5z" />
    <glyph glyph-name="one" unicode="1" 
d="M1468 1536l-325 -1536h-410l250 1174l-475 -363l-176 262l657 463h479z" />
    <glyph glyph-name="two" unicode="2" 
d="M1407 319l-68 -319h-1212l68 319q15 70 29.5 120.5t36.5 96.5t45 77t61 61t79 50t105 42t131.5 39t165.5 39q183 41 221 56q56 21 78 65q13 28 27 94q8 39 10 66t-5.5 46.5t-20 31t-37.5 17.5t-53 8t-73 1q-51 0 -81 -1.5t-59 -8.5t-44 -17.5t-30 -32t-23.5 -48.5
t-18.5 -70l-16 -76h-389l16 76q22 103 55.5 181.5t82 133t104.5 90.5t132.5 56t155.5 28t183 8q65 0 115.5 -2.5t103.5 -9t91.5 -18t76 -30t62 -44.5t43 -62t25 -82t3.5 -105t-18 -130q-19 -87 -40.5 -150t-54.5 -112.5t-69 -82.5t-94 -61.5t-118 -48t-153 -43.5
q-54 -14 -112 -26.5t-92 -19t-71.5 -15t-58 -17.5t-42 -22.5t-34 -33.5t-23 -47.5t-19.5 -66.5h823z" />
    <glyph glyph-name="three" unicode="3" 
d="M772 637l64 297h98q62 0 100 3.5t64 10t40.5 23t22 35t15.5 53.5q16 63 12.5 100.5t-46 53.5t-145.5 16q-31 0 -47.5 -0.5t-40.5 -2t-37 -4.5t-31 -9t-28 -15t-22.5 -22.5t-20 -31t-15.5 -41t-14 -52.5l-6 -31h-389l10 53q28 129 76 217.5t105 139t149 77.5t177.5 34
t219.5 7q44 0 77 -1t77.5 -4t78.5 -10t73.5 -17.5t67.5 -27t56 -38.5t44.5 -52.5t27.5 -68.5t9.5 -87t-13.5 -107q-15 -69 -37.5 -124t-58 -104t-89.5 -79.5t-124 -39.5l-4 -16q250 -10 184 -330q-18 -84 -47.5 -150.5t-67 -113.5t-88 -81.5t-102.5 -55t-120 -33
t-131.5 -16.5t-143.5 -4q-67 0 -116 1.5t-106.5 7t-97.5 15.5t-82.5 27.5t-69.5 41.5t-50 59.5t-31.5 80.5t-6.5 104.5t17 131.5l18 82h389l-10 -52q-8 -36 -8 -64t5 -47t19.5 -32t29.5 -20.5t42 -11t49 -4.5t58 -1q42 0 66.5 1t53.5 5t46 11.5t35.5 21t30 33.5t22 48.5
t18.5 66.5q13 52 5.5 83.5t-55 45.5t-153.5 14h-98z" />
    <glyph glyph-name="four" unicode="4" 
d="M1591 1536l-198 -936h131l-64 -297h-131l-63 -303h-389l63 303h-803l94 438l756 795h604zM1004 600l133 621h-15l-600 -621h482z" />
    <glyph glyph-name="five" unicode="5" 
d="M227 446h389q-5 -21 -2.5 -38.5t3.5 -31t9 -24t14.5 -17.5t20 -12.5t25 -8.5t29 -4.5t33 -2t36.5 -0.5q40 0 61.5 0.5t50 3t43.5 8t34 15.5t29 24.5t22 36t20.5 49.5t16.5 66q8 36 11.5 55t7.5 45.5t3.5 38.5t-3 30t-9 25.5t-17.5 17.5t-26.5 13.5t-37.5 8t-49 5.5t-62 1
q-109 0 -147.5 -11t-65.5 -63h-353l183 860h1110l-62 -297h-758l-63 -295q90 79 149.5 96t212.5 17q186 0 279.5 -51.5t113.5 -163.5t-20 -289q-26 -123 -59 -212t-80.5 -152t-102 -102t-133.5 -61t-163 -30t-203 -8q-74 0 -133 4t-113.5 14t-94 26.5t-72.5 41.5t-53 59.5
t-30.5 80t-8.5 103.5t15 129z" />
    <glyph glyph-name="six" unicode="6" 
d="M834 612q-120 0 -164 -24t-62 -111q-24 -107 4.5 -138.5t155.5 -31.5q62 0 95.5 1t67.5 8t49.5 17t31.5 31.5t24 48.5t17 72q4 19 6 34.5t-0.5 27.5t-5 21.5t-13 16.5t-17 11.5t-24.5 7.5t-29 4.5t-37 2.5t-41.5 1h-49.5h-8zM1579 1067h-389q8 39 9.5 65.5t-7.5 44.5
t-21 28.5t-38.5 15.5t-51.5 6.5t-69 1.5q-46 0 -72.5 -1t-57.5 -5t-48 -13t-36 -24t-31 -38.5t-23 -55t-21 -76.5l-51 -244h4q21 39 43 67t48 45t47 27t54.5 14.5t56 5.5t64.5 1q85 0 143.5 -3.5t118 -14t96 -30t66.5 -52t41 -79t9.5 -111.5t-19.5 -150
q-19 -91 -46.5 -162.5t-61.5 -124.5t-80.5 -91t-96.5 -62.5t-117 -38.5t-136 -19.5t-158 -5.5q-132 0 -220.5 9.5t-157 36.5t-103.5 69.5t-50 114t-6.5 164.5t37.5 226l82 385q21 102 50 180.5t64 137.5t83.5 100t101.5 68t125.5 42t148 21t176.5 6q63 0 104.5 -1t97 -5.5
t92 -12.5t78.5 -23t67 -36t48.5 -52.5t32.5 -71.5t8.5 -94t-14.5 -119z" />
    <glyph glyph-name="seven" unicode="7" 
d="M1604 1536l-72 -344l-764 -1192h-430l774 1192h-739l71 344h1160z" />
    <glyph glyph-name="eight" unicode="8" 
d="M868 633q-145 0 -194 -29t-72 -135q-21 -98 20.5 -130t176.5 -32q44 0 76.5 1.5t59 6t44 9.5t32.5 16.5t23 21.5t16 30t12.5 37t10.5 46q8 38 10.5 61.5t-3.5 43t-17.5 28.5t-40 15.5t-62.5 8t-92 1.5zM735 -12q-61 0 -108 2t-101 7.5t-94 15t-81 26t-69 39.5t-51 56
t-33 74t-9.5 96t14.5 120q30 144 122.5 246t231.5 108l2 15q-129 35 -168 117.5t-6 232.5q17 78 48 140t69 104t91 72.5t103.5 47.5t118.5 26.5t123 12t129 2.5q62 0 107.5 -1.5t99.5 -6.5t91.5 -14t78 -25t66 -38t47 -54t30 -72.5t7.5 -94t-15 -118.5q-34 -155 -94.5 -221
t-210.5 -110l-2 -15q70 -10 114.5 -40.5t62.5 -79t18 -105.5t-15 -129q-14 -67 -36.5 -122t-49 -97t-63 -74.5t-72.5 -55.5t-84.5 -39t-91.5 -25t-101 -14.5t-106 -7t-113 -1.5zM934 930q134 0 179.5 27.5t68.5 132.5q14 52 7 83t-49 43.5t-141 12.5q-130 0 -174 -27
t-65 -127q-7 -33 -8 -56.5t7 -39.5t20.5 -25.5t36.5 -15t50.5 -7t67.5 -1.5z" />
    <glyph glyph-name="nine" unicode="9" 
d="M963 924q119 0 162 23.5t63 111.5q24 107 -4.5 138.5t-155.5 31.5q-62 0 -95.5 -1.5t-67.5 -8t-50 -16.5t-32 -31.5t-24.5 -48.5t-17.5 -72q-5 -24 -6 -42t4.5 -31.5t11 -22.5t23 -15t29.5 -9.5t42 -5t49 -1.5h61h8zM217 469h389q-8 -39 -9.5 -65.5t7.5 -44.5t21 -28.5
t38.5 -15.5t51.5 -6.5t69 -1.5q46 0 72.5 1t57.5 5t48 13t36 24t30.5 38.5t22.5 55t20 76.5l51 244h-4q-25 -46 -53.5 -77t-53.5 -47.5t-63 -24.5t-64.5 -9.5t-76.5 -1.5q-65 0 -113.5 2t-99 7.5t-85 16t-68.5 27t-54 40t-35.5 56t-19.5 75t0 96.5t18 120q27 127 71 216.5
t100.5 145.5t139.5 87.5t172.5 43t215.5 11.5q132 0 220 -9.5t156.5 -36.5t103 -69.5t49 -114t6 -164.5t-37.5 -226l-82 -385q-25 -119 -58.5 -206t-81.5 -149t-103.5 -101t-135.5 -61t-165 -30t-203 -8q-63 0 -105 1t-97 5.5t-91.5 12.5t-79 23t-67.5 36t-48.5 52.5
t-32.5 71.5t-8 94t15 119z" />
    <glyph glyph-name="colon" unicode=":" horiz-adv-x="737" 
d="M592 356l-76 -356h-332l76 356h332zM745 1075l-75 -356h-332l76 356h331z" />
    <glyph glyph-name="semicolon" unicode=";" horiz-adv-x="737" 
d="M113 -291l32 154q87 1 123.5 30t53.5 107h-127l73 344h332l-74 -344q-20 -109 -62.5 -170.5t-126.5 -91.5t-224 -29zM756 1075l-76 -356h-332l76 356h332z" />
    <glyph glyph-name="less" unicode="&#x3c;" horiz-adv-x="1228" 
d="M1356 1075l-58 -262l-743 -244v-4l639 -243l-55 -263l-942 385l53 246z" />
    <glyph glyph-name="equal" unicode="=" horiz-adv-x="1228" 
d="M297 920h1024l-49 -236h-1024zM199 449h1024l-52 -236h-1024z" />
    <glyph glyph-name="greater" unicode="&#x3e;" horiz-adv-x="1228" 
d="M332 1075l942 -385l-53 -246l-1106 -385l55 263l745 243v4l-641 244z" />
    <glyph glyph-name="question" unicode="?" horiz-adv-x="1239" 
d="M854 543h-352l14 61q16 78 31 121t46 84t77 70t127 65l82 35q38 17 56 27t43 30t39 48t23 69q16 77 -15.5 101t-121.5 24q-36 0 -60 -2t-51.5 -9t-45 -20t-32.5 -36.5t-22 -57.5l-14 -63h-352l14 63q17 74 43 132t57.5 99.5t75 71t88 47.5t105.5 28t118.5 13.5t133.5 3.5
q73 0 127 -3.5t108 -14t90 -28.5t66 -47.5t43 -71t13.5 -99t-15.5 -131.5q-17 -80 -40.5 -137.5t-51 -98t-74 -73.5t-94.5 -57t-127 -56q-71 -28 -100 -54.5t-38 -72.5zM805 356l-76 -356h-332l76 356h332z" />
    <glyph glyph-name="at" unicode="@" horiz-adv-x="1556" 
d="M750 719q-16 -76 14 -128t102 -52q92 0 164 67.5t92 159.5q17 76 -17 125t-108 49q-84 0 -156.5 -68.5t-90.5 -152.5zM1241 1036l41 105h195l-228 -598q-17 -48 -16 -58q4 -15 27 -16q71 0 158 109t120 266q51 243 -73 381.5t-365 138.5q-254 0 -449.5 -170.5
t-251.5 -429.5q-56 -268 80 -430t402 -162q213 0 419 137h203q-145 -155 -317.5 -238t-360.5 -83q-163 0 -297.5 58t-218 161.5t-117.5 246t3 310.5q46 216 188.5 396.5t344.5 284t417 103.5q128 0 245.5 -48.5t200.5 -131.5t120 -203.5t9 -253.5q-25 -114 -89.5 -223
t-150.5 -191t-191.5 -132t-207.5 -50q-54 0 -82.5 26t-15.5 75l-2 4q-46 -43 -105.5 -69.5t-111.5 -26.5q-137 0 -218.5 106.5t-49.5 255.5q19 91 67 176t115.5 150.5t155.5 105t180 39.5q162 0 227 -121z" />
    <glyph glyph-name="A" unicode="A" horiz-adv-x="1501" 
d="M1083 264h-551l-131 -264h-426l787 1536h622l142 -1536h-418zM1065 563l-47 666h-4l-330 -666h381z" />
    <glyph glyph-name="B" unicode="B" horiz-adv-x="1511" 
d="M123 0l326 1536h806q70 0 122.5 -4t102.5 -15t84 -30t61 -48.5t38.5 -70.5t11 -97.5t-15.5 -127.5q-17 -79 -38.5 -134t-57.5 -103t-90.5 -77t-131.5 -41l-4 -16q66 -4 110 -23t67 -48t30.5 -73.5t3 -90.5t-17.5 -109q-20 -93 -48.5 -162.5t-69 -116.5t-85.5 -76.5
t-109 -45.5t-127.5 -21.5t-152.5 -5.5h-815zM788 1200l-59 -278h295q108 0 148.5 28t60.5 119q16 74 -1.5 101t-98.5 30h-345zM668 637l-64 -301h309q103 0 152.5 32.5t69.5 123.5q7 32 8 55t-5.5 39t-17.5 26t-31.5 15.5t-44 7.5t-59.5 2h-317z" />
    <glyph glyph-name="C" unicode="C" horiz-adv-x="1490" 
d="M1124 582h422l-8 -45q-11 -50 -16 -72t-17.5 -66.5t-22.5 -68.5t-28 -60.5t-38.5 -62t-49 -54.5t-63.5 -53q-39 -28 -79.5 -48t-87.5 -32t-80 -19t-90 -9.5t-82.5 -3t-90.5 -0.5q-83 0 -135.5 1.5t-121.5 7.5t-111.5 17t-92 31.5t-76.5 50t-52.5 73.5t-32 100.5t-2.5 132
t24 167.5l83 398q23 108 58 192.5t78 145t102 104.5t120.5 70.5t143.5 42t162 21t184 5.5q69 0 120 -1.5t104.5 -6.5t91 -13.5t75 -23t61 -34.5t44.5 -48t30 -64.5t13 -83t-2 -103.5t-19 -126l-12 -59h-422l13 59q5 40 -3.5 68t-25 43.5t-48.5 24t-62 10.5t-78 2
q-59 0 -101.5 -6t-74.5 -21.5t-53 -35.5t-38 -56t-28 -74t-23 -98l-51 -239q-26 -114 -27.5 -184.5t47 -102t168.5 -31.5q58 0 93 3t71.5 13.5t58.5 31t40 56.5t30 89z" />
    <glyph glyph-name="D" unicode="D" horiz-adv-x="1587" 
d="M106 0l326 1536h778q130 0 224.5 -20t161 -64t97.5 -114t36 -169t-25 -229l-70 -322q-34 -162 -85.5 -274.5t-133.5 -191.5t-198.5 -115.5t-276.5 -36.5h-834zM766 1180l-174 -824h358q109 0 171.5 67t90.5 195l70 322q12 60 12.5 101.5t-9 69t-32.5 42.5t-53.5 21
t-75.5 6h-358z" />
    <glyph glyph-name="E" unicode="E" horiz-adv-x="1388" 
d="M797 1200l-62 -280h656l-60 -285h-655l-64 -299h713l-72 -336h-1122l326 1536h1108l-70 -336h-698z" />
    <glyph glyph-name="F" unicode="F" horiz-adv-x="1261" 
d="M778 1200l-65 -301h626l-71 -336h-627l-119 -563h-409l325 1536h1090l-70 -336h-680z" />
    <glyph glyph-name="G" unicode="G" horiz-adv-x="1552" 
d="M1700 1059h-416q7 44 -4 74.5t-28 45.5t-55.5 23t-63 9t-73.5 1h-7q-56 0 -99 -3.5t-77.5 -15t-58.5 -22.5t-44.5 -35.5t-33 -45t-25.5 -59.5t-21 -70.5t-20 -86.5l-53 -249q-14 -68 -17 -117t8 -82t29 -53.5t53.5 -31t73 -14t96.5 -3.5q108 0 167 21t94 75.5t59 163.5
h-283l60 284h698l-57 -268q-28 -134 -59 -226t-78 -162.5t-102 -112t-141 -67.5t-185.5 -35t-243.5 -9q-110 0 -191.5 6t-158 21.5t-126.5 43.5t-88.5 71t-53.5 104t-13.5 144t24.5 189l84 398q27 125 69 219.5t101.5 158t127 104.5t160 63t183.5 30t213 8q85 0 128.5 -0.5
t114.5 -5t106.5 -13t86.5 -25t73.5 -41t49.5 -61.5t32.5 -85t3.5 -113t-19 -145z" />
    <glyph glyph-name="H" unicode="H" horiz-adv-x="1613" 
d="M1810 1536l-325 -1536h-410l127 602h-534l-127 -602h-410l326 1536h409l-123 -578h535l123 578h409z" />
    <glyph glyph-name="I" unicode="I" horiz-adv-x="663" 
d="M862 1536l-325 -1536h-410l326 1536h409z" />
    <glyph glyph-name="J" unicode="J" horiz-adv-x="1232" 
d="M1028 1536h410l-226 -1063q-22 -105 -48.5 -179t-65.5 -129.5t-84.5 -88.5t-115.5 -53.5t-148.5 -27.5t-192.5 -7q-110 0 -184.5 9t-129 33.5t-82 60.5t-37 98t-1 138.5t32.5 188.5l26 127h389l-26 -127q-25 -95 -8.5 -133.5t96.5 -38.5q48 0 77.5 6t48 23t27.5 39t17 61
z" />
    <glyph glyph-name="K" unicode="K" horiz-adv-x="1540" 
d="M866 1536l-123 -578h123l518 578h496l-700 -754l419 -782h-507l-301 602h-123l-127 -602h-410l326 1536h409z" />
    <glyph glyph-name="L" unicode="L" horiz-adv-x="1198" 
d="M854 1536l-250 -1180h641l-76 -356h-1050l325 1536h410z" />
    <glyph glyph-name="M" unicode="M" horiz-adv-x="2148" 
d="M743 1178l-208 -1178h-410l326 1536h649l88 -965h14l484 965h665l-326 -1536h-409l291 1178h-15l-639 -1178h-354l-143 1178h-13z" />
    <glyph glyph-name="N" unicode="N" horiz-adv-x="1783" 
d="M760 1180l-225 -1180h-410l326 1536h692l190 -1180h17l225 1180h410l-326 -1536h-698l-185 1180h-16z" />
    <glyph glyph-name="O" unicode="O" horiz-adv-x="1556" 
d="M776 -12q-82 0 -149 5t-132.5 16.5t-115 32t-92.5 50.5t-69.5 73t-41.5 98.5t-12.5 128t20.5 159.5l92 434q29 139 86 240t129.5 162.5t174 98t205 49.5t237.5 13q82 0 149 -5t132.5 -16.5t114.5 -32t92 -50.5t69.5 -73t41 -98.5t12 -127.5t-20.5 -160l-92 -434
q-29 -139 -85.5 -240t-129 -162.5t-173.5 -98t-204.5 -49.5t-237.5 -13zM852 344q71 0 113.5 4.5t83.5 18t65.5 42t44.5 73.5t35 114l74 346q12 57 14.5 97.5t-8 68.5t-26.5 44.5t-50 25.5t-70.5 11.5t-95.5 2.5t-96.5 -2.5t-74.5 -11.5t-60.5 -25.5t-45.5 -45t-37 -68.5
t-28 -97l-74 -346q-11 -58 -13 -98.5t8 -69t26.5 -44.5t50 -25.5t69.5 -12t95 -2.5z" />
    <glyph glyph-name="P" unicode="P" horiz-adv-x="1456" 
d="M528 0h-409l325 1536h773q284 0 377 -130.5t28 -432.5q-24 -113 -50 -193.5t-63.5 -148.5t-84 -110.5t-112 -72.5t-147.5 -42.5t-190 -12.5h-363zM688 750h281q45 2 71 4.5t51 12t38.5 22.5t27.5 39.5t23 59t20 85.5q29 119 2 163t-143 44h-281z" />
    <glyph glyph-name="Q" unicode="Q" horiz-adv-x="1630" 
d="M1051 774l186 -156l53 250q15 73 21.5 119t3 85.5t-17.5 60t-45 35.5t-74.5 19.5t-110.5 4.5t-111.5 -4.5t-82 -19.5t-60.5 -35.5t-43 -60t-33 -85.5t-28 -119l-60 -276q-12 -59 -14 -100.5t10 -69t28.5 -43t53 -23.5t70 -10t92.5 -2q120 0 186 23l-233 178zM1497 -2
l-127 121q-60 -44 -131.5 -72.5t-151 -40t-137 -15t-137.5 -3.5q-107 0 -188 7.5t-153.5 25.5t-121.5 48.5t-85 77.5t-50 112t-10.5 151t26.5 196l68 324q27 125 67.5 220.5t97 163.5t123.5 113.5t156 72t184.5 37.5t217.5 11q104 0 185 -8t152.5 -26.5t121 -50t85 -79
t50.5 -112t11.5 -150t-26.5 -192.5l-79 -385q-25 -122 -76 -205l143 -115z" />
    <glyph glyph-name="R" unicode="R" horiz-adv-x="1519" 
d="M688 764h318q63 0 100 9t60.5 45t31.5 63t25 106q3 11 4 17q22 103 -5 139.5t-128 36.5h-318zM117 0l325 1536h791q94 -2 161 -10t125.5 -28t92.5 -53.5t54 -84t18.5 -122.5t-21.5 -167q-14 -69 -22.5 -104t-24.5 -88.5t-33 -81t-45.5 -64t-64 -58t-86 -42.5t-115.5 -35
l-4 -16q129 -5 187.5 -75t31.5 -198l-66 -309h-409l45 215q23 90 -7.5 141.5t-119.5 51.5h-318l-86 -408h-409z" />
    <glyph glyph-name="S" unicode="S" horiz-adv-x="1466" 
d="M856 946l168 -12q90 -7 153 -14t120.5 -19.5t94 -28t65.5 -40t42.5 -54.5t18.5 -73t-0.5 -94t-20.5 -119q-31 -150 -59 -214q-63 -144 -215 -212q-175 -78 -498 -78q-81 0 -126 1t-111 5.5t-102 14t-82.5 27t-68.5 43.5t-45.5 64.5t-28 89t-0.5 117.5t21 150h393
q-9 -41 -10 -69t8 -48t24 -31t46 -17.5t65 -8.5t89 -2q64 0 102 2.5t73 10t54 23.5t33 41t22 64q21 94 -5.5 113.5t-164.5 28.5q-9 1 -14 1l-88 6l-42 3q-96 7 -141.5 11.5t-116 17t-100 30.5t-67 51t-46.5 79.5t-8.5 114.5t19.5 158q14 65 32.5 120t43.5 98t51.5 77.5
t62 60t70 44t81 31t88 20.5t99 11.5t106 5t116.5 1.5q79 0 124 -1t112 -6.5t104 -17t83.5 -31.5t68 -52t39.5 -76t17 -106t-18 -140l-14 -63h-393q5 24 7.5 42.5t1 34t-3.5 27t-11.5 20t-15.5 14t-23 9.5t-27.5 6t-34.5 3t-39 1h-46h-3q-65 0 -111 -6t-73.5 -15t-45 -27
t-25 -36t-13.5 -47q-6 -26 -6 -46t2.5 -33.5t14 -23t20 -14.5t30.5 -9t35 -5.5t43 -3.5z" />
    <glyph glyph-name="T" unicode="T" horiz-adv-x="1218" 
d="M1055 1180l-250 -1180h-410l250 1180h-393l76 356h1216l-76 -356h-413z" />
    <glyph glyph-name="U" unicode="U" horiz-adv-x="1579" 
d="M1368 1536h410l-217 -1024q-32 -154 -89.5 -255t-151.5 -161t-216 -84t-297 -24q-301 0 -437.5 54t-155 170.5t23.5 299.5l217 1024h409l-215 -1016q-7 -32 -8.5 -57.5t5.5 -43.5t15 -31t27.5 -21t34.5 -13t46 -7t52.5 -2.5t61.5 -0.5q49 0 78.5 2t60.5 8.5t49 19
t35.5 35t29 54t21.5 76.5z" />
    <glyph glyph-name="V" unicode="V" horiz-adv-x="1456" 
d="M803 352l588 1184h424l-775 -1536h-639l-108 1536h416l82 -1184h12z" />
    <glyph glyph-name="W" unicode="W" horiz-adv-x="2260" 
d="M1712 352l481 1184h412l-666 -1536h-591l-5 963h-16l-428 -963h-586l-6 1536h416l-29 -1184h15l538 1184h426l25 -1184h14z" />
    <glyph glyph-name="X" unicode="X" horiz-adv-x="1499" 
d="M1827 1536l-582 -745l289 -791h-477l-180 592l-428 -592h-482l629 791l-274 745h479l157 -563l398 563h471z" />
    <glyph glyph-name="Y" unicode="Y" horiz-adv-x="1449" 
d="M1808 1536l-772 -997l-114 -539h-410l115 539l-334 997h469l149 -592h15l407 592h475z" />
    <glyph glyph-name="Z" unicode="Z" horiz-adv-x="1349" 
d="M1628 1536l-72 -344l-911 -823l-2 -13h735l-75 -356h-1256l74 346l899 821l2 13h-678l76 356h1208z" />
    <glyph glyph-name="bracketleft" unicode="[" horiz-adv-x="788" 
d="M446 1548h555l-71 -336h-166l-252 -1183h166l-72 -336h-555z" />
    <glyph glyph-name="backslash" unicode="\" horiz-adv-x="1310" 
d="M918 -231l-529 1767h281l528 -1767h-280z" />
    <glyph glyph-name="bracketright" unicode="]" horiz-adv-x="788" 
d="M606 -307h-555l72 336h166l252 1183h-166l71 336h555z" />
    <glyph glyph-name="asciicircum" unicode="^" horiz-adv-x="1228" 
d="M477 512h-266l606 1024h246l172 -1024h-266l-97 692h-4z" />
    <glyph glyph-name="underscore" unicode="_" horiz-adv-x="1024" 
d="M991 -154l-22 -102h-1024l22 102h1024z" />
    <glyph glyph-name="grave" unicode="`" horiz-adv-x="827" 
d="M586 1548l364 -245l-84 -127l-432 145z" />
    <glyph glyph-name="a" unicode="a" horiz-adv-x="1247" 
d="M684 444q-75 0 -118.5 -22.5t-59.5 -89.5q-4 -17 -4 -31.5t3 -25.5t7.5 -20t13 -15t15.5 -10.5t18.5 -7t19.5 -4t20 -2.5t18.5 -1h17.5q114 0 158.5 24.5t62.5 106.5q12 62 -30 80t-142 18zM782 0l47 160h-12q-69 -172 -346 -172q-55 0 -98 4t-82.5 14t-66.5 27
t-47.5 42.5t-29.5 60.5t-8 81.5t13 104.5q40 187 150.5 262t309.5 75h47t47 -2t51 -6t43.5 -13t40.5 -21.5t26 -32.5t14 -45h16l37 170q9 50 10.5 86.5t-30.5 56.5t-105 20t-114.5 -24.5t-55.5 -91.5h-352q49 224 217 291q47 19 112.5 28.5t108 10.5t129.5 1q73 0 125 -2.5
t103.5 -10t85 -21t62.5 -35t43.5 -52t21.5 -73t2.5 -97t-19.5 -124.5l-143 -672h-353z" />
    <glyph glyph-name="b" unicode="b" horiz-adv-x="1255" 
d="M438 1536h353l-129 -614h16q58 94 151 135q66 30 183 30q221 0 291.5 -105.5t17.5 -352.5l-51 -246q-44 -208 -167 -301.5t-325 -93.5q-127 0 -193.5 42t-72.5 156h-16l-31 -186h-352zM715 258q111 0 154.5 54t80.5 227q11 51 16.5 83.5t7 68t-5.5 56t-22.5 38t-43 25
t-68.5 7.5q-59 0 -94.5 -9t-67 -38.5t-52.5 -84t-40 -146.5q-13 -60 -19 -94t-7.5 -71t7 -55t27 -34t49.5 -21.5t78 -5.5z" />
    <glyph glyph-name="c" unicode="c" horiz-adv-x="1140" 
d="M838 430h352q-32 -150 -79.5 -238.5t-119.5 -132.5q-66 -43 -161.5 -57t-254.5 -14q-106 0 -180.5 11t-127 37.5t-81 66.5t-38 103.5t-1.5 142t31 188.5q18 83 36.5 145.5t45.5 122.5t60.5 102t80 78t105 57.5t134 33t169.5 11.5q75 0 126.5 -3t108 -12.5t91.5 -27
t66.5 -48.5t44 -74.5t12.5 -106t-17 -143.5h-352q20 83 -4 114q-27 31 -133 31q-51 0 -81 -9t-57 -39t-46 -84.5t-38 -147.5q-16 -78 -22 -126t-3.5 -80.5t20 -47t41 -20t67.5 -5.5q61 0 95.5 7t56.5 30.5t31 50.5t22 84z" />
    <glyph glyph-name="d" unicode="d" horiz-adv-x="1253" 
d="M1468 1536l-325 -1536h-352l47 186h-17q-52 -113 -143 -159q-79 -39 -205 -39q-202 0 -284.5 93.5t-38.5 301.5l51 246q53 247 169 352.5t337 105.5q53 0 92.5 -6.5t76 -23.5t60.5 -51t35 -84h16l129 614h352zM535 537q-13 -58 -19 -98t-8 -71.5t4.5 -50.5t15.5 -31.5
t29.5 -18t41.5 -7.5t56 -2q59 0 93.5 9t65 39t51 84t40.5 147q41 157 20 218.5t-151 61.5q-30 0 -53.5 -3t-42.5 -7.5t-34.5 -15.5t-27 -20.5t-21.5 -29.5t-17 -36t-15 -47t-13.5 -54.5t-14.5 -66.5z" />
    <glyph glyph-name="e" unicode="e" horiz-adv-x="1175" 
d="M557 672h346q8 40 9.5 68.5t-6 47t-17.5 29.5t-32 16.5t-42.5 7t-54.5 1.5q-96 0 -137.5 -33t-65.5 -137zM842 358h346q-48 -224 -211 -307q-126 -63 -391 -63q-212 0 -314 53t-122.5 175t26.5 321q28 130 60 217t79.5 154.5t116.5 105t162 55.5t225 18
q125 0 206.5 -15.5t137 -51.5t77 -101t18.5 -156.5t-31 -225.5l-13 -60h-698q-33 -141 -9.5 -192.5t130.5 -51.5q94 0 141.5 23.5t63.5 101.5z" />
    <glyph glyph-name="f" unicode="f" horiz-adv-x="804" 
d="M1004 1075l-56 -258h-239l-174 -817h-353l174 817h-141l55 258h142l20 105q19 88 47 146.5t74 102t119 66t171 32.5t242 9l-55 -268q-33 10 -63 10q-40 0 -66.5 -2t-47 -11t-31.5 -17.5t-21 -31.5t-15 -42.5t-14 -59.5l-8 -39h240z" />
    <glyph glyph-name="g" unicode="g" horiz-adv-x="1259" 
d="M662 270q64 0 104.5 14.5t67 51.5t40.5 80t31 121q16 75 20.5 123t-0.5 80.5t-24.5 48.5t-47.5 22t-75 6q-44 0 -71.5 -3t-52 -15t-38.5 -28.5t-28.5 -51.5t-24.5 -75t-24 -107q-19 -87 -23 -135.5t10 -80t45.5 -41.5t90.5 -10zM94 -96h334q-17 -85 27 -109
q29 -16 104 -16q116 0 157 31.5t64 142.5l47 223h-12q-52 -94 -141 -137q-77 -39 -189 -39q-70 0 -125 10t-92 31.5t-62.5 47.5t-37.5 65.5t-17 78t0 92.5t13 101t22 111q17 82 33 141t39.5 120t51 102.5t66 79t87 59.5t112 35t142.5 13q126 0 191 -42.5t71 -159.5h12
l29 190h352l-219 -1028q-27 -124 -60.5 -209t-81.5 -148t-117.5 -98.5t-160 -52t-217.5 -16.5q-77 0 -130.5 2.5t-104 9.5t-82.5 19t-59 32t-39.5 47.5t-18.5 67.5t-2.5 89t14.5 114z" />
    <glyph glyph-name="h" unicode="h" horiz-adv-x="1267" 
d="M795 1536l-140 -662h15q65 124 153 170q79 43 213 43q177 0 243.5 -85t29.5 -259l-158 -743h-352l141 662q14 83 -8.5 119t-104.5 36q-57 0 -98.5 -16t-67 -48.5t-40.5 -69.5t-27 -91l-125 -592h-352l325 1536h353z" />
    <glyph glyph-name="i" unicode="i" horiz-adv-x="526" 
d="M670 1075l-230 -1075h-352l229 1075h353zM766 1536l-57 -270h-353l58 270h352z" />
    <glyph glyph-name="j" unicode="j" horiz-adv-x="495" 
d="M643 1075l-231 -1089q-37 -175 -137.5 -247.5t-280.5 -72.5q-60 0 -100 12l51 242q60 0 86 27.5t35 75.5l225 1052h352zM739 1536l-57 -270h-352l57 270h352z" />
    <glyph glyph-name="k" unicode="k" horiz-adv-x="1212" 
d="M791 1536l-183 -864h62l299 403h387l-414 -516l254 -559h-412l-166 436h-61l-92 -436h-352l325 1536h353z" />
    <glyph glyph-name="l" unicode="l" horiz-adv-x="591" 
d="M799 1536l-326 -1536h-352l325 1536h353z" />
    <glyph glyph-name="m" unicode="m" horiz-adv-x="1902" 
d="M348 1075h342l-33 -151h15q90 163 329 163q51 0 90 -4t79.5 -17t65.5 -35.5t38.5 -61.5t7.5 -92h16q24 73 82 122t124 68.5t138 19.5q190 0 264.5 -84t35.5 -268l-156 -735h-352l133 623q14 97 10 124q-7 56 -70 67q-18 3 -41 3q-50 0 -86.5 -15.5t-60 -45.5t-38 -64.5
t-24.5 -81.5l-129 -610h-352l139 651q7 50 9 86.5t-23.5 58t-83.5 21.5q-102 0 -147.5 -50t-69.5 -157l-129 -610h-352z" />
    <glyph glyph-name="n" unicode="n" horiz-adv-x="1267" 
d="M346 1075h352l-43 -201h15q65 124 153 170q79 43 213 43q177 0 243.5 -85t29.5 -259l-158 -743h-352l141 662q14 83 -8.5 119t-104.5 36q-57 0 -98.5 -16t-67 -48.5t-40.5 -69.5t-27 -91l-125 -592h-352z" />
    <glyph glyph-name="o" unicode="o" horiz-adv-x="1214" 
d="M838 1087q117 0 195 -8.5t135.5 -33.5t86 -62t38.5 -102t1 -145t-34 -199q-25 -115 -50 -194.5t-63 -144t-83 -102.5t-113 -63.5t-150 -35t-197 -9.5q-113 0 -191 10.5t-133.5 37t-85 65.5t-40 103t-2.5 142.5t32 190.5q24 115 49 194t62 143.5t82 103t112.5 64.5
t150 35.5t198.5 9.5zM786 817q-66 0 -104 -10t-66 -44t-43.5 -82.5t-35.5 -143.5q-16 -75 -22 -119t-3 -79t22 -50.5t50 -23t84 -7.5q43 0 71.5 4t52 17.5t38 30t29 52t24.5 73.5t24 102q13 64 19.5 102.5t7 73.5t-7 52t-25.5 30.5t-45 17.5t-70 4z" />
    <glyph glyph-name="p" unicode="p" horiz-adv-x="1265" 
d="M14 -465l328 1540h352l-45 -170h17q52 104 143 146q71 36 203 36q201 0 283.5 -93.5t39.5 -301.5l-53 -246q-53 -247 -168.5 -352.5t-335.5 -105.5q-53 0 -92.5 7t-76.5 24.5t-60.5 53.5t-32.5 89h-16l-133 -627h-353zM815 817q-58 0 -93.5 -11t-62.5 -44.5t-43.5 -84
t-35.5 -140.5q-11 -51 -16.5 -83.5t-7 -68t5.5 -56t22.5 -38.5t43 -25.5t68.5 -7.5q78 0 120.5 19t75 78.5t58.5 181.5q8 41 12.5 65t9 54t4 47t-3 36.5t-10.5 30t-20 21t-30 15.5t-42 8t-55 3z" />
    <glyph glyph-name="q" unicode="q" horiz-adv-x="1267" 
d="M1053 -465h-353l134 627h-17q-62 -102 -153 -142q-65 -32 -183 -32q-221 0 -292.5 106t-18.5 352l53 246q43 207 166.5 301t325.5 94q126 0 193.5 -40t74.5 -142h16l29 170h352zM778 817q-58 0 -93.5 -11t-62.5 -44.5t-43.5 -84t-35.5 -140.5q-11 -51 -16.5 -83.5t-7 -68
t5.5 -56t22.5 -38.5t43 -25.5t68.5 -7.5q78 0 120.5 19t75 78.5t58.5 181.5q8 41 12.5 65t9 54t4 47t-3 36.5t-10.5 30t-20 21t-30 15.5t-42 8t-55 3z" />
    <glyph glyph-name="r" unicode="r" horiz-adv-x="1026" 
d="M815 606l10 51q18 85 13 112q-9 48 -70 48q-133 0 -168 -172l-137 -645h-352l229 1075h342l-35 -157h15q59 92 133 131q72 38 174 38q51 0 89.5 -12t61.5 -31.5t36.5 -51t18 -63t1.5 -75.5t-9 -79.5t-16 -84.5l-18 -84h-318z" />
    <glyph glyph-name="s" unicode="s" horiz-adv-x="1183" 
d="M1231 770h-332q5 59 -39 80q-25 10 -86 10q-55 0 -90.5 -3.5t-56 -8t-32 -17.5t-15.5 -23t-9 -34q-6 -20 -3.5 -36.5t15.5 -29t51 -20t103 -8.5q68 -2 113.5 -4t97 -6.5t83.5 -12t66 -19.5t52 -29t34 -41t20 -55.5t2 -72t-13 -90.5q-19 -92 -61.5 -158.5t-96.5 -105
t-130 -61.5t-148 -30t-166 -7q-196 0 -270 14q-150 27 -185 134q-25 76 2 200h352q-16 -81 31 -107q31 -14 117 -14q121 0 156.5 16t48.5 78q4 20 5 35t-3.5 26.5t-9.5 19t-18.5 12.5t-23.5 8t-32 4t-36.5 1.5t-43.5 0.5q-166 0 -266.5 19t-147.5 58.5t-55 99.5t10 142
q16 73 42.5 128.5t55.5 92.5t77 62.5t86.5 39t104.5 20t111 8t125 1.5q81 0 127.5 -2t118.5 -16t108.5 -40t58 -79t5.5 -129z" />
    <glyph glyph-name="t" unicode="t" horiz-adv-x="993" 
d="M1149 1075l-55 -258h-408l-102 -481q-10 -50 2 -70t59 -20q14 0 25.5 2t20.5 5t17 9.5t13.5 10.5t11 15t8.5 16t7.5 19t6 19t6 21.5t5.5 21.5l14 57h281l-21 -96q-23 -110 -58 -179.5t-93.5 -109.5t-132.5 -54.5t-187 -14.5q-47 0 -82.5 2t-74.5 7t-67 14.5t-55 24.5
t-43.5 38t-26.5 52.5t-9.5 70t10.5 90.5l113 530h-131l55 258h131l47 228h352l-47 -228h408z" />
    <glyph glyph-name="u" unicode="u" horiz-adv-x="1259" 
d="M1137 0h-342l55 207h-16q-111 -219 -367 -219q-365 0 -291 352l158 735h352l-137 -641q-9 -50 -11.5 -89t22.5 -63t81 -24q78 0 146.5 41t84.5 115l142 661h352z" />
    <glyph glyph-name="v" unicode="v" horiz-adv-x="1085" 
d="M1329 1075l-493 -1075h-553l-68 1075h369l14 -839h10l357 839h364z" />
    <glyph glyph-name="w" unicode="w" horiz-adv-x="1716" 
d="M1944 1075l-418 -1075h-506l10 766h-12l-309 -766h-512l34 1075h338l-61 -839h16l359 839h411l-2 -839h15l305 839h332z" />
    <glyph glyph-name="x" unicode="x" horiz-adv-x="1116" 
d="M1329 1075l-391 -506l190 -569h-413l-78 354l-225 -354h-424l440 569l-168 506h408l59 -297l193 297h409z" />
    <glyph glyph-name="y" unicode="y" horiz-adv-x="1091" 
d="M1335 1075l-520 -1169q-61 -146 -129 -226.5t-166.5 -118.5t-249.5 -38q-18 0 -37.5 1t-43 2.5t-37.5 2.5l51 244q40 -4 61 -4q53 0 93.5 18t67 52.5t43 72t30.5 88.5h-193l-90 1075h369l26 -874h4l361 874h360z" />
    <glyph glyph-name="z" unicode="z" horiz-adv-x="1015" 
d="M311 1075h891l-59 -278l-637 -551h520l-53 -246h-930l61 291l623 538h-469z" />
    <glyph glyph-name="braceleft" unicode="{" horiz-adv-x="788" 
d="M154 496l57 270q168 0 188 90l88 420q14 66 51.5 121t82 86t86 48t71.5 17h291l-57 -270h-76q-27 0 -47 -6.5t-31.5 -15t-20 -24.5t-11.5 -27.5t-7 -30.5l-76 -351q-10 -44 -32 -78.5t-47 -54t-56.5 -33.5t-54.5 -19t-47 -7v-4q14 -1 22.5 -2.5t25 -4.5t27 -7.5
t25.5 -12.5t24 -18.5t18 -26.5t12.5 -35t3 -45t-6.5 -57l-73 -350q-4 -27 -7 -50t15.5 -39t62.5 -16h76l-57 -270h-291q-30 0 -64 17t-65 48t-45 86t0 121l90 420q9 39 -4 64t-43.5 34t-49.5 11t-46 2h-2z" />
    <glyph glyph-name="bar" unicode="|" horiz-adv-x="1083" 
d="M578 1753h258v-2337h-258v2337z" />
    <glyph glyph-name="braceright" unicode="}" horiz-adv-x="788" 
d="M901 766l-57 -270q-166 0 -191 -111l-90 -420q-14 -66 -51 -121t-81 -86t-85.5 -48t-71.5 -17h-290l57 270h76q34 0 56 8.5t34 26t16.5 31.5t9.5 39l74 350q13 54 37 94t47.5 60t57.5 33t52.5 16t47.5 6v4q-29 3 -55 11.5t-55 28t-42 59t-4 93.5l76 351q4 18 5 26t1.5 23
t-3.5 22.5t-12 16.5t-24 12.5t-39 3.5h-75l57 270h291q30 0 64 -16t65.5 -49.5t43.5 -85t-1 -121.5l-88 -420q-20 -90 147 -90z" />
    <glyph glyph-name="asciitilde" unicode="~" horiz-adv-x="1228" 
d="M1083 735h199q-15 -74 -41.5 -142t-68 -133.5t-104 -105t-136.5 -39.5q-61 0 -139 60l-218 164q-53 39 -94 39q-15 0 -28 -11t-23.5 -35t-17 -41.5t-15.5 -50t-12 -41.5h-199q13 59 31 113.5t49 113t69.5 100.5t93 69.5t118.5 27.5q69 0 129 -47l192 -160q58 -53 109 -53
q37 0 68 57.5t38 114.5z" />
    <glyph glyph-name="uni00A0" unicode="&#xa0;" horiz-adv-x="737" 
 />
    <glyph glyph-name="exclamdown" unicode="&#xa1;" horiz-adv-x="714" 
d="M754 1075l-76 -356h-332l76 356h332zM70 -465l211 932h352l-182 -932h-381z" />
    <glyph glyph-name="cent" unicode="&#xa2;" 
d="M805 -23h-156l39 185q-184 0 -267.5 64t-86.5 190.5t37 316.5q20 95 40 162t50.5 132t70 107t94.5 75t129 48t169 15l32 153h156l-33 -153q231 0 307.5 -94t24.5 -324h-328q10 76 -17.5 111.5t-121.5 35.5q-54 0 -85 -9.5t-56 -41t-40 -80t-34 -137.5q-12 -59 -18.5 -92
t-11.5 -70t-5 -54.5t4.5 -36.5t13.5 -25.5t25.5 -13.5t36 -8t49.5 -1q100 0 144 39.5t65 142.5h328q-16 -75 -31 -127t-36.5 -103t-48 -83.5t-63.5 -61.5t-85 -44.5t-110 -24t-142 -8.5z" />
    <glyph glyph-name="sterling" unicode="&#xa3;" 
d="M1655 1026h-402q24 113 -2 145q-26 35 -125 35q-109 0 -153.5 -36.5t-67.5 -145.5l-35 -162h390l-62 -297h-389q-24 -108 -50 -152.5t-95 -74.5l-2 -10h845l-69 -328h-1295l70 328q39 0 68 12.5t45.5 28t31 49.5t20.5 56t16 69q2 7 3 12l2 10h-182l62 297h182l47 221
q24 103 56 175.5t84 130t127 91t179.5 51t247.5 17.5q118 0 201 -9t142.5 -31.5t92.5 -55t47 -85t9.5 -116t-23.5 -153.5z" />
    <glyph glyph-name="currency" unicode="&#xa4;" 
d="M1212 516l129 -166l-176 -139l-131 166q-8 -4 -35 -18t-42 -20t-41.5 -15t-55.5 -12.5t-63 -2.5q-129 7 -197 72l-209 -172l-115 143l203 170q-44 75 -38.5 162t41.5 164t87 117l-135 165l182 148l132 -168q47 31 112.5 50t132.5 16q142 -6 207 -62l205 168l117 -145
l-209 -170q2 -8 9 -27t11 -32t8.5 -38.5t3.5 -47t-4 -56.5q-7 -35 -19 -68t-28.5 -62t-28 -46.5t-30.5 -42.5t-23 -31zM696 733q-12 -79 34 -133.5t122 -54.5q51 0 95 19.5t72 49.5t45 61t21 58q24 78 -18.5 142.5t-130.5 64.5q-86 0 -157.5 -64.5t-82.5 -142.5z" />
    <glyph glyph-name="yen" unicode="&#xa5;" 
d="M1487 1143h192l-57 -271h-340l-121 -159h426l-57 -271h-502l-94 -442h-410l94 442h-485l57 271h412l-49 159h-328l58 271h186l-125 393h444l136 -592h14l393 592h451z" />
    <glyph glyph-name="brokenbar" unicode="&#xa6;" horiz-adv-x="1083" 
d="M578 1577h258v-817h-258v817zM578 408h258v-816h-258v816z" />
    <glyph glyph-name="section" unicode="&#xa7;" 
d="M647 440l309 -59q60 -12 86 -12q108 0 138 155q13 46 5 75t-44.5 46.5t-122.5 34.5l-240 47q-74 18 -110 18q-60 0 -94 -42.5t-46 -106.5q-5 -21 -6.5 -38t-2 -30.5t3.5 -24t6.5 -18t12.5 -14t14 -9.5t19 -7t21 -5.5t25 -5t26 -4.5zM1595 1145l-18 -86h-379
q12 56 10.5 90.5t-20.5 50.5q-21 18 -64.5 23.5t-136.5 5.5q-96 0 -148 -12t-70 -31.5t-26 -57.5q-4 -19 -4.5 -34t0.5 -25.5t9.5 -18.5t14 -12.5t22 -9t27 -6.5t34.5 -6.5t39 -7.5l368 -70q61 -12 98 -20.5t77.5 -23t61.5 -31.5t39.5 -43.5t23 -62t1.5 -82.5t-16 -110
q-28 -129 -51 -177q-44 -95 -139 -138q39 -14 60 -41t24.5 -68.5t-1 -79t-16.5 -94.5q-15 -70 -32 -120.5t-45.5 -100t-67.5 -82t-96.5 -61.5t-135 -45.5t-180.5 -25.5t-235 -9q-74 0 -129 2t-110.5 7t-94 14.5t-75.5 24.5t-59.5 35.5t-42 50t-27 66t-9 84t5.5 105t22 127.5
h379q-8 -45 -9.5 -75t6 -53t21.5 -36t42 -20.5t62 -10t87 -2.5q125 0 189 12.5t88.5 37t34.5 73.5q5 32 5.5 52.5t-12 35t-28.5 22t-44 14.5t-58 13q-9 1 -13 2l-469 84q-75 14 -119.5 30.5t-74.5 40t-38.5 62.5t-5 88.5t20.5 127.5q8 38 14 62.5t17.5 60.5t26.5 60.5
t35.5 50.5t50 43.5t65.5 27.5q-31 26 -46.5 60t-15 79.5t5.5 78t17 87.5t25.5 96t39 85t60.5 75t88.5 60t123 46.5t165.5 28t215 10.5q68 0 115 -1t105 -5.5t96.5 -12.5t81 -23t68 -35.5t49 -51t32 -69.5t7.5 -90.5t-14 -114.5z" />
    <glyph glyph-name="dieresis" unicode="&#xa8;" horiz-adv-x="960" 
d="M686 1458l-45 -211h-223l45 211h223zM1116 1458l-45 -211h-223l45 211h223z" />
    <glyph glyph-name="copyright" unicode="&#xa9;" horiz-adv-x="1638" 
d="M817 -12q-127 0 -238.5 39.5t-191 110.5t-132.5 169t-65 214t13 247q34 159 126.5 303.5t219 249t284 166t316.5 61.5q127 0 238 -39.5t190.5 -110.5t133 -169t65.5 -214t-13 -247q-34 -159 -126.5 -303.5t-219.5 -249t-284.5 -166t-315.5 -61.5zM854 166q122 0 243 47.5
t219.5 128t170.5 192t98 234.5q28 125 1.5 235t-89 191.5t-164 128.5t-223.5 47q-165 0 -320.5 -80.5t-265 -219t-143.5 -302.5q-35 -164 15 -302.5t171.5 -219t286.5 -80.5zM1182 621h182q-46 -145 -173 -231.5t-276 -86.5q-134 0 -224 63t-122 169.5t-4 238.5
q45 209 193.5 341t353.5 132q152 0 239.5 -82.5t80.5 -226.5h-183q3 74 -44.5 118t-125.5 44q-125 0 -215.5 -95t-118.5 -227q-15 -58 -6.5 -116t31 -105t69.5 -76.5t109 -29.5q76 0 145 48.5t89 121.5z" />
    <glyph glyph-name="ordfeminine" unicode="&#xaa;" horiz-adv-x="983" 
d="M838 1221l18 92q14 72 2.5 88t-72.5 16q-45 0 -68 -14.5t-32 -54.5h-213q31 134 129 176q28 12 68 17.5t64 6t77 0.5q38 0 64.5 -1t57.5 -4t51 -9.5t40.5 -17t32 -26.5t19.5 -37.5t7.5 -51t-8.5 -66.5l-96 -450h-213l22 106h-4q-22 -62 -86 -90q-52 -24 -123 -24
q-114 0 -161.5 47.5t-22.5 160.5q24 115 88.5 160t184.5 45q88 0 118 -11q42 -16 49 -58h7zM711 1161q-44 0 -70.5 -14.5t-36.5 -59.5q-9 -37 7.5 -51t93.5 -14q59 0 78 16.5t28 57.5q4 19 -1 32t-13 19.5t-24.5 9.5t-27 3.5t-29.5 0.5h-5z" />
    <glyph glyph-name="guillemotleft" unicode="&#xab;" horiz-adv-x="1138" 
d="M580 1055l204 -125l-274 -373l123 -346l-248 -135l-172 481zM1036 1055l205 -125l-274 -373l123 -346l-248 -135l-172 481z" />
    <glyph glyph-name="logicalnot" unicode="&#xac;" horiz-adv-x="1228" 
d="M958 322l78 362h-788l49 236h1024l-127 -598h-236z" />
    <glyph glyph-name="uni00AD" unicode="&#xad;" horiz-adv-x="557" 
d="M156 733h557l-72 -336h-557z" />
    <glyph glyph-name="registered" unicode="&#xae;" horiz-adv-x="1638" 
d="M817 -12q-127 0 -238.5 39.5t-191 110.5t-132.5 169t-65 214t13 247q34 159 126.5 303.5t219 249t284 166t316.5 61.5q127 0 238 -39.5t190.5 -110.5t133 -169t65.5 -214t-13 -247q-34 -159 -126.5 -303.5t-219.5 -249t-284.5 -166t-315.5 -61.5zM854 166q122 0 243 47.5
t219.5 128t170.5 192t98 234.5q28 125 1.5 235t-89 191.5t-164 128.5t-223.5 47q-165 0 -320.5 -80.5t-265 -219t-143.5 -302.5q-35 -164 15 -302.5t171.5 -219t286.5 -80.5zM1151 696l129 -356h-201l-114 346h-158l-74 -346h-178l180 844h422q39 0 70 -2t61.5 -7t53 -14
t42.5 -22.5t32 -33t18.5 -45t5.5 -59.5t-10 -75q-24 -114 -93 -168t-186 -62zM836 821h247q75 -2 115.5 24.5t56.5 102.5q7 29 -1.5 49t-22.5 30t-42 15t-47 6t-52 1h-205z" />
    <glyph glyph-name="macron" unicode="&#xaf;" horiz-adv-x="950" 
d="M461 1446h643l-41 -193h-643z" />
    <glyph glyph-name="degree" unicode="&#xb0;" horiz-adv-x="819" 
d="M981 1241q-28 -127 -137.5 -217t-235.5 -90q-128 0 -198.5 90t-42.5 217q25 126 134.5 216.5t237.5 90.5q126 0 197 -90.5t45 -216.5zM840 1241q14 68 -25 117t-108 49q-68 0 -127.5 -49.5t-71.5 -116.5q-15 -69 23.5 -117.5t107.5 -48.5q68 0 127 48.5t74 117.5z" />
    <glyph glyph-name="plusminus" unicode="&#xb1;" horiz-adv-x="1228" 
d="M725 1075h236l-52 -241h396l-52 -236h-395l-53 -252h-236l54 252h-394l52 236h393zM102 0l50 236h1024l-50 -236h-1024z" />
    <glyph glyph-name="twosuperior" unicode="&#xb2;" horiz-adv-x="884" 
d="M1001 811l-40 -193h-789l41 193q12 56 24 92.5t35 68.5t48.5 51t73.5 38t100.5 32t138.5 31q138 29 166 45t41 84q14 67 -10 86t-107 17q-92 0 -119.5 -17.5t-42.5 -89.5l-10 -45h-254l10 45q16 74 44 127t66 86.5t92.5 52.5t114 26t140.5 7q48 0 84.5 -2t74.5 -7
t64.5 -14.5t51.5 -24.5t39 -37t22.5 -51t7 -68t-11.5 -87q-17 -78 -39.5 -126t-65.5 -81.5t-93.5 -51.5t-141.5 -40q-43 -10 -92.5 -19t-72 -13.5t-48.5 -13t-37.5 -20t-21.5 -31t-17 -50.5h534z" />
    <glyph glyph-name="threesuperior" unicode="&#xb3;" horiz-adv-x="884" 
d="M612 1001l37 179h64q94 0 120 13t35 62q9 37 7 59.5t-29.5 32t-93.5 9.5q-35 0 -52.5 -1t-39.5 -6.5t-33 -17t-21 -31.5t-16 -51l-4 -18h-254l6 33q16 77 46 130t65.5 83t92 46t108 20.5t130.5 4.5q69 0 114.5 -3t102.5 -16.5t88 -39t46.5 -73.5t1.5 -116
q-20 -87 -65 -141.5t-132 -64.5l-4 -11q166 -8 125 -198q-15 -70 -46 -120t-71 -80t-99.5 -47t-119 -22.5t-141.5 -5.5q-44 0 -76.5 1.5t-70 6t-64 13t-53 22.5t-42 35.5t-26 50t-9.5 67.5t11 87l10 49h254l-6 -31q-5 -22 -5 -38.5t3.5 -27.5t12.5 -19t18.5 -12.5t26.5 -7
t31.5 -3t37.5 -0.5q90 0 125 18.5t51 93.5q8 31 2.5 50t-36 27.5t-99.5 8.5h-64z" />
    <glyph glyph-name="acute" unicode="&#xb4;" horiz-adv-x="827" 
d="M901 1548l53 -227l-493 -145l-31 127z" />
    <glyph glyph-name="mu" unicode="&#xb5;" horiz-adv-x="1259" 
d="M1143 0h-342l55 207h-16q-60 -118 -154.5 -168.5t-224.5 -50.5l-96 -453h-353l328 1540h352l-137 -641q-9 -50 -11.5 -89t22.5 -63t81 -24q78 0 147 41t85 115l141 661h352z" />
    <glyph glyph-name="paragraph" unicode="&#xb6;" 
d="M1362 -465h-246l363 1704h-158l-363 -1704h-245l182 864h-266q-116 0 -195 10.5t-135.5 38t-86 67.5t-39 107t-0.5 148.5t34 198.5q65 306 212 436.5t431 130.5h936zM958 696l117 543h-205q-42 0 -73.5 -2.5t-57.5 -10.5t-44 -17t-33 -27.5t-25 -35t-19.5 -47.5t-16 -58
t-15.5 -72q-10 -48 -15.5 -76.5t-9 -60t-1 -48.5t10.5 -35t22 -26t37.5 -15.5t53.5 -9.5t72 -2h202z" />
    <glyph glyph-name="periodcentered" unicode="&#xb7;" horiz-adv-x="737" 
d="M692 743l-76 -356h-331l75 356h332z" />
    <glyph glyph-name="cedilla" unicode="&#xb8;" horiz-adv-x="659" 
d="M397 -84l56 -168l-318 -106l-35 106z" />
    <glyph glyph-name="onesuperior" unicode="&#xb9;" horiz-adv-x="884" 
d="M1028 1548l-199 -930h-266l152 713l-303 -217l-119 156l424 278h311z" />
    <glyph glyph-name="ordmasculine" unicode="&#xba;" horiz-adv-x="983" 
d="M821 1548q142 0 203 -30t69 -105t-22 -201q-15 -69 -28.5 -114t-34.5 -86t-47 -64t-66.5 -40.5t-92.5 -24t-124 -6.5q-143 0 -204 30t-69 104.5t23 200.5q14 69 27.5 114.5t34.5 86t47.5 64t67 41t92.5 24t124 6.5zM786 1391q-66 0 -93.5 -33t-51.5 -146
q-23 -116 -9.5 -147t79.5 -31t94.5 32.5t52.5 145.5q23 116 8.5 147.5t-80.5 31.5z" />
    <glyph glyph-name="guillemotright" unicode="&#xbb;" horiz-adv-x="1138" 
d="M784 76l-204 125l276 372l-125 347l248 135l174 -482zM328 76l-205 125l276 372l-125 347l248 135l174 -482z" />
    <glyph glyph-name="onequarter" unicode="&#xbc;" horiz-adv-x="2211" 
d="M2198 922l-121 -562h84l-37 -178h-84l-39 -182h-254l39 182h-522l55 262l485 478h394zM1823 360l80 373h-11l-383 -373h314zM1946 1536l-1233 -1536h-246l1233 1536h246zM924 1536l-195 -918h-266l149 701l-305 -217l-117 155l422 279h312z" />
    <glyph glyph-name="onehalf" unicode="&#xbd;" horiz-adv-x="2211" 
d="M1950 1536l-1233 -1536h-246l1233 1536h246zM928 1536l-195 -918h-266l149 701l-305 -217l-118 155l423 279h312zM2165 193l-41 -193h-789l41 193q12 56 24 92.5t35 68.5t48.5 51t73.5 38t100.5 32t138.5 31q129 28 153 39q34 16 46 55q4 13 8 35q13 67 -10.5 85.5
t-106.5 16.5q-93 0 -120 -17t-44 -89l-8 -45h-254l8 45q16 74 44 127t66 86.5t92.5 52.5t114 26t140.5 7q48 0 84.5 -2t74.5 -7t64.5 -14.5t51.5 -24.5t39 -37t22.5 -51t7 -68t-11.5 -87q-16 -78 -38.5 -126t-65 -81.5t-93 -51.5t-141.5 -40q-43 -10 -92.5 -19t-72 -13.5
t-48.5 -13t-37.5 -20t-21.5 -31t-17 -50.5h535z" />
    <glyph glyph-name="threequarters" unicode="&#xbe;" horiz-adv-x="2211" 
d="M2273 922l-121 -562h84l-36 -178h-84l-39 -182h-254l39 182h-523l56 262l485 478h393zM1898 360l80 373h-10l-383 -373h313zM2062 1536l-1233 -1536h-245l1233 1536h245zM606 1001l37 179h64q94 0 120 13t35 62q9 37 7 59.5t-30 32t-94 9.5q-35 0 -52.5 -1t-39 -6.5
t-32.5 -17t-21 -31.5t-16 -51l-4 -18h-254l6 33q16 77 46 130t65.5 83t92 46t108 20.5t130.5 4.5q36 0 62.5 -0.5t62.5 -3.5t59.5 -8t55 -13.5t47.5 -21.5t37 -31.5t25 -43t10 -56t-7 -70.5q-20 -87 -64.5 -141.5t-131.5 -64.5l-4 -11q166 -8 125 -198q-15 -70 -46 -120
t-71.5 -80t-100 -47t-119 -22.5t-141.5 -5.5q-44 0 -76.5 1.5t-70 6t-64 13t-53 22.5t-41.5 35.5t-25.5 50t-9.5 67.5t11 87l10 49h254l-6 -31q-5 -22 -5 -38.5t3.5 -27.5t12.5 -19t18.5 -12.5t26.5 -7t31.5 -3t37.5 -0.5q90 0 125 18.5t51 93.5q8 31 2.5 50t-36 27.5
t-99.5 8.5h-64z" />
    <glyph glyph-name="questiondown" unicode="&#xbf;" horiz-adv-x="1239" 
d="M614 528h353l-15 -61q-16 -78 -30.5 -121t-45.5 -84t-77.5 -70t-126.5 -65l-80 -35q-39 -17 -57.5 -27t-43.5 -30t-39.5 -48t-23.5 -69q-16 -77 16 -101t123 -24q36 0 60 2t51.5 9t44.5 20t31.5 36.5t21.5 57.5l15 64h352l-15 -64q-17 -74 -43 -132t-57 -99.5t-74.5 -71
t-88.5 -47.5t-105.5 -28t-118 -13.5t-133.5 -3.5q-73 0 -127 3.5t-108 14t-90 28.5t-66 47.5t-43 71t-13.5 99t15.5 131.5q17 80 40.5 137.5t51 98t74 73.5t94.5 57t127 56q70 28 99 54.5t38 72.5zM1073 1075l-76 -356h-331l75 356h332z" />
    <glyph glyph-name="Agrave" unicode="&#xc0;" horiz-adv-x="1501" 
d="M1083 264h-551l-131 -264h-426l787 1536h622l142 -1536h-418zM1065 563l-47 666h-4l-330 -666h381zM1022 2009l364 -246l-83 -127l-433 146z" />
    <glyph glyph-name="Aacute" unicode="&#xc1;" horiz-adv-x="1501" 
d="M1083 264h-551l-131 -264h-426l787 1536h622l142 -1536h-418zM1065 563l-47 666h-4l-330 -666h381zM1337 2009l54 -227l-494 -146l-31 127z" />
    <glyph glyph-name="Acircumflex" unicode="&#xc2;" horiz-adv-x="1501" 
d="M1083 264h-551l-131 -264h-426l787 1536h622l142 -1536h-418zM1065 563l-47 666h-4l-330 -666h381zM1176 2009l325 -223l-76 -117l-297 127l-337 -127l-31 117z" />
    <glyph glyph-name="Atilde" unicode="&#xc3;" horiz-adv-x="1501" 
d="M1083 264h-551l-131 -264h-426l787 1536h622l142 -1536h-418zM1065 563l-47 666h-4l-330 -666h381zM1446 1962l149 -84q-147 -203 -295 -203q-94 0 -188 70q-5 4 -22 17t-23.5 17.5t-20.5 13.5t-22.5 12.5t-20 6.5t-22.5 3q-71 0 -141 -93l-150 90q158 197 309 197
q81 0 175 -70q32 -24 49.5 -36t44.5 -23.5t51 -11.5q59 0 127 94z" />
    <glyph glyph-name="Adieresis" unicode="&#xc4;" horiz-adv-x="1501" 
d="M1083 264h-551l-131 -264h-426l787 1536h622l142 -1536h-418zM1065 563l-47 666h-4l-330 -666h381zM1055 1919l-45 -211h-224l45 211h224zM1485 1919l-45 -211h-223l45 211h223z" />
    <glyph glyph-name="Aring" unicode="&#xc5;" horiz-adv-x="1501" 
d="M1083 264h-551l-131 -264h-426l787 1536h622l142 -1536h-418zM1065 563l-47 666h-4l-330 -666h381zM938 1821q17 83 88.5 140.5t155.5 57.5q82 0 127 -57.5t28 -140.5q-19 -83 -89 -142t-152 -59q-83 0 -130 59t-28 142zM1044 1821q-8 -39 13 -67t59 -28q37 0 72.5 28.5
t42.5 66.5t-15 65t-59 27q-39 0 -72.5 -27t-40.5 -65z" />
    <glyph glyph-name="AE" unicode="&#xc6;" horiz-adv-x="2199" 
d="M1141 557l137 643h-176l-381 -643h420zM1022 0l57 272h-528l-160 -272h-444l927 1536h1565l-69 -336h-703l-61 -287h647l-62 -284h-647l-61 -293h702l-71 -336h-1092z" />
    <glyph glyph-name="Ccedilla" unicode="&#xc7;" horiz-adv-x="1490" 
d="M813 -84l55 -168l-317 -106l-35 106zM1124 582h422l-8 -45q-11 -50 -16 -72t-17.5 -66.5t-22.5 -68.5t-28 -60.5t-38.5 -62t-49 -54.5t-63.5 -53q-39 -28 -79.5 -48t-87.5 -32t-80 -19t-90 -9.5t-82.5 -3t-90.5 -0.5q-83 0 -135.5 1.5t-121.5 7.5t-111.5 17t-92 31.5
t-76.5 50t-52.5 73.5t-32 100.5t-2.5 132t24 167.5l83 398q23 108 58 192.5t78 145t102 104.5t120.5 70.5t143.5 42t162 21t184 5.5q69 0 120 -1.5t104.5 -6.5t91 -13.5t75 -23t61 -34.5t44.5 -48t30 -64.5t13 -83t-2 -103.5t-19 -126l-12 -59h-422l13 59q5 40 -3.5 68
t-25 43.5t-48.5 24t-62 10.5t-78 2q-59 0 -101.5 -6t-74.5 -21.5t-53 -35.5t-38 -56t-28 -74t-23 -98l-51 -239q-26 -114 -27.5 -184.5t47 -102t168.5 -31.5q58 0 93 3t71.5 13.5t58.5 31t40 56.5t30 89z" />
    <glyph glyph-name="Egrave" unicode="&#xc8;" horiz-adv-x="1388" 
d="M797 1200l-62 -280h656l-60 -285h-655l-64 -299h713l-72 -336h-1122l326 1536h1108l-70 -336h-698zM965 2009l364 -246l-84 -127l-432 146z" />
    <glyph glyph-name="Eacute" unicode="&#xc9;" horiz-adv-x="1388" 
d="M797 1200l-62 -280h656l-60 -285h-655l-64 -299h713l-72 -336h-1122l326 1536h1108l-70 -336h-698zM1280 2009l53 -227l-493 -146l-31 127z" />
    <glyph glyph-name="Ecircumflex" unicode="&#xca;" horiz-adv-x="1388" 
d="M797 1200l-62 -280h656l-60 -285h-655l-64 -299h713l-72 -336h-1122l326 1536h1108l-70 -336h-698zM1118 2009l326 -223l-76 -117l-297 127l-338 -127l-31 117z" />
    <glyph glyph-name="Edieresis" unicode="&#xcb;" horiz-adv-x="1388" 
d="M797 1200l-62 -280h656l-60 -285h-655l-64 -299h713l-72 -336h-1122l326 1536h1108l-70 -336h-698zM999 1919l-45 -211h-223l45 211h223zM1430 1919l-46 -211h-223l45 211h224z" />
    <glyph glyph-name="Igrave" unicode="&#xcc;" horiz-adv-x="663" 
d="M862 1536l-325 -1536h-410l326 1536h409zM602 2009l365 -246l-84 -127l-432 146z" />
    <glyph glyph-name="Iacute" unicode="&#xcd;" horiz-adv-x="663" 
d="M862 1536l-325 -1536h-410l326 1536h409zM918 2009l53 -227l-494 -146l-31 127z" />
    <glyph glyph-name="Icircumflex" unicode="&#xce;" horiz-adv-x="663" 
d="M862 1536l-325 -1536h-410l326 1536h409zM756 2009l325 -223l-75 -117l-297 127l-338 -127l-31 117z" />
    <glyph glyph-name="Idieresis" unicode="&#xcf;" horiz-adv-x="663" 
d="M862 1536l-325 -1536h-410l326 1536h409zM637 1919l-45 -211h-223l45 211h223zM1067 1919l-45 -211h-223l45 211h223z" />
    <glyph glyph-name="Eth" unicode="&#xd0;" horiz-adv-x="1587" 
d="M303 928l129 608h778q130 0 224.5 -20t161 -64t97.5 -114t36 -169t-25 -229l-70 -322q-34 -162 -85.5 -274.5t-133.5 -191.5t-198.5 -115.5t-276.5 -36.5h-834l138 643h-172l59 285h172zM766 1180l-53 -252h280l-59 -285h-281l-61 -287h358q109 0 171.5 67t90.5 195
l70 322q12 60 12.5 101.5t-9 69t-32.5 42.5t-53.5 21t-75.5 6h-358z" />
    <glyph glyph-name="Ntilde" unicode="&#xd1;" horiz-adv-x="1783" 
d="M760 1180l-225 -1180h-410l326 1536h692l190 -1180h17l225 1180h410l-326 -1536h-698l-185 1180h-16zM1587 1962l150 -84q-147 -203 -295 -203q-95 0 -189 70q-5 4 -22 17t-23.5 17.5t-20.5 13.5t-22.5 12.5t-20 6.5t-22.5 3q-71 0 -141 -93l-150 90q158 197 310 197
q50 0 89.5 -18.5t84.5 -51.5q32 -24 49.5 -36t44.5 -23.5t51 -11.5q59 0 127 94z" />
    <glyph glyph-name="Ograve" unicode="&#xd2;" horiz-adv-x="1556" 
d="M776 -12q-82 0 -149 5t-132.5 16.5t-115 32t-92.5 50.5t-69.5 73t-41.5 98.5t-12.5 128t20.5 159.5l92 434q29 139 86 240t129.5 162.5t174 98t205 49.5t237.5 13q82 0 149 -5t132.5 -16.5t114.5 -32t92 -50.5t69.5 -73t41 -98.5t12 -127.5t-20.5 -160l-92 -434
q-29 -139 -85.5 -240t-129 -162.5t-173.5 -98t-204.5 -49.5t-237.5 -13zM852 344q71 0 113.5 4.5t83.5 18t65.5 42t44.5 73.5t35 114l74 346q12 57 14.5 97.5t-8 68.5t-26.5 44.5t-50 25.5t-70.5 11.5t-95.5 2.5t-96.5 -2.5t-74.5 -11.5t-60.5 -25.5t-45.5 -45t-37 -68.5
t-28 -97l-74 -346q-11 -58 -13 -98.5t8 -69t26.5 -44.5t50 -25.5t69.5 -12t95 -2.5zM1049 2009l364 -246l-84 -127l-432 146z" />
    <glyph glyph-name="Oacute" unicode="&#xd3;" horiz-adv-x="1556" 
d="M776 -12q-82 0 -149 5t-132.5 16.5t-115 32t-92.5 50.5t-69.5 73t-41.5 98.5t-12.5 128t20.5 159.5l92 434q29 139 86 240t129.5 162.5t174 98t205 49.5t237.5 13q82 0 149 -5t132.5 -16.5t114.5 -32t92 -50.5t69.5 -73t41 -98.5t12 -127.5t-20.5 -160l-92 -434
q-29 -139 -85.5 -240t-129 -162.5t-173.5 -98t-204.5 -49.5t-237.5 -13zM852 344q71 0 113.5 4.5t83.5 18t65.5 42t44.5 73.5t35 114l74 346q12 57 14.5 97.5t-8 68.5t-26.5 44.5t-50 25.5t-70.5 11.5t-95.5 2.5t-96.5 -2.5t-74.5 -11.5t-60.5 -25.5t-45.5 -45t-37 -68.5
t-28 -97l-74 -346q-11 -58 -13 -98.5t8 -69t26.5 -44.5t50 -25.5t69.5 -12t95 -2.5zM1364 2009l53 -227l-493 -146l-31 127z" />
    <glyph glyph-name="Ocircumflex" unicode="&#xd4;" horiz-adv-x="1556" 
d="M776 -12q-82 0 -149 5t-132.5 16.5t-115 32t-92.5 50.5t-69.5 73t-41.5 98.5t-12.5 128t20.5 159.5l92 434q29 139 86 240t129.5 162.5t174 98t205 49.5t237.5 13q82 0 149 -5t132.5 -16.5t114.5 -32t92 -50.5t69.5 -73t41 -98.5t12 -127.5t-20.5 -160l-92 -434
q-29 -139 -85.5 -240t-129 -162.5t-173.5 -98t-204.5 -49.5t-237.5 -13zM852 344q71 0 113.5 4.5t83.5 18t65.5 42t44.5 73.5t35 114l74 346q12 57 14.5 97.5t-8 68.5t-26.5 44.5t-50 25.5t-70.5 11.5t-95.5 2.5t-96.5 -2.5t-74.5 -11.5t-60.5 -25.5t-45.5 -45t-37 -68.5
t-28 -97l-74 -346q-11 -58 -13 -98.5t8 -69t26.5 -44.5t50 -25.5t69.5 -12t95 -2.5zM1202 2009l326 -223l-76 -117l-297 127l-338 -127l-31 117z" />
    <glyph glyph-name="Otilde" unicode="&#xd5;" horiz-adv-x="1556" 
d="M776 -12q-82 0 -149 5t-132.5 16.5t-115 32t-92.5 50.5t-69.5 73t-41.5 98.5t-12.5 128t20.5 159.5l92 434q29 139 86 240t129.5 162.5t174 98t205 49.5t237.5 13q82 0 149 -5t132.5 -16.5t114.5 -32t92 -50.5t69.5 -73t41 -98.5t12 -127.5t-20.5 -160l-92 -434
q-29 -139 -85.5 -240t-129 -162.5t-173.5 -98t-204.5 -49.5t-237.5 -13zM852 344q71 0 113.5 4.5t83.5 18t65.5 42t44.5 73.5t35 114l74 346q12 57 14.5 97.5t-8 68.5t-26.5 44.5t-50 25.5t-70.5 11.5t-95.5 2.5t-96.5 -2.5t-74.5 -11.5t-60.5 -25.5t-45.5 -45t-37 -68.5
t-28 -97l-74 -346q-11 -58 -13 -98.5t8 -69t26.5 -44.5t50 -25.5t69.5 -12t95 -2.5zM1475 1962l149 -84q-147 -203 -295 -203q-94 0 -188 70q-5 4 -22 17t-23.5 17.5t-20.5 13.5t-22.5 12.5t-20 6.5t-22.5 3q-72 0 -142 -93l-149 90q158 197 309 197q50 0 89.5 -18.5
t84.5 -51.5q31 -24 49.5 -36t45.5 -23.5t51 -11.5q59 0 127 94z" />
    <glyph glyph-name="Odieresis" unicode="&#xd6;" horiz-adv-x="1556" 
d="M776 -12q-82 0 -149 5t-132.5 16.5t-115 32t-92.5 50.5t-69.5 73t-41.5 98.5t-12.5 128t20.5 159.5l92 434q29 139 86 240t129.5 162.5t174 98t205 49.5t237.5 13q82 0 149 -5t132.5 -16.5t114.5 -32t92 -50.5t69.5 -73t41 -98.5t12 -127.5t-20.5 -160l-92 -434
q-29 -139 -85.5 -240t-129 -162.5t-173.5 -98t-204.5 -49.5t-237.5 -13zM852 344q71 0 113.5 4.5t83.5 18t65.5 42t44.5 73.5t35 114l74 346q12 57 14.5 97.5t-8 68.5t-26.5 44.5t-50 25.5t-70.5 11.5t-95.5 2.5t-96.5 -2.5t-74.5 -11.5t-60.5 -25.5t-45.5 -45t-37 -68.5
t-28 -97l-74 -346q-11 -58 -13 -98.5t8 -69t26.5 -44.5t50 -25.5t69.5 -12t95 -2.5zM1083 1919l-45 -211h-223l45 211h223zM1513 1919l-45 -211h-223l45 211h223z" />
    <glyph glyph-name="multiply" unicode="&#xd7;" horiz-adv-x="1228" 
d="M293 897l219 178l260 -330l404 330l141 -178l-402 -332l261 -332l-218 -180l-262 332l-401 -332l-143 180l403 332z" />
    <glyph glyph-name="Oslash" unicode="&#xd8;" horiz-adv-x="1556" 
d="M1917 1599l-62 -288l-137 -99q3 -62 -5.5 -140t-18 -128.5t-29.5 -142.5q-34 -160 -64 -264t-76.5 -204.5t-105.5 -158.5t-147.5 -104t-206 -64t-277.5 -18q-64 0 -99 1t-98 4.5t-105 13t-91.5 25t-87.5 42t-65 61.5l-271 -196l60 284l133 94q-16 89 6 189l51 244
q26 121 50 209.5t56 171.5t68 139.5t86.5 106t110 79.5t139 52t174.5 31t215 9q58 0 88 -0.5t83 -3t84.5 -7.5t75.5 -15.5t74 -25.5t62.5 -38t57.5 -53zM1260 872l-642 -464q18 -64 259 -64q140 0 215 51t98 150zM623 655l645 471q-18 24 -41 38t-56.5 20t-57 7t-69.5 1
q-68 0 -108 -3t-82 -15.5t-66 -35t-49 -63.5t-42 -98.5t-35 -142.5z" />
    <glyph glyph-name="Ugrave" unicode="&#xd9;" horiz-adv-x="1579" 
d="M1368 1536h410l-217 -1024q-32 -154 -89.5 -255t-151.5 -161t-216 -84t-297 -24q-301 0 -437.5 54t-155 170.5t23.5 299.5l217 1024h409l-215 -1016q-7 -32 -8.5 -57.5t5.5 -43.5t15 -31t27.5 -21t34.5 -13t46 -7t52.5 -2.5t61.5 -0.5q49 0 78.5 2t60.5 8.5t49 19
t35.5 35t29 54t21.5 76.5zM1061 2009l364 -246l-84 -127l-432 146z" />
    <glyph glyph-name="Uacute" unicode="&#xda;" horiz-adv-x="1579" 
d="M1368 1536h410l-217 -1024q-32 -154 -89.5 -255t-151.5 -161t-216 -84t-297 -24q-301 0 -437.5 54t-155 170.5t23.5 299.5l217 1024h409l-215 -1016q-7 -32 -8.5 -57.5t5.5 -43.5t15 -31t27.5 -21t34.5 -13t46 -7t52.5 -2.5t61.5 -0.5q49 0 78.5 2t60.5 8.5t49 19
t35.5 35t29 54t21.5 76.5zM1376 2009l54 -227l-494 -146l-31 127z" />
    <glyph glyph-name="Ucircumflex" unicode="&#xdb;" horiz-adv-x="1579" 
d="M1368 1536h410l-217 -1024q-32 -154 -89.5 -255t-151.5 -161t-216 -84t-297 -24q-301 0 -437.5 54t-155 170.5t23.5 299.5l217 1024h409l-215 -1016q-7 -32 -8.5 -57.5t5.5 -43.5t15 -31t27.5 -21t34.5 -13t46 -7t52.5 -2.5t61.5 -0.5q49 0 78.5 2t60.5 8.5t49 19
t35.5 35t29 54t21.5 76.5zM1214 2009l326 -223l-76 -117l-297 127l-338 -127l-30 117z" />
    <glyph glyph-name="Udieresis" unicode="&#xdc;" horiz-adv-x="1579" 
d="M1368 1536h410l-217 -1024q-32 -154 -89.5 -255t-151.5 -161t-216 -84t-297 -24q-301 0 -437.5 54t-155 170.5t23.5 299.5l217 1024h409l-215 -1016q-7 -32 -8.5 -57.5t5.5 -43.5t15 -31t27.5 -21t34.5 -13t46 -7t52.5 -2.5t61.5 -0.5q49 0 78.5 2t60.5 8.5t49 19
t35.5 35t29 54t21.5 76.5zM1094 1919l-45 -211h-224l45 211h224zM1524 1919l-45 -211h-224l45 211h224z" />
    <glyph glyph-name="Yacute" unicode="&#xdd;" horiz-adv-x="1449" 
d="M1808 1536l-772 -997l-114 -539h-410l115 539l-334 997h469l149 -592h15l407 592h475zM1311 2009l53 -227l-494 -146l-30 127z" />
    <glyph glyph-name="Thorn" unicode="&#xde;" horiz-adv-x="1456" 
d="M528 0h-409l325 1536h410l-41 -197h363q284 0 376 -130t29 -433q-24 -112 -50.5 -193t-64 -148.5t-84 -110.5t-112.5 -72.5t-148 -42t-190 -12.5h-363zM645 553h281q45 2 71.5 4.5t52 12t39 22.5t27.5 39.5t23 59t20 85.5q29 118 2 162.5t-143 44.5h-281z" />
    <glyph glyph-name="germandbls" unicode="&#xdf;" horiz-adv-x="1263" 
d="M469 0h-352l245 1157q21 96 59.5 165.5t89.5 113t122.5 69t147 34.5t175.5 9q44 0 75 -0.5t72 -3t70 -8t63 -13.5t56.5 -21t45.5 -30t35.5 -41t21 -53.5t7.5 -68t-11 -84.5q-24 -118 -103.5 -185.5t-200.5 -81.5l-2 -16q67 -1 115 -17.5t74.5 -48t40 -68.5t13 -90.5
t-7 -102t-20.5 -113.5q-22 -102 -48 -176t-67.5 -141t-97.5 -108t-137 -65t-186 -24q-27 0 -57.5 2t-67.5 5.5t-57 4.5l53 248q43 -15 90 -15q103 0 146 53t77 216q11 49 16.5 79t10 69.5t2.5 64t-10.5 51t-25.5 41t-45 24t-67 9.5h-32l51 235h39q71 0 113.5 21.5t56.5 85.5
q14 74 -24.5 102.5t-127.5 28.5q-81 0 -126 -33.5t-64 -122.5z" />
    <glyph glyph-name="agrave" unicode="&#xe0;" horiz-adv-x="1247" 
d="M684 444q-75 0 -118.5 -22.5t-59.5 -89.5q-4 -17 -4 -31.5t3 -25.5t7.5 -20t13 -15t15.5 -10.5t18.5 -7t19.5 -4t20 -2.5t18.5 -1h17.5q114 0 158.5 24.5t62.5 106.5q12 62 -30 80t-142 18zM782 0l47 160h-12q-69 -172 -346 -172q-55 0 -98 4t-82.5 14t-66.5 27
t-47.5 42.5t-29.5 60.5t-8 81.5t13 104.5q40 187 150.5 262t309.5 75h47t47 -2t51 -6t43.5 -13t40.5 -21.5t26 -32.5t14 -45h16l37 170q9 50 10.5 86.5t-30.5 56.5t-105 20t-114.5 -24.5t-55.5 -91.5h-352q49 224 217 291q47 19 112.5 28.5t108 10.5t129.5 1q73 0 125 -2.5
t103.5 -10t85 -21t62.5 -35t43.5 -52t21.5 -73t2.5 -97t-19.5 -124.5l-143 -672h-353zM797 1548l364 -245l-84 -127l-432 145z" />
    <glyph glyph-name="aacute" unicode="&#xe1;" horiz-adv-x="1247" 
d="M684 444q-75 0 -118.5 -22.5t-59.5 -89.5q-4 -17 -4 -31.5t3 -25.5t7.5 -20t13 -15t15.5 -10.5t18.5 -7t19.5 -4t20 -2.5t18.5 -1h17.5q114 0 158.5 24.5t62.5 106.5q12 62 -30 80t-142 18zM782 0l47 160h-12q-69 -172 -346 -172q-55 0 -98 4t-82.5 14t-66.5 27
t-47.5 42.5t-29.5 60.5t-8 81.5t13 104.5q40 187 150.5 262t309.5 75h47t47 -2t51 -6t43.5 -13t40.5 -21.5t26 -32.5t14 -45h16l37 170q9 50 10.5 86.5t-30.5 56.5t-105 20t-114.5 -24.5t-55.5 -91.5h-352q49 224 217 291q47 19 112.5 28.5t108 10.5t129.5 1q73 0 125 -2.5
t103.5 -10t85 -21t62.5 -35t43.5 -52t21.5 -73t2.5 -97t-19.5 -124.5l-143 -672h-353zM1112 1548l53 -227l-493 -145l-31 127z" />
    <glyph glyph-name="acircumflex" unicode="&#xe2;" horiz-adv-x="1247" 
d="M684 444q-75 0 -118.5 -22.5t-59.5 -89.5q-4 -17 -4 -31.5t3 -25.5t7.5 -20t13 -15t15.5 -10.5t18.5 -7t19.5 -4t20 -2.5t18.5 -1h17.5q114 0 158.5 24.5t62.5 106.5q12 62 -30 80t-142 18zM782 0l47 160h-12q-69 -172 -346 -172q-55 0 -98 4t-82.5 14t-66.5 27
t-47.5 42.5t-29.5 60.5t-8 81.5t13 104.5q40 187 150.5 262t309.5 75h47t47 -2t51 -6t43.5 -13t40.5 -21.5t26 -32.5t14 -45h16l37 170q9 50 10.5 86.5t-30.5 56.5t-105 20t-114.5 -24.5t-55.5 -91.5h-352q49 224 217 291q47 19 112.5 28.5t108 10.5t129.5 1q73 0 125 -2.5
t103.5 -10t85 -21t62.5 -35t43.5 -52t21.5 -73t2.5 -97t-19.5 -124.5l-143 -672h-353zM950 1548l328 -223l-78 -117l-295 127l-340 -127l-28 117z" />
    <glyph glyph-name="atilde" unicode="&#xe3;" horiz-adv-x="1247" 
d="M684 444q-75 0 -118.5 -22.5t-59.5 -89.5q-4 -17 -4 -31.5t3 -25.5t7.5 -20t13 -15t15.5 -10.5t18.5 -7t19.5 -4t20 -2.5t18.5 -1h17.5q114 0 158.5 24.5t62.5 106.5q12 62 -30 80t-142 18zM782 0l47 160h-12q-69 -172 -346 -172q-55 0 -98 4t-82.5 14t-66.5 27
t-47.5 42.5t-29.5 60.5t-8 81.5t13 104.5q40 187 150.5 262t309.5 75h47t47 -2t51 -6t43.5 -13t40.5 -21.5t26 -32.5t14 -45h16l37 170q9 50 10.5 86.5t-30.5 56.5t-105 20t-114.5 -24.5t-55.5 -91.5h-352q49 224 217 291q47 19 112.5 28.5t108 10.5t129.5 1q73 0 125 -2.5
t103.5 -10t85 -21t62.5 -35t43.5 -52t21.5 -73t2.5 -97t-19.5 -124.5l-143 -672h-353zM1221 1501l149 -84q-147 -203 -295 -203q-90 0 -188 70q-5 4 -22 17t-23.5 17.5t-20.5 13.5t-22.5 12.5t-20 6.5t-22.5 3q-73 0 -142 -92l-149 90q157 196 309 196q81 0 174 -69
q4 -3 11 -8q30 -22 46.5 -32.5t41.5 -21t47 -10.5q59 0 127 94z" />
    <glyph glyph-name="adieresis" unicode="&#xe4;" horiz-adv-x="1247" 
d="M684 444q-75 0 -118.5 -22.5t-59.5 -89.5q-4 -17 -4 -31.5t3 -25.5t7.5 -20t13 -15t15.5 -10.5t18.5 -7t19.5 -4t20 -2.5t18.5 -1h17.5q114 0 158.5 24.5t62.5 106.5q12 62 -30 80t-142 18zM782 0l47 160h-12q-69 -172 -346 -172q-55 0 -98 4t-82.5 14t-66.5 27
t-47.5 42.5t-29.5 60.5t-8 81.5t13 104.5q40 187 150.5 262t309.5 75h47t47 -2t51 -6t43.5 -13t40.5 -21.5t26 -32.5t14 -45h16l37 170q9 50 10.5 86.5t-30.5 56.5t-105 20t-114.5 -24.5t-55.5 -91.5h-352q49 224 217 291q47 19 112.5 28.5t108 10.5t129.5 1q73 0 125 -2.5
t103.5 -10t85 -21t62.5 -35t43.5 -52t21.5 -73t2.5 -97t-19.5 -124.5l-143 -672h-353zM829 1458l-45 -211h-223l45 211h223zM1260 1458l-46 -211h-223l45 211h224z" />
    <glyph glyph-name="aring" unicode="&#xe5;" horiz-adv-x="1247" 
d="M684 444q-75 0 -118.5 -22.5t-59.5 -89.5q-4 -17 -4 -31.5t3 -25.5t7.5 -20t13 -15t15.5 -10.5t18.5 -7t19.5 -4t20 -2.5t18.5 -1h17.5q114 0 158.5 24.5t62.5 106.5q12 62 -30 80t-142 18zM782 0l47 160h-12q-69 -172 -346 -172q-55 0 -98 4t-82.5 14t-66.5 27
t-47.5 42.5t-29.5 60.5t-8 81.5t13 104.5q40 187 150.5 262t309.5 75h47t47 -2t51 -6t43.5 -13t40.5 -21.5t26 -32.5t14 -45h16l37 170q9 50 10.5 86.5t-30.5 56.5t-105 20t-114.5 -24.5t-55.5 -91.5h-352q49 224 217 291q47 19 112.5 28.5t108 10.5t129.5 1q73 0 125 -2.5
t103.5 -10t85 -21t62.5 -35t43.5 -52t21.5 -73t2.5 -97t-19.5 -124.5l-143 -672h-353zM713 1360q19 83 89.5 141t153.5 58q82 0 128.5 -58t27.5 -141q-17 -83 -88.5 -142t-153.5 -59q-83 0 -128.5 59t-28.5 142zM819 1360q-8 -39 13 -66.5t59 -27.5q37 0 72.5 28t42.5 66
t-15 65t-59 27q-39 0 -72.5 -27t-40.5 -65z" />
    <glyph glyph-name="ae" unicode="&#xe6;" horiz-adv-x="1898" 
d="M1272 672h346q24 114 -9 154t-128 40q-93 0 -138.5 -43.5t-70.5 -150.5zM678 446q-75 0 -118.5 -22.5t-57.5 -89.5q-4 -17 -4 -31.5t3 -25.5t7.5 -20t13 -15t15.5 -10.5t18.5 -7t19.5 -4t20 -2.5t18.5 -1h17.5q114 0 157.5 24.5t61.5 106.5q12 62 -30 80t-142 18z
M891 539l37 170q9 50 10.5 86.5t-30.5 56.5t-105 20t-114.5 -24.5t-55.5 -91.5h-352q49 224 217 291q47 19 112.5 28.5t108 10.5t129.5 1q27 0 44 -0.5t52.5 -3t60 -7.5t55.5 -16t50.5 -26t34 -38.5t16.5 -53.5h10q62 145 363 145q125 0 206.5 -15.5t137 -51.5t77 -101
t18.5 -156.5t-31 -225.5l-13 -60h-698q-33 -141 -9.5 -192.5t130.5 -51.5q94 0 141 23.5t63 101.5h347q-26 -119 -76.5 -192.5t-130.5 -114.5q-128 -63 -396 -63q-331 0 -348 162h-12q-19 -33 -46 -58.5t-54.5 -42.5t-66.5 -29t-70.5 -18t-78 -9.5t-78 -4t-81.5 -0.5
q-55 0 -98.5 4t-82.5 14t-66.5 27t-48 42.5t-29.5 60.5t-8 81.5t13 104.5q40 186 151 261.5t310 75.5h46.5t47 -2.5t50 -6.5t44 -13t39.5 -21.5t26 -32t15 -44.5h17z" />
    <glyph glyph-name="ccedilla" unicode="&#xe7;" horiz-adv-x="1140" 
d="M639 -84l55 -168l-317 -106l-35 106zM838 430h352q-32 -150 -79.5 -238.5t-119.5 -132.5q-66 -43 -161.5 -57t-254.5 -14q-106 0 -180.5 11t-127 37.5t-81 66.5t-38 103.5t-1.5 142t31 188.5q18 83 36.5 145.5t45.5 122.5t60.5 102t80 78t105 57.5t134 33t169.5 11.5
q75 0 126.5 -3t108 -12.5t91.5 -27t66.5 -48.5t44 -74.5t12.5 -106t-17 -143.5h-352q20 83 -4 114q-27 31 -133 31q-51 0 -81 -9t-57 -39t-46 -84.5t-38 -147.5q-16 -78 -22 -126t-3.5 -80.5t20 -47t41 -20t67.5 -5.5q61 0 95.5 7t56.5 30.5t31 50.5t22 84z" />
    <glyph glyph-name="egrave" unicode="&#xe8;" horiz-adv-x="1175" 
d="M557 672h346q8 40 9.5 68.5t-6 47t-17.5 29.5t-32 16.5t-42.5 7t-54.5 1.5q-96 0 -137.5 -33t-65.5 -137zM842 358h346q-48 -224 -211 -307q-126 -63 -391 -63q-212 0 -314 53t-122.5 175t26.5 321q28 130 60 217t79.5 154.5t116.5 105t162 55.5t225 18
q125 0 206.5 -15.5t137 -51.5t77 -101t18.5 -156.5t-31 -225.5l-13 -60h-698q-33 -141 -9.5 -192.5t130.5 -51.5q94 0 141.5 23.5t63.5 101.5zM760 1548l364 -245l-84 -127l-432 145z" />
    <glyph glyph-name="eacute" unicode="&#xe9;" horiz-adv-x="1175" 
d="M557 672h346q8 40 9.5 68.5t-6 47t-17.5 29.5t-32 16.5t-42.5 7t-54.5 1.5q-96 0 -137.5 -33t-65.5 -137zM842 358h346q-48 -224 -211 -307q-126 -63 -391 -63q-212 0 -314 53t-122.5 175t26.5 321q28 130 60 217t79.5 154.5t116.5 105t162 55.5t225 18
q125 0 206.5 -15.5t137 -51.5t77 -101t18.5 -156.5t-31 -225.5l-13 -60h-698q-33 -141 -9.5 -192.5t130.5 -51.5q94 0 141.5 23.5t63.5 101.5zM1075 1548l53 -227l-493 -145l-31 127z" />
    <glyph glyph-name="ecircumflex" unicode="&#xea;" horiz-adv-x="1175" 
d="M557 672h346q8 40 9.5 68.5t-6 47t-17.5 29.5t-32 16.5t-42.5 7t-54.5 1.5q-96 0 -137.5 -33t-65.5 -137zM842 358h346q-48 -224 -211 -307q-126 -63 -391 -63q-212 0 -314 53t-122.5 175t26.5 321q28 130 60 217t79.5 154.5t116.5 105t162 55.5t225 18
q125 0 206.5 -15.5t137 -51.5t77 -101t18.5 -156.5t-31 -225.5l-13 -60h-698q-33 -141 -9.5 -192.5t130.5 -51.5q94 0 141.5 23.5t63.5 101.5zM913 1548l328 -223l-78 -117l-295 127l-340 -127l-28 117z" />
    <glyph glyph-name="edieresis" unicode="&#xeb;" horiz-adv-x="1175" 
d="M557 672h346q8 40 9.5 68.5t-6 47t-17.5 29.5t-32 16.5t-42.5 7t-54.5 1.5q-96 0 -137.5 -33t-65.5 -137zM842 358h346q-48 -224 -211 -307q-126 -63 -391 -63q-212 0 -314 53t-122.5 175t26.5 321q28 130 60 217t79.5 154.5t116.5 105t162 55.5t225 18
q125 0 206.5 -15.5t137 -51.5t77 -101t18.5 -156.5t-31 -225.5l-13 -60h-698q-33 -141 -9.5 -192.5t130.5 -51.5q94 0 141.5 23.5t63.5 101.5zM795 1458l-45 -211h-224l45 211h224zM1225 1458l-45 -211h-224l45 211h224z" />
    <glyph glyph-name="igrave" unicode="&#xec;" horiz-adv-x="526" 
d="M670 1075l-230 -1075h-352l229 1075h353zM436 1548l365 -245l-84 -127l-432 145z" />
    <glyph glyph-name="iacute" unicode="&#xed;" horiz-adv-x="526" 
d="M670 1075l-230 -1075h-352l229 1075h353zM752 1548l53 -227l-494 -145l-30 127z" />
    <glyph glyph-name="icircumflex" unicode="&#xee;" horiz-adv-x="526" 
d="M670 1075l-230 -1075h-352l229 1075h353zM590 1548l328 -223l-78 -117l-295 127l-340 -127l-29 117z" />
    <glyph glyph-name="idieresis" unicode="&#xef;" horiz-adv-x="526" 
d="M670 1075l-230 -1075h-352l229 1075h353zM469 1458l-45 -211h-223l45 211h223zM899 1458l-45 -211h-223l45 211h223z" />
    <glyph glyph-name="eth" unicode="&#xf0;" horiz-adv-x="1214" 
d="M786 817q-66 0 -104 -10t-66 -44t-43.5 -82.5t-35.5 -143.5q-16 -75 -22 -119t-3 -79t22 -50.5t50 -23t84 -7.5q43 0 71.5 4t52 17.5t38 30t29 52t24.5 73.5t24 102q13 64 19.5 102.5t7 73.5t-7 52t-25.5 30.5t-45 17.5t-70 4zM676 1462l293 86q65 -43 125 -108l249 73
l99 -131l-246 -73q83 -123 101.5 -310t-31.5 -430q-26 -124 -52.5 -208.5t-65 -152.5t-83.5 -108t-113.5 -66.5t-150 -36t-197.5 -9.5q-113 0 -191 10.5t-133.5 37t-85 65.5t-40 103t-2.5 142.5t32 190.5q20 98 42.5 170t61.5 146t89.5 120.5t127.5 76t175 29.5
q121 0 174.5 -20t101.5 -80q-11 140 -71 238l-248 -74l-109 129l263 78q-21 25 -115 112z" />
    <glyph glyph-name="ntilde" unicode="&#xf1;" horiz-adv-x="1267" 
d="M346 1075h352l-43 -201h15q65 124 153 170q79 43 213 43q177 0 243.5 -85t29.5 -259l-158 -743h-352l141 662q14 83 -8.5 119t-104.5 36q-57 0 -98.5 -16t-67 -48.5t-40.5 -69.5t-27 -91l-125 -592h-352zM1231 1501l149 -84q-147 -203 -295 -203q-90 0 -188 70
q-5 4 -22 17t-23.5 17.5t-20.5 13.5t-22.5 12.5t-20 6.5t-22.5 3q-72 0 -141 -92l-150 90q157 196 309 196q81 0 174 -69q4 -3 11 -8q30 -22 46.5 -32.5t41.5 -21t47 -10.5q59 0 127 94z" />
    <glyph glyph-name="ograve" unicode="&#xf2;" horiz-adv-x="1214" 
d="M838 1087q117 0 195 -8.5t135.5 -33.5t86 -62t38.5 -102t1 -145t-34 -199q-25 -115 -50 -194.5t-63 -144t-83 -102.5t-113 -63.5t-150 -35t-197 -9.5q-113 0 -191 10.5t-133.5 37t-85 65.5t-40 103t-2.5 142.5t32 190.5q24 115 49 194t62 143.5t82 103t112.5 64.5
t150 35.5t198.5 9.5zM786 817q-66 0 -104 -10t-66 -44t-43.5 -82.5t-35.5 -143.5q-16 -75 -22 -119t-3 -79t22 -50.5t50 -23t84 -7.5q43 0 71.5 4t52 17.5t38 30t29 52t24.5 73.5t24 102q13 64 19.5 102.5t7 73.5t-7 52t-25.5 30.5t-45 17.5t-70 4zM780 1548l365 -245
l-84 -127l-432 145z" />
    <glyph glyph-name="oacute" unicode="&#xf3;" horiz-adv-x="1214" 
d="M838 1087q117 0 195 -8.5t135.5 -33.5t86 -62t38.5 -102t1 -145t-34 -199q-25 -115 -50 -194.5t-63 -144t-83 -102.5t-113 -63.5t-150 -35t-197 -9.5q-113 0 -191 10.5t-133.5 37t-85 65.5t-40 103t-2.5 142.5t32 190.5q24 115 49 194t62 143.5t82 103t112.5 64.5
t150 35.5t198.5 9.5zM786 817q-66 0 -104 -10t-66 -44t-43.5 -82.5t-35.5 -143.5q-16 -75 -22 -119t-3 -79t22 -50.5t50 -23t84 -7.5q43 0 71.5 4t52 17.5t38 30t29 52t24.5 73.5t24 102q13 64 19.5 102.5t7 73.5t-7 52t-25.5 30.5t-45 17.5t-70 4zM1096 1548l53 -227
l-494 -145l-30 127z" />
    <glyph glyph-name="ocircumflex" unicode="&#xf4;" horiz-adv-x="1214" 
d="M838 1087q117 0 195 -8.5t135.5 -33.5t86 -62t38.5 -102t1 -145t-34 -199q-25 -115 -50 -194.5t-63 -144t-83 -102.5t-113 -63.5t-150 -35t-197 -9.5q-113 0 -191 10.5t-133.5 37t-85 65.5t-40 103t-2.5 142.5t32 190.5q24 115 49 194t62 143.5t82 103t112.5 64.5
t150 35.5t198.5 9.5zM786 817q-66 0 -104 -10t-66 -44t-43.5 -82.5t-35.5 -143.5q-16 -75 -22 -119t-3 -79t22 -50.5t50 -23t84 -7.5q43 0 71.5 4t52 17.5t38 30t29 52t24.5 73.5t24 102q13 64 19.5 102.5t7 73.5t-7 52t-25.5 30.5t-45 17.5t-70 4zM934 1548l328 -223
l-78 -117l-295 127l-340 -127l-29 117z" />
    <glyph glyph-name="otilde" unicode="&#xf5;" horiz-adv-x="1214" 
d="M838 1087q117 0 195 -8.5t135.5 -33.5t86 -62t38.5 -102t1 -145t-34 -199q-25 -115 -50 -194.5t-63 -144t-83 -102.5t-113 -63.5t-150 -35t-197 -9.5q-113 0 -191 10.5t-133.5 37t-85 65.5t-40 103t-2.5 142.5t32 190.5q24 115 49 194t62 143.5t82 103t112.5 64.5
t150 35.5t198.5 9.5zM786 817q-66 0 -104 -10t-66 -44t-43.5 -82.5t-35.5 -143.5q-16 -75 -22 -119t-3 -79t22 -50.5t50 -23t84 -7.5q43 0 71.5 4t52 17.5t38 30t29 52t24.5 73.5t24 102q13 64 19.5 102.5t7 73.5t-7 52t-25.5 30.5t-45 17.5t-70 4zM1204 1501l150 -84
q-147 -203 -295 -203q-91 0 -189 70q-5 4 -22 17t-23.5 17.5t-20.5 13.5t-22.5 12.5t-20 6.5t-22.5 3q-72 0 -141 -92l-149 90q157 196 309 196q81 0 174 -69q3 -2 16 -12t17 -12.5t15.5 -10.5t16.5 -10.5t15 -8.5t16.5 -8t15.5 -5t17 -4t16 -1q59 0 127 94z" />
    <glyph glyph-name="odieresis" unicode="&#xf6;" horiz-adv-x="1214" 
d="M838 1087q117 0 195 -8.5t135.5 -33.5t86 -62t38.5 -102t1 -145t-34 -199q-25 -115 -50 -194.5t-63 -144t-83 -102.5t-113 -63.5t-150 -35t-197 -9.5q-113 0 -191 10.5t-133.5 37t-85 65.5t-40 103t-2.5 142.5t32 190.5q24 115 49 194t62 143.5t82 103t112.5 64.5
t150 35.5t198.5 9.5zM786 817q-66 0 -104 -10t-66 -44t-43.5 -82.5t-35.5 -143.5q-16 -75 -22 -119t-3 -79t22 -50.5t50 -23t84 -7.5q43 0 71.5 4t52 17.5t38 30t29 52t24.5 73.5t24 102q13 64 19.5 102.5t7 73.5t-7 52t-25.5 30.5t-45 17.5t-70 4zM813 1458l-45 -211h-223
l45 211h223zM1243 1458l-45 -211h-223l45 211h223z" />
    <glyph glyph-name="divide" unicode="&#xf7;" horiz-adv-x="1228" 
d="M199 449l49 235h1024l-49 -235h-1024zM743 57h-235l49 236h236zM909 840h-235l51 235h236z" />
    <glyph glyph-name="oslash" unicode="&#xf8;" horiz-adv-x="1259" 
d="M940 584l-408 -254q10 -43 48 -57.5t104 -14.5q61 0 100 11t65 40t41 69t30 109zM549 492l405 249q0 22 -11 37t-25 22.5t-38 11.5t-38.5 4.5t-38.5 0.5q-103 0 -151 -31.5t-62 -101.5zM-4 0l37 170l135 84q5 131 51 340q22 105 49.5 180.5t67 131t85.5 90t113.5 55.5
t143.5 28.5t182 7.5q47 0 72 -0.5t71 -3t74 -7t65.5 -14.5t62 -23.5t48 -35t37.5 -49.5l176 113l-36 -174l-105 -66q-1 -24 0.5 -32.5t-2 -32.5t-4 -33t-5 -33t-6.5 -33t-7 -33.5t-7 -33.5q-20 -96 -37.5 -163t-41 -132t-48.5 -106.5t-62 -80t-80 -60t-103 -38t-131 -22.5
t-164 -6q-46 0 -71 0.5t-69.5 3t-72 7.5t-64.5 15t-61 24.5t-48.5 37t-39.5 51.5z" />
    <glyph glyph-name="ugrave" unicode="&#xf9;" horiz-adv-x="1259" 
d="M1137 0h-342l55 207h-16q-111 -219 -367 -219q-365 0 -291 352l158 735h352l-137 -641q-9 -50 -11.5 -89t22.5 -63t81 -24q78 0 146.5 41t84.5 115l142 661h352zM803 1548l364 -245l-84 -127l-432 145z" />
    <glyph glyph-name="uacute" unicode="&#xfa;" horiz-adv-x="1259" 
d="M1137 0h-342l55 207h-16q-111 -219 -367 -219q-365 0 -291 352l158 735h352l-137 -641q-9 -50 -11.5 -89t22.5 -63t81 -24q78 0 146.5 41t84.5 115l142 661h352zM1118 1548l53 -227l-493 -145l-31 127z" />
    <glyph glyph-name="ucircumflex" unicode="&#xfb;" horiz-adv-x="1259" 
d="M1137 0h-342l55 207h-16q-111 -219 -367 -219q-365 0 -291 352l158 735h352l-137 -641q-9 -50 -11.5 -89t22.5 -63t81 -24q78 0 146.5 41t84.5 115l142 661h352zM956 1548l328 -223l-78 -117l-295 127l-340 -127l-28 117z" />
    <glyph glyph-name="udieresis" unicode="&#xfc;" horiz-adv-x="1259" 
d="M1137 0h-342l55 207h-16q-111 -219 -367 -219q-365 0 -291 352l158 735h352l-137 -641q-9 -50 -11.5 -89t22.5 -63t81 -24q78 0 146.5 41t84.5 115l142 661h352zM836 1458l-45 -211h-224l45 211h224zM1266 1458l-45 -211h-224l45 211h224z" />
    <glyph glyph-name="yacute" unicode="&#xfd;" horiz-adv-x="1091" 
d="M1335 1075l-520 -1169q-61 -146 -129 -226.5t-166.5 -118.5t-249.5 -38q-18 0 -37.5 1t-43 2.5t-37.5 2.5l51 244q40 -4 61 -4q53 0 93.5 18t67 52.5t43 72t30.5 88.5h-193l-90 1075h369l26 -874h4l361 874h360zM1034 1548l53 -227l-493 -145l-31 127z" />
    <glyph glyph-name="thorn" unicode="&#xfe;" horiz-adv-x="1265" 
d="M782 1536l-133 -627h13q48 99 139 142q71 36 203 36q201 0 283.5 -93.5t39.5 -301.5l-53 -246q-53 -247 -168.5 -352.5t-335.5 -105.5q-53 0 -92.5 7t-76.5 24.5t-60.5 53.5t-32.5 89h-16l-134 -627h-352l424 2001h352zM807 817q-58 0 -93.5 -11t-63 -44.5t-44 -84
t-35.5 -140.5q-13 -61 -18.5 -99t-4 -76t16 -58.5t45 -33t78.5 -12.5q78 0 120.5 19t75 78.5t58.5 181.5q8 41 12.5 65t9 54t4 47t-3 36.5t-10.5 30t-20 21t-30 15.5t-42 8t-55 3z" />
    <glyph glyph-name="ydieresis" unicode="&#xff;" horiz-adv-x="1091" 
d="M1335 1075l-520 -1169q-61 -146 -129 -226.5t-166.5 -118.5t-249.5 -38q-18 0 -37.5 1t-43 2.5t-37.5 2.5l51 244q40 -4 61 -4q53 0 93.5 18t67 52.5t43 72t30.5 88.5h-193l-90 1075h369l26 -874h4l361 874h360zM752 1458l-45 -211h-224l45 211h224zM1182 1458l-45 -211
h-224l45 211h224z" />
    <glyph glyph-name="dotlessi" unicode="&#x131;" horiz-adv-x="526" 
d="M670 1075l-230 -1075h-352l229 1075h353z" />
    <glyph glyph-name="Lslash" unicode="&#x141;" horiz-adv-x="1220" 
d="M748 911l-119 -555h645l-76 -356h-1055l133 627l-176 -125l62 291l176 122l131 621h410l-72 -342l305 217l-59 -285z" />
    <glyph glyph-name="lslash" unicode="&#x142;" horiz-adv-x="638" 
d="M688 895l-190 -895h-353l146 686l-166 -102l39 188l168 105l139 659h352l-94 -446l164 104l-41 -195z" />
    <glyph glyph-name="OE" unicode="&#x152;" horiz-adv-x="2254" 
d="M1096 0l51 170h-14q-83 -103 -177.5 -141.5t-224.5 -40.5q-120 0 -206.5 11t-156.5 37.5t-110.5 70.5t-62 111t-18 158t29.5 212l61 289q30 141 65 240.5t91 185.5t132 137t185 79.5t254 28.5q58 0 101 -3t96.5 -14.5t89.5 -31.5t64 -57.5t36 -89.5h15l24 184h1078
l-70 -336h-696l-62 -285h651l-61 -284h-651l-62 -295h711l-72 -336h-1091zM1223 639l63 297q13 62 15.5 106.5t-9 75.5t-30.5 49t-57.5 28.5t-80 13.5t-106.5 3q-164 0 -229 -56.5t-99 -219.5l-63 -297q-14 -69 -19.5 -116t-1 -84t18 -58t42 -34.5t66.5 -18t96 -4.5
q75 0 129.5 7t95 25t67 40t46 61t31.5 79t25 103z" />
    <glyph glyph-name="oe" unicode="&#x153;" horiz-adv-x="1884" 
d="M1260 672h346q24 115 -9 157.5t-127 42.5q-92 0 -138.5 -46t-71.5 -154zM879 537q9 43 13.5 66t9.5 54t6 46t0.5 35t-4.5 28.5t-11.5 20t-18.5 15.5t-27 8.5t-35.5 5.5t-45.5 1q-43 0 -71 -3.5t-51.5 -17t-37.5 -29.5t-28 -52t-23 -74t-23 -104q-16 -78 -21.5 -125.5
t-2.5 -80t22 -47.5t44.5 -20.5t72.5 -5.5q41 0 69.5 4.5t51.5 19t37.5 32.5t28 53.5t23 71.5t22.5 98zM801 1087q41 0 69.5 -1t69 -5.5t69.5 -14t58 -24.5t48.5 -40t27.5 -58h8q21 34 49 60t62.5 41t63.5 24t70.5 12.5t64 4.5t61.5 1q104 0 177 -10t128 -35.5t84.5 -65
t42 -102.5t5.5 -144t-30 -193l-12 -60h-698q-33 -141 -9.5 -192.5t129.5 -51.5q94 0 141.5 23.5t63.5 101.5h346q-48 -224 -211 -307q-126 -63 -391 -63q-36 0 -57 0.5t-56.5 3.5t-57 8.5t-49 17t-43.5 28t-28.5 42t-15.5 57.5h-12q-33 -43 -66.5 -72t-65.5 -46t-76.5 -25.5
t-85.5 -11t-108 -2.5q-109 0 -184.5 11t-126.5 39t-77.5 67t-33.5 104.5t2 141t33 186.5q23 110 45.5 184.5t56.5 140.5t76.5 105t106 68t144.5 40.5t192 11.5z" />
    <glyph glyph-name="Scaron" unicode="&#x160;" horiz-adv-x="1466" 
d="M856 946l168 -12q90 -7 153 -14t120.5 -19.5t94 -28t65.5 -40t42.5 -54.5t18.5 -73t-0.5 -94t-20.5 -119q-31 -150 -59 -214q-63 -144 -215 -212q-175 -78 -498 -78q-81 0 -126 1t-111 5.5t-102 14t-82.5 27t-68.5 43.5t-45.5 64.5t-28 89t-0.5 117.5t21 150h393
q-9 -41 -10 -69t8 -48t24 -31t46 -17.5t65 -8.5t89 -2q64 0 102 2.5t73 10t54 23.5t33 41t22 64q21 94 -5.5 113.5t-164.5 28.5q-9 1 -14 1l-88 6l-42 3q-96 7 -141.5 11.5t-116 17t-100 30.5t-67 51t-46.5 79.5t-8.5 114.5t19.5 158q14 65 32.5 120t43.5 98t51.5 77.5
t62 60t70 44t81 31t88 20.5t99 11.5t106 5t116.5 1.5q79 0 124 -1t112 -6.5t104 -17t83.5 -31.5t68 -52t39.5 -76t17 -106t-18 -140l-14 -63h-393q5 24 7.5 42.5t1 34t-3.5 27t-11.5 20t-15.5 14t-23 9.5t-27.5 6t-34.5 3t-39 1h-46h-3q-65 0 -111 -6t-73.5 -15t-45 -27
t-25 -36t-13.5 -47q-6 -26 -6 -46t2.5 -33.5t14 -23t20 -14.5t30.5 -9t35 -5.5t43 -3.5zM1083 1669l-319 223l82 117l282 -127l353 127l24 -117z" />
    <glyph glyph-name="scaron" unicode="&#x161;" horiz-adv-x="1183" 
d="M1231 770h-332q5 59 -39 80q-25 10 -86 10q-55 0 -90.5 -3.5t-56 -8t-32 -17.5t-15.5 -23t-9 -34q-6 -20 -3.5 -36.5t15.5 -29t51 -20t103 -8.5q68 -2 113.5 -4t97 -6.5t83.5 -12t66 -19.5t52 -29t34 -41t20 -55.5t2 -72t-13 -90.5q-19 -92 -61.5 -158.5t-96.5 -105
t-130 -61.5t-148 -30t-166 -7q-196 0 -270 14q-150 27 -185 134q-25 76 2 200h352q-16 -81 31 -107q31 -14 117 -14q121 0 156.5 16t48.5 78q4 20 5 35t-3.5 26.5t-9.5 19t-18.5 12.5t-23.5 8t-32 4t-36.5 1.5t-43.5 0.5q-166 0 -266.5 19t-147.5 58.5t-55 99.5t10 142
q16 73 42.5 128.5t55.5 92.5t77 62.5t86.5 39t104.5 20t111 8t125 1.5q81 0 127.5 -2t118.5 -16t108.5 -40t58 -79t5.5 -129zM844 1208l-318 224l80 116l285 -127l350 127l27 -116z" />
    <glyph glyph-name="Ydieresis" unicode="&#x178;" horiz-adv-x="1449" 
d="M1808 1536l-772 -997l-114 -539h-410l115 539l-334 997h469l149 -592h15l407 592h475zM1030 1919l-45 -211h-223l45 211h223zM1460 1919l-45 -211h-223l45 211h223z" />
    <glyph glyph-name="Zcaron" unicode="&#x17d;" horiz-adv-x="1349" 
d="M1628 1536l-72 -344l-911 -823l-2 -13h735l-75 -356h-1256l74 346l899 821l2 13h-678l76 356h1208zM1026 1669l-319 223l81 117l283 -127l352 127l25 -117z" />
    <glyph glyph-name="zcaron" unicode="&#x17e;" horiz-adv-x="1015" 
d="M311 1075h891l-59 -278l-637 -551h520l-53 -246h-930l61 291l623 538h-469zM760 1208l-318 224l80 116l285 -127l350 127l27 -116z" />
    <glyph glyph-name="florin" unicode="&#x192;" 
d="M1434 1001l-101 -258h-209l-311 -798q-33 -86 -54 -137t-53.5 -102t-53 -76t-69 -49.5t-83.5 -33t-114 -16t-143 -8t-188 -0.5l103 268q87 -10 102 -10q35 0 62.5 10t44 22.5t34 40.5t25.5 45.5t25 57.5l305 786h-156l100 258h154l47 121q26 66 48 115.5t50 92t46.5 72.5
t54.5 54t56.5 39t70 26t78 16t97.5 7.5t111 3t134 0.5l-103 -268q-45 10 -80 10q-41 0 -65.5 -6t-48.5 -25t-43 -54t-41 -95l-41 -109h209z" />
    <glyph glyph-name="circumflex" unicode="&#x2c6;" horiz-adv-x="1048" 
d="M850 1548l328 -223l-78 -117l-295 127l-340 -127l-29 117z" />
    <glyph glyph-name="caron" unicode="&#x2c7;" horiz-adv-x="1048" 
d="M776 1208l-317 224l80 116l284 -127l351 127l26 -116z" />
    <glyph glyph-name="uni02C9" unicode="&#x2c9;" horiz-adv-x="950" 
d="M461 1446h643l-41 -193h-643z" />
    <glyph glyph-name="breve" unicode="&#x2d8;" horiz-adv-x="1036" 
d="M473 1501h193q-3 -153 139 -153q143 0 205 153h192q-47 -145 -167 -236t-267 -91q-142 0 -225.5 93.5t-69.5 233.5z" />
    <glyph glyph-name="dotaccent" unicode="&#x2d9;" horiz-adv-x="530" 
d="M686 1458l-45 -211h-223l45 211h223z" />
    <glyph glyph-name="ring" unicode="&#x2da;" horiz-adv-x="706" 
d="M442 1360q19 83 90 141t154 58q82 0 128.5 -58t27.5 -141q-17 -83 -88.5 -142t-153.5 -59q-83 0 -129 59t-29 142zM549 1360q-8 -39 13 -66.5t59 -27.5q37 0 72 28t42 66t-14.5 65t-58.5 27q-39 0 -72.5 -27t-40.5 -65z" />
    <glyph glyph-name="ogonek" unicode="&#x2db;" horiz-adv-x="643" 
d="M301 0h186q-120 -65 -164 -106q-37 -35 -44 -66t11.5 -45t53.5 -14q37 0 96 18l-32 -156q-54 -22 -121 -22q-91 0 -143 49.5t-33 138.5q14 66 66 117.5t124 85.5z" />
    <glyph glyph-name="tilde" unicode="&#x2dc;" horiz-adv-x="1198" 
d="M1196 1501l150 -84q-147 -203 -295 -203q-91 0 -189 70q-5 4 -22 17t-23.5 17.5t-20.5 13.5t-22.5 12.5t-20 6.5t-22.5 3q-72 0 -141 -92l-150 90q157 196 310 196q81 0 174 -69q3 -2 16 -12t17 -12.5t15.5 -10.5t16.5 -10.5t15 -8.5t16.5 -8t15.5 -5t17 -4t16 -1
q59 0 127 94z" />
    <glyph glyph-name="hungarumlaut" unicode="&#x2dd;" horiz-adv-x="1218" 
d="M797 1642l133 -169l-430 -285l-74 96zM1245 1642l133 -169l-430 -285l-74 96z" />
    <glyph glyph-name="uni03A9" unicode="&#x3a9;" horiz-adv-x="1894" 
d="M512 258v6q-42 32 -77.5 72t-68 94t-49.5 115t-22 136.5t14 158.5q30 141 116.5 267t212 219t292 147.5t346.5 54.5q185 0 327.5 -57t223 -152.5t110.5 -218t2 -256.5q-79 -363 -456 -580v-6h364l-55 -258h-731l41 197q86 44 155 95t133.5 120.5t110.5 163t70 206.5
q14 78 12 149.5t-29 133.5t-70 108t-110.5 72.5t-150.5 26.5q-201 0 -362 -140t-208 -360q-42 -199 21.5 -350.5t199.5 -224.5l-40 -197h-734l56 258h356z" />
    <glyph glyph-name="uni03BC" unicode="&#x3bc;" horiz-adv-x="1259" 
d="M1143 0h-342l55 207h-16q-60 -118 -154.5 -168.5t-224.5 -50.5l-96 -453h-353l328 1540h352l-137 -641q-9 -50 -11.5 -89t22.5 -63t81 -24q78 0 147 41t85 115l141 661h352z" />
    <glyph glyph-name="pi" unicode="&#x3c0;" horiz-adv-x="1564" 
d="M1686 864h-175l-106 -502q-51 -230 -47 -362h-344q-33 59 28 336l113 528h-330q-49 -208 -149.5 -475t-183.5 -389h-347q93 169 193 427.5t139 436.5q-177 0 -258 -22l8 209q110 77 447 77h1098z" />
    <glyph glyph-name="endash" unicode="&#x2013;" horiz-adv-x="1024" 
d="M156 733h1024l-72 -336h-1024z" />
    <glyph glyph-name="emdash" unicode="&#x2014;" horiz-adv-x="2048" 
d="M156 733h2048l-72 -336h-2048z" />
    <glyph glyph-name="quoteleft" unicode="&#x2018;" horiz-adv-x="540" 
d="M621 913h-332l73 344q28 162 117.5 227t296.5 64l-33 -153q-87 -1 -124 -31t-52 -107h127z" />
    <glyph glyph-name="quoteright" unicode="&#x2019;" horiz-adv-x="540" 
d="M440 1536h332l-72 -344q-20 -109 -63 -171t-126.5 -91.5t-223.5 -28.5l30 154q88 1 124.5 30t54.5 107h-127z" />
    <glyph glyph-name="quotesinglbase" unicode="&#x201a;" horiz-adv-x="540" 
d="M188 344h332l-74 -344q-20 -109 -62.5 -170.5t-126.5 -91.5t-224 -29l33 154q86 1 122 30t54 107h-127z" />
    <glyph glyph-name="quotedblleft" unicode="&#x201c;" horiz-adv-x="1001" 
d="M1081 913h-331l73 344q28 162 117.5 227t296.5 64l-33 -153q-87 -1 -124 -31t-52 -107h127zM621 913h-332l73 344q28 162 117.5 227t296.5 64l-33 -153q-87 -1 -124 -31t-52 -107h127z" />
    <glyph glyph-name="quotedblright" unicode="&#x201d;" horiz-adv-x="1001" 
d="M440 1536h332l-72 -344q-20 -109 -63 -171t-126.5 -91.5t-223.5 -28.5l30 154q88 1 124.5 30t54.5 107h-127zM901 1536h332l-72 -344q-20 -109 -63 -171t-126.5 -91.5t-223.5 -28.5l30 154q88 1 124 30t54 107h-127z" />
    <glyph glyph-name="quotedblbase" unicode="&#x201e;" horiz-adv-x="1001" 
d="M184 344h332l-74 -344q-20 -109 -62.5 -170.5t-126.5 -91.5t-224 -29l32 154q87 1 123.5 30t53.5 107h-127zM645 344h332l-74 -344q-20 -109 -63 -170.5t-127 -91.5t-224 -29l33 154q86 1 122 30t54 107h-127z" />
    <glyph glyph-name="dagger" unicode="&#x2020;" 
d="M1239 1536l-94 -449h373l-58 -270h-373l-272 -1282h-352l272 1282h-373l58 270h373l94 449h352z" />
    <glyph glyph-name="daggerdbl" unicode="&#x2021;" 
d="M1239 1536l-96 -461h373l-58 -270h-373l-114 -535h372l-57 -270h-373l-98 -465h-352l98 465h-373l58 270h372l115 535h-373l58 270h373l96 461h352z" />
    <glyph glyph-name="bullet" unicode="&#x2022;" horiz-adv-x="1228" 
d="M1163 768q-34 -158 -170.5 -270.5t-296.5 -112.5q-159 0 -247.5 111.5t-53.5 271.5q31 160 167.5 272.5t297.5 112.5q160 0 248.5 -112.5t54.5 -272.5z" />
    <glyph glyph-name="ellipsis" unicode="&#x2026;" horiz-adv-x="2048" 
d="M582 356l-76 -356h-332l76 356h332zM1266 356l-76 -356h-332l76 356h332zM1950 356l-76 -356h-332l76 356h332z" />
    <glyph glyph-name="perthousand" unicode="&#x2030;" horiz-adv-x="2641" 
d="M2699 492l-47 -226q-17 -74 -41 -123.5t-54 -80.5t-77 -47t-97 -21.5t-128 -5.5q-65 0 -107 3.5t-79 13.5t-56 28.5t-30.5 49.5t-10 75t12.5 106l49 225q17 74 40 123.5t51 81t73 47.5t94.5 21.5t126.5 5.5q65 0 108 -3.5t82 -13.5t59 -28.5t33 -49.5t11.5 -75
t-13.5 -106zM2454 297l34 170q7 31 9.5 51t-1.5 34.5t-9.5 21.5t-23.5 11t-34 4.5t-49 0.5q-36 0 -52 -1.5t-34.5 -7t-27 -19.5t-17.5 -35.5t-17 -59.5l-34 -170q-11 -50 -13 -75.5t12 -38.5t31.5 -15t61.5 -2q31 0 46 0.5t35 4.5t29 12t20.5 23t19 36.5t14.5 54.5z
M1915 492l-47 -226q-17 -74 -41 -123.5t-54 -80.5t-77.5 -47t-97.5 -21.5t-128 -5.5q-65 0 -107 3.5t-79 13.5t-56 28.5t-30.5 49.5t-10 75t12.5 106l49 225q17 74 40 123.5t51 81t73 47.5t94.5 21.5t126.5 5.5q65 0 108 -3.5t82 -13.5t59.5 -28.5t33.5 -49.5t11.5 -75
t-13.5 -106zM1669 297l35 170q7 31 9.5 51t-2 34.5t-10 21.5t-23.5 11t-34 4.5t-49 0.5q-30 0 -44 -0.5t-32 -4.5t-25.5 -11t-17 -21.5t-15.5 -34.5t-13 -51l-35 -170q-11 -50 -13 -75.5t12 -38.5t31.5 -15t61.5 -2q31 0 46 0.5t35 4.5t29 12t20.5 23t19 36.5t14.5 54.5z
M983 1272l-47 -225q-17 -74 -41 -123.5t-54 -80.5t-77 -47.5t-97 -22t-128 -5.5q-65 0 -107 3.5t-79.5 13.5t-56.5 28.5t-30.5 49.5t-10 75t12.5 106l49 226q17 74 40 123.5t51 80.5t73 47t94 21.5t127 5.5q65 0 108 -3.5t82 -13.5t59.5 -28.5t33.5 -49.5t11.5 -75
t-13.5 -106zM737 1077l35 170q7 31 9.5 51t-1.5 34.5t-9.5 21.5t-23.5 11t-34 4.5t-49 0.5q-36 0 -52 -1.5t-34.5 -7t-27 -19.5t-17.5 -35.5t-17 -59.5l-35 -170q-11 -50 -13 -75.5t12 -38.5t31.5 -15t61.5 -2q31 0 46 0.5t35 4.5t29 12t20.5 23t19 36.5t14.5 54.5z
M1845 1536l-1233 -1536h-245l1232 1536h246z" />
    <glyph glyph-name="guilsinglleft" unicode="&#x2039;" horiz-adv-x="677" 
d="M575 1055l205 -125l-274 -373l123 -346l-248 -135l-172 481z" />
    <glyph glyph-name="guilsinglright" unicode="&#x203a;" horiz-adv-x="675" 
d="M328 76l-205 125l276 372l-125 347l248 135l174 -482z" />
    <glyph glyph-name="fraction" unicode="&#x2044;" horiz-adv-x="446" 
d="M1124 1536l-1233 -1536h-245l1233 1536h245z" />
    <glyph glyph-name="Euro" unicode="&#x20ac;" 
d="M1757 1403l-201 -324q-23 37 -56 62.5t-64 38.5t-75.5 20t-74 8.5t-76.5 1.5q-166 0 -248 -41.5t-118 -138.5h680l-129 -209h-602l-17 -84h572l-131 -209h-480q-6 -75 16 -118t86 -64.5t183 -21.5q242 0 420 141l-80 -377q-78 -45 -195 -72.5t-213 -27.5q-80 0 -133 1.5
t-120.5 7t-110 16t-92 30t-77.5 47t-54 68t-35 93t-7.5 122.5t17.5 155h-215l131 209h129l16 84h-219l131 209h136q25 94 63.5 170t84.5 129.5t107 93t123.5 63.5t141 38t152 19t163.5 5q160 0 252 -22q144 -35 219 -123z" />
    <glyph glyph-name="afii61289" unicode="&#x2113;" horiz-adv-x="1372" 
d="M1266 469l116 -147q-138 -170 -304.5 -248t-336.5 -78q-376 0 -389 332q2 6 2 18q-75 -44 -137 -80l-59 172q39 23 119.5 70.5t119.5 71.5l103 483q34 156 93 273t137 188.5t169.5 106t196.5 34.5q98 0 168 -32.5t103 -87t44 -126t-8 -149.5q-21 -99 -76 -194
t-145.5 -189t-201.5 -183t-263 -192l-6 -47q-13 -92 35.5 -145.5t138.5 -53.5q97 0 198.5 58.5t182.5 144.5zM850 1141l-72 -344q155 124 255 246t122 227q18 81 -3 127.5t-85 46.5q-63 0 -123 -72t-94 -231z" />
    <glyph glyph-name="trademark" unicode="&#x2122;" horiz-adv-x="1761" 
d="M2095 1536l-174 -827h-190l139 661h-4l-379 -661h-107l-100 661h-4l-139 -661h-191l174 827h301l84 -489l289 489h301zM1030 1536l-35 -170h-252l-139 -657h-209l140 657h-252l34 170h713z" />
    <glyph glyph-name="Omega" unicode="&#x2126;" horiz-adv-x="1894" 
d="M512 258v6q-42 32 -77.5 72t-68 94t-49.5 115t-22 136.5t14 158.5q30 141 116.5 267t212 219t292 147.5t346.5 54.5q185 0 327.5 -57t223 -152.5t110.5 -218t2 -256.5q-79 -363 -456 -580v-6h364l-55 -258h-731l41 197q86 44 155 95t133.5 120.5t110.5 163t70 206.5
q14 78 12 149.5t-29 133.5t-70 108t-110.5 72.5t-150.5 26.5q-201 0 -362 -140t-208 -360q-42 -199 21.5 -350.5t199.5 -224.5l-40 -197h-734l56 258h356z" />
    <glyph glyph-name="estimated" unicode="&#x212e;" horiz-adv-x="2209" 
d="M2136 745h-1403q-12 0 -12 -8v-426q0 -26 18 -47q105 -109 242 -170t289 -61q165 0 310 69t249 189h125q-118 -139 -298.5 -220t-387.5 -81q-176 0 -336 61.5t-276 165.5t-184.5 248.5t-68.5 302.5t68.5 302.5t184.5 249t276 166.5t336 62q177 0 338 -62t277 -166.5
t184.5 -249t68.5 -302.5v-23zM1819 801v428q0 28 -23 51q-105 103 -240 162t-286 59q-150 0 -286.5 -61t-242.5 -168q-20 -17 -20 -53v-418q0 -4 3.5 -8.5t8.5 -4.5h1075q4 0 7.5 4.5t3.5 8.5z" />
    <glyph glyph-name="partialdiff" unicode="&#x2202;" horiz-adv-x="1480" 
d="M535 1348l-56 223q88 52 220.5 94.5t301.5 42.5q155 0 277.5 -58.5t198.5 -167t100.5 -263t-16.5 -347.5q-55 -256 -190 -455.5t-329 -311t-415 -111.5q-79 0 -146.5 17.5t-115.5 48t-85 72t-59 88.5t-33 98.5t-10.5 101t10.5 96.5q34 158 130.5 286t239.5 201.5
t304 73.5q78 0 143.5 -22.5t107.5 -57.5t66.5 -65t37.5 -58h2l12 60q16 84 14.5 160t-26.5 140.5t-66 111.5t-105.5 73.5t-144.5 26.5q-188 0 -368 -98zM719 254h4q125 0 239 113.5t166 257.5q-2 29 -18 62t-43.5 64.5t-74 52.5t-103.5 21q-124 0 -226.5 -90.5
t-130.5 -220.5q-23 -111 30 -185.5t157 -74.5z" />
    <glyph glyph-name="Delta" unicode="&#x2206;" horiz-adv-x="1703" 
d="M57 0l37 176l877 1362h424l284 -1362l-37 -176h-1585zM489 260h809l-135 651q-5 31 -18.5 107t-23 137t-13.5 102h-10q-19 -34 -87 -150t-96 -167z" />
    <glyph glyph-name="product" unicode="&#x220f;" horiz-adv-x="2148" 
d="M2105 1208h-264v-1415h-350v1415h-510v-1415h-352v1415h-262v293h1738v-293z" />
    <glyph glyph-name="summation" unicode="&#x2211;" horiz-adv-x="1763" 
d="M1726 -207h-1357v195l594 651l-564 637v225h1276v-289h-780v-8l475 -526l-522 -582v-8h878v-295z" />
    <glyph glyph-name="minus" unicode="&#x2212;" horiz-adv-x="1228" 
d="M199 449l49 235h1024l-49 -235h-1024z" />
    <glyph glyph-name="uni2215" unicode="&#x2215;" horiz-adv-x="446" 
d="M1124 1536l-1233 -1536h-245l1233 1536h245z" />
    <glyph glyph-name="uni2219" unicode="&#x2219;" horiz-adv-x="737" 
d="M692 743l-76 -356h-331l75 356h332z" />
    <glyph glyph-name="radical" unicode="&#x221a;" horiz-adv-x="1845" 
d="M1898 1794l-591 -2113h-279l-391 935l-182 -73l-60 170l449 184l268 -707q46 -141 57 -178h5q17 88 43 191l428 1591h253z" />
    <glyph glyph-name="infinity" unicode="&#x221e;" horiz-adv-x="2033" 
d="M1925 623v-2q0 -124 -55.5 -219.5t-142 -143t-185.5 -47.5q-226 0 -418 258q-50 -61 -92 -102.5t-94.5 -79.5t-112.5 -57t-127 -19q-99 0 -184 49t-137.5 141t-52.5 207q0 178 113 292t282 114q125 0 224.5 -64t195.5 -188q4 5 27.5 32t31 35t31.5 33t36 35t37 30.5
t42.5 29.5t44.5 22.5t51 19.5t53.5 10.5t60.5 4.5q159 -2 265 -109t106 -282zM719 391h4q44 0 86.5 17.5t84 54t67 64t65.5 75.5q-83 115 -124 154q-85 82 -189 82q-90 0 -147.5 -63.5t-57.5 -166.5q0 -89 60.5 -153t150.5 -64zM1536 838h-2q-32 0 -65 -12t-56 -25.5
t-55 -43.5t-45.5 -45t-45.5 -52t-38 -44q102 -129 170 -177t147 -48q88 0 141.5 68t53.5 149q0 101 -57 165.5t-148 64.5z" />
    <glyph glyph-name="integral" unicode="&#x222b;" horiz-adv-x="1269" 
d="M1249 1837l-35 -215q-45 18 -94 18q-85 0 -127 -61q-34 -43 -47.5 -126t-13.5 -222q0 -171 20.5 -492t20.5 -520q0 -279 -88 -424q-51 -90 -139 -133t-191 -43q-55 0 -113.5 11t-89.5 26l41 223q55 -22 111 -22q72 0 114 45q35 43 51.5 115.5t16.5 205.5
q0 202 -20.5 531.5t-20.5 511.5q0 186 36.5 301.5t117.5 193.5q105 105 297 105q83 0 153 -29z" />
    <glyph glyph-name="approxequal" unicode="&#x2248;" horiz-adv-x="1587" 
d="M1376 1020l123 -125q-73 -114 -162.5 -173.5t-185.5 -59.5q-72 0 -130.5 21t-148.5 71q-3 2 -21.5 11.5t-22.5 11.5t-20.5 10.5t-23 11t-21 8.5t-24 8t-23 5t-26.5 4t-26 1q-72 0 -128.5 -41.5t-117.5 -119.5l-123 124q59 99 163 165.5t214 66.5q54 0 105 -13.5t80 -27.5
t73 -39q101 -59 133 -71q38 -13 80 -13q66 0 120.5 41t112.5 123zM1376 575l123 -124q-152 -232 -350 -232q-72 0 -131 21t-146 69q-44 26 -69 38.5t-62.5 24t-74.5 11.5q-40 0 -75 -12t-66 -37.5t-54 -50t-53 -62.5l-123 125q60 98 164.5 165t214.5 67q52 0 103.5 -14
t78 -27t72.5 -39q12 -7 49.5 -28.5t54 -29.5t48 -17t61.5 -9q68 0 119.5 38t115.5 123z" />
    <glyph glyph-name="notequal" unicode="&#x2260;" horiz-adv-x="1628" 
d="M1274 1141l-88 -193h327v-190h-411l-135 -295h546v-191h-630l-123 -270l-156 72l92 198h-321v191h405l135 295h-540v190h622l119 264z" />
    <glyph glyph-name="lessequal" unicode="&#x2264;" horiz-adv-x="1677" 
d="M1561 252l-1129 500v204l1127 500v-215l-920 -385v-4l922 -387v-213zM1565 -25h-1139v195h1139v-195z" />
    <glyph glyph-name="greaterequal" unicode="&#x2265;" horiz-adv-x="1679" 
d="M434 1456l1129 -502v-204l-1127 -498v213l920 387v4l-922 385v215zM1554 -25h-1126v195h1126v-195z" />
    <glyph glyph-name="lozenge" unicode="&#x25ca;" horiz-adv-x="1845" 
d="M1733 748l-512 -857h-273l-506 857l510 858h273zM1423 741l-293 519q-36 65 -45 96h-4q-12 -31 -45 -96l-288 -506l296 -521q29 -61 41 -94h9q20 58 41 92z" />
    </font>
</defs>
</svg>
