<?xml version="1.0" standalone="no"?>
<!DOCTYPE svg PUBLIC "-//W3C//DTD SVG 1.1//EN" "http://www.w3.org/Graphics/SVG/1.1/DTD/svg11.dtd" >
<svg xmlns="http://www.w3.org/2000/svg" xmlns:xlink="http://www.w3.org/1999/xlink" version="1.1">
<metadata>
Created by FontForge 20170731 at Thu May 27 15:01:29 2021
 By Aleksey,,,
Copyright (c) 1987, 1992, 1998, 2002 Adobe Systems Incorporated.  All Rights Reserved.(c) 1987, 1992, 1998, 2002 Heidelberger Druckmaschinen AG. All rights reserved.
</metadata>
<defs>
<font id="EurostileLTStd-Bold" horiz-adv-x="1474" >
  <font-face 
    font-family="Eurostile LT Std Bold"
    font-weight="700"
    font-stretch="normal"
    units-per-em="2048"
    panose-1="2 11 8 4 2 2 2 5 2 4"
    ascent="1536"
    descent="-512"
    x-height="1075"
    cap-height="1536"
    bbox="-354 -512 2595 2019"
    underline-thickness="102"
    underline-position="-307"
    unicode-range="U+0020-FB02"
  />
<missing-glyph horiz-adv-x="1024" 
d="M0 0v1434h1024v-1434h-1024zM512 809l348 522h-696zM573 717l349 -522v1044zM164 102h696l-348 523zM102 1239v-1044l349 522z" />
    <glyph glyph-name="fi" unicode="fi" horiz-adv-x="1333" 
d="M1245 1075v-1075h-352v1075h352zM1245 1536v-270h-352v270h352zM760 1536v-268q-33 10 -66 10q-40 0 -66 -2t-44.5 -11t-27.5 -17.5t-14 -31.5t-6 -42.5t-1 -59.5v-39h239v-258h-239v-817h-353v817h-141v258h141v105q0 73 10 125t36 93.5t67 67t107 42.5t152 23t206 5z
" />
    <glyph glyph-name="fl" unicode="fl" horiz-adv-x="1363" 
d="M1245 1536v-1536h-352v1536h352zM774 1075v-258h-239v-817h-353v817h-141v258h141v105q0 73 10 125t36 93.5t67 67t107 42.5t152 23t206 5v-268q-33 10 -66 10q-40 0 -66 -2t-44.5 -11t-27.5 -17.5t-14 -31.5t-6 -42.5t-1 -59.5v-39h239z" />
    <glyph glyph-name=".notdef" horiz-adv-x="1024" 
d="M0 0v1434h1024v-1434h-1024zM512 809l348 522h-696zM573 717l349 -522v1044zM164 102h696l-348 523zM102 1239v-1044l349 522z" />
    <glyph glyph-name=".null" horiz-adv-x="0" 
 />
    <glyph glyph-name="nonmarkingreturn" horiz-adv-x="682" 
 />
    <glyph glyph-name="space" unicode=" " horiz-adv-x="737" 
 />
    <glyph glyph-name="exclam" unicode="!" horiz-adv-x="714" 
d="M524 356v-356h-331v356h331zM549 1536l-14 -932h-353l-14 932h381z" />
    <glyph glyph-name="quotedbl" unicode="&#x22;" horiz-adv-x="905" 
d="M84 1536h283v-266l-86 -264h-111l-86 264v266zM539 1536h282v-266l-86 -264h-110l-86 264v266z" />
    <glyph glyph-name="numbersign" unicode="#" 
d="M578 1536h217l-80 -430h207l79 430h216l-80 -430h163v-236h-200l-49 -266h192v-235h-242l-67 -369h-217l67 369h-206l-68 -369h-217l67 369h-186v235h232l49 266h-197v236h240zM672 870l-49 -266h208l54 266h-213z" />
    <glyph glyph-name="dollar" unicode="$" 
d="M633 946l198 -18q233 -18 322 -41q155 -39 217 -143q57 -94 57 -265q0 -142 -32.5 -236t-106.5 -151t-183.5 -80.5t-273.5 -23.5v-189h-198v189q-86 0 -151.5 5.5t-129 19.5t-109 39t-84.5 64t-62.5 93t-36.5 128.5t-13 168.5h369q0 -48 4.5 -81t18 -55t27.5 -34.5
t42.5 -19t54 -8t70.5 -1.5h198h47.5t41 1.5t37.5 4.5t30.5 8t26.5 13t19 20t15 27.5t7.5 36.5t3.5 47q0 44 -8 69t-34.5 42.5t-68 25.5t-117.5 14l-198 15q-94 6 -166.5 15.5t-131 24.5t-99.5 33t-71.5 46t-48.5 58t-29 73t-15 88.5t-4 107.5q0 99 11.5 170.5t40.5 125
t69.5 86.5t107 53.5t145.5 28t191 7.5v168h198v-168q56 -3 94 -6t86 -9t80 -15t70.5 -22t63.5 -32t51.5 -44t43 -58.5t30.5 -75t20 -94t6 -115.5h-358q0 51 -9.5 81.5t-34.5 46t-56 20t-87 4.5h-198q-54 0 -85.5 -4.5t-59.5 -19.5t-40 -46t-12 -82q0 -80 36 -102.5
t161 -28.5z" />
    <glyph glyph-name="percent" unicode="%" horiz-adv-x="1857" 
d="M1810 492v-226q-1 -74 -14.5 -123.5t-36.5 -80.5t-66.5 -47t-92.5 -21.5t-127 -5.5q-65 0 -107.5 3.5t-82 13.5t-62.5 28.5t-41 49.5t-25.5 75t-9.5 106v225q2 62 9.5 106t25 75.5t40.5 50.5t62 29.5t81.5 14t106.5 3.5q79 0 128 -5t93 -21t67.5 -46.5t37 -80
t14.5 -123.5zM1606 297v170q0 31 -2 51t-9.5 34.5t-14.5 21.5t-26 11t-35 4.5t-49 0.5q-30 0 -44 -0.5t-31 -4.5t-23 -11t-12.5 -21.5t-8 -34.5t-1.5 -51v-170q0 -50 3.5 -75t20 -38.5t34.5 -15.5t62 -2q31 0 46 0.5t34 4.5t27 12t16 22.5t10.5 36.5t2.5 55zM713 1272v-225
q-1 -74 -14.5 -123.5t-37 -80.5t-67 -47.5t-92.5 -22t-127 -5.5q-65 0 -107.5 3.5t-82 13.5t-62.5 28.5t-41 49.5t-25.5 75t-9.5 106v226q2 62 9.5 106t25.5 75.5t40.5 50t62 29t82 14t106.5 3.5q79 0 128 -5t93 -21t67.5 -46.5t37 -80t14.5 -123.5zM508 1077v170
q0 31 -1.5 51t-9 34.5t-14.5 21.5t-26 11t-35 4.5t-49 0.5q-36 0 -52 -1.5t-33 -7t-23 -19.5t-9.5 -35.5t-3.5 -59.5v-170q0 -33 1.5 -54.5t8 -37t13 -22.5t23.5 -11.5t31 -5t44 -0.5q31 0 46 0.5t34 4.5t26.5 12t15.5 23t10.5 36.5t2.5 54.5zM1520 1536l-908 -1536h-245
l907 1536h246z" />
    <glyph glyph-name="ampersand" unicode="&#x26;" horiz-adv-x="1585" 
d="M989 346l-407 352q-20 -2 -36 -10t-26 -16.5t-16.5 -26.5t-10 -28t-5 -34t-1.5 -32.5v-34.5q0 -30 2.5 -55t10 -44t14 -34t21 -26t25 -18.5t32.5 -12.5t35.5 -7.5t42.5 -4t45.5 -1.5h52.5h10q141 0 211 33zM1374 0l-141 127q-25 -34 -56 -58.5t-71.5 -39.5t-74 -23.5
t-85.5 -12t-82 -4.5t-86 -1q-72 0 -126.5 2t-115.5 8t-106 17t-91.5 29.5t-79 44t-62.5 62t-47.5 83t-28 107.5t-10.5 134q0 53 4 97.5t14.5 92t30.5 83.5t49 66t73 46t101 17q-72 63 -94.5 113.5t-22.5 146.5q0 105 21.5 178t60 118.5t104.5 71t141 34.5t185 9
q95 0 161.5 -5.5t131.5 -21t106.5 -44.5t74 -75t46.5 -114t13 -160v-77h-353q2 70 -3 105t-23 54t-52.5 26t-101.5 7q-79 0 -107 -26.5t-28 -108.5q0 -48 19 -80t63 -72l377 -335v202h325v-301q0 -72 -41 -149l170 -154z" />
    <glyph glyph-name="quotesingle" unicode="'" horiz-adv-x="450" 
d="M84 1536h283v-266l-86 -264h-111l-86 264v266z" />
    <glyph glyph-name="parenleft" unicode="(" horiz-adv-x="788" 
d="M117 344v541q2 243 16 331q26 163 120 237q122 95 419 95v-336q-46 0 -76.5 -11.5t-48.5 -30t-27 -54.5t-11.5 -71t-2.5 -93v-663q0 -42 1 -65.5t5.5 -59t15 -55.5t28.5 -41t47 -30t69 -9v-336q-100 0 -176.5 7.5t-134.5 28.5t-98.5 44t-67.5 68.5t-42.5 86.5t-23.5 115
t-10 136t-2 165z" />
    <glyph glyph-name="parenright" unicode=")" horiz-adv-x="788" 
d="M672 885v-541q0 -103 -2 -165t-10 -136t-23.5 -115t-42.5 -86.5t-67.5 -68.5t-98.5 -44t-134.5 -28.5t-176.5 -7.5v336q40 0 69 9t47 30t28.5 41t15 55.5t5.5 59t1 65.5v663q0 58 -2.5 93t-11.5 71t-27 54.5t-48.5 30t-76.5 11.5v336q91 0 163.5 -9t127.5 -23t96 -42.5
t69 -54.5t46.5 -74.5t29 -87t15.5 -105.5t6 -117.5t2 -135.5v-14z" />
    <glyph glyph-name="asterisk" unicode="*" 
d="M1157 1155l-256 -80l154 -219l-150 -115l-160 230l-172 -228l-155 113l160 221l-261 94l66 181l258 -92v276h190v-276l267 92z" />
    <glyph glyph-name="plus" unicode="+" horiz-adv-x="1228" 
d="M496 684v391h235v-391h395v-235h-395v-408h-235v408h-394v235h394z" />
    <glyph glyph-name="comma" unicode="," horiz-adv-x="737" 
d="M195 344h331v-344q5 -162 -70.5 -227t-281.5 -64v154q87 1 117.5 30.5t30.5 106.5h-127v344z" />
    <glyph glyph-name="hyphen" unicode="-" horiz-adv-x="557" 
d="M0 733h557v-336h-557v336z" />
    <glyph glyph-name="period" unicode="." horiz-adv-x="737" 
d="M516 356v-356h-332v356h332z" />
    <glyph glyph-name="slash" unicode="/" horiz-adv-x="1304" 
d="M1245 1536l-903 -1767h-281l904 1767h280z" />
    <glyph glyph-name="zero" unicode="0" 
d="M737 1548q84 0 138.5 -2.5t128.5 -14t121.5 -32t100 -60t82 -96t49 -141t19.5 -192.5v-484q0 -108 -19.5 -192.5t-49 -141t-82 -96t-100 -60t-121.5 -32t-128.5 -14t-138.5 -2.5t-138.5 2.5t-128.5 14t-121.5 32t-100 60t-82 96t-49 141t-19.5 192.5v484
q0 108 19.5 192.5t49 141t82 96t100 60t121.5 32t128.5 14t138.5 2.5zM737 1210q-37 0 -56.5 -0.5t-47 -2t-40.5 -5t-31.5 -10.5t-26 -16.5t-18.5 -24.5t-15 -34t-8.5 -45t-5.5 -57t-1 -71v-352q0 -40 1 -71t5.5 -57t8.5 -45t15 -34t18.5 -24.5t26 -16.5t31.5 -10.5t40.5 -5
t47 -2t56.5 -0.5t56.5 0.5t47 2t40.5 5t31.5 10.5t26 16.5t18.5 24.5t15 34t8.5 45t5.5 57t1 71v352q0 40 -1 71t-5.5 57t-8.5 45t-15 34t-18.5 24.5t-26 16.5t-31.5 10.5t-40.5 5t-47 2t-56.5 0.5z" />
    <glyph glyph-name="one" unicode="1" 
d="M1143 1536v-1536h-410v1174l-397 -363l-232 262l560 463h479z" />
    <glyph glyph-name="two" unicode="2" 
d="M1339 319v-319h-1212v319q0 70 3.5 120.5t16 96.5t28.5 77t48.5 61t68.5 50t95.5 42t123 39t157.5 39q172 40 207 55q51 21 64 61q9 28 9 99q0 111 -43 141.5t-172 28.5q-51 0 -81 -1.5t-57 -8.5t-40 -17.5t-23 -32t-12.5 -48.5t-3.5 -70v-76h-389v76q0 103 17 181.5
t53.5 133t85 90.5t120 56t149 28t181.5 8q85 0 147.5 -4t129 -16.5t113 -33.5t89.5 -57.5t69 -87t41 -122t15 -162.5q0 -87 -8 -150t-30.5 -112.5t-51 -82.5t-80.5 -61.5t-108 -48t-144 -43.5q-51 -14 -106 -26.5t-88 -19t-68.5 -15t-54.5 -17.5t-37.5 -22.5t-26.5 -33.5
t-13 -47.5t-5 -66.5h823z" />
    <glyph glyph-name="three" unicode="3" 
d="M637 637v297h98q77 0 118 4t64 20t28 37t5 64q0 38 -1.5 57.5t-8 42.5t-19.5 33t-37.5 20.5t-60 13.5t-88.5 3h-43t-37 -1.5t-33.5 -4t-27.5 -6.5t-24 -11t-18.5 -16.5t-15.5 -22.5t-10 -30t-6.5 -38.5t-1.5 -47.5v-31h-389v53q0 129 29.5 217.5t75.5 139t132 77.5
t170 34t218 7q64 0 111 -2t112.5 -11t112 -25.5t96.5 -47t81 -73.5t51.5 -107.5t20.5 -146.5q0 -69 -10.5 -124t-36 -104t-73 -79.5t-115.5 -39.5v-16q254 -10 254 -330q0 -84 -16 -150.5t-43 -113.5t-70.5 -81.5t-91 -55t-113 -33t-128 -16.5t-142.5 -4q-67 0 -116 1.5
t-108 7t-101 15.5t-88 27.5t-78 41.5t-62.5 59.5t-48.5 80.5t-28.5 104.5t-10.5 131.5v82h389v-52q0 -42 6.5 -73t22.5 -50.5t33 -31t47.5 -17t56 -7t67.5 -1.5t66.5 1t53 5t44 11.5t31 21t23 33.5t12 48.5t4.5 66.5q0 35 -4 55.5t-16.5 39.5t-38.5 28t-68 14.5t-107 5.5
h-98z" />
    <glyph glyph-name="four" unicode="4" 
d="M1266 1536v-936h131v-297h-131v-303h-389v303h-803v438l588 795h604zM877 600v621h-15l-467 -621h482z" />
    <glyph glyph-name="five" unicode="5" 
d="M133 446h389q3 -47 17 -76t42.5 -42t58 -17t79.5 -4q36 0 55.5 0.5t45.5 2t39 5.5t30 11t25 17.5t17 25.5t12.5 35.5t6 46t2.5 59.5q0 45 -0.5 67.5t-4 52.5t-9 43t-17 30t-28 23.5t-42 13.5t-57 8.5t-75.5 1.5q-109 0 -145 -11t-52 -63h-352v860h1110v-297h-758v-295
q74 79 129.5 96t208.5 17q140 0 232.5 -28t148 -91.5t78 -155t22.5 -229.5q0 -92 -8 -164.5t-27 -130t-44.5 -99.5t-65.5 -72t-85 -49t-108 -30.5t-129.5 -15.5t-154.5 -4q-121 0 -206.5 11t-159.5 40.5t-119 80.5t-71.5 132t-29.5 194z" />
    <glyph glyph-name="six" unicode="6" 
d="M702 612q-50 0 -79.5 -2.5t-54.5 -10t-37 -23t-18.5 -39t-6.5 -60.5q0 -57 6 -87t28 -50.5t58.5 -26.5t103.5 -6q62 0 95 1t65.5 8t46 17t25 31.5t14 48.5t2.5 72q0 21 -3 37.5t-6.5 29.5t-14.5 22.5t-18.5 16t-26.5 10.5t-31 6.5t-40 3.5t-45 1h-55h-8zM1352 1067h-389
q0 46 -8.5 76t-22 47.5t-43 26t-58 10.5t-81.5 2q-46 0 -72.5 -1t-56.5 -5t-45 -13t-31 -24t-22.5 -38.5t-10.5 -55t-4 -76.5v-244h4q15 46 37.5 77t44 47.5t58.5 24.5t63 9.5t76 1.5q85 0 144.5 -3.5t121 -14t102 -30t77.5 -52t58 -79t33 -111.5t12 -150
q0 -127 -24.5 -216.5t-68.5 -145.5t-120 -87.5t-163 -43t-213 -11.5q-132 0 -222.5 9.5t-164.5 36.5t-118 69.5t-74 114t-41 164.5t-11 226v385q0 119 15 206t50.5 149t83 101t122.5 61t158.5 30t201.5 8q56 0 94.5 -1t89.5 -4t86.5 -9.5t78 -16.5t72 -26.5t60.5 -39t51 -53
t37 -69t25 -88t8 -108.5v-66z" />
    <glyph glyph-name="seven" unicode="7" 
d="M1278 1536v-344l-510 -1192h-430l520 1192h-739v344h1159z" />
    <glyph glyph-name="eight" unicode="8" 
d="M733 633q-76 0 -116.5 -5t-69 -23t-37 -49t-8.5 -87q0 -98 48 -130t183 -32q59 0 97.5 2.5t66.5 11.5t42 19t22.5 32t10 43t1.5 60q0 38 -2.5 61.5t-13 43t-24.5 28.5t-43.5 15.5t-64 8t-92.5 1.5zM737 -12q-79 0 -138.5 3t-128 13.5t-117.5 29t-97 51.5t-77.5 78
t-47.5 111t-18 150q0 144 70.5 246t207.5 108v15q-136 34 -193 117t-57 233q0 78 18 140t47 104t76 72.5t93.5 47.5t112.5 26.5t120.5 12t128.5 2.5q81 0 138 -2.5t125 -12.5t113.5 -27.5t91.5 -49t73 -75.5t44 -109t17 -148q0 -155 -46.5 -221t-186.5 -110v-15
q72 -10 123.5 -40.5t79.5 -79t40.5 -105.5t12.5 -129q0 -67 -10.5 -122t-28 -97t-47.5 -74.5t-61 -55.5t-76 -39t-86.5 -25t-98.5 -14.5t-104.5 -7t-112.5 -1.5zM737 930q71 0 107.5 4.5t63 22t34.5 48t8 85.5q0 45 -5 67.5t-27 41t-64 24.5t-117 6q-130 0 -168.5 -27
t-38.5 -127q0 -39 7.5 -65t21.5 -42.5t41 -24.5t57 -10.5t80 -2.5z" />
    <glyph glyph-name="nine" unicode="9" 
d="M766 924q120 0 158.5 24t38.5 111q0 75 -14 108.5t-54.5 47.5t-128.5 14q-62 0 -95 -1t-65.5 -8t-46 -17t-25 -31.5t-14 -48.5t-2.5 -72q0 -21 3 -37.5t6.5 -29.5t14.5 -22.5t18.5 -16t26.5 -10.5t31 -6.5t40 -3.5t45 -1h55h8zM117 469h389q0 -46 8.5 -76t22 -47.5
t43 -26t58 -10.5t81.5 -2q46 0 72.5 1t56.5 5t45 13t31 24t22.5 38.5t10.5 55t4 76.5v244h-5q-13 -39 -29 -67t-38 -45t-41 -27t-51.5 -14.5t-54.5 -5.5t-64 -1q-74 0 -127.5 2.5t-110 10t-95 21.5t-76.5 36.5t-61.5 55t-42.5 77.5t-27.5 104t-8.5 133q0 127 24.5 216.5
t69 145.5t120.5 87.5t163 43t213 11.5q132 0 222.5 -9.5t164.5 -36.5t118 -69.5t74 -114t41 -164.5t11 -226v-385q0 -119 -15 -206t-50.5 -149t-83 -101t-122.5 -61t-158.5 -30t-201.5 -8q-56 0 -94.5 1t-89.5 4t-86.5 9.5t-78 16.5t-72 26.5t-60.5 39t-51 53t-37 69t-25 88
t-8 108.5v66z" />
    <glyph glyph-name="colon" unicode=":" horiz-adv-x="737" 
d="M516 356v-356h-332v356h332zM516 1075v-356h-332v356h332z" />
    <glyph glyph-name="semicolon" unicode=";" horiz-adv-x="737" 
d="M174 -291v154q87 1 117.5 30.5t30.5 106.5h-127v344h331v-344q5 -162 -70.5 -227t-281.5 -64zM526 1075v-356h-331v356h331z" />
    <glyph glyph-name="less" unicode="&#x3c;" horiz-adv-x="1228" 
d="M1126 1075v-262l-692 -244v-4l692 -243v-263l-1024 385v246z" />
    <glyph glyph-name="equal" unicode="=" horiz-adv-x="1228" 
d="M102 920h1024v-236h-1024v236zM102 449h1024v-236h-1024v236z" />
    <glyph glyph-name="greater" unicode="&#x3e;" horiz-adv-x="1228" 
d="M102 1075l1024 -385v-246l-1024 -385v263l693 243v4l-693 244v262z" />
    <glyph glyph-name="question" unicode="?" horiz-adv-x="1239" 
d="M739 543h-352v61q0 62 4 100t15 74t35.5 61.5t60.5 50.5t94 54l74 35q35 17 51.5 27t37 30t28.5 48t8 69q0 77 -37 101t-127 24q-36 0 -60 -2t-49.5 -9t-40.5 -20t-25 -36.5t-10 -57.5v-63h-352v63q1 74 15 132t36.5 99.5t59.5 71t78 47.5t99.5 28t115.5 13.5t133 3.5
q73 0 127.5 -3.5t111 -14t96.5 -28.5t76 -47.5t58 -71t34.5 -99t12.5 -131.5q0 -67 -6.5 -117t-23 -89.5t-37 -68t-57.5 -55t-75 -46t-98 -46.5q-64 -28 -87.5 -54.5t-23.5 -72.5v-61zM729 356v-356h-332v356h332z" />
    <glyph glyph-name="at" unicode="@" horiz-adv-x="1556" 
d="M596 719q0 -76 42 -128t114 -52q92 0 150.5 67.5t58.5 159.5q0 76 -45 125t-119 49q-84 0 -142.5 -69t-58.5 -152zM1020 1036l20 105h195l-100 -598q-1 -5 -3 -16t-2.5 -16t-1 -13.5t1 -12t5 -8t9.5 -6.5t15 -2q71 0 135 109t64 266q0 162 -72.5 281t-195.5 179t-281 60
q-169 0 -300 -79t-201 -215.5t-70 -305.5q0 -178 78.5 -313.5t215.5 -207t312 -71.5q215 0 391 137h203q-112 -155 -267.5 -238t-343.5 -83q-218 0 -399.5 99.5t-288 278t-106.5 398.5q0 216 104 396.5t283.5 284t394.5 103.5q128 0 256 -48.5t228.5 -131.5t163.5 -203.5
t63 -253.5q0 -114 -41 -223t-110 -191t-164 -132t-197 -50q-54 0 -88 26t-31 75l-4 4q-37 -43 -91 -69.5t-106 -26.5q-137 0 -240.5 106.5t-103.5 255.5q0 122 50.5 229t147.5 174.5t220 67.5q164 0 252 -121z" />
    <glyph glyph-name="A" unicode="A" horiz-adv-x="1501" 
d="M1028 264h-551l-76 -264h-426l461 1536h623l467 -1536h-418zM946 563l-190 666h-4l-187 -666h381z" />
    <glyph glyph-name="B" unicode="B" horiz-adv-x="1511" 
d="M123 0v1536h807q99 0 168.5 -8.5t133 -33t101.5 -68t60 -114t22 -169.5q0 -79 -9.5 -134t-34.5 -103t-74 -77t-123 -41v-16q83 -5 137 -31.5t81.5 -75t37.5 -103.5t10 -134q0 -93 -14 -162.5t-44.5 -116.5t-69.5 -76.5t-99.5 -45.5t-123 -21.5t-151.5 -5.5h-815z
M532 1200v-278h295q109 0 144 28t35 119q0 74 -23.5 101t-105.5 30h-345zM532 637v-301h310q103 0 145.5 32.5t42.5 123.5t-37.5 118t-142.5 27h-318z" />
    <glyph glyph-name="C" unicode="C" horiz-adv-x="1490" 
d="M1001 582h422v-45q0 -64 -1 -100t-8.5 -91t-21.5 -91.5t-42 -78.5t-68 -76q-34 -28 -70 -48t-80.5 -32t-76 -19t-88 -9.5t-82 -3t-90.5 -0.5q-108 0 -173.5 2.5t-151.5 14.5t-136.5 35t-107 65t-86 103.5t-49 152t-19.5 208.5v398q0 108 17 192.5t47 145t79.5 104.5
t105 70.5t134.5 42t157.5 21t182.5 5.5q77 0 132.5 -2t115 -8.5t101 -18t83.5 -30t69 -45.5t52.5 -64.5t39.5 -86t23 -110.5t10 -139v-59h-422v59q-4 40 -18.5 68t-34.5 43.5t-53.5 24t-64 10.5t-78.5 2q-59 0 -100 -6t-70 -21.5t-45.5 -35.5t-26 -56t-12 -74t-2.5 -98v-239
q0 -40 0.5 -65t2.5 -55.5t6 -49.5t10.5 -41t16.5 -34.5t24 -26.5t32.5 -21t42.5 -13.5t54 -9t67 -2.5q58 0 92 3t68.5 13.5t52 31t28 56t10.5 89.5v45z" />
    <glyph glyph-name="D" unicode="D" horiz-adv-x="1587" 
d="M106 0v1536h779q326 0 472 -136.5t146 -459.5v-322q0 -162 -28 -274.5t-93 -191.5t-173.5 -115.5t-268.5 -36.5h-834zM516 1180v-824h358q110 0 158.5 67t48.5 195v322q0 98 -23 151t-65.5 71t-118.5 18h-358z" />
    <glyph glyph-name="E" unicode="E" horiz-adv-x="1388" 
d="M541 1200v-280h655v-285h-655v-299h712v-336h-1122v1536h1108v-336h-698z" />
    <glyph glyph-name="F" unicode="F" horiz-adv-x="1261" 
d="M522 1200v-301h627v-336h-627v-563h-409v1536h1089v-336h-680z" />
    <glyph glyph-name="G" unicode="G" horiz-adv-x="1552" 
d="M1475 1059h-416q-1 25 -7.5 46t-14 36t-23.5 27t-27 19t-34.5 12.5t-35.5 7.5t-40.5 3.5t-39.5 1.5h-42q-45 0 -80.5 -2.5t-64.5 -9.5t-51 -14t-39 -22t-28.5 -27.5t-19.5 -36.5t-12.5 -43t-7 -53t-3.5 -60t-2 -70v-249q0 -68 7.5 -117t25.5 -82t40.5 -53.5t60.5 -31
t76.5 -14t97.5 -3.5q82 0 130 10.5t79.5 40t43 78.5t11.5 131h-283v284h699v-268q0 -134 -11.5 -226t-43.5 -162.5t-78.5 -112t-127 -67.5t-178 -35t-241.5 -9q-110 0 -193 6t-162.5 21.5t-135 43.5t-103 71t-76 104t-44 144t-15.5 189v398q0 108 17.5 192.5t47.5 145.5
t80.5 105t107 71t135.5 42.5t158 21t183 5.5q110 0 165 -1.5t141.5 -10.5t130 -27t99 -53t81 -87t44.5 -129.5t19 -180.5z" />
    <glyph glyph-name="H" unicode="H" horiz-adv-x="1613" 
d="M1485 1536v-1536h-410v602h-534v-602h-410v1536h410v-578h534v578h410z" />
    <glyph glyph-name="I" unicode="I" horiz-adv-x="663" 
d="M537 1536v-1536h-410v1536h410z" />
    <glyph glyph-name="J" unicode="J" horiz-adv-x="1232" 
d="M702 1536h410v-1063q0 -105 -10.5 -179t-38 -129.5t-66 -88.5t-104.5 -53.5t-143 -27.5t-191 -7q-110 0 -186.5 9t-136 33.5t-94.5 60.5t-58 98t-31 138.5t-8 188.5v127h389v-127q0 -101 22.5 -136.5t102.5 -35.5q91 0 117 26.5t26 102.5v1063z" />
    <glyph glyph-name="K" unicode="K" horiz-adv-x="1540" 
d="M541 1536v-578h123l395 578h495l-540 -754l585 -782h-507l-428 602h-123v-602h-410v1536h410z" />
    <glyph glyph-name="L" unicode="L" horiz-adv-x="1198" 
d="M528 1536v-1180h641v-356h-1050v1536h409z" />
    <glyph glyph-name="M" unicode="M" horiz-adv-x="2148" 
d="M494 1178l41 -1178h-410v1536h649l293 -965h14l279 965h665v-1536h-409l41 1178h-15l-389 -1178h-354l-393 1178h-12z" />
    <glyph glyph-name="N" unicode="N" horiz-adv-x="1783" 
d="M510 1180l25 -1180h-410v1536h692l440 -1180h17l-25 1180h410v-1536h-698l-435 1180h-16z" />
    <glyph glyph-name="O" unicode="O" horiz-adv-x="1556" 
d="M778 -12q-134 0 -234.5 13t-194 49.5t-152.5 98t-94 162.5t-35 240v434q0 139 35 240t94 162.5t152.5 98t194 49.5t234.5 13q94 0 170.5 -6.5t152 -22.5t132.5 -43.5t106.5 -70.5t81.5 -101.5t50 -138.5t18 -180v-434q0 -100 -18 -180t-50 -138.5t-81.5 -101.5
t-106.5 -70.5t-132.5 -43.5t-152 -22.5t-170.5 -6.5zM778 344q59 0 96 2.5t73 12t56 26t36 44.5t22 68.5t6 98.5v346q0 57 -6 97.5t-22 68.5t-36 44.5t-56 25.5t-73 11.5t-96 2.5t-95.5 -2.5t-72 -12t-55 -25.5t-35.5 -44.5t-22.5 -68.5t-8.5 -97v-346q2 -58 8.5 -98.5
t22.5 -69t35.5 -44.5t55 -25.5t72 -12t95.5 -2.5z" />
    <glyph glyph-name="P" unicode="P" horiz-adv-x="1456" 
d="M528 0h-409v1536h772q284 0 404 -130.5t120 -432.5q0 -113 -9 -193.5t-32 -148.5t-60.5 -110.5t-96.5 -72.5t-138.5 -42.5t-187.5 -12.5h-363v-393zM528 750h281q45 2 70.5 4.5t49 12t34 22.5t18.5 39.5t10 59t2 85.5q0 64 -6 100t-26 62t-55.5 35.5t-96.5 9.5h-281v-430
z" />
    <glyph glyph-name="Q" unicode="Q" horiz-adv-x="1630" 
d="M887 774l219 -156v250q0 73 -3.5 119t-15.5 85.5t-30.5 60t-53 35.5t-79 19.5t-111.5 4.5t-110.5 -4.5t-78 -19.5t-52.5 -35.5t-29.5 -60t-15 -85.5t-3.5 -119v-276q0 -59 6.5 -100.5t24.5 -69t37.5 -43t57.5 -23.5t72 -10t93 -2q121 0 182 23l-272 178zM1497 -2
l-151 121q-51 -44 -116.5 -72.5t-143 -40t-134.5 -15t-137 -3.5q-107 0 -189.5 7.5t-159 25.5t-132 48.5t-101 77.5t-73.5 112t-43 151t-15 196v324q0 107 15.5 192.5t44 150t74.5 112t102 79t132 50t158.5 26.5t186.5 8t186.5 -8t158.5 -26.5t132 -50t102 -79t74.5 -112
t44 -150t15.5 -192.5v-385q0 -117 -31 -205l168 -115z" />
    <glyph glyph-name="R" unicode="R" horiz-adv-x="1519" 
d="M526 764h318q26 0 46.5 1.5t37 6.5t28.5 9t21.5 15.5t15.5 18t10 25t6.5 28t3.5 35t1 39v45.5v17q0 103 -34.5 139.5t-135.5 36.5h-318v-416zM117 0v1536h790q113 -2 192 -14t146.5 -42t107 -81.5t61.5 -132.5t22 -195q0 -71 -1 -104.5t-6 -88t-16 -81t-31.5 -64
t-51.5 -58t-77 -42t-108 -35.5v-16q129 -5 202.5 -75t73.5 -198v-309h-409v215q3 90 -38 141.5t-130 51.5h-318v-408h-409z" />
    <glyph glyph-name="S" unicode="S" horiz-adv-x="1466" 
d="M655 946l170 -12q122 -9 201 -19.5t148 -31.5t106.5 -50t65.5 -77.5t37.5 -110.5t9.5 -153q0 -150 -14 -213q-33 -144 -171 -213q-157 -78 -481 -78q-81 0 -126.5 1t-112.5 5.5t-104.5 14t-88 27t-78 43.5t-59 64.5t-46.5 89t-25.5 117.5t-10.5 150h393q0 -49 8.5 -80
t24 -51t49 -29.5t72 -12.5t104.5 -3q64 0 101.5 2.5t71 10t49.5 23.5t25 41t9 64q0 94 -30 113.5t-171 28.5q-9 1 -14 1l-90 6q-227 16 -297 29q-157 29 -224 116q-79 101 -79 320q0 73 9.5 132t25.5 104.5t44.5 80.5t58.5 59.5t76 41.5t88 27t104 15.5t115 7t128 1.5
q70 0 110.5 -0.5t102.5 -4.5t98.5 -12t85.5 -23t77.5 -36.5t60.5 -54t49 -74.5t28 -99t11 -126v-63h-394q0 26 -3 46.5t-6.5 36.5t-13.5 27.5t-17.5 19.5t-25.5 13t-29 8t-37.5 4.5t-42.5 1.5h-51h-1.5h-1.5q-81 0 -130.5 -7.5t-73 -26.5t-30 -39.5t-6.5 -57.5q0 -26 4 -46
t9.5 -33.5t19 -23t23 -15t32 -9t36.5 -5t44 -3.5z" />
    <glyph glyph-name="T" unicode="T" horiz-adv-x="1218" 
d="M805 1180v-1180h-410v1180h-393v356h1217v-356h-414z" />
    <glyph glyph-name="U" unicode="U" horiz-adv-x="1579" 
d="M1042 1536h410v-1024q0 -154 -36 -255t-117.5 -161t-198 -84t-291.5 -24q-103 0 -185.5 6t-148 17t-115.5 31t-87 42.5t-62.5 57.5t-41.5 70t-25 85.5t-12 99t-3 115.5v1024h410v-1016q0 -32 4 -57.5t14.5 -43.5t21 -31t31.5 -21t37 -13t47.5 -7t53 -2.5t61.5 -0.5
q49 0 78.5 2t59 8.5t45 19.5t28.5 34.5t17.5 53.5t4.5 77v997z" />
    <glyph glyph-name="V" unicode="V" horiz-adv-x="1456" 
d="M727 352l338 1184h424l-449 -1536h-639l-434 1536h416l332 -1184h12z" />
    <glyph glyph-name="W" unicode="W" horiz-adv-x="2260" 
d="M1636 352l232 1184h411l-340 -1536h-591l-209 963h-17l-223 -963h-586l-331 1536h415l221 -1184h15l289 1184h426l274 -1184h14z" />
    <glyph glyph-name="X" unicode="X" horiz-adv-x="1499" 
d="M1501 1536l-424 -745l457 -791h-477l-305 592l-303 -592h-482l461 791l-432 745h479l277 -563l278 563h471z" />
    <glyph glyph-name="Y" unicode="Y" horiz-adv-x="1449" 
d="M1483 1536l-561 -997v-539h-410v539l-545 997h469l275 -592h14l283 592h475z" />
    <glyph glyph-name="Z" unicode="Z" horiz-adv-x="1349" 
d="M1303 1536v-344l-736 -823v-13h736v-356h-1256v346l725 821v13h-678v356h1209z" />
    <glyph glyph-name="bracketleft" unicode="[" horiz-adv-x="788" 
d="M117 1548h555v-336h-166v-1183h166v-336h-555v1855z" />
    <glyph glyph-name="backslash" unicode="\" horiz-adv-x="1310" 
d="M967 -231l-904 1767h281l903 -1767h-280z" />
    <glyph glyph-name="bracketright" unicode="]" horiz-adv-x="788" 
d="M672 -307h-555v336h166v1183h-166v336h555v-1855z" />
    <glyph glyph-name="asciicircum" unicode="^" horiz-adv-x="1228" 
d="M369 512h-267l390 1024h245l389 -1024h-266l-244 692h-4z" />
    <glyph glyph-name="underscore" unicode="_" horiz-adv-x="1024" 
d="M1024 -154v-102h-1024v102h1024z" />
    <glyph glyph-name="grave" unicode="`" horiz-adv-x="827" 
d="M256 1548l418 -245l-58 -127l-462 145z" />
    <glyph glyph-name="a" unicode="a" horiz-adv-x="1247" 
d="M590 444q-75 0 -114.5 -22.5t-39.5 -89.5q0 -33 12 -57t26.5 -35t39.5 -17t39 -7t37 -1q114 0 153 24.5t39 106.5q0 26 -9.5 44.5t-24.5 29t-41.5 16t-52 7t-64.5 1.5zM782 0l13 160h-13q-32 -172 -309 -172q-98 0 -165.5 14t-120.5 50t-78 102.5t-25 167.5
q0 186 95 261.5t294 75.5h47t47 -2t52 -6t46 -13t44.5 -21.5t32.5 -32.5t24 -45h16v170q0 30 -1 47t-6 39t-15 33.5t-27 23t-44.5 16t-65.5 4.5q-73 0 -108.5 -24.5t-35.5 -91.5h-352q0 69 15.5 122.5t36.5 88t63.5 58.5t75 36t94 18t97.5 7t107 1h7q73 0 126 -2.5
t105.5 -10t89 -21t70 -35t54.5 -52t37 -73t23 -97t7 -124.5v-672h-353z" />
    <glyph glyph-name="b" unicode="b" horiz-adv-x="1255" 
d="M113 1536h352v-614h16q21 50 52 84t71.5 51t81.5 23.5t94 6.5q221 0 314.5 -105.5t93.5 -352.5v-246q0 -208 -103 -301.5t-305 -93.5q-127 0 -202.5 42t-104.5 156h-16l8 -186h-352v1536zM659 258q111 0 144 54t33 227q0 62 -2.5 99t-12.5 75.5t-29 58.5t-52 32.5
t-81 12.5q-78 0 -116.5 -18.5t-58 -78t-19.5 -181.5q0 -52 1 -82t5 -64.5t12 -52.5t21.5 -36.5t34.5 -27t50.5 -13.5t69.5 -5z" />
    <glyph glyph-name="c" unicode="c" horiz-adv-x="1140" 
d="M745 430h353q0 -151 -28 -239t-91 -132q-57 -43 -150 -57t-251 -14q-106 0 -182.5 11t-135.5 37.5t-95.5 66.5t-60 103.5t-32.5 142t-9 188.5q0 118 11.5 198.5t43.5 151.5t89 112.5t148.5 64.5t222.5 23q75 0 127 -3t110.5 -12.5t97.5 -27t77 -48.5t59.5 -74.5t35 -106
t13.5 -143.5h-353q3 85 -28 114q-34 31 -139 31q-67 0 -99 -19t-47.5 -78t-15.5 -183q0 -78 4.5 -126t13.5 -80.5t30 -47t45.5 -20t68.5 -5.5q41 0 68 3t46 12.5t29.5 20t16 33.5t6.5 43.5t1 59.5z" />
    <glyph glyph-name="d" unicode="d" horiz-adv-x="1253" 
d="M1143 1536v-1536h-352l8 186h-17q-29 -114 -104.5 -156t-202.5 -42q-202 0 -304.5 93.5t-102.5 301.5v246q0 247 93 352.5t314 105.5q53 0 94 -6.5t81.5 -23.5t71.5 -51t52 -84h17v614h352zM420 537q0 -68 2.5 -112t12 -76.5t20 -49.5t34 -26.5t47 -12t64.5 -2.5
q59 0 92 9t57.5 39t33 84t8.5 147q0 37 -0.5 59t-1.5 50t-4 44t-8 35.5t-12 30t-17.5 23t-24 18t-32 11t-41 7.5t-50.5 2q-27 0 -48 -1.5t-38.5 -7.5t-30 -11t-22.5 -17.5t-17 -22.5t-11.5 -30t-7 -35.5t-3.5 -44t-1.5 -50.5t-0.5 -60z" />
    <glyph glyph-name="e" unicode="e" horiz-adv-x="1175" 
d="M414 672h346q0 59 -10 94t-35.5 51.5t-53 20.5t-79.5 4q-96 0 -130.5 -33t-37.5 -137zM766 358h346q0 -223 -145 -307q-114 -63 -379 -63q-160 0 -261.5 28.5t-161 97t-82 167.5t-22.5 256q0 108 9 185t32 141t60.5 104.5t97 68.5t139 39.5t189.5 11.5q125 0 210 -15.5
t148 -51.5t98 -101t51.5 -156.5t16.5 -225.5v-60h-698q0 -144 33.5 -194t140.5 -50q94 0 136 23.5t42 101.5z" />
    <glyph glyph-name="f" unicode="f" horiz-adv-x="804" 
d="M774 1075v-258h-239v-817h-353v817h-141v258h141v105q0 73 10 125t36 93.5t67 67t107 42.5t152 23t206 5v-268q-33 10 -66 10q-40 0 -66 -2t-44.5 -11t-27.5 -17.5t-14 -31.5t-6 -42.5t-1 -59.5v-39h239z" />
    <glyph glyph-name="g" unicode="g" horiz-adv-x="1259" 
d="M604 270q51 0 85.5 11t54.5 29t30.5 54.5t13.5 73.5t3 99q0 93 -8 147t-31 84.5t-56 39.5t-92 9q-44 0 -70.5 -3t-48.5 -15t-32.5 -28.5t-18 -51.5t-9 -74.5t-1.5 -107.5q0 -70 4.5 -113t15 -75.5t32 -48.5t51 -23t77.5 -7zM115 -96h334q0 -84 49 -109q33 -16 108 -16
q116 0 150.5 31.5t34.5 142.5v223h-13q-60 -176 -293 -176q-80 0 -142.5 14.5t-106 38t-74 63.5t-48 81t-27 101t-12.5 112.5t-3 126.5q0 82 3.5 140.5t13.5 120t28.5 103t49 79t74 59.5t104.5 35t140 13q126 0 201 -43t105 -159h12l-12 190h352v-1028q0 -155 -23.5 -252
t-84.5 -160t-160 -87.5t-257 -24.5q-103 0 -169.5 4.5t-127 19t-94.5 39.5t-60.5 68.5t-37.5 103t-14 146.5z" />
    <glyph glyph-name="h" unicode="h" horiz-adv-x="1267" 
d="M469 1536v-662h14q39 123 119 170q69 43 203 43q177 0 261.5 -85t84.5 -259v-743h-352v662q-2 82 -32.5 118.5t-113.5 36.5q-57 0 -95 -16t-56.5 -48.5t-25.5 -69.5t-7 -91v-592h-352v1536h352z" />
    <glyph glyph-name="i" unicode="i" horiz-adv-x="526" 
d="M440 1075v-1075h-352v1075h352zM440 1536v-270h-352v270h352z" />
    <glyph glyph-name="j" unicode="j" horiz-adv-x="495" 
d="M414 1075v-1089q0 -175 -84.5 -247.5t-263.5 -72.5q-63 0 -105 12v242q60 0 80 27.5t20 75.5v1052h353zM414 1536v-270h-353v270h353z" />
    <glyph glyph-name="k" unicode="k" horiz-adv-x="1212" 
d="M465 1536v-864h61l213 403h387l-303 -516l373 -559h-412l-258 436h-61v-436h-352v1536h352z" />
    <glyph glyph-name="l" unicode="l" horiz-adv-x="591" 
d="M473 1536v-1536h-352v1536h352z" />
    <glyph glyph-name="m" unicode="m" horiz-adv-x="1902" 
d="M119 1075h342v-151h14q20 60 69 98t104.5 51.5t121.5 13.5q51 0 91 -4t83.5 -17t73.5 -35.5t51.5 -61.5t26.5 -92h16q13 107 99 158.5t200 51.5q190 0 282.5 -84t92.5 -268v-735h-352v623q-5 98 -17 128q-24 63 -114 66h-11q-50 0 -83.5 -15.5t-50.5 -45.5t-23.5 -64.5
t-6.5 -81.5v-610h-352v651q-1 36 -3.5 55.5t-10 44.5t-21 37t-38 20.5t-60.5 8.5q-102 0 -137 -50t-35 -157v-610h-352v1075z" />
    <glyph glyph-name="n" unicode="n" horiz-adv-x="1267" 
d="M117 1075h352v-201h14q39 123 119 170q69 43 203 43q177 0 261.5 -85t84.5 -259v-743h-352v662q-2 82 -32.5 118.5t-113.5 36.5q-57 0 -95 -16t-56.5 -48.5t-25.5 -69.5t-7 -91v-592h-352v1075z" />
    <glyph glyph-name="o" unicode="o" horiz-adv-x="1214" 
d="M606 1087q117 0 197 -8.5t143 -33.5t99 -62t60 -102t32 -145t8 -199q0 -115 -8.5 -194.5t-32.5 -144t-61 -102.5t-99.5 -63.5t-142.5 -35t-195 -9.5q-113 0 -193 10.5t-141.5 37t-99 65.5t-61 103t-32.5 142.5t-9 190.5q0 115 8 194t31.5 143.5t60 103t98.5 64.5
t142 35.5t196 9.5zM612 817q-44 0 -73 -4t-51.5 -17t-34.5 -31t-19.5 -52.5t-9.5 -73.5t-2 -102q0 -76 4 -119.5t14 -78.5t32 -50.5t54.5 -23t85.5 -7.5q43 0 70.5 4t49 17t32.5 30.5t18 52t9 73t2 102.5q0 76 -3.5 119.5t-13 79t-30.5 51t-52 23t-82 7.5z" />
    <glyph glyph-name="p" unicode="p" horiz-adv-x="1265" 
d="M113 -465v1540h352l-8 -170h16q29 102 105 142t202 40q202 0 305 -93.5t103 -301.5v-246q0 -247 -93.5 -352.5t-314.5 -105.5q-53 0 -94 7t-81.5 24.5t-71.5 53.5t-52 89h-16v-627h-352zM641 817q-111 0 -143.5 -53.5t-32.5 -226.5q0 -51 1.5 -83.5t7.5 -68t17.5 -56
t31 -38.5t48.5 -25.5t70 -7.5q59 0 92.5 9t58.5 39t34.5 84.5t9.5 146.5q0 45 -0.5 72.5t-3.5 59t-8.5 49.5t-15.5 37t-24 29t-34.5 18.5t-47 11.5t-61.5 3z" />
    <glyph glyph-name="q" unicode="q" horiz-adv-x="1267" 
d="M1151 -465h-352v627h-17q-21 -53 -52 -89t-71.5 -53.5t-81.5 -24.5t-94 -7q-221 0 -314 105.5t-93 352.5v246q0 208 102.5 301.5t304.5 93.5q126 0 202.5 -40t105.5 -142h16l-8 170h352v-1540zM604 817q-111 0 -143.5 -53.5t-32.5 -226.5q0 -51 1.5 -83.5t7.5 -68
t17.5 -56t31 -38.5t48.5 -25.5t70 -7.5q59 0 92.5 9t58.5 39t34.5 84.5t9.5 146.5q0 45 -0.5 72.5t-3.5 59t-8.5 49.5t-15.5 37t-24 29t-34.5 18.5t-47 11.5t-61.5 3z" />
    <glyph glyph-name="r" unicode="r" horiz-adv-x="1026" 
d="M686 606v51q0 86 -12 114q-21 45 -80 46q-131 0 -131 -172v-645h-352v1075h342v-157h14q37 91 104 131q63 38 166 38q71 0 122 -23.5t78.5 -58.5t43 -91.5t19.5 -105.5t4 -118v-84h-318z" />
    <glyph glyph-name="s" unicode="s" horiz-adv-x="1183" 
d="M1067 770h-332q-8 59 -55 80q-27 10 -88 10q-55 0 -90 -3.5t-54.5 -8t-28 -17.5t-10 -23t-1.5 -34q0 -20 2 -30.5t11 -24t28 -20.5t54.5 -12.5t88.5 -6.5q78 -2 128 -4.5t107.5 -8.5t92 -16t71.5 -26.5t57.5 -40t38 -57t24.5 -77.5t7 -100q0 -92 -28.5 -158.5t-74 -105
t-117 -61.5t-142 -30t-164.5 -7q-196 0 -273 14q-161 28 -217 143q-36 74 -36 191h352q0 -35 11 -59t24.5 -36t41 -18t45.5 -7t52 -1q121 0 152.5 15.5t31.5 78.5q0 26 -4.5 44.5t-17 30.5t-24 18.5t-37 9.5t-44.5 3.5t-57 0.5q-133 0 -226 12.5t-152 36t-91.5 64
t-44.5 88.5t-12 118q0 73 15 128.5t36 92.5t63.5 62.5t78 39t100 20t109 8t124.5 1.5q43 0 68.5 -0.5t70 -3t72.5 -7t67.5 -13.5t64 -22t52.5 -33.5t43.5 -46.5t26 -61.5t10.5 -78.5v-51z" />
    <glyph glyph-name="t" unicode="t" horiz-adv-x="993" 
d="M920 1075v-258h-408v-481q2 -50 17.5 -70t62.5 -20q40 0 61 19.5t24.5 39.5t5.5 64v4.5t0.5 3.5t0.5 4v4l2 57h281v-96q0 -110 -20.5 -179.5t-70.5 -109.5t-121 -54.5t-184 -14.5q-63 0 -109 3.5t-96.5 14t-85 31t-63.5 52.5t-43 82t-14 116v530h-131v258h131v228h352
v-228h408z" />
    <glyph glyph-name="u" unicode="u" horiz-adv-x="1259" 
d="M1137 0h-342l12 207h-16q-65 -219 -322 -219q-365 0 -365 352v735h353v-641q0 -43 3.5 -70t16 -54t39.5 -39.5t70 -12.5q78 0 138 41t60 115v661h353v-1075z" />
    <glyph glyph-name="v" unicode="v" horiz-adv-x="1085" 
d="M1100 1075l-264 -1075h-553l-297 1075h368l195 -839h10l176 839h365z" />
    <glyph glyph-name="w" unicode="w" horiz-adv-x="1716" 
d="M1714 1075l-188 -1075h-506l-152 766h-12l-147 -766h-512l-195 1075h338l119 -839h16l178 839h412l178 -839h14l125 839h332z" />
    <glyph glyph-name="x" unicode="x" horiz-adv-x="1116" 
d="M1100 1075l-283 -506l311 -569h-413l-154 354l-149 -354h-424l319 569l-276 506h407l123 -297l129 297h410z" />
    <glyph glyph-name="y" unicode="y" horiz-adv-x="1091" 
d="M1106 1075l-270 -1169q-23 -109 -55 -179.5t-86.5 -117.5t-131.5 -66.5t-190 -19.5q-18 0 -38 1t-44.5 2.5t-38.5 2.5v244q40 -4 61 -4q53 0 89.5 18t56 52t28.5 72t11 89h-193l-319 1075h368l213 -874h4l174 874h361z" />
    <glyph glyph-name="z" unicode="z" horiz-adv-x="1015" 
d="M82 1075h891v-278l-520 -551h520v-246h-930v291l508 538h-469v246z" />
    <glyph glyph-name="braceleft" unicode="{" horiz-adv-x="788" 
d="M49 496v270q168 0 168 90v420q0 66 25.5 121t63 86t75.5 48t68 17h290v-270h-75q-34 0 -54.5 -8t-28.5 -26t-10 -31.5t-2 -38.5v-351q-1 -44 -16 -78.5t-36 -54t-49.5 -33.5t-50 -19t-44.5 -7v-4q28 -3 45.5 -6t48.5 -16t50 -33t35 -60t17 -94v-350q0 -20 1 -31
t5.5 -27.5t14 -25t28.5 -15t46 -6.5h75v-270h-290q-30 0 -68 17t-75.5 48t-63 86t-25.5 121v420q0 111 -168 111z" />
    <glyph glyph-name="bar" unicode="|" horiz-adv-x="1228" 
d="M733 1536v-2048h-235v2048h235z" />
    <glyph glyph-name="braceright" unicode="}" horiz-adv-x="788" 
d="M739 766v-270q-168 0 -168 -111v-420q0 -66 -25.5 -121t-63 -86t-75 -48t-67.5 -17h-291v270h76q27 0 45.5 6.5t28 15t14.5 25t5.5 27t0.5 31.5v350q1 54 17 94t35 60t50.5 33t49 16t45.5 6v4q-23 2 -45 7t-50 19t-49 33.5t-36.5 54t-16.5 78.5v351q0 20 -0.5 31t-5.5 27
t-14.5 24.5t-28 15t-45.5 6.5h-76v270h291q30 0 67.5 -17t75 -48t63 -86t25.5 -121v-420q0 -90 168 -90z" />
    <glyph glyph-name="asciitilde" unicode="~" horiz-adv-x="1228" 
d="M928 735h198q0 -58 -7 -112.5t-25.5 -112t-47 -99.5t-75.5 -69t-107 -27t-151 60l-252 164q-62 39 -103 39q-15 0 -25.5 -11t-16 -35.5t-8 -41t-4.5 -50t-3 -41.5h-199q0 59 6.5 113.5t25.5 113t48 100.5t78 69.5t113 27.5q69 0 137 -47l227 -160q69 -53 121 -53
q36 0 55 57t15 115z" />
    <glyph glyph-name="uni00A0" unicode="&#xa0;" horiz-adv-x="737" 
 />
    <glyph glyph-name="exclamdown" unicode="&#xa1;" horiz-adv-x="714" 
d="M524 1075v-356h-331v356h331zM168 -465l14 932h353l14 -932h-381z" />
    <glyph glyph-name="cent" unicode="&#xa2;" 
d="M809 -23h-156v185q-80 0 -143 12t-109 34.5t-78.5 59.5t-53.5 80.5t-33 106t-16.5 127t-4.5 151.5q0 95 6 161.5t22 132t46.5 107.5t78.5 75t119 48t166 15v153h156v-153q231 0 327 -94t93 -324h-328q-5 75 -40.5 111t-129.5 36q-43 0 -69.5 -7t-45 -22t-27.5 -48
t-12.5 -76t-3.5 -115q0 -58 0.5 -92t3.5 -70t6.5 -54t12.5 -36.5t19 -25.5t28 -14t38 -8t50 -1q100 0 136 39.5t34 142.5h328q0 -87 -5.5 -146t-21 -114t-44 -87.5t-75.5 -58t-114 -36t-160 -10.5v-185z" />
    <glyph glyph-name="sterling" unicode="&#xa3;" 
d="M1438 1026h-402q0 113 -35 145q-32 35 -131 35q-109 0 -145.5 -36.5t-36.5 -145.5v-162h389v-297h-389q0 -107 -16.5 -151.5t-79.5 -75.5v-10h846v-328h-1295v328q25 0 45 4t34 14.5t24 20t16 28.5t10 32t5 39.5t1.5 41t0.5 44.5v13h-183v297h183v221q1 103 17.5 175.5
t56 130t107 91t168.5 51t244 17.5q142 0 237.5 -14.5t161.5 -44.5t101.5 -85t50.5 -126.5t15 -179.5v-72z" />
    <glyph glyph-name="currency" unicode="&#xa4;" 
d="M1102 516l166 -166l-148 -139l-166 166l-31.5 -18t-38 -20t-38.5 -15t-53 -12.5t-62 -2.5q-131 7 -213 72l-172 -172l-145 143l168 170q-57 68 -72.5 160t5.5 167.5t63 115.5l-170 165l149 148l168 -168q41 31 102.5 50t128.5 16q145 -6 220 -62l170 168l147 -145
l-172 -170q1 -2 23.5 -42t34 -76t14.5 -83q0 -30 -4.5 -59.5t-9.5 -49.5t-16 -46t-16.5 -36.5t-17.5 -33t-14 -25.5zM541 733q4 -79 61 -133.5t133 -54.5q51 0 91 19.5t62 49t33 61t9 58.5q6 78 -50.5 142.5t-144.5 64.5q-86 0 -143 -64.5t-51 -142.5z" />
    <glyph glyph-name="yen" unicode="&#xa5;" 
d="M1243 1143h193v-271h-340l-86 -159h426v-271h-502v-442h-410v442h-485v271h412l-84 159h-328v271h186l-207 393h445l260 -592h14l269 592h450z" />
    <glyph glyph-name="brokenbar" unicode="&#xa6;" horiz-adv-x="1228" 
d="M733 358v-716h-235v716h235zM733 1382v-716h-235v716h235z" />
    <glyph glyph-name="section" unicode="&#xa7;" 
d="M553 440l321 -59q69 -12 91 -12q104 0 104 155q0 39 -5.5 60t-26 40.5t-58.5 31t-107 24.5l-247 47q-79 18 -115 18q-109 0 -109 -149q0 -21 2 -38t4 -30.5t9 -24t10.5 -18t15 -14t16 -9.5t20.5 -7l22 -5.5t26 -5t27 -4.5zM1352 1145v-86h-379q-2 62 -10 93.5t-31 47.5
q-23 18 -68.5 23.5t-138.5 5.5q-96 0 -145 -12t-62.5 -31.5t-13.5 -57.5q0 -22 2 -38t11 -27.5t14.5 -18t25 -12.5t29 -8t39.5 -7.5t45 -8.5l385 -70q56 -10 91 -17.5t75 -19.5t63.5 -25t48.5 -33t38.5 -44.5t25 -59t16 -77t4.5 -97.5q0 -46 -0.5 -66t-3.5 -58.5
t-10.5 -59.5t-21 -49t-35.5 -47.5t-52 -34.5q42 -14 69 -41t39 -68.5t15.5 -79t3.5 -94.5q0 -61 -4.5 -106.5t-17.5 -90.5t-35.5 -77t-58.5 -61.5t-88 -48.5t-122.5 -33t-162 -20.5t-207.5 -6.5q-93 0 -159 3t-132.5 12t-110 25.5t-84.5 43.5t-65.5 64.5t-43.5 90.5
t-26.5 121t-7.5 156h379q2 -67 12.5 -104.5t41 -59t73.5 -27.5t123 -6q125 0 186.5 12.5t81 37t19.5 73.5q0 39 -8 62t-36.5 38t-47 20t-75.5 16q-3 1 -5 1.5t-4.5 1t-4.5 0.5l-487 84q-77 14 -125 30.5t-83 40t-52 62.5t-24 88.5t-7 127.5q0 46 1.5 75.5t9.5 71.5t22.5 69
t43 52t69.5 37q-37 26 -60 60t-32 80t-11 77.5t-2 87.5q0 55 5 96t21 85t44 75t75.5 60t113.5 46.5t159.5 28t212.5 10.5q68 0 115 -1t106 -5.5t99.5 -12.5t86 -23t76 -35.5t60 -51t46.5 -69.5t27.5 -90.5t10.5 -114.5z" />
    <glyph glyph-name="dieresis" unicode="&#xa8;" horiz-adv-x="960" 
d="M377 1458v-211h-223v211h223zM807 1458v-211h-223v211h223z" />
    <glyph glyph-name="copyright" unicode="&#xa9;" horiz-adv-x="1638" 
d="M819 -12q-159 0 -303.5 61.5t-249 166t-166 249t-61.5 303.5t61.5 303.5t166 249t249 166t303.5 61.5q158 0 302.5 -61.5t249 -166t166.5 -249t62 -303.5t-62 -303.5t-166.5 -249t-249 -166t-302.5 -61.5zM819 166q122 0 233 47.5t192 128t129 192t48 234.5t-48 234.5
t-129 192t-192 128t-233 47.5q-165 0 -303.5 -80.5t-218.5 -219t-80 -302.5t80 -302.5t218.5 -219t303.5 -80.5zM1051 621h182q-17 -146 -124.5 -232t-256.5 -86q-202 0 -326.5 134.5t-124.5 336.5q0 208 121 340.5t326 132.5q151 0 256 -82.5t129 -226.5h-182
q-13 74 -70 118t-135 44q-125 0 -195.5 -95t-70.5 -227q0 -79 31 -152.5t95 -124t146 -50.5q76 0 135.5 48.5t63.5 121.5z" />
    <glyph glyph-name="ordfeminine" unicode="&#xaa;" horiz-adv-x="983" 
d="M578 1221v92q0 71 -16 87.5t-77 16.5q-45 0 -65.5 -14.5t-20.5 -54.5h-213q0 33 5.5 59.5t14 46.5t24.5 35t29.5 25t37.5 16.5t40.5 10t46 5.5t46 2h49.5h2q62 0 101.5 -3t83.5 -15t68.5 -34t40.5 -62.5t16 -98.5v-450h-213v106h-5q-8 -63 -67 -90q-47 -24 -117 -24
q-113 0 -171 47.5t-58 160.5q0 115 54.5 160t174.5 45q89 0 121 -11q46 -16 61 -58h7zM463 1161q-44 0 -67 -14.5t-23 -59.5q0 -19 2.5 -28.5t13 -19.5t34 -13.5t64.5 -3.5q59 0 75 16.5t16 57.5q0 16 -4.5 28t-16 19t-19 11t-26.5 5.5t-24 1.5h-25z" />
    <glyph glyph-name="guillemotleft" unicode="&#xab;" horiz-adv-x="1138" 
d="M356 1055l232 -125l-197 -373l197 -346l-219 -135l-275 481zM813 1055l231 -125l-196 -373l196 -346l-219 -135l-274 481z" />
    <glyph glyph-name="logicalnot" unicode="&#xac;" horiz-adv-x="1228" 
d="M891 322v362h-789v236h1024v-598h-235z" />
    <glyph glyph-name="uni00AD" unicode="&#xad;" horiz-adv-x="557" 
d="M0 733h557v-336h-557v336z" />
    <glyph glyph-name="registered" unicode="&#xae;" horiz-adv-x="1638" 
d="M819 -12q-159 0 -303.5 61.5t-249 166t-166 249t-61.5 303.5t61.5 303.5t166 249t249 166t303.5 61.5q158 0 302.5 -61.5t249 -166t166.5 -249t62 -303.5t-62 -303.5t-166.5 -249t-249 -166t-302.5 -61.5zM819 166q122 0 233 47.5t192 128t129 192t48 234.5t-48 234.5
t-129 192t-192 128t-233 47.5q-165 0 -303.5 -80.5t-218.5 -219t-80 -302.5t80 -302.5t218.5 -219t303.5 -80.5zM1004 696l204 -356h-200l-189 346h-157v-346h-179v844h422q64 0 109.5 -5.5t89.5 -21.5t70.5 -44t42.5 -75t16 -112q0 -114 -56.5 -168t-172.5 -62zM662 821
h247q76 -2 111 25t35 102q0 24 -7.5 42t-24 28.5t-32 17.5t-41 9.5t-41.5 3t-43 0.5h-204v-228z" />
    <glyph glyph-name="macron" unicode="&#xaf;" horiz-adv-x="950" 
d="M154 1446h643v-193h-643v193z" />
    <glyph glyph-name="degree" unicode="&#xb0;" horiz-adv-x="819" 
d="M717 1241q0 -127 -90.5 -217t-216.5 -90q-128 0 -218 90t-90 217q-1 126 89.5 216.5t218.5 90.5q126 0 216.5 -90.5t90.5 -216.5zM575 1241q0 68 -49 117t-118 49q-68 0 -116.5 -49.5t-47.5 -116.5q0 -69 48.5 -117.5t117.5 -48.5q68 0 116.5 48.5t48.5 117.5z" />
    <glyph glyph-name="plusminus" unicode="&#xb1;" horiz-adv-x="1228" 
d="M496 1075h235v-241h395v-236h-395v-252h-235v252h-394v236h394v241zM102 0v236h1024v-236h-1024z" />
    <glyph glyph-name="twosuperior" unicode="&#xb2;" horiz-adv-x="884" 
d="M829 811v-193h-788v193q0 56 4.5 92.5t20 68.5t37 51t65 38t93.5 32t132 31q122 27 144 38q31 15 35 53q2 14 1 38q0 67 -28 86t-111 17q-92 0 -115.5 -17.5t-23.5 -89.5v-45h-254v45q0 74 17 127t47.5 86.5t81 52.5t108.5 26t139 7q65 0 111.5 -3.5t94.5 -14t79.5 -30.5
t57.5 -51.5t38 -79.5t12 -112q0 -78 -12 -126t-48 -81.5t-82 -51.5t-132 -40q-41 -10 -89 -19t-69.5 -13.5t-46 -13t-33 -20t-14.5 -31t-6 -50.5h534z" />
    <glyph glyph-name="threesuperior" unicode="&#xb3;" horiz-adv-x="884" 
d="M399 1001v179h64q66 0 94 6.5t36.5 20.5t8.5 48q0 33 -3 48t-16 29.5t-41.5 19t-78.5 4.5q-35 0 -52.5 -1t-37.5 -6.5t-28.5 -17t-14.5 -31.5t-6 -51v-18h-254v33q0 55 9.5 98t25 73t43 51t56 33t71.5 18.5t81.5 8.5t94.5 2q57 0 96 -2t91 -9.5t86.5 -24t67 -43
t48.5 -69.5t16 -100q0 -188 -154 -206v-11q166 -8 166 -198q0 -70 -20 -120t-54 -80t-89.5 -47t-113.5 -22.5t-140 -5.5q-51 0 -87.5 2t-80 8.5t-74 18.5t-61 33t-48.5 50.5t-29.5 72.5t-11.5 98v49h254v-31q0 -70 34.5 -89t115.5 -19q90 0 120.5 18.5t30.5 93.5
q0 35 -8.5 51t-41 25.5t-101.5 9.5h-64z" />
    <glyph glyph-name="acute" unicode="&#xb4;" horiz-adv-x="827" 
d="M571 1548l103 -227l-463 -145l-57 127z" />
    <glyph glyph-name="mu" unicode="&#xb5;" horiz-adv-x="1259" 
d="M1143 0h-342l12 207h-16q-35 -118 -119.5 -168.5t-214.5 -50.5v-453h-352v1540h352v-641q0 -43 3.5 -70t16 -54t39.5 -39.5t70 -12.5q78 0 138.5 41t60.5 115v661h352v-1075z" />
    <glyph glyph-name="paragraph" unicode="&#xb6;" 
d="M1460 -465h-246v1704h-157v-1704h-246v864h-266q-116 0 -197.5 10.5t-144 38t-100.5 67.5t-61.5 107t-32.5 148.5t-9 198.5q0 306 119.5 436.5t404.5 130.5h936v-2001zM811 696v543h-205q-42 0 -73 -2.5t-55 -10.5t-40 -16.5t-27.5 -27.5t-17.5 -35.5t-9.5 -48t-4 -57.5
t-0.5 -72q0 -64 1.5 -98.5t9.5 -70.5t21.5 -52t40 -30t63.5 -18t93 -4h203z" />
    <glyph glyph-name="periodcentered" unicode="&#xb7;" horiz-adv-x="737" 
d="M535 743v-356h-332v356h332z" />
    <glyph glyph-name="cedilla" unicode="&#xb8;" horiz-adv-x="659" 
d="M416 -84l90 -168l-295 -106l-57 106z" />
    <glyph glyph-name="onesuperior" unicode="&#xb9;" horiz-adv-x="884" 
d="M698 1548v-930h-266v713l-258 -217l-151 156l364 278h311z" />
    <glyph glyph-name="ordmasculine" unicode="&#xba;" horiz-adv-x="983" 
d="M492 1548q72 0 122.5 -6.5t87 -24t58 -41t33.5 -64.5t16 -86t4 -114t-4 -114t-16 -86t-33.5 -64t-58 -40.5t-87 -24t-122.5 -6.5t-122.5 6.5t-87.5 24t-58 40.5t-33.5 64t-16.5 86t-4 114t4 114t16.5 86t33.5 64.5t58 41t87.5 24t122.5 6.5zM492 1391q-66 0 -87.5 -33
t-21.5 -146q0 -78 10 -115.5t31.5 -50t67.5 -12.5t67.5 12.5t31 50t9.5 115.5q0 113 -21 146t-87 33z" />
    <glyph glyph-name="guillemotright" unicode="&#xbb;" horiz-adv-x="1138" 
d="M768 76l-231 125l196 372l-196 347l219 135l274 -482zM311 76l-231 125l196 372l-196 347l219 135l274 -482z" />
    <glyph glyph-name="onequarter" unicode="&#xbc;" horiz-adv-x="2211" 
d="M2001 922v-562h84v-178h-84v-182h-254v182h-522v262l383 478h393zM1747 360v373h-10l-303 -373h313zM1620 1536l-907 -1536h-246l907 1536h246zM598 1536v-918h-266v701l-258 -217l-152 155l365 279h311z" />
    <glyph glyph-name="onehalf" unicode="&#xbd;" horiz-adv-x="2211" 
d="M1624 1536l-907 -1536h-246l907 1536h246zM602 1536v-918h-266v701l-258 -217l-154 155l367 279h311zM2124 193v-193h-789v193q0 56 4.5 92.5t20.5 68.5t37.5 51t65 38t93.5 32t132 31q9 2 26 6q106 23 127 37q26 17 27 62v24q0 67 -28 85.5t-111 16.5q-93 0 -116.5 -17
t-23.5 -89v-45h-254v45q0 74 17 127t47.5 86.5t81.5 52.5t109 26t139 7q65 0 111.5 -3.5t94.5 -14t79.5 -30.5t57.5 -51.5t38 -79.5t12 -112q0 -78 -12.5 -126t-48 -81.5t-82 -51.5t-132.5 -40q-41 -10 -89 -19t-69.5 -13.5t-46 -13t-33 -20t-14.5 -31t-6 -50.5h535z" />
    <glyph glyph-name="threequarters" unicode="&#xbe;" horiz-adv-x="2211" 
d="M2077 922v-562h84v-178h-84v-182h-254v182h-523v262l383 478h394zM1823 360v373h-11l-303 -373h314zM1737 1536l-908 -1536h-245l907 1536h246zM393 1001v179h64q66 0 94 6.5t36.5 20.5t8.5 48q0 33 -3 48t-16 29.5t-41.5 19t-78.5 4.5q-35 0 -52.5 -1t-37.5 -6.5
t-29 -17t-15 -31.5t-6 -51v-18h-254v33q0 55 9.5 98t25 73t43 51t56 33t71.5 18.5t81.5 8.5t94.5 2q48 0 82 -1.5t79.5 -6.5t77 -15t65.5 -28.5t54.5 -44t34 -64.5t13.5 -88q0 -188 -154 -206v-11q166 -8 166 -198q0 -70 -20.5 -120t-54 -80t-89 -47t-114 -22.5t-140.5 -5.5
q-73 0 -121.5 4t-104 20.5t-88.5 45.5t-55 83t-22 130v49h254v-31q0 -70 34.5 -89t115.5 -19q90 0 120.5 18.5t30.5 93.5q0 35 -8.5 51t-41 25.5t-101.5 9.5h-64z" />
    <glyph glyph-name="questiondown" unicode="&#xbf;" horiz-adv-x="1239" 
d="M502 528h352v-61q0 -62 -4 -100t-15 -74t-35.5 -61.5t-60.5 -50.5t-94 -54l-74 -35q-35 -17 -51.5 -27t-37 -30t-28.5 -48t-8 -69q0 -77 37 -101t127 -24q36 0 60 2t49.5 9t40.5 20t25 36.5t10 57.5v64h352v-64q-1 -74 -15 -132t-36.5 -99.5t-59.5 -71t-78 -47.5
t-99.5 -28t-115.5 -13.5t-133 -3.5q-73 0 -127.5 3.5t-111 14t-96.5 28.5t-76 47.5t-58 71t-34.5 99t-12.5 131.5q0 67 6.5 117t23 89.5t37 68t57.5 55t75 46t98 46.5q64 28 87.5 54.5t23.5 72.5v61zM844 1075v-356h-332v356h332z" />
    <glyph glyph-name="Agrave" unicode="&#xc0;" horiz-adv-x="1501" 
d="M1028 264h-551l-76 -264h-426l461 1536h623l467 -1536h-418zM946 563l-190 666h-4l-187 -666h381zM594 2009l418 -246l-58 -127l-462 146z" />
    <glyph glyph-name="Aacute" unicode="&#xc1;" horiz-adv-x="1501" 
d="M1028 264h-551l-76 -264h-426l461 1536h623l467 -1536h-418zM946 563l-190 666h-4l-187 -666h381zM909 2009l103 -227l-463 -146l-57 127z" />
    <glyph glyph-name="Acircumflex" unicode="&#xc2;" horiz-adv-x="1501" 
d="M1028 264h-551l-76 -264h-426l461 1536h623l467 -1536h-418zM946 563l-190 666h-4l-187 -666h381zM748 2009l374 -223l-51 -117l-323 127l-312 -127l-55 117z" />
    <glyph glyph-name="Atilde" unicode="&#xc3;" horiz-adv-x="1501" 
d="M1028 264h-551l-76 -264h-426l461 1536h623l467 -1536h-418zM946 563l-190 666h-4l-187 -666h381zM1028 1962l168 -84q-102 -203 -252 -203q-93 0 -203 70q-7 4 -30.5 19.5t-32.5 21t-26 14.5t-30 12t-26 3q-72 0 -123 -93l-168 90q112 197 266 197q81 0 191 -70
q38 -25 57.5 -36.5t49 -23t53.5 -11.5q62 0 106 94z" />
    <glyph glyph-name="Adieresis" unicode="&#xc4;" horiz-adv-x="1501" 
d="M1028 264h-551l-76 -264h-426l461 1536h623l467 -1536h-418zM946 563l-190 666h-4l-187 -666h381zM647 1919v-211h-223v211h223zM1077 1919v-211h-223v211h223z" />
    <glyph glyph-name="Aring" unicode="&#xc5;" horiz-adv-x="1501" 
d="M1028 264h-551l-76 -264h-426l461 1536h623l467 -1536h-418zM946 563l-190 666h-4l-187 -666h381zM551 1821q0 83 58.5 140.5t142.5 57.5q82 0 140 -57.5t58 -140.5t-58 -142t-140 -59q-83 0 -142 59t-59 142zM657 1821q0 -38 27.5 -66.5t65.5 -28.5q37 0 65.5 28.5
t28.5 66.5t-28.5 65t-65.5 27q-38 0 -65.5 -27t-27.5 -65z" />
    <glyph glyph-name="AE" unicode="&#xc6;" horiz-adv-x="2199" 
d="M1022 557v643h-176l-244 -643h420zM1022 0v272h-528l-103 -272h-444l602 1536h1565v-336h-703v-287h647v-284h-647v-293h703v-336h-1092z" />
    <glyph glyph-name="Ccedilla" unicode="&#xc7;" horiz-adv-x="1490" 
d="M831 -84l91 -168l-295 -106l-58 106zM1001 582h422v-45q0 -64 -1 -100t-8.5 -91t-21.5 -91.5t-42 -78.5t-68 -76q-34 -28 -70 -48t-80.5 -32t-76 -19t-88 -9.5t-82 -3t-90.5 -0.5q-108 0 -173.5 2.5t-151.5 14.5t-136.5 35t-107 65t-86 103.5t-49 152t-19.5 208.5v398
q0 108 17 192.5t47 145t79.5 104.5t105 70.5t134.5 42t157.5 21t182.5 5.5q77 0 132.5 -2t115 -8.5t101 -18t83.5 -30t69 -45.5t52.5 -64.5t39.5 -86t23 -110.5t10 -139v-59h-422v59q-4 40 -18.5 68t-34.5 43.5t-53.5 24t-64 10.5t-78.5 2q-59 0 -100 -6t-70 -21.5
t-45.5 -35.5t-26 -56t-12 -74t-2.5 -98v-239q0 -40 0.5 -65t2.5 -55.5t6 -49.5t10.5 -41t16.5 -34.5t24 -26.5t32.5 -21t42.5 -13.5t54 -9t67 -2.5q58 0 92 3t68.5 13.5t52 31t28 56t10.5 89.5v45z" />
    <glyph glyph-name="Egrave" unicode="&#xc8;" horiz-adv-x="1388" 
d="M541 1200v-280h655v-285h-655v-299h712v-336h-1122v1536h1108v-336h-698zM537 2009l417 -246l-57 -127l-463 146z" />
    <glyph glyph-name="Eacute" unicode="&#xc9;" horiz-adv-x="1388" 
d="M541 1200v-280h655v-285h-655v-299h712v-336h-1122v1536h1108v-336h-698zM852 2009l102 -227l-462 -146l-58 127z" />
    <glyph glyph-name="Ecircumflex" unicode="&#xca;" horiz-adv-x="1388" 
d="M541 1200v-280h655v-285h-655v-299h712v-336h-1122v1536h1108v-336h-698zM690 2009l375 -223l-51 -117l-324 127l-311 -127l-55 117z" />
    <glyph glyph-name="Edieresis" unicode="&#xcb;" horiz-adv-x="1388" 
d="M541 1200v-280h655v-285h-655v-299h712v-336h-1122v1536h1108v-336h-698zM592 1919v-211h-223v211h223zM1022 1919v-211h-223v211h223z" />
    <glyph glyph-name="Igrave" unicode="&#xcc;" horiz-adv-x="663" 
d="M537 1536v-1536h-410v1536h410zM174 2009l418 -246l-57 -127l-463 146z" />
    <glyph glyph-name="Iacute" unicode="&#xcd;" horiz-adv-x="663" 
d="M537 1536v-1536h-410v1536h410zM489 2009l103 -227l-463 -146l-57 127z" />
    <glyph glyph-name="Icircumflex" unicode="&#xce;" horiz-adv-x="663" 
d="M537 1536v-1536h-410v1536h410zM328 2009l374 -223l-51 -117l-323 127l-312 -127l-55 117z" />
    <glyph glyph-name="Idieresis" unicode="&#xcf;" horiz-adv-x="663" 
d="M537 1536v-1536h-410v1536h410zM229 1919v-211h-223v211h223zM659 1919v-211h-223v211h223z" />
    <glyph glyph-name="Eth" unicode="&#xd0;" horiz-adv-x="1587" 
d="M106 928v608h779q326 0 472 -136.5t146 -459.5v-322q0 -162 -28 -274.5t-93 -191.5t-173.5 -115.5t-268.5 -36.5h-834v643h-172v285h172zM516 1180v-252h281v-285h-281v-287h358q110 0 158.5 67t48.5 195v322q0 98 -23 151t-65.5 71t-118.5 18h-358z" />
    <glyph glyph-name="Ntilde" unicode="&#xd1;" horiz-adv-x="1783" 
d="M510 1180l25 -1180h-410v1536h692l440 -1180h17l-25 1180h410v-1536h-698l-435 1180h-16zM1169 1962l168 -84q-101 -203 -252 -203q-92 0 -202 70q-8 5 -26.5 17t-26.5 17t-23 13.5t-24.5 12.5t-22 7t-23.5 3q-72 0 -123 -93l-168 90q112 197 267 197q80 0 190 -70
q38 -25 57.5 -36.5t49 -23t53.5 -11.5q62 0 106 94z" />
    <glyph glyph-name="Ograve" unicode="&#xd2;" horiz-adv-x="1556" 
d="M778 -12q-134 0 -234.5 13t-194 49.5t-152.5 98t-94 162.5t-35 240v434q0 139 35 240t94 162.5t152.5 98t194 49.5t234.5 13q94 0 170.5 -6.5t152 -22.5t132.5 -43.5t106.5 -70.5t81.5 -101.5t50 -138.5t18 -180v-434q0 -100 -18 -180t-50 -138.5t-81.5 -101.5
t-106.5 -70.5t-132.5 -43.5t-152 -22.5t-170.5 -6.5zM778 344q59 0 96 2.5t73 12t56 26t36 44.5t22 68.5t6 98.5v346q0 57 -6 97.5t-22 68.5t-36 44.5t-56 25.5t-73 11.5t-96 2.5t-95.5 -2.5t-72 -12t-55 -25.5t-35.5 -44.5t-22.5 -68.5t-8.5 -97v-346q2 -58 8.5 -98.5
t22.5 -69t35.5 -44.5t55 -25.5t72 -12t95.5 -2.5zM621 2009l417 -246l-57 -127l-463 146z" />
    <glyph glyph-name="Oacute" unicode="&#xd3;" horiz-adv-x="1556" 
d="M778 -12q-134 0 -234.5 13t-194 49.5t-152.5 98t-94 162.5t-35 240v434q0 139 35 240t94 162.5t152.5 98t194 49.5t234.5 13q94 0 170.5 -6.5t152 -22.5t132.5 -43.5t106.5 -70.5t81.5 -101.5t50 -138.5t18 -180v-434q0 -100 -18 -180t-50 -138.5t-81.5 -101.5
t-106.5 -70.5t-132.5 -43.5t-152 -22.5t-170.5 -6.5zM778 344q59 0 96 2.5t73 12t56 26t36 44.5t22 68.5t6 98.5v346q0 57 -6 97.5t-22 68.5t-36 44.5t-56 25.5t-73 11.5t-96 2.5t-95.5 -2.5t-72 -12t-55 -25.5t-35.5 -44.5t-22.5 -68.5t-8.5 -97v-346q2 -58 8.5 -98.5
t22.5 -69t35.5 -44.5t55 -25.5t72 -12t95.5 -2.5zM936 2009l102 -227l-463 -146l-57 127z" />
    <glyph glyph-name="Ocircumflex" unicode="&#xd4;" horiz-adv-x="1556" 
d="M778 -12q-134 0 -234.5 13t-194 49.5t-152.5 98t-94 162.5t-35 240v434q0 139 35 240t94 162.5t152.5 98t194 49.5t234.5 13q94 0 170.5 -6.5t152 -22.5t132.5 -43.5t106.5 -70.5t81.5 -101.5t50 -138.5t18 -180v-434q0 -100 -18 -180t-50 -138.5t-81.5 -101.5
t-106.5 -70.5t-132.5 -43.5t-152 -22.5t-170.5 -6.5zM778 344q59 0 96 2.5t73 12t56 26t36 44.5t22 68.5t6 98.5v346q0 57 -6 97.5t-22 68.5t-36 44.5t-56 25.5t-73 11.5t-96 2.5t-95.5 -2.5t-72 -12t-55 -25.5t-35.5 -44.5t-22.5 -68.5t-8.5 -97v-346q2 -58 8.5 -98.5
t22.5 -69t35.5 -44.5t55 -25.5t72 -12t95.5 -2.5zM774 2009l375 -223l-51 -117l-324 127l-311 -127l-55 117z" />
    <glyph glyph-name="Otilde" unicode="&#xd5;" horiz-adv-x="1556" 
d="M778 -12q-134 0 -234.5 13t-194 49.5t-152.5 98t-94 162.5t-35 240v434q0 139 35 240t94 162.5t152.5 98t194 49.5t234.5 13q94 0 170.5 -6.5t152 -22.5t132.5 -43.5t106.5 -70.5t81.5 -101.5t50 -138.5t18 -180v-434q0 -100 -18 -180t-50 -138.5t-81.5 -101.5
t-106.5 -70.5t-132.5 -43.5t-152 -22.5t-170.5 -6.5zM778 344q59 0 96 2.5t73 12t56 26t36 44.5t22 68.5t6 98.5v346q0 57 -6 97.5t-22 68.5t-36 44.5t-56 25.5t-73 11.5t-96 2.5t-95.5 -2.5t-72 -12t-55 -25.5t-35.5 -44.5t-22.5 -68.5t-8.5 -97v-346q2 -58 8.5 -98.5
t22.5 -69t35.5 -44.5t55 -25.5t72 -12t95.5 -2.5zM1057 1962l168 -84q-101 -203 -252 -203q-93 0 -203 70q-7 4 -30.5 19.5t-32.5 21t-26 14.5t-30 12t-26 3q-72 0 -123 -93l-168 90q112 197 266 197q81 0 191 -70q39 -25 57.5 -36.5t48 -23t53.5 -11.5q63 0 107 94z" />
    <glyph glyph-name="Odieresis" unicode="&#xd6;" horiz-adv-x="1556" 
d="M778 -12q-134 0 -234.5 13t-194 49.5t-152.5 98t-94 162.5t-35 240v434q0 139 35 240t94 162.5t152.5 98t194 49.5t234.5 13q94 0 170.5 -6.5t152 -22.5t132.5 -43.5t106.5 -70.5t81.5 -101.5t50 -138.5t18 -180v-434q0 -100 -18 -180t-50 -138.5t-81.5 -101.5
t-106.5 -70.5t-132.5 -43.5t-152 -22.5t-170.5 -6.5zM778 344q59 0 96 2.5t73 12t56 26t36 44.5t22 68.5t6 98.5v346q0 57 -6 97.5t-22 68.5t-36 44.5t-56 25.5t-73 11.5t-96 2.5t-95.5 -2.5t-72 -12t-55 -25.5t-35.5 -44.5t-22.5 -68.5t-8.5 -97v-346q2 -58 8.5 -98.5
t22.5 -69t35.5 -44.5t55 -25.5t72 -12t95.5 -2.5zM676 1919v-211h-223v211h223zM1106 1919v-211h-223v211h223z" />
    <glyph glyph-name="multiply" unicode="&#xd7;" horiz-adv-x="1228" 
d="M102 897l181 178l331 -330l332 330l180 -178l-331 -332l331 -332l-180 -180l-332 332l-331 -332l-181 180l332 332z" />
    <glyph glyph-name="Oslash" unicode="&#xd8;" horiz-adv-x="1556" 
d="M1577 1599v-288l-117 -99q16 -62 24.5 -140t9.5 -128.5t1 -142.5q0 -137 -5.5 -230t-22.5 -185.5t-49 -150.5t-82.5 -110t-126.5 -79t-178.5 -42.5t-239.5 -15.5q-64 0 -99.5 1t-99.5 4.5t-108 13t-97 25t-96.5 42t-77.5 61.5l-229 -196v284l112 94q-35 87 -35 189v244
q0 121 5.5 209.5t20 171.5t38.5 139.5t63.5 106t93 79.5t128.5 52t168 31t213 9q82 0 124.5 -1t113.5 -8.5t117.5 -21.5t101 -42.5t98.5 -69.5zM1073 872l-541 -464q31 -64 271 -64q270 0 270 201v327zM483 655l545 471q-24 24 -50 38t-60 20t-57.5 7t-69.5 1
q-68 0 -107.5 -3t-79 -15.5t-59 -35t-35.5 -63.5t-21.5 -98.5t-5.5 -142.5v-179z" />
    <glyph glyph-name="Ugrave" unicode="&#xd9;" horiz-adv-x="1579" 
d="M1042 1536h410v-1024q0 -154 -36 -255t-117.5 -161t-198 -84t-291.5 -24q-103 0 -185.5 6t-148 17t-115.5 31t-87 42.5t-62.5 57.5t-41.5 70t-25 85.5t-12 99t-3 115.5v1024h410v-1016q0 -32 4 -57.5t14.5 -43.5t21 -31t31.5 -21t37 -13t47.5 -7t53 -2.5t61.5 -0.5
q49 0 78.5 2t59 8.5t45 19.5t28.5 34.5t17.5 53.5t4.5 77v997zM633 2009l418 -246l-58 -127l-463 146z" />
    <glyph glyph-name="Uacute" unicode="&#xda;" horiz-adv-x="1579" 
d="M1042 1536h410v-1024q0 -154 -36 -255t-117.5 -161t-198 -84t-291.5 -24q-103 0 -185.5 6t-148 17t-115.5 31t-87 42.5t-62.5 57.5t-41.5 70t-25 85.5t-12 99t-3 115.5v1024h410v-1016q0 -32 4 -57.5t14.5 -43.5t21 -31t31.5 -21t37 -13t47.5 -7t53 -2.5t61.5 -0.5
q49 0 78.5 2t59 8.5t45 19.5t28.5 34.5t17.5 53.5t4.5 77v997zM948 2009l103 -227l-463 -146l-58 127z" />
    <glyph glyph-name="Ucircumflex" unicode="&#xdb;" horiz-adv-x="1579" 
d="M1042 1536h410v-1024q0 -154 -36 -255t-117.5 -161t-198 -84t-291.5 -24q-103 0 -185.5 6t-148 17t-115.5 31t-87 42.5t-62.5 57.5t-41.5 70t-25 85.5t-12 99t-3 115.5v1024h410v-1016q0 -32 4 -57.5t14.5 -43.5t21 -31t31.5 -21t37 -13t47.5 -7t53 -2.5t61.5 -0.5
q49 0 78.5 2t59 8.5t45 19.5t28.5 34.5t17.5 53.5t4.5 77v997zM786 2009l375 -223l-51 -117l-324 127l-311 -127l-55 117z" />
    <glyph glyph-name="Udieresis" unicode="&#xdc;" horiz-adv-x="1579" 
d="M1042 1536h410v-1024q0 -154 -36 -255t-117.5 -161t-198 -84t-291.5 -24q-103 0 -185.5 6t-148 17t-115.5 31t-87 42.5t-62.5 57.5t-41.5 70t-25 85.5t-12 99t-3 115.5v1024h410v-1016q0 -32 4 -57.5t14.5 -43.5t21 -31t31.5 -21t37 -13t47.5 -7t53 -2.5t61.5 -0.5
q49 0 78.5 2t59 8.5t45 19.5t28.5 34.5t17.5 53.5t4.5 77v997zM686 1919v-211h-223v211h223zM1116 1919v-211h-223v211h223z" />
    <glyph glyph-name="Yacute" unicode="&#xdd;" horiz-adv-x="1449" 
d="M1483 1536l-561 -997v-539h-410v539l-545 997h469l275 -592h14l283 592h475zM883 2009l102 -227l-463 -146l-57 127z" />
    <glyph glyph-name="Thorn" unicode="&#xde;" horiz-adv-x="1456" 
d="M528 0h-409v1536h409v-197h363q284 0 404 -130.5t120 -432.5q0 -113 -9 -193.5t-32 -148t-60.5 -110.5t-96.5 -72.5t-138.5 -42t-187.5 -12.5h-363v-197zM528 553h281q45 2 70.5 4.5t49 12t34 22.5t18.5 39.5t10 59t2 85.5q0 64 -6 100t-26 62t-55.5 35.5t-96.5 9.5h-281
v-430z" />
    <glyph glyph-name="germandbls" unicode="&#xdf;" horiz-adv-x="1263" 
d="M469 0h-352v1157q0 96 24 165.5t65 113t107.5 69t140 34.5t173.5 9q49 0 83.5 -1t80.5 -4.5t78 -9.5t70 -18t64 -28t52 -40.5t41 -56t24.5 -73.5t9.5 -92q0 -118 -64 -185.5t-181 -81.5v-16q81 -1 139 -26t90.5 -63t51 -99t23.5 -117t5 -135q0 -101 -10 -175.5
t-38 -141.5t-75.5 -108t-123.5 -65t-181 -24q-27 0 -58 2t-68.5 5.5t-57.5 4.5v248q46 -15 94 -15q103 0 134.5 53t31.5 216q0 49 -1 78.5t-4.5 70t-11 64t-21.5 50.5t-34 41.5t-50 24t-69 9.5h-33v235h39q71 0 109.5 21.5t38.5 85.5q0 74 -44 102.5t-134 28.5
q-82 0 -120 -33.5t-38 -122.5v-1157z" />
    <glyph glyph-name="agrave" unicode="&#xe0;" horiz-adv-x="1247" 
d="M590 444q-75 0 -114.5 -22.5t-39.5 -89.5q0 -33 12 -57t26.5 -35t39.5 -17t39 -7t37 -1q114 0 153 24.5t39 106.5q0 26 -9.5 44.5t-24.5 29t-41.5 16t-52 7t-64.5 1.5zM782 0l13 160h-13q-32 -172 -309 -172q-98 0 -165.5 14t-120.5 50t-78 102.5t-25 167.5
q0 186 95 261.5t294 75.5h47t47 -2t52 -6t46 -13t44.5 -21.5t32.5 -32.5t24 -45h16v170q0 30 -1 47t-6 39t-15 33.5t-27 23t-44.5 16t-65.5 4.5q-73 0 -108.5 -24.5t-35.5 -91.5h-352q0 69 15.5 122.5t36.5 88t63.5 58.5t75 36t94 18t97.5 7t107 1h7q73 0 126 -2.5
t105.5 -10t89 -21t70 -35t54.5 -52t37 -73t23 -97t7 -124.5v-672h-353zM467 1548l418 -245l-58 -127l-462 145z" />
    <glyph glyph-name="aacute" unicode="&#xe1;" horiz-adv-x="1247" 
d="M590 444q-75 0 -114.5 -22.5t-39.5 -89.5q0 -33 12 -57t26.5 -35t39.5 -17t39 -7t37 -1q114 0 153 24.5t39 106.5q0 26 -9.5 44.5t-24.5 29t-41.5 16t-52 7t-64.5 1.5zM782 0l13 160h-13q-32 -172 -309 -172q-98 0 -165.5 14t-120.5 50t-78 102.5t-25 167.5
q0 186 95 261.5t294 75.5h47t47 -2t52 -6t46 -13t44.5 -21.5t32.5 -32.5t24 -45h16v170q0 30 -1 47t-6 39t-15 33.5t-27 23t-44.5 16t-65.5 4.5q-73 0 -108.5 -24.5t-35.5 -91.5h-352q0 69 15.5 122.5t36.5 88t63.5 58.5t75 36t94 18t97.5 7t107 1h7q73 0 126 -2.5
t105.5 -10t89 -21t70 -35t54.5 -52t37 -73t23 -97t7 -124.5v-672h-353zM782 1548l103 -227l-463 -145l-57 127z" />
    <glyph glyph-name="acircumflex" unicode="&#xe2;" horiz-adv-x="1247" 
d="M590 444q-75 0 -114.5 -22.5t-39.5 -89.5q0 -33 12 -57t26.5 -35t39.5 -17t39 -7t37 -1q114 0 153 24.5t39 106.5q0 26 -9.5 44.5t-24.5 29t-41.5 16t-52 7t-64.5 1.5zM782 0l13 160h-13q-32 -172 -309 -172q-98 0 -165.5 14t-120.5 50t-78 102.5t-25 167.5
q0 186 95 261.5t294 75.5h47t47 -2t52 -6t46 -13t44.5 -21.5t32.5 -32.5t24 -45h16v170q0 30 -1 47t-6 39t-15 33.5t-27 23t-44.5 16t-65.5 4.5q-73 0 -108.5 -24.5t-35.5 -91.5h-352q0 69 15.5 122.5t36.5 88t63.5 58.5t75 36t94 18t97.5 7t107 1h7q73 0 126 -2.5
t105.5 -10t89 -21t70 -35t54.5 -52t37 -73t23 -97t7 -124.5v-672h-353zM621 1548l374 -223l-51 -117l-323 127l-312 -127l-55 117z" />
    <glyph glyph-name="atilde" unicode="&#xe3;" horiz-adv-x="1247" 
d="M590 444q-75 0 -114.5 -22.5t-39.5 -89.5q0 -33 12 -57t26.5 -35t39.5 -17t39 -7t37 -1q114 0 153 24.5t39 106.5q0 26 -9.5 44.5t-24.5 29t-41.5 16t-52 7t-64.5 1.5zM782 0l13 160h-13q-32 -172 -309 -172q-98 0 -165.5 14t-120.5 50t-78 102.5t-25 167.5
q0 186 95 261.5t294 75.5h47t47 -2t52 -6t46 -13t44.5 -21.5t32.5 -32.5t24 -45h16v170q0 30 -1 47t-6 39t-15 33.5t-27 23t-44.5 16t-65.5 4.5q-73 0 -108.5 -24.5t-35.5 -91.5h-352q0 69 15.5 122.5t36.5 88t63.5 58.5t75 36t94 18t97.5 7t107 1h7q73 0 126 -2.5
t105.5 -10t89 -21t70 -35t54.5 -52t37 -73t23 -97t7 -124.5v-672h-353zM901 1501l168 -84q-101 -203 -252 -203q-93 0 -203 70q-7 4 -30.5 19.5t-32.5 21t-26 14.5t-30 12t-26 3q-72 0 -123 -92l-168 90q112 196 266 196q83 0 191 -69q40 -26 58 -37t48 -23t54 -12
q62 0 106 94z" />
    <glyph glyph-name="adieresis" unicode="&#xe4;" horiz-adv-x="1247" 
d="M590 444q-75 0 -114.5 -22.5t-39.5 -89.5q0 -33 12 -57t26.5 -35t39.5 -17t39 -7t37 -1q114 0 153 24.5t39 106.5q0 26 -9.5 44.5t-24.5 29t-41.5 16t-52 7t-64.5 1.5zM782 0l13 160h-13q-32 -172 -309 -172q-98 0 -165.5 14t-120.5 50t-78 102.5t-25 167.5
q0 186 95 261.5t294 75.5h47t47 -2t52 -6t46 -13t44.5 -21.5t32.5 -32.5t24 -45h16v170q0 30 -1 47t-6 39t-15 33.5t-27 23t-44.5 16t-65.5 4.5q-73 0 -108.5 -24.5t-35.5 -91.5h-352q0 69 15.5 122.5t36.5 88t63.5 58.5t75 36t94 18t97.5 7t107 1h7q73 0 126 -2.5
t105.5 -10t89 -21t70 -35t54.5 -52t37 -73t23 -97t7 -124.5v-672h-353zM520 1458v-211h-223v211h223zM950 1458v-211h-223v211h223z" />
    <glyph glyph-name="aring" unicode="&#xe5;" horiz-adv-x="1247" 
d="M590 444q-75 0 -114.5 -22.5t-39.5 -89.5q0 -33 12 -57t26.5 -35t39.5 -17t39 -7t37 -1q114 0 153 24.5t39 106.5q0 26 -9.5 44.5t-24.5 29t-41.5 16t-52 7t-64.5 1.5zM782 0l13 160h-13q-32 -172 -309 -172q-98 0 -165.5 14t-120.5 50t-78 102.5t-25 167.5
q0 186 95 261.5t294 75.5h47t47 -2t52 -6t46 -13t44.5 -21.5t32.5 -32.5t24 -45h16v170q0 30 -1 47t-6 39t-15 33.5t-27 23t-44.5 16t-65.5 4.5q-73 0 -108.5 -24.5t-35.5 -91.5h-352q0 69 15.5 122.5t36.5 88t63.5 58.5t75 36t94 18t97.5 7t107 1h7q73 0 126 -2.5
t105.5 -10t89 -21t70 -35t54.5 -52t37 -73t23 -97t7 -124.5v-672h-353zM424 1360q0 83 59 141t142 58q82 0 140 -58t58 -141t-58 -142t-140 -59q-83 0 -142 59t-59 142zM530 1360q0 -38 27.5 -66t65.5 -28q37 0 65.5 28t28.5 66t-28.5 65t-65.5 27q-38 0 -65.5 -27
t-27.5 -65z" />
    <glyph glyph-name="ae" unicode="&#xe6;" horiz-adv-x="1898" 
d="M1128 672h347q0 114 -42 154t-137 40q-92 0 -128.5 -43.5t-39.5 -150.5zM584 446q-75 0 -114.5 -22.5t-39.5 -89.5q0 -33 12 -57t26.5 -35t39.5 -17t39 -7t37 -1q114 0 153 24.5t39 106.5q0 26 -9.5 44.5t-24.5 29t-41.5 16t-52 7t-64.5 1.5zM776 539v170q0 30 -1 47.5
t-6 39t-15.5 33t-27.5 23t-44.5 16t-65.5 4.5q-72 0 -107.5 -24t-35.5 -92h-352q0 69 15.5 122.5t36.5 88t63 58.5t74.5 36t94 18t97.5 7t107 1h7q32 0 53 -1t64 -4.5t73.5 -13t65 -24.5t57.5 -41t32 -61h10q32 145 332 145q125 0 210 -15.5t148 -51.5t98 -101t51.5 -156.5
t16.5 -225.5v-60h-699q0 -144 34 -194t141 -50q94 0 136 23.5t42 101.5h346q0 -226 -141 -307q-116 -63 -383 -63q-330 0 -383 162h-13q-14 -38 -38 -66.5t-60.5 -45.5t-71 -28t-87 -15.5t-88.5 -5.5t-95 -1q-98 0 -165.5 14t-120.5 50t-78 102.5t-25 167.5q0 186 95 261.5
t294 75.5q36 0 55 -0.5t55.5 -3.5t60 -10.5t50.5 -20.5t45 -34.5t27 -50.5h16z" />
    <glyph glyph-name="ccedilla" unicode="&#xe7;" horiz-adv-x="1140" 
d="M657 -84l91 -168l-295 -106l-58 106zM745 430h353q0 -151 -28 -239t-91 -132q-57 -43 -150 -57t-251 -14q-106 0 -182.5 11t-135.5 37.5t-95.5 66.5t-60 103.5t-32.5 142t-9 188.5q0 118 11.5 198.5t43.5 151.5t89 112.5t148.5 64.5t222.5 23q75 0 127 -3t110.5 -12.5
t97.5 -27t77 -48.5t59.5 -74.5t35 -106t13.5 -143.5h-353q3 85 -28 114q-34 31 -139 31q-67 0 -99 -19t-47.5 -78t-15.5 -183q0 -78 4.5 -126t13.5 -80.5t30 -47t45.5 -20t68.5 -5.5q41 0 68 3t46 12.5t29.5 20t16 33.5t6.5 43.5t1 59.5z" />
    <glyph glyph-name="egrave" unicode="&#xe8;" horiz-adv-x="1175" 
d="M414 672h346q0 59 -10 94t-35.5 51.5t-53 20.5t-79.5 4q-96 0 -130.5 -33t-37.5 -137zM766 358h346q0 -223 -145 -307q-114 -63 -379 -63q-160 0 -261.5 28.5t-161 97t-82 167.5t-22.5 256q0 108 9 185t32 141t60.5 104.5t97 68.5t139 39.5t189.5 11.5q125 0 210 -15.5
t148 -51.5t98 -101t51.5 -156.5t16.5 -225.5v-60h-698q0 -144 33.5 -194t140.5 -50q94 0 136 23.5t42 101.5zM430 1548l418 -245l-57 -127l-463 145z" />
    <glyph glyph-name="eacute" unicode="&#xe9;" horiz-adv-x="1175" 
d="M414 672h346q0 59 -10 94t-35.5 51.5t-53 20.5t-79.5 4q-96 0 -130.5 -33t-37.5 -137zM766 358h346q0 -223 -145 -307q-114 -63 -379 -63q-160 0 -261.5 28.5t-161 97t-82 167.5t-22.5 256q0 108 9 185t32 141t60.5 104.5t97 68.5t139 39.5t189.5 11.5q125 0 210 -15.5
t148 -51.5t98 -101t51.5 -156.5t16.5 -225.5v-60h-698q0 -144 33.5 -194t140.5 -50q94 0 136 23.5t42 101.5zM745 1548l103 -227l-463 -145l-57 127z" />
    <glyph glyph-name="ecircumflex" unicode="&#xea;" horiz-adv-x="1175" 
d="M414 672h346q0 59 -10 94t-35.5 51.5t-53 20.5t-79.5 4q-96 0 -130.5 -33t-37.5 -137zM766 358h346q0 -223 -145 -307q-114 -63 -379 -63q-160 0 -261.5 28.5t-161 97t-82 167.5t-22.5 256q0 108 9 185t32 141t60.5 104.5t97 68.5t139 39.5t189.5 11.5q125 0 210 -15.5
t148 -51.5t98 -101t51.5 -156.5t16.5 -225.5v-60h-698q0 -144 33.5 -194t140.5 -50q94 0 136 23.5t42 101.5zM584 1548l374 -223l-51 -117l-323 127l-312 -127l-55 117z" />
    <glyph glyph-name="edieresis" unicode="&#xeb;" horiz-adv-x="1175" 
d="M414 672h346q0 59 -10 94t-35.5 51.5t-53 20.5t-79.5 4q-96 0 -130.5 -33t-37.5 -137zM766 358h346q0 -223 -145 -307q-114 -63 -379 -63q-160 0 -261.5 28.5t-161 97t-82 167.5t-22.5 256q0 108 9 185t32 141t60.5 104.5t97 68.5t139 39.5t189.5 11.5q125 0 210 -15.5
t148 -51.5t98 -101t51.5 -156.5t16.5 -225.5v-60h-698q0 -144 33.5 -194t140.5 -50q94 0 136 23.5t42 101.5zM485 1458v-211h-223v211h223zM915 1458v-211h-223v211h223z" />
    <glyph glyph-name="igrave" unicode="&#xec;" horiz-adv-x="526" 
d="M440 1075v-1075h-352v1075h352zM106 1548l418 -245l-57 -127l-463 145z" />
    <glyph glyph-name="iacute" unicode="&#xed;" horiz-adv-x="526" 
d="M440 1075v-1075h-352v1075h352zM422 1548l102 -227l-463 -145l-57 127z" />
    <glyph glyph-name="icircumflex" unicode="&#xee;" horiz-adv-x="526" 
d="M440 1075v-1075h-352v1075h352zM260 1548l375 -223l-51 -117l-324 127l-311 -127l-55 117z" />
    <glyph glyph-name="idieresis" unicode="&#xef;" horiz-adv-x="526" 
d="M440 1075v-1075h-352v1075h352zM160 1458v-211h-223v211h223zM590 1458v-211h-223v211h223z" />
    <glyph glyph-name="eth" unicode="&#xf0;" horiz-adv-x="1214" 
d="M612 817q-44 0 -73 -4t-51.5 -17t-34.5 -31t-19.5 -52.5t-9.5 -73.5t-2 -102q0 -76 4 -119.5t14 -78.5t32 -50.5t54.5 -23t85.5 -7.5q43 0 70.5 4t49 17t32.5 30.5t18 52t9 73t2 102.5q0 76 -3.5 119.5t-13 79t-30.5 51t-52 23t-82 7.5zM365 1462l274 86q72 -41 149 -108
l234 73l127 -131l-231 -73q109 -123 168 -312.5t59 -427.5q0 -124 -8.5 -208.5t-32.5 -152.5t-61 -108t-99.5 -66.5t-142 -36t-195.5 -9.5q-113 0 -193 10.5t-141.5 37t-99 65.5t-61 103t-32.5 142.5t-9 190.5q0 69 3.5 123t13.5 112t27 101.5t46 84t68.5 66t96 40.5
t126.5 15q120 0 178 -20t119 -80q-41 140 -121 238l-234 -74l-135 129l246 78q-28 26 -139 112z" />
    <glyph glyph-name="ntilde" unicode="&#xf1;" horiz-adv-x="1267" 
d="M117 1075h352v-201h14q39 123 119 170q69 43 203 43q177 0 261.5 -85t84.5 -259v-743h-352v662q-2 82 -32.5 118.5t-113.5 36.5q-57 0 -95 -16t-56.5 -48.5t-25.5 -69.5t-7 -91v-592h-352v1075zM911 1501l168 -84q-101 -203 -252 -203q-92 0 -202 70q-8 5 -26.5 17
t-26.5 17t-23 13.5t-24.5 12.5t-22 7t-23.5 3q-72 0 -123 -92l-168 90q112 196 267 196q82 0 190 -69q40 -26 58 -37t48 -23t54 -12q62 0 106 94z" />
    <glyph glyph-name="ograve" unicode="&#xf2;" horiz-adv-x="1214" 
d="M606 1087q117 0 197 -8.5t143 -33.5t99 -62t60 -102t32 -145t8 -199q0 -115 -8.5 -194.5t-32.5 -144t-61 -102.5t-99.5 -63.5t-142.5 -35t-195 -9.5q-113 0 -193 10.5t-141.5 37t-99 65.5t-61 103t-32.5 142.5t-9 190.5q0 115 8 194t31.5 143.5t60 103t98.5 64.5
t142 35.5t196 9.5zM612 817q-44 0 -73 -4t-51.5 -17t-34.5 -31t-19.5 -52.5t-9.5 -73.5t-2 -102q0 -76 4 -119.5t14 -78.5t32 -50.5t54.5 -23t85.5 -7.5q43 0 70.5 4t49 17t32.5 30.5t18 52t9 73t2 102.5q0 76 -3.5 119.5t-13 79t-30.5 51t-52 23t-82 7.5zM451 1548
l417 -245l-57 -127l-463 145z" />
    <glyph glyph-name="oacute" unicode="&#xf3;" horiz-adv-x="1214" 
d="M606 1087q117 0 197 -8.5t143 -33.5t99 -62t60 -102t32 -145t8 -199q0 -115 -8.5 -194.5t-32.5 -144t-61 -102.5t-99.5 -63.5t-142.5 -35t-195 -9.5q-113 0 -193 10.5t-141.5 37t-99 65.5t-61 103t-32.5 142.5t-9 190.5q0 115 8 194t31.5 143.5t60 103t98.5 64.5
t142 35.5t196 9.5zM612 817q-44 0 -73 -4t-51.5 -17t-34.5 -31t-19.5 -52.5t-9.5 -73.5t-2 -102q0 -76 4 -119.5t14 -78.5t32 -50.5t54.5 -23t85.5 -7.5q43 0 70.5 4t49 17t32.5 30.5t18 52t9 73t2 102.5q0 76 -3.5 119.5t-13 79t-30.5 51t-52 23t-82 7.5zM766 1548
l102 -227l-462 -145l-58 127z" />
    <glyph glyph-name="ocircumflex" unicode="&#xf4;" horiz-adv-x="1214" 
d="M606 1087q117 0 197 -8.5t143 -33.5t99 -62t60 -102t32 -145t8 -199q0 -115 -8.5 -194.5t-32.5 -144t-61 -102.5t-99.5 -63.5t-142.5 -35t-195 -9.5q-113 0 -193 10.5t-141.5 37t-99 65.5t-61 103t-32.5 142.5t-9 190.5q0 115 8 194t31.5 143.5t60 103t98.5 64.5
t142 35.5t196 9.5zM612 817q-44 0 -73 -4t-51.5 -17t-34.5 -31t-19.5 -52.5t-9.5 -73.5t-2 -102q0 -76 4 -119.5t14 -78.5t32 -50.5t54.5 -23t85.5 -7.5q43 0 70.5 4t49 17t32.5 30.5t18 52t9 73t2 102.5q0 76 -3.5 119.5t-13 79t-30.5 51t-52 23t-82 7.5zM604 1548
l375 -223l-51 -117l-324 127l-311 -127l-55 117z" />
    <glyph glyph-name="otilde" unicode="&#xf5;" horiz-adv-x="1214" 
d="M606 1087q117 0 197 -8.5t143 -33.5t99 -62t60 -102t32 -145t8 -199q0 -115 -8.5 -194.5t-32.5 -144t-61 -102.5t-99.5 -63.5t-142.5 -35t-195 -9.5q-113 0 -193 10.5t-141.5 37t-99 65.5t-61 103t-32.5 142.5t-9 190.5q0 115 8 194t31.5 143.5t60 103t98.5 64.5
t142 35.5t196 9.5zM612 817q-44 0 -73 -4t-51.5 -17t-34.5 -31t-19.5 -52.5t-9.5 -73.5t-2 -102q0 -76 4 -119.5t14 -78.5t32 -50.5t54.5 -23t85.5 -7.5q43 0 70.5 4t49 17t32.5 30.5t18 52t9 73t2 102.5q0 76 -3.5 119.5t-13 79t-30.5 51t-52 23t-82 7.5zM885 1501l168 -84
q-101 -203 -252 -203q-93 0 -203 70q-7 4 -30.5 19.5t-32.5 21t-26 14.5t-30 12t-26 3q-72 0 -123 -92l-168 90q112 196 266 196q82 0 190 -69q40 -26 58 -37t48 -23t54 -12q63 0 107 94z" />
    <glyph glyph-name="odieresis" unicode="&#xf6;" horiz-adv-x="1214" 
d="M606 1087q117 0 197 -8.5t143 -33.5t99 -62t60 -102t32 -145t8 -199q0 -115 -8.5 -194.5t-32.5 -144t-61 -102.5t-99.5 -63.5t-142.5 -35t-195 -9.5q-113 0 -193 10.5t-141.5 37t-99 65.5t-61 103t-32.5 142.5t-9 190.5q0 115 8 194t31.5 143.5t60 103t98.5 64.5
t142 35.5t196 9.5zM612 817q-44 0 -73 -4t-51.5 -17t-34.5 -31t-19.5 -52.5t-9.5 -73.5t-2 -102q0 -76 4 -119.5t14 -78.5t32 -50.5t54.5 -23t85.5 -7.5q43 0 70.5 4t49 17t32.5 30.5t18 52t9 73t2 102.5q0 76 -3.5 119.5t-13 79t-30.5 51t-52 23t-82 7.5zM504 1458v-211
h-223v211h223zM934 1458v-211h-223v211h223z" />
    <glyph glyph-name="divide" unicode="&#xf7;" horiz-adv-x="1228" 
d="M102 449v235h1024v-235h-1024zM731 57h-235v236h235v-236zM731 840h-235v235h235v-235z" />
    <glyph glyph-name="oslash" unicode="&#xf8;" horiz-adv-x="1259" 
d="M815 584l-352 -254q19 -43 60 -57.5t106 -14.5q61 0 97.5 11t56.5 40t26 68.5t6 109.5v97zM444 492l353 249q-5 22 -19 37t-29.5 22.5t-41 11.5t-40 4.5t-38.5 0.5q-103 0 -144 -31.5t-41 -101.5v-192zM-4 0v170l119 84q-23 128 -23 340q0 105 11.5 180.5t39 131t66.5 90
t102.5 55.5t137.5 28.5t180 7.5q55 0 85 -0.5t83 -4t87.5 -12t75.5 -22.5t72.5 -38t54.5 -56l152 113v-174l-90 -66q18 -68 18 -231q0 -96 -3 -163t-13 -132t-26.5 -106.5t-45 -80t-67 -60t-95 -38t-126 -22.5t-162.5 -6q-54 0 -83.5 1t-81.5 4.5t-86 12t-75 23.5
t-72.5 39.5t-56.5 58.5z" />
    <glyph glyph-name="ugrave" unicode="&#xf9;" horiz-adv-x="1259" 
d="M1137 0h-342l12 207h-16q-65 -219 -322 -219q-365 0 -365 352v735h353v-641q0 -43 3.5 -70t16 -54t39.5 -39.5t70 -12.5q78 0 138 41t60 115v661h353v-1075zM473 1548l418 -245l-57 -127l-463 145z" />
    <glyph glyph-name="uacute" unicode="&#xfa;" horiz-adv-x="1259" 
d="M1137 0h-342l12 207h-16q-65 -219 -322 -219q-365 0 -365 352v735h353v-641q0 -43 3.5 -70t16 -54t39.5 -39.5t70 -12.5q78 0 138 41t60 115v661h353v-1075zM788 1548l103 -227l-463 -145l-57 127z" />
    <glyph glyph-name="ucircumflex" unicode="&#xfb;" horiz-adv-x="1259" 
d="M1137 0h-342l12 207h-16q-65 -219 -322 -219q-365 0 -365 352v735h353v-641q0 -43 3.5 -70t16 -54t39.5 -39.5t70 -12.5q78 0 138 41t60 115v661h353v-1075zM627 1548l374 -223l-51 -117l-323 127l-312 -127l-55 117z" />
    <glyph glyph-name="udieresis" unicode="&#xfc;" horiz-adv-x="1259" 
d="M1137 0h-342l12 207h-16q-65 -219 -322 -219q-365 0 -365 352v735h353v-641q0 -43 3.5 -70t16 -54t39.5 -39.5t70 -12.5q78 0 138 41t60 115v661h353v-1075zM526 1458v-211h-223v211h223zM956 1458v-211h-223v211h223z" />
    <glyph glyph-name="yacute" unicode="&#xfd;" horiz-adv-x="1091" 
d="M1106 1075l-270 -1169q-23 -109 -55 -179.5t-86.5 -117.5t-131.5 -66.5t-190 -19.5q-18 0 -38 1t-44.5 2.5t-38.5 2.5v244q40 -4 61 -4q53 0 89.5 18t56 52t28.5 72t11 89h-193l-319 1075h368l213 -874h4l174 874h361zM705 1548l102 -227l-463 -145l-57 127z" />
    <glyph glyph-name="thorn" unicode="&#xfe;" horiz-adv-x="1265" 
d="M457 1536v-627h12q14 52 41 87.5t67.5 55t87 27.5t107.5 8q202 0 305 -93.5t103 -301.5v-246q0 -247 -93.5 -352.5t-314.5 -105.5q-53 0 -94 7t-81.5 24.5t-71.5 53.5t-52 89h-16v-627h-353v2001h353zM633 817q-111 0 -143.5 -53.5t-32.5 -226.5q0 -51 1.5 -83.5t7.5 -68
t17.5 -56t31 -38.5t48.5 -25.5t70 -7.5q59 0 92.5 9t58.5 39t34 84.5t9 146.5q0 45 -0.5 72.5t-3.5 59t-8.5 49t-15 37t-23.5 29t-34.5 18.5t-47 12t-61.5 3z" />
    <glyph glyph-name="ydieresis" unicode="&#xff;" horiz-adv-x="1091" 
d="M1106 1075l-270 -1169q-23 -109 -55 -179.5t-86.5 -117.5t-131.5 -66.5t-190 -19.5q-18 0 -38 1t-44.5 2.5t-38.5 2.5v244q40 -4 61 -4q53 0 89.5 18t56 52t28.5 72t11 89h-193l-319 1075h368l213 -874h4l174 874h361zM442 1458v-211h-223v211h223zM872 1458v-211h-223
v211h223z" />
    <glyph glyph-name="dotlessi" unicode="&#x131;" horiz-adv-x="526" 
d="M440 1075v-1075h-352v1075h352z" />
    <glyph glyph-name="Lslash" unicode="&#x141;" horiz-adv-x="1220" 
d="M553 911v-555h645v-356h-1055v627l-149 -125v291l149 122v621h410v-342l260 217v-285z" />
    <glyph glyph-name="lslash" unicode="&#x142;" horiz-adv-x="638" 
d="M498 895v-895h-353v686l-145 -102v188l145 105v659h353v-446l141 104v-195z" />
    <glyph glyph-name="OE" unicode="&#x152;" horiz-adv-x="2254" 
d="M1096 0l14 170h-14q-61 -103 -147 -141.5t-216 -40.5q-120 0 -209 11t-164.5 37.5t-125.5 70.5t-85 111t-51 158t-16 212v289q0 141 14 240.5t51.5 185.5t102.5 137t168 79.5t248 28.5q58 0 102 -3t99.5 -14.5t96 -31.5t77 -57.5t55.5 -89.5h14l-14 184h1077v-336h-696
v-285h651v-284h-651v-295h710v-336h-1091zM1087 639v297q0 62 -7 106.5t-25.5 75.5t-41.5 49t-63 28.5t-82.5 13.5t-107.5 3q-57 0 -97.5 -5.5t-71 -19t-49 -33.5t-30 -52t-16 -71t-4.5 -95v-297q0 -69 4 -116t16.5 -83.5t30.5 -58t49.5 -35t70.5 -18t97 -4.5q64 0 112 6
t83.5 16.5t59 30.5t38 42t22 58.5t10 72t2.5 89.5z" />
    <glyph glyph-name="oe" unicode="&#x153;" horiz-adv-x="1884" 
d="M1116 672h346q0 115 -42 157.5t-136 42.5q-92 0 -128.5 -46t-39.5 -154zM764 537v66t-1.5 54.5t-4 45.5t-7 35t-10.5 28.5t-16 20t-22 15.5t-29 8.5t-36.5 5.5t-45.5 1q-32 0 -54.5 -2t-41.5 -9t-31 -14.5t-21.5 -25.5t-14 -35.5t-7.5 -50t-3.5 -63t-0.5 -80.5
q0 -78 5 -125.5t14.5 -80t32 -47.5t49 -20.5t73.5 -5.5q41 0 68.5 4.5t47 19t30.5 32t17 53.5t7.5 72t1.5 98zM569 1087q41 0 70 -1t70.5 -5.5t72.5 -14t63.5 -24.5t57 -40t39.5 -58h8q14 34 36 60t53.5 41t58.5 24t67.5 12.5t63 4.5t61.5 1q104 0 179 -10t135.5 -35.5
t99 -65t64.5 -102.5t36.5 -144t10.5 -193v-60h-699q0 -144 33.5 -194t140.5 -50q94 0 136 23.5t42 101.5h347q0 -223 -146 -307q-114 -63 -379 -63q-36 0 -57 0.5t-57 3.5t-59 8.5t-53 17t-49 28t-37 42t-28 57.5h-12q-24 -43 -51 -72t-55.5 -46t-71.5 -25.5t-83.5 -11
t-107.5 -2.5q-109 0 -186.5 11t-134.5 39t-91.5 67t-55.5 104.5t-28 141t-7 186.5q0 110 6.5 184.5t26.5 140.5t54 105t91 68t135.5 40.5t189.5 11.5z" />
    <glyph glyph-name="Scaron" unicode="&#x160;" horiz-adv-x="1466" 
d="M655 946l170 -12q122 -9 201 -19.5t148 -31.5t106.5 -50t65.5 -77.5t37.5 -110.5t9.5 -153q0 -150 -14 -213q-33 -144 -171 -213q-157 -78 -481 -78q-81 0 -126.5 1t-112.5 5.5t-104.5 14t-88 27t-78 43.5t-59 64.5t-46.5 89t-25.5 117.5t-10.5 150h393q0 -49 8.5 -80
t24 -51t49 -29.5t72 -12.5t104.5 -3q64 0 101.5 2.5t71 10t49.5 23.5t25 41t9 64q0 94 -30 113.5t-171 28.5q-9 1 -14 1l-90 6q-227 16 -297 29q-157 29 -224 116q-79 101 -79 320q0 73 9.5 132t25.5 104.5t44.5 80.5t58.5 59.5t76 41.5t88 27t104 15.5t115 7t128 1.5
q70 0 110.5 -0.5t102.5 -4.5t98.5 -12t85.5 -23t77.5 -36.5t60.5 -54t49 -74.5t28 -99t11 -126v-63h-394q0 26 -3 46.5t-6.5 36.5t-13.5 27.5t-17.5 19.5t-25.5 13t-29 8t-37.5 4.5t-42.5 1.5h-51h-1.5h-1.5q-81 0 -130.5 -7.5t-73 -26.5t-30 -39.5t-6.5 -57.5q0 -26 4 -46
t9.5 -33.5t19 -23t23 -15t32 -9t36.5 -5t44 -3.5zM729 1669l-367 223l56 117l311 -127l324 127l51 -117z" />
    <glyph glyph-name="scaron" unicode="&#x161;" horiz-adv-x="1183" 
d="M1067 770h-332q-8 59 -55 80q-27 10 -88 10q-55 0 -90 -3.5t-54.5 -8t-28 -17.5t-10 -23t-1.5 -34q0 -20 2 -30.5t11 -24t28 -20.5t54.5 -12.5t88.5 -6.5q78 -2 128 -4.5t107.5 -8.5t92 -16t71.5 -26.5t57.5 -40t38 -57t24.5 -77.5t7 -100q0 -92 -28.5 -158.5t-74 -105
t-117 -61.5t-142 -30t-164.5 -7q-196 0 -273 14q-161 28 -217 143q-36 74 -36 191h352q0 -35 11 -59t24.5 -36t41 -18t45.5 -7t52 -1q121 0 152.5 15.5t31.5 78.5q0 26 -4.5 44.5t-17 30.5t-24 18.5t-37 9.5t-44.5 3.5t-57 0.5q-133 0 -226 12.5t-152 36t-91.5 64
t-44.5 88.5t-12 118q0 73 15 128.5t36 92.5t63.5 62.5t78 39t100 20t109 8t124.5 1.5q43 0 68.5 -0.5t70 -3t72.5 -7t67.5 -13.5t64 -22t52.5 -33.5t43.5 -46.5t26 -61.5t10.5 -78.5v-51zM588 1208l-367 224l55 116l312 -127l323 127l52 -116z" />
    <glyph glyph-name="Ydieresis" unicode="&#x178;" horiz-adv-x="1449" 
d="M1483 1536l-561 -997v-539h-410v539l-545 997h469l275 -592h14l283 592h475zM623 1919v-211h-224v211h224zM1053 1919v-211h-224v211h224z" />
    <glyph glyph-name="Zcaron" unicode="&#x17d;" horiz-adv-x="1349" 
d="M1303 1536v-344l-736 -823v-13h736v-356h-1256v346l725 821v13h-678v356h1209zM672 1669l-367 223l55 117l312 -127l323 127l52 -117z" />
    <glyph glyph-name="zcaron" unicode="&#x17e;" horiz-adv-x="1015" 
d="M82 1075h891v-278l-520 -551h520v-246h-930v291l508 538h-469v246zM504 1208l-367 224l56 116l311 -127l323 127l52 -116z" />
    <glyph glyph-name="florin" unicode="&#x192;" 
d="M1221 1001l-45 -258h-209l-142 -798q-15 -86 -25 -137t-32 -102t-37 -76t-58 -50t-76 -33t-110.5 -15.5t-141 -8t-187.5 -0.5l45 268q87 -10 104 -10q35 0 60 10t39.5 23t25.5 40t15.5 46t11.5 57l139 786h-156l45 258h154l23 121q15 83 29 141t40 105t43.5 76t64.5 50.5
t76.5 31.5t107 15.5t128 6t164.5 0.5l-45 -268q-45 10 -82 10q-54 0 -81.5 -12t-46.5 -50.5t-32 -117.5l-18 -109h209z" />
    <glyph glyph-name="circumflex" unicode="&#x2c6;" horiz-adv-x="1048" 
d="M520 1548l375 -223l-51 -117l-324 127l-311 -127l-55 117z" />
    <glyph glyph-name="caron" unicode="&#x2c7;" horiz-adv-x="1048" 
d="M520 1208l-366 224l55 116l311 -127l324 127l51 -116z" />
    <glyph glyph-name="uni02C9" unicode="&#x2c9;" horiz-adv-x="950" 
d="M154 1446h643v-193h-643v193z" />
    <glyph glyph-name="breve" unicode="&#x2d8;" horiz-adv-x="1036" 
d="M154 1501h192q29 -153 172 -153t172 153h193q-17 -146 -117.5 -236.5t-247.5 -90.5q-141 0 -244 93t-120 234z" />
    <glyph glyph-name="dotaccent" unicode="&#x2d9;" horiz-adv-x="530" 
d="M377 1458v-211h-223v211h223z" />
    <glyph glyph-name="ring" unicode="&#x2da;" horiz-adv-x="706" 
d="M154 1360q0 83 58.5 141t141.5 58q82 0 140.5 -58t58.5 -141t-58.5 -142t-140.5 -59q-83 0 -141.5 59t-58.5 142zM260 1360q0 -38 27 -66t65 -28q37 0 65.5 28t28.5 66t-28.5 65t-65.5 27q-38 0 -65 -27t-27 -65z" />
    <glyph glyph-name="ogonek" unicode="&#x2db;" horiz-adv-x="643" 
d="M301 0h186q-36 -22 -52.5 -32.5t-51.5 -37t-51.5 -52t-16.5 -50.5q0 -59 78 -59q36 0 92 18v-156q-48 -22 -114 -22q-91 0 -154 49.5t-63 138.5q0 66 40.5 117.5t106.5 85.5z" />
    <glyph glyph-name="tilde" unicode="&#x2dc;" horiz-adv-x="1198" 
d="M877 1501l167 -84q-102 -203 -251 -203q-93 0 -203 70q-8 5 -26.5 17t-26.5 17t-23 13.5t-24.5 12.5t-22 7t-23.5 3q-42 0 -70 -24.5t-52 -67.5l-168 90q112 196 266 196q82 0 190 -69q40 -26 58 -37t48 -23t54 -12q63 0 107 94z" />
    <glyph glyph-name="hungarumlaut" unicode="&#x2dd;" horiz-adv-x="1218" 
d="M449 1642l167 -169l-368 -285l-94 96zM897 1642l168 -169l-369 -285l-94 96z" />
    <glyph glyph-name="uni03A9" unicode="&#x3a9;" horiz-adv-x="1894" 
d="M457 258v6q-63 41 -117.5 94.5t-103 125t-77 163.5t-28.5 193q0 141 59.5 267t165 219t260 147.5t334.5 54.5q185 0 340 -57t256 -152.5t157 -218t56 -256.5q0 -359 -332 -580v-6h365v-258h-731v197q76 44 134 95t107.5 120.5t76 163t26.5 206.5q0 96 -31.5 184.5
t-88.5 156.5t-143.5 108.5t-189.5 40.5q-201 0 -332 -140t-131 -360q0 -199 96.5 -351t248.5 -224v-197h-734v258h357z" />
    <glyph glyph-name="uni03BC" unicode="&#x3bc;" horiz-adv-x="1259" 
d="M1143 0h-342l12 207h-16q-35 -118 -119.5 -168.5t-214.5 -50.5v-453h-352v1540h352v-641q0 -43 3.5 -70t16 -54t39.5 -39.5t70 -12.5q78 0 138.5 41t60.5 115v661h352v-1075z" />
    <glyph glyph-name="pi" unicode="&#x3c0;" horiz-adv-x="1564" 
d="M1501 864h-174v-502q0 -222 31 -362h-344q-43 57 -43 336v528h-330q-5 -208 -48.5 -475t-100.5 -389h-347q57 169 102 427t46 437q-177 0 -252 -22l-37 209q93 77 430 77h1098z" />
    <glyph glyph-name="endash" unicode="&#x2013;" horiz-adv-x="1024" 
d="M0 733h1024v-336h-1024v336z" />
    <glyph glyph-name="emdash" unicode="&#x2014;" horiz-adv-x="2048" 
d="M0 733h2048v-336h-2048v336z" />
    <glyph glyph-name="quoteleft" unicode="&#x2018;" horiz-adv-x="540" 
d="M426 913h-332v344q-5 162 70.5 227t281.5 64v-153q-86 -1 -116.5 -30.5t-30.5 -107.5h127v-344z" />
    <glyph glyph-name="quoteright" unicode="&#x2019;" horiz-adv-x="540" 
d="M115 1536h331v-344q5 -162 -70.5 -227t-281.5 -64v154q87 1 117.5 30.5t30.5 106.5h-127v344z" />
    <glyph glyph-name="quotesinglbase" unicode="&#x201a;" horiz-adv-x="540" 
d="M115 344h331v-344q5 -162 -70.5 -227t-281.5 -64v154q87 1 117.5 30.5t30.5 106.5h-127v344z" />
    <glyph glyph-name="quotedblleft" unicode="&#x201c;" horiz-adv-x="1001" 
d="M887 913h-332v344q-5 162 70.5 227t281.5 64v-153q-86 -1 -116.5 -30.5t-30.5 -107.5h127v-344zM426 913h-332v344q-5 162 70.5 227t281.5 64v-153q-86 -1 -116.5 -30.5t-30.5 -107.5h127v-344z" />
    <glyph glyph-name="quotedblright" unicode="&#x201d;" horiz-adv-x="1001" 
d="M115 1536h331v-344q5 -162 -70.5 -227t-281.5 -64v154q87 1 117.5 30.5t30.5 106.5h-127v344zM575 1536h332v-344q5 -162 -70.5 -227t-281.5 -64v154q87 1 117 30t30 107h-127v344z" />
    <glyph glyph-name="quotedblbase" unicode="&#x201e;" horiz-adv-x="1001" 
d="M111 344h331v-344q5 -162 -70.5 -227t-281.5 -64v154q87 1 117.5 30.5t30.5 106.5h-127v344zM571 344h332v-344q5 -162 -70.5 -227t-281.5 -64v154q87 1 117 30t30 107h-127v344z" />
    <glyph glyph-name="dagger" unicode="&#x2020;" 
d="M913 1536v-449h373v-270h-373v-1282h-352v1282h-373v270h373v449h352z" />
    <glyph glyph-name="daggerdbl" unicode="&#x2021;" 
d="M913 1536v-461h373v-270h-373v-535h373v-270h-373v-465h-352v465h-373v270h373v535h-373v270h373v461h352z" />
    <glyph glyph-name="bullet" unicode="&#x2022;" horiz-adv-x="1228" 
d="M999 768q0 -158 -112.5 -270.5t-272.5 -112.5q-159 0 -271 111t-112 272q-3 160 109.5 272.5t273.5 112.5q160 0 272.5 -112.5t112.5 -272.5z" />
    <glyph glyph-name="ellipsis" unicode="&#x2026;" horiz-adv-x="2048" 
d="M506 356v-356h-332v356h332zM1190 356v-356h-332v356h332zM1874 356v-356h-332v356h332z" />
    <glyph glyph-name="perthousand" unicode="&#x2030;" horiz-adv-x="2641" 
d="M2595 492v-226q-1 -74 -14.5 -123.5t-37 -80.5t-67 -47t-92.5 -21.5t-127 -5.5q-65 0 -107.5 3.5t-82 13.5t-62.5 28.5t-41 49.5t-25.5 75t-9.5 106v225q2 62 9.5 106t25.5 75.5t40.5 50.5t62 29.5t82 14t106.5 3.5q79 0 128 -5t93 -21t67.5 -46.5t37 -80t14.5 -123.5z
M2390 297v170q0 31 -1.5 51t-9 34.5t-14.5 21.5t-26 11t-35 4.5t-49 0.5q-36 0 -52 -1.5t-33 -7t-23 -19.5t-9.5 -35.5t-3.5 -59.5v-170q0 -33 1.5 -54.5t8 -37t13 -22.5t23.5 -11.5t31 -5t44 -0.5q31 0 46 0.5t34 4.5t26.5 12t15.5 23t10.5 36.5t2.5 54.5zM1810 492v-226
q-1 -74 -14.5 -123.5t-36.5 -80.5t-66.5 -47t-92.5 -21.5t-127 -5.5q-65 0 -107.5 3.5t-82 13.5t-62.5 28.5t-41 49.5t-25.5 75t-9.5 106v225q2 62 9.5 106t25 75.5t40.5 50.5t62 29.5t81.5 14t106.5 3.5q79 0 128 -5t93 -21t67.5 -46.5t37 -80t14.5 -123.5zM1606 297v170
q0 31 -2 51t-9.5 34.5t-14.5 21.5t-26 11t-35 4.5t-49 0.5q-30 0 -44 -0.5t-31 -4.5t-23 -11t-12.5 -21.5t-8 -34.5t-1.5 -51v-170q0 -50 3.5 -75t20 -38.5t34.5 -15.5t62 -2q31 0 46 0.5t34 4.5t27 12t16 22.5t10.5 36.5t2.5 55zM713 1272v-225q-1 -74 -14.5 -123.5
t-37 -80.5t-67 -47.5t-92.5 -22t-127 -5.5q-65 0 -107.5 3.5t-82 13.5t-62.5 28.5t-41 49.5t-25.5 75t-9.5 106v226q2 62 9.5 106t25.5 75.5t40.5 50t62 29t82 14t106.5 3.5q79 0 128 -5t93 -21t67.5 -46.5t37 -80t14.5 -123.5zM508 1077v170q0 31 -1.5 51t-9 34.5
t-14.5 21.5t-26 11t-35 4.5t-49 0.5q-36 0 -52 -1.5t-33 -7t-23 -19.5t-9.5 -35.5t-3.5 -59.5v-170q0 -33 1.5 -54.5t8 -37t13 -22.5t23.5 -11.5t31 -5t44 -0.5q31 0 46 0.5t34 4.5t26.5 12t15.5 23t10.5 36.5t2.5 54.5zM1520 1536l-908 -1536h-245l907 1536h246z" />
    <glyph glyph-name="guilsinglleft" unicode="&#x2039;" horiz-adv-x="677" 
d="M352 1055l232 -125l-197 -373l197 -346l-219 -135l-275 481z" />
    <glyph glyph-name="guilsinglright" unicode="&#x203a;" horiz-adv-x="675" 
d="M311 76l-231 125l196 372l-196 347l219 135l274 -482z" />
    <glyph glyph-name="fraction" unicode="&#x2044;" horiz-adv-x="446" 
d="M799 1536l-908 -1536h-245l907 1536h246z" />
    <glyph glyph-name="Euro" unicode="&#x20ac;" 
d="M1458 1403l-131 -324q-38 45 -83.5 73.5t-100 40t-93.5 14.5t-98 3q-166 0 -239 -41.5t-88 -138.5h680l-84 -209h-603v-84h572l-86 -209h-479q9 -75 40 -118t99.5 -64.5t187.5 -21.5q245 0 391 141v-377q-69 -45 -180 -72.5t-207 -27.5q-91 0 -149.5 2t-134.5 9.5
t-124 23t-103.5 41t-89.5 66t-64 95.5t-45 131t-17 172h-215l86 209h129v84h-219l86 209h135q5 94 27.5 170t57.5 129.5t87.5 93t109.5 63.5t132.5 38t148 19t162.5 5q162 0 259 -22q150 -35 243 -123z" />
    <glyph glyph-name="afii61289" unicode="&#x2113;" horiz-adv-x="1372" 
d="M1165 469l150 -147q-103 -170 -253.5 -248t-320.5 -78q-375 0 -458 332q0 12 -2 18q-87 -58 -121 -80l-94 172q34 23 104 71t104 71v483q0 307 125.5 454.5t341.5 147.5q98 0 174.5 -32t123 -87.5t70.5 -125.5t24 -150q0 -99 -34.5 -194t-105.5 -189t-163 -183t-222 -192
l4 -47q6 -92 65.5 -145.5t149.5 -53.5q97 0 186.5 58.5t151.5 144.5zM608 1141v-344q129 124 203 246t74 227q0 82 -30.5 128t-94.5 46q-63 0 -107.5 -72t-44.5 -231z" />
    <glyph glyph-name="trademark" unicode="&#x2122;" horiz-adv-x="1761" 
d="M1769 1536v-827h-190v661h-4l-240 -661h-106l-240 661h-4v-661h-190v827h301l186 -489l186 489h301zM705 1536v-170h-252v-657h-209v657h-252v170h713z" />
    <glyph glyph-name="Omega" unicode="&#x2126;" horiz-adv-x="1894" 
d="M457 258v6q-63 41 -117.5 94.5t-103 125t-77 163.5t-28.5 193q0 141 59.5 267t165 219t260 147.5t334.5 54.5q185 0 340 -57t256 -152.5t157 -218t56 -256.5q0 -359 -332 -580v-6h365v-258h-731v197q76 44 134 95t107.5 120.5t76 163t26.5 206.5q0 96 -31.5 184.5
t-88.5 156.5t-143.5 108.5t-189.5 40.5q-201 0 -332 -140t-131 -360q0 -199 96.5 -351t248.5 -224v-197h-734v258h357z" />
    <glyph glyph-name="estimated" unicode="&#x212e;" horiz-adv-x="1882" 
d="M1806 745h-1403q-12 0 -12 -8v-426q0 -20 19 -47q106 -109 242 -170t288 -61q165 0 310 69t249 189h125q-118 -139 -298.5 -220t-387.5 -81q-176 0 -336 61.5t-275.5 165.5t-184 248.5t-68.5 302.5t68.5 302.5t184 249t275.5 166.5t336 62q177 0 338 -62t277 -166.5
t184.5 -249t68.5 -302.5v-23zM1489 801v428q0 28 -23 51q-105 103 -240 162t-286 59q-150 0 -286 -61t-242 -168q-21 -21 -21 -53v-418q0 -4 3.5 -8.5t8.5 -4.5h1076q4 0 7 4.5t3 8.5z" />
    <glyph glyph-name="partialdiff" unicode="&#x2202;" horiz-adv-x="1480" 
d="M248 1348l-103 223q77 52 201 94.5t293 42.5q155 0 289.5 -59t233.5 -165.5t155.5 -264.5t56.5 -347q0 -256 -92 -455.5t-262 -311t-391 -111.5q-110 0 -203 33.5t-156 88t-107.5 124t-64.5 139.5t-20 137q0 158 69.5 286t197 201.5t288.5 73.5q78 0 148.5 -22.5t119 -57
t79.5 -65t50 -58.5h2v60q0 141 -51.5 256.5t-152 185.5t-232.5 70q-192 0 -348 -98zM666 254h4q85 0 156.5 57t113 139.5t55.5 174.5q-19 67 -96.5 133.5t-185.5 66.5q-123 0 -206 -90.5t-83 -220.5q0 -111 69 -185.5t173 -74.5z" />
    <glyph glyph-name="Delta" unicode="&#x2206;" horiz-adv-x="1703" 
d="M57 0v176l586 1362h424l575 -1362v-176h-1585zM434 260h809l-274 651q-12 34 -41 108t-52 135.5t-36 102.5h-11q-9 -30 -28 -82.5t-47 -128.5t-39 -106z" />
    <glyph glyph-name="product" unicode="&#x220f;" horiz-adv-x="1832" 
d="M1784 1219h-266v-1426h-340v1426h-527v-1426h-338v1426h-266v282h1737v-282z" />
    <glyph glyph-name="summation" unicode="&#x2211;" horiz-adv-x="1445" 
d="M1405 -207h-1356v189l602 657l-571 645v217h1276v-278h-797v-9l485 -538l-532 -590v-8h893v-285z" />
    <glyph glyph-name="minus" unicode="&#x2212;" horiz-adv-x="1228" 
d="M102 449v235h1024v-235h-1024z" />
    <glyph glyph-name="uni2215" unicode="&#x2215;" horiz-adv-x="446" 
d="M799 1536l-908 -1536h-245l907 1536h246z" />
    <glyph glyph-name="uni2219" unicode="&#x2219;" horiz-adv-x="737" 
d="M535 743v-356h-332v356h332z" />
    <glyph glyph-name="radical" unicode="&#x221a;" horiz-adv-x="1511" 
d="M1561 1792l-590 -2111h-271l-393 940l-182 -74l-57 166l438 180l276 -717q9 -29 28.5 -88t27.5 -86l4 -2q9 47 41 186l432 1606h246z" />
    <glyph glyph-name="infinity" unicode="&#x221e;" horiz-adv-x="1824" 
d="M1714 623v-2q0 -123 -55.5 -218t-142 -142.5t-185.5 -47.5q-105 0 -208 58.5t-214 203.5q-50 -62 -92 -104t-95 -81t-113 -58t-128 -19q-153 0 -264 111.5t-111 283.5q0 178 113.5 291t284.5 113q125 0 225.5 -64.5t196.5 -189.5q5 5 28.5 32t31.5 35.5t31.5 33.5t36 35
t37.5 30.5t42.5 30t44.5 23t51 19.5t53.5 10.5t60.5 4.5q159 -2 265 -109t106 -280zM504 387h2q45 0 88.5 18t85.5 55t68.5 66t66.5 76q-83 113 -120 150q-90 90 -199 90q-91 0 -150 -65t-59 -169q0 -91 62.5 -156t154.5 -65zM1325 842h-2q-28 0 -55 -7t-53.5 -23.5
t-46 -30.5t-45.5 -41t-38.5 -40.5t-38 -44.5t-32.5 -39q103 -130 172 -179.5t149 -49.5q89 0 143 69t54 152q0 104 -57 169t-150 65z" />
    <glyph glyph-name="integral" unicode="&#x222b;" horiz-adv-x="935" 
d="M913 1835l-34 -209q-48 19 -93 19q-84 0 -129 -60q-35 -44 -48 -126.5t-13 -225.5q0 -170 19.5 -494t19.5 -522q0 -273 -88 -424q-51 -88 -137 -130t-187 -42q-54 0 -112 11t-91 26l41 217q68 -25 113 -25q73 0 115 48q36 43 52.5 116t16.5 207q0 201 -20.5 533.5
t-20.5 513.5q0 185 36.5 300t117.5 193q52 52 129.5 77.5t161.5 25.5q81 0 151 -29z" />
    <glyph glyph-name="approxequal" unicode="&#x2248;" horiz-adv-x="1376" 
d="M1165 1016l121 -121q-74 -113 -163 -173t-185 -60q-71 0 -128 21t-153 73q-49 26 -69 36t-62 22.5t-80 12.5q-74 0 -128 -40.5t-119 -120.5l-119 120q59 99 162.5 164.5t214.5 65.5q77 0 135 -21.5t123 -60.5q60 -35 83.5 -47.5t59.5 -23.5t74 -11q66 0 121 40.5
t112 123.5zM1165 573l121 -120q-154 -232 -350 -232q-71 0 -129.5 21.5t-149.5 70.5q-48 27 -70.5 38.5t-62 23.5t-75.5 12q-41 0 -75.5 -12t-67 -39t-53.5 -50t-54 -63l-119 121q59 99 163 165t214 66q53 0 104.5 -13.5t79 -27t72.5 -38.5q10 -6 50 -29.5t56 -30.5
t48 -16.5t63 -9.5q68 0 120 38.5t115 124.5z" />
    <glyph glyph-name="notequal" unicode="&#x2260;" horiz-adv-x="1376" 
d="M1016 1143l-90 -197h334v-186h-414l-139 -299h553v-187h-633l-125 -272l-152 72l94 200h-327v187h407l138 299h-545v186h624l123 264z" />
    <glyph glyph-name="lessequal" unicode="&#x2264;" horiz-adv-x="1376" 
d="M1255 246l-1130 504v198l1128 502v-209l-927 -389v-4l929 -393v-209zM1260 -25h-1143v191h1143v-191z" />
    <glyph glyph-name="greaterequal" unicode="&#x2265;" horiz-adv-x="1376" 
d="M125 1450l1130 -504v-198l-1128 -502v209l928 391v6l-930 389v209zM1249 -25h-1130v191h1130v-191z" />
    <glyph glyph-name="lozenge" unicode="&#x25ca;" horiz-adv-x="1511" 
d="M1397 748l-514 -857h-262l-506 857l510 860h262zM1098 741l-299 527q-34 62 -45 98h-4q-11 -33 -45 -98l-295 -514l303 -529q29 -61 41 -94h6q30 68 43 92z" />
    </font>
</defs>
</svg>
