<?xml version="1.0" standalone="no"?>
<!DOCTYPE svg PUBLIC "-//W3C//DTD SVG 1.1//EN" "http://www.w3.org/Graphics/SVG/1.1/DTD/svg11.dtd" >
<svg xmlns="http://www.w3.org/2000/svg" xmlns:xlink="http://www.w3.org/1999/xlink" version="1.1">
<metadata>
Created by FontForge 20170731 at Thu May 27 15:01:29 2021
 By Aleksey,,,
Copyright (c) 1987, 1992, 1998, 2002 Adobe Systems Incorporated.  All Rights Reserved.(c) 1987, 1992, 1998, 2002 Heidelberger Druckmaschinen AG. All rights reserved.
</metadata>
<defs>
<font id="EurostileLTStd" horiz-adv-x="1413" >
  <font-face 
    font-family="Eurostile LT Std"
    font-weight="400"
    font-stretch="normal"
    units-per-em="2048"
    panose-1="2 11 5 4 2 2 2 5 2 4"
    ascent="1536"
    descent="-512"
    x-height="1075"
    cap-height="1536"
    bbox="-137 -512 2580 1982"
    underline-thickness="102"
    underline-position="-307"
    unicode-range="U+0020-FB02"
  />
<missing-glyph horiz-adv-x="1024" 
d="M0 0v1434h1024v-1434h-1024zM512 809l348 522h-696zM573 717l349 -522v1044zM164 102h696l-348 523zM102 1239v-1044l349 522z" />
    <glyph glyph-name="fi" unicode="fi" horiz-adv-x="1042" 
d="M903 1075v-1075h-162v1075h162zM342 1075h285v-131h-285v-944h-162v944h-164v131h164v129q0 197 74 270.5t272 73.5q35 0 101 -4v-131q-66 4 -101 4q-61 0 -97 -9.5t-55.5 -35.5t-25.5 -59.5t-6 -91.5v-146zM903 1536v-178h-162v178h162z" />
    <glyph glyph-name="fl" unicode="fl" horiz-adv-x="1050" 
d="M342 1075h285v-131h-285v-944h-162v944h-164v131h164v129q0 197 74 270.5t272 73.5q35 0 101 -4v-131q-66 4 -101 4q-61 0 -97 -9.5t-55.5 -35.5t-25.5 -59.5t-6 -91.5v-146zM911 1536v-1536h-161v1536h161z" />
    <glyph glyph-name=".notdef" horiz-adv-x="1024" 
d="M0 0v1434h1024v-1434h-1024zM512 809l348 522h-696zM573 717l349 -522v1044zM164 102h696l-348 523zM102 1239v-1044l349 522z" />
    <glyph glyph-name=".null" horiz-adv-x="0" 
 />
    <glyph glyph-name="nonmarkingreturn" horiz-adv-x="682" 
 />
    <glyph glyph-name="space" unicode=" " horiz-adv-x="706" 
 />
    <glyph glyph-name="exclam" unicode="!" horiz-adv-x="552" 
d="M373 209v-209h-183v209h183zM373 1536l-17 -1112h-149l-17 1112h183z" />
    <glyph glyph-name="quotedbl" unicode="&#x22;" horiz-adv-x="727" 
d="M104 1536h193v-227l-55 -277h-82l-56 277v227zM430 1536h193v-227l-56 -277h-82l-55 277v227z" />
    <glyph glyph-name="numbersign" unicode="#" 
d="M559 1536h158l-74 -418h254l72 418h161l-71 -418h188v-164h-219l-55 -333h207v-164h-240l-78 -457h-155l75 457h-252l-81 -457h-154l76 457h-205v164h235l56 333h-215v164h243zM616 954l-55 -333h252l55 333h-252z" />
    <glyph glyph-name="dollar" unicode="$" 
d="M641 852v541q-65 0 -96 -0.5t-79 -3.5t-70 -10t-53 -19.5t-43.5 -31.5t-27.5 -47t-19.5 -66t-4.5 -87q0 -60 9 -104.5t26.5 -74t43 -49.5t58.5 -29.5t72.5 -14t85.5 -4.5h98zM774 709v-566q65 0 105 1t86 5t72 12t54 22t42.5 34.5t27 50t17 67.5t4.5 89q0 81 -16.5 133.5
t-36 81.5t-75.5 44t-93.5 18t-130.5 6q-37 1 -56 2zM774 1393v-541q212 -4 289 -17q167 -27 234 -131q59 -91 59 -258q0 -84 -11.5 -148t-32.5 -111.5t-58 -80.5t-80 -53.5t-107.5 -32.5t-132 -16t-160.5 -4v-174h-133v174q-72 0 -120.5 1.5t-105 6t-93.5 13.5t-78 24
t-66.5 37t-50 53.5t-37.5 73t-21 95.5t-8 120v53h175v-53q0 -41 0.5 -65.5t4 -54t8.5 -45.5t16.5 -35.5t25.5 -29t37.5 -20.5t51.5 -15.5t68 -9t86 -5.5t107 -1v566q-88 1 -136.5 2.5t-118 9.5t-107.5 23t-83.5 43.5t-68 69.5t-38 102.5t-15.5 142.5q0 66 7.5 120t21 96
t36.5 74t48.5 55t64.5 39t76.5 26t91.5 15.5t103.5 7t117.5 1.5v143h133v-143q92 0 147 -2t121 -10t102.5 -23.5t75 -42.5t57 -68.5t30.5 -100t12 -136.5v-47h-174v47q0 39 -3 67.5t-8 53.5t-17 41.5t-24.5 30t-37 21.5t-47.5 13.5t-62.5 8t-77 3.5t-94.5 1z" />
    <glyph glyph-name="percent" unicode="%" horiz-adv-x="1810" 
d="M1642 270v226q0 113 -36.5 136t-180.5 23h-46.5t-38.5 -1.5t-33 -3t-25.5 -6t-21 -10l-14.5 -14.5t-11.5 -20t-6 -27t-4.5 -34.5t-1 -42.5v-226q0 -26 0.5 -46t4.5 -37t6.5 -29t11.5 -21.5t14.5 -15.5t21.5 -10t25 -6t33 -3.5t38.5 -1.5h46.5q41 0 59 0.5t46 2.5t39 6
t27.5 12.5t22 20t13 30t9 42.5t1.5 56zM1765 492v-226q-1 -74 -14.5 -123.5t-37 -80.5t-67 -47t-92.5 -21.5t-127 -5.5q-79 0 -126.5 5.5t-89.5 21t-63.5 46.5t-33.5 79.5t-14 123.5v225q2 62 9.5 106t25 75.5t40.5 50.5t62 29.5t81.5 14t106.5 3.5q79 0 128 -5t93 -21
t67.5 -46.5t37 -80t14.5 -123.5zM1497 1536l-1042 -1548h-138l1037 1548h143zM711 1272v-225q-1 -74 -14.5 -123.5t-37 -80.5t-67 -47.5t-92.5 -22t-127 -5.5q-65 0 -107.5 3.5t-82 13.5t-62.5 28.5t-41 49.5t-25.5 75t-9.5 106v226q2 62 9.5 106t25.5 75.5t40.5 50t62 29
t82 14t106.5 3.5q79 0 128 -5t93 -21t67.5 -46.5t37 -80t14.5 -123.5zM588 1051v225q0 24 -1 42.5t-4.5 34.5t-7 27t-12.5 20.5t-15.5 15t-22.5 9.5t-27.5 6t-35.5 3.5t-41 1.5h-50q-38 0 -57 -0.5t-45 -2.5t-36.5 -6t-25.5 -12t-19.5 -19t-10.5 -28.5t-7.5 -39t-1.5 -52.5
v-225q0 -33 1 -56t7.5 -42t11 -30.5t19.5 -20t25 -12.5t37 -6t44.5 -2.5t57.5 -0.5q41 0 59 0.5t46 2.5t39 6t27.5 12.5t22 20t13 30t9 42.5t1.5 56z" />
    <glyph glyph-name="ampersand" unicode="&#x26;" horiz-adv-x="1613" 
d="M1153 295l-600 493q-61 -14 -97 -24.5t-67 -28.5t-45 -36.5t-24 -54.5t-12.5 -75.5t-2.5 -105.5q0 -60 2.5 -100t11.5 -76t20 -57.5t36 -39.5t51 -26.5t73 -14t94 -7t122 -1.5q165 0 217 6q189 22 220 143q0 2 1 5zM1516 0l-228 188q-14 -33 -35.5 -60t-43 -46.5
t-55.5 -34.5t-59.5 -25t-69 -16.5t-71 -10t-79 -5.5t-78 -2h-82.5h-4q-67 0 -99.5 0.5t-90 3t-86 9t-74 18t-68.5 29.5t-54.5 43t-47 60.5t-32 80.5t-22.5 103.5t-6 129.5q0 123 14 198t56.5 116t75 54.5t112.5 34.5q12 4 18.5 5.5t17 4.5t19.5 5q-56 47 -82 79.5
t-41.5 85.5t-15.5 138q0 90 21 154t57.5 104.5t97.5 63.5t130 31.5t165 8.5q89 0 153 -9t120 -34t89.5 -68t52.5 -111.5t19 -164.5v-96h-174v96q-1 79 -9 120t-36.5 69.5t-77 36.5t-137.5 8q-43 0 -69 -1t-61.5 -5t-56.5 -12t-44.5 -23.5t-36 -37.5t-21 -54.5t-8.5 -75.5
q0 -79 22 -120t85 -95l598 -502q1 18 3 51.5t3 50.5q1 19 -1.5 56t-2.5 51h160q4 -82 4 -121q0 -120 -19 -215l279 -221z" />
    <glyph glyph-name="quotesingle" unicode="'" horiz-adv-x="391" 
d="M100 1536h193v-227l-55 -277h-82l-56 277v227z" />
    <glyph glyph-name="parenleft" unicode="(" horiz-adv-x="638" 
d="M512 1548v-153h-55q-31 0 -56 -8.5t-42.5 -26t-30 -36t-20 -48t-12.5 -51t-6.5 -56t-2 -52.5t-0.5 -50v-893q0 -32 0.5 -50t2 -52.5t6.5 -56t12.5 -51t20 -48t30 -36t42.5 -26t56 -8.5h55v-153h-55q-64 0 -114.5 13.5t-86 36.5t-62 59t-42 75t-24.5 90.5t-12 99t-3 107.5
v893q0 60 3 107.5t12 99t24.5 90.5t42 75t62 59t86 36.5t114.5 13.5h55z" />
    <glyph glyph-name="parenright" unicode=")" horiz-adv-x="638" 
d="M127 1395v153h55q64 0 114.5 -13.5t86 -36.5t62 -59t42 -75t24.5 -90.5t12 -99t3 -107.5v-893q0 -60 -3 -107.5t-12 -99t-24.5 -90.5t-42 -75t-62 -59t-86 -36.5t-114.5 -13.5h-55v153h55q31 0 56 8.5t42.5 26t30 36t20 48t12.5 51t6.5 56t2 52.5t0.5 50v893
q0 32 -0.5 50t-2 52.5t-6.5 56t-12.5 51t-20 48t-30 36t-42.5 26t-56 8.5h-55z" />
    <glyph glyph-name="asterisk" unicode="*" 
d="M1116 1206l-315 -114l188 -269l-90 -67l-190 276l-205 -276l-90 67l196 269l-313 118l39 111l315 -117v332h113v-332l313 117z" />
    <glyph glyph-name="plus" unicode="+" horiz-adv-x="1196" 
d="M522 1075h154v-418h418v-153h-418v-420h-154v420h-420v153h420v418z" />
    <glyph glyph-name="comma" unicode="," horiz-adv-x="706" 
d="M326 0h-78v209h182v-248q0 -45 -5.5 -76t-21.5 -59t-48.5 -41.5t-82.5 -13.5h-47v92q57 2 79 22t22 76v39z" />
    <glyph glyph-name="hyphen" unicode="-" horiz-adv-x="534" 
d="M0 637h535v-154h-535v154z" />
    <glyph glyph-name="period" unicode="." horiz-adv-x="706" 
d="M408 209v-209h-183v209h183z" />
    <glyph glyph-name="slash" unicode="/" horiz-adv-x="1488" 
d="M1432 1536l-1188 -1767h-187l1184 1767h191z" />
    <glyph glyph-name="zero" unicode="0" 
d="M705 1395q-100 0 -147 -1.5t-111 -8t-90 -23t-59 -43.5t-43.5 -72t-19 -106t-8.5 -148v-450q0 -87 8.5 -148t19 -106t43.5 -72t59 -43.5t90 -23t111 -8t147 -1.5q117 0 170 2t122 14t94 35.5t53 69.5t35 112.5t7 168.5v450q0 102 -7 168.5t-35 112.5t-53 69.5t-94 35.5
t-122 14t-170 2zM709 -12q-96 0 -165.5 3.5t-137 14t-113.5 28.5t-87.5 47t-67 70t-45.5 98t-29 129t-11 165v450q2 83 10 149t21.5 119.5t37 94t51 71.5t69 52t85.5 34.5t106 21t124.5 10.5t147.5 3q96 0 165.5 -3.5t137 -14t113 -28.5t87.5 -47.5t67.5 -70t45 -97.5
t28.5 -129t11 -165v-450q-2 -74 -8 -135t-18.5 -111.5t-28.5 -90t-42 -71t-54 -54.5t-68.5 -39.5t-83 -26.5t-100 -16.5t-115 -8.5t-133.5 -2z" />
    <glyph glyph-name="one" unicode="1" 
d="M918 1536v-1536h-175v1403l-393 -432l-108 104l424 461h252z" />
    <glyph glyph-name="two" unicode="2" 
d="M1253 154v-154h-1106v260q0 85 12 149.5t29 110.5t56.5 78.5t73 52.5t101.5 35t119.5 22t147.5 17q193 20 232 28q92 19 126 73q39 63 39 237q0 49 -2 86.5t-8 69.5t-12.5 55.5t-21 42.5t-27.5 31t-37 21.5t-45.5 14t-57.5 7.5t-67.5 3.5t-81.5 0.5q-76 0 -124 -1t-95 -7
t-72.5 -13.5t-49.5 -25t-33.5 -37.5t-17.5 -54.5t-9 -72t0 -94.5v-80h-175v80q0 70 3 116.5t12.5 96t26.5 80.5t46.5 61.5t71.5 47.5t101.5 31t137 19.5t177.5 5.5q159 0 256.5 -20.5t162.5 -76.5t90 -147.5t25 -240.5q0 -77 -6.5 -137t-22.5 -107.5t-36 -82t-55 -60.5
t-71.5 -43t-92.5 -29.5t-111.5 -19.5t-134.5 -13q-88 -7 -144 -14.5t-105.5 -21.5t-76 -32.5t-46.5 -49.5t-26.5 -70.5t-6.5 -97.5v-131h931z" />
    <glyph glyph-name="three" unicode="3" 
d="M563 711v153h182q144 3 183 11q78 16 106 80q23 55 23 163q0 51 -2 85t-10 65.5t-18.5 49.5t-34 33.5t-49.5 23t-71.5 13t-93 6.5t-121.5 1q-60 0 -99.5 -1.5t-77 -6.5t-60 -12.5t-43 -22.5t-30.5 -32.5t-18 -47t-11 -62t-5 -80.5v-65h-174v65q0 65 7.5 117.5t19.5 93.5
t34.5 72t46.5 53t61.5 37t72.5 24t87.5 13.5t98.5 6t113 1.5q211 -1 290 -16q150 -27 209 -129q52 -90 52 -254q0 -66 -4.5 -112.5t-20 -93.5t-42.5 -76.5t-74 -50t-113 -25.5v-5q87 -7 143 -30.5t87 -69t43 -104.5t12 -148q0 -94 -15 -165t-33.5 -119t-64.5 -79.5t-79 -48
t-107.5 -24.5t-118.5 -9t-142 -1h-38q-82 0 -142 3.5t-120.5 14.5t-102 29.5t-78.5 49t-58.5 73.5t-33 102t-10.5 135v103h174v-103q0 -38 1 -65.5t6.5 -52.5t10 -41.5t18.5 -31.5t25.5 -23.5t37 -16.5t46.5 -11t61.5 -6t73.5 -4t91 -2q93 3 160.5 -0.5t114.5 11t76 29
t45 54.5t21.5 88.5t5.5 129.5q0 55 -8.5 95.5t-19.5 68.5t-38 46t-47 27.5t-64 14.5t-72 5.5t-88 0.5h-5h-182z" />
    <glyph glyph-name="four" unicode="4" 
d="M1100 1536v-1032h223v-154h-223v-350h-174v350h-865v207l773 979h266zM926 504v919h-4l-717 -919h721z" />
    <glyph glyph-name="five" unicode="5" 
d="M340 1382v-458h4q26 43 74.5 71t114.5 39t112.5 14t112.5 3q79 0 144 -8.5t114.5 -22.5t88 -38t65.5 -50t46.5 -63t30.5 -71t17 -81.5t8 -88.5t2 -96q0 -125 -8.5 -208t-35.5 -146.5t-63.5 -98.5t-105.5 -56.5t-148 -28t-204 -6.5q-84 0 -143 2.5t-117 10t-96.5 20.5
t-74.5 35t-58 52t-39.5 73t-26.5 97t-13 125l-2 37h176v-51q0 -40 5 -71.5t12.5 -56.5t24 -43t32 -31t44 -21.5t52 -13.5t64.5 -7.5t73.5 -3t86.5 -0.5q71 0 120.5 2.5t92 11.5t69.5 20.5t48.5 35.5t32 49t17.5 69.5t9 89t2 113.5q0 86 -5.5 142t-23.5 99t-42 65.5t-72.5 37
t-103 18t-144.5 3.5q-13 0 -49.5 0.5t-57.5 0.5t-56.5 -2t-57.5 -7t-50.5 -15t-46 -25t-32 -38t-19.5 -53h-174v778h1044v-154h-870z" />
    <glyph glyph-name="six" unicode="6" 
d="M743 797q-70 0 -116 -1t-93.5 -5.5t-76 -12.5t-56.5 -21.5t-42.5 -33t-27 -47.5t-16.5 -63.5t-4 -82.5q0 -69 2 -113t9 -88t18 -69t32.5 -49t48.5 -35.5t70.5 -20.5t93.5 -11.5t122 -2.5q59 0 103.5 1.5t83.5 6.5t66.5 10t50 18t37 24t25.5 33.5t16 41.5t8.5 53.5t4 63
t0.5 76.5q0 80 -3 126t-17.5 87.5t-35.5 60.5t-65 33t-97 17.5t-141 3.5zM137 530v609q1 77 15 137.5t38 103.5t64 73.5t84 48.5t107.5 28.5t124.5 14t145 3.5h4q63 0 95.5 -1t90.5 -4.5t90.5 -13t77.5 -25.5t70 -42t50.5 -62t36.5 -88t11 -116v-49h-174v43q0 60 -17 100
t-38.5 61t-76 31t-94 11.5t-126.5 1.5q-187 0 -245 -12q-96 -18 -131 -89q-26 -54 -28 -155v-330h4q29 72 123.5 106.5t268.5 34.5q116 0 191 -5.5t145 -23.5t109.5 -49.5t70 -86t42 -131t11.5 -185.5q0 -105 -11 -179.5t-40 -129t-69 -87.5t-108 -52.5t-146.5 -26
t-194.5 -6.5t-192.5 7t-145.5 28t-109 57t-70 97.5t-41.5 146.5t-11.5 206z" />
    <glyph glyph-name="seven" unicode="7" 
d="M1249 1536v-219l-745 -1317h-205l807 1393h-977v143h1120z" />
    <glyph glyph-name="eight" unicode="8" 
d="M399 797v4q-63 11 -105.5 29.5t-70.5 44t-43 66.5t-20.5 89t-5.5 121q0 81 12 142t30.5 103.5t57 70.5t75.5 44.5t104 24.5t123 10t151 2q94 0 147.5 -2t121.5 -9.5t104.5 -23.5t77 -44t59.5 -70.5t32 -104t13 -143.5q0 -55 -2.5 -92.5t-11 -77.5t-25 -66t-43 -50.5
t-67 -40t-95.5 -25.5v-2q154 -24 208 -104t54 -269q0 -75 -6 -131t-21.5 -101.5t-36 -77t-56.5 -55t-75.5 -37t-100.5 -21.5t-124 -10.5t-153 -2.5q-221 0 -302 14q-146 24 -207 117q-65 99 -65 305q0 53 2 88.5t8 74.5t17.5 64.5t30.5 51.5t47.5 42.5t68.5 30t92 21.5z
M328 1151q0 -49 1.5 -79.5t8 -62.5t17 -50t30.5 -36.5t46.5 -27t67 -16t90 -9.5t118.5 -2q92 0 150 3.5t103.5 16.5t68 30t37 53t18 74.5t3.5 105.5q0 44 -1.5 71.5t-8.5 55.5t-17 43.5t-30.5 30.5t-46.5 22t-67.5 12.5t-90 7t-118.5 1.5q-95 0 -151 -2.5t-103 -13t-68 -24
t-36 -44.5t-18 -65t-3 -95zM307 424q0 -42 1 -68.5t4.5 -55.5t9 -45.5t17.5 -35t25.5 -28t38 -19.5t51 -14.5t67 -8.5t83 -5.5t103.5 -2.5q76 -1 130 2t98.5 10t72.5 22.5t48.5 36t30.5 52.5t14.5 69.5t4.5 90.5q0 69 -4.5 111t-21 77.5t-40.5 53.5t-72.5 30t-107.5 15.5
t-153 3.5q-56 0 -94.5 -1t-78 -3.5t-65 -7t-51 -13t-40 -19.5t-29 -28t-21 -37t-12.5 -48t-7.5 -60t-1.5 -74z" />
    <glyph glyph-name="nine" unicode="9" 
d="M715 750q74 0 119 1t91.5 7t71 13.5t48.5 25t34 38t18.5 55.5t10.5 74t2 97q0 71 -7 121.5t-16.5 88t-36.5 60t-49.5 36t-74 19.5t-91.5 7.5t-120 1.5q-103 0 -153 -1.5t-104 -13.5t-73 -30t-38 -59t-22 -92t-3 -138q0 -57 2.5 -97t12 -74t20.5 -55.5t35.5 -38t49 -25
t70 -14t89 -6.5t114.5 -1zM129 334v57h174v-57q0 -46 6 -76t26 -52.5t45.5 -34.5t77 -19t108 -9t149.5 -2q56 0 90.5 0.5t75 3.5t63.5 7.5t50 13.5t40.5 21t29.5 31t22.5 42.5t13 55.5t8.5 70t2 87v256l-4 4q-64 -140 -377 -137h-14q-98 0 -166 4.5t-132 16t-105 33.5
t-75 55.5t-52.5 84t-28 116.5t-9.5 155q0 81 6 142.5t21 111.5t35.5 85.5t55.5 62t75 42.5t99.5 26t123.5 13.5t152 3.5q116 0 194 -6.5t146 -26.5t108 -53t69 -88.5t40.5 -130.5t11.5 -182v-588q0 -103 -7.5 -171t-31 -126t-61.5 -91t-103.5 -56.5t-152.5 -32t-213 -8.5
q-94 0 -147 1.5t-125 8t-111 20t-84 38.5t-67 61.5t-37 91t-15 125.5z" />
    <glyph glyph-name="colon" unicode=":" horiz-adv-x="706" 
d="M408 209v-209h-183v209h183zM408 1075v-209h-183v209h183z" />
    <glyph glyph-name="semicolon" unicode=";" horiz-adv-x="706" 
d="M326 0h-78v209h182v-248q0 -45 -5.5 -76t-21.5 -59t-48.5 -41.5t-82.5 -13.5h-47v92q57 2 79 22t22 76v39zM430 1075v-209h-182v209h182z" />
    <glyph glyph-name="less" unicode="&#x3c;" horiz-adv-x="1196" 
d="M1094 991v-164l-809 -331l809 -332v-164l-992 424v143z" />
    <glyph glyph-name="equal" unicode="=" horiz-adv-x="1196" 
d="M102 817h992v-153h-992v153zM102 500h992v-154h-992v154z" />
    <glyph glyph-name="greater" unicode="&#x3e;" horiz-adv-x="1196" 
d="M1094 567v-143l-992 -424v164l801 332l-801 331v164z" />
    <glyph glyph-name="question" unicode="?" horiz-adv-x="1196" 
d="M612 438h-174v56q0 51 4.5 87t19 67t33 52t54.5 42.5t75 38.5t103 40q50 20 73.5 30.5t50 29.5t35.5 36t19 50t11.5 71t1.5 101q0 59 -5 98.5t-19.5 69.5t-34.5 46t-58 26t-80.5 13t-110.5 3q-55 0 -88 -1t-71 -5t-58.5 -11t-42.5 -20t-32.5 -31t-20.5 -45t-13 -61.5
t-3 -81.5v-88h-164v88q2 80 13 140.5t29.5 104.5t51 73.5t67.5 47.5t91 27.5t109 12.5t132 3q106 0 179 -10.5t131.5 -37t92 -73.5t51 -117t17.5 -171q0 -60 -2 -99.5t-8 -83.5t-17.5 -73.5t-31 -60.5t-48 -54t-68.5 -44.5t-93 -39.5q-41 -14 -59 -20.5t-44.5 -17t-36 -16.5
t-24.5 -17.5t-19 -21t-10 -25t-7 -32t-1 -40.5v-56zM616 209v-209h-182v209h182z" />
    <glyph glyph-name="at" unicode="@" horiz-adv-x="2027" 
d="M1319 1126h145l-182 -573q-13 -44 15 -67t96 -23q69 0 125.5 45t90.5 114.5t52 147.5t18 152q0 89 -38 168.5t-101.5 138t-145 101.5t-172 64.5t-178.5 20.5q-134 -1 -262 -61t-221.5 -157t-149.5 -227t-53 -265q7 -168 99 -303t238 -208t315 -73q158 2 344 61l51 -119
q-197 -72 -391 -75q-126 -2 -246.5 30.5t-222.5 97t-179 152.5t-120 205.5t-41 247.5q7 218 124 409t308 304.5t405 113.5q108 0 218 -25.5t211 -77.5t179.5 -123.5t125.5 -171.5t47 -214q0 -83 -20 -167t-61 -161t-97 -137t-133.5 -95.5t-165.5 -35.5q-78 0 -134.5 30.5
t-66.5 102.5q-65 -65 -117.5 -97t-126.5 -32q-90 -4 -160 45.5t-104 128t-31 166.5q7 119 64.5 226.5t158 179t220.5 77.5q73 5 142 -41.5t87 -115.5h4zM1217 911q-6 63 -50 98t-108 35q-65 0 -121.5 -34.5t-93 -89t-59 -118t-25.5 -124.5q-2 -81 51 -150t133 -69
q64 0 120 51t89.5 123.5t51 148t12.5 129.5z" />
    <glyph glyph-name="A" unicode="A" horiz-adv-x="1402" 
d="M1090 326h-777l-118 -326h-183l559 1536h246l574 -1536h-181zM1040 469l-342 924l-338 -924h680z" />
    <glyph glyph-name="B" unicode="B" horiz-adv-x="1421" 
d="M299 713v-559h551q52 0 86.5 3t69.5 11.5t55.5 26t37.5 46t24 70.5t7 101q0 84 -8.5 134.5t-35.5 92t-79 58.5t-137 16h-571zM942 0h-817v1536h778q107 0 177.5 -25t109.5 -78.5t54.5 -125t15.5 -177.5q0 -65 -8 -112t-28.5 -89.5t-59 -72.5t-97.5 -49v-4
q60 -11 103.5 -35.5t69 -57t40.5 -79.5t20 -94t5 -109q0 -213 -86.5 -320.5t-276.5 -107.5zM299 1382v-516h506q83 0 132.5 11t85 42.5t49 87t13.5 146.5q0 62 -10.5 103.5t-28.5 66.5t-53 38t-72 17t-98 4h-524z" />
    <glyph glyph-name="C" unicode="C" horiz-adv-x="1361" 
d="M784 -12h-245q-211 0 -329 126.5t-118 356.5v594q0 91 16.5 163t44.5 122.5t74.5 86.5t96 57.5t120 33.5t136 16t153.5 4h144q120 0 201 -26t129 -82t68.5 -136.5t20.5 -197.5v-49h-174v43q0 85 -10.5 137.5t-40 90t-82 52.5t-137.5 15h-98q-96 0 -161.5 -4.5t-124.5 -17
t-94 -35t-61 -59t-36.5 -87t-10.5 -121.5v-422q0 -67 1 -110t4 -94.5t9.5 -83t17 -67.5t26.5 -57t38.5 -41.5t52.5 -31t69 -17t87 -6.5h207q89 0 146 6t102.5 21.5t69 45.5t35.5 74t12 111v123h174v-143q0 -74 -14 -132.5t-37.5 -99t-62 -70t-80 -46.5t-100 -27t-112.5 -13
t-127 -3z" />
    <glyph glyph-name="D" unicode="D" horiz-adv-x="1503" 
d="M131 0v1536h748q38 0 67.5 -1.5t73.5 -8t78.5 -18t76 -33t73 -51t62.5 -75t50.5 -102t32 -134t12.5 -169.5v-366q0 -31 -1.5 -60t-7 -74t-15 -84t-27.5 -85.5t-42 -84t-61.5 -74t-83.5 -61.5t-109.5 -40t-137.5 -15h-789zM305 154h574q90 0 154 22t101.5 58t59 97
t29 123.5t8.5 153.5v404q0 22 -2.5 47.5t-11 63t-22 71.5t-38.5 69t-57.5 60.5t-82.5 42t-110 16.5h-602v-1228z" />
    <glyph glyph-name="E" unicode="E" horiz-adv-x="1146" 
d="M258 1382v-522h778v-143h-778v-563h813v-154h-987v1536h987v-154h-813z" />
    <glyph glyph-name="F" unicode="F" horiz-adv-x="1124" 
d="M307 1382v-536h748v-144h-748v-702h-174v1536h942v-154h-768z" />
    <glyph glyph-name="G" unicode="G" horiz-adv-x="1425" 
d="M694 768h664v-334q0 -108 -20 -185t-58.5 -127.5t-102.5 -80t-142 -41.5t-187 -12h-168q-110 0 -187 8t-147.5 29.5t-115 60t-78 99.5t-48 148t-14.5 206v475q0 122 22 215t61 153t96.5 97.5t123.5 53t148 15.5h403q186 0 298 -83t112 -259v-119h-174v89q0 131 -65.5 175
t-254.5 44h-215q-65 0 -112 -3t-87.5 -12.5t-67 -22.5t-48 -37t-33.5 -52t-20 -71t-10.5 -90t-2.5 -114v-493q0 -111 19 -180t67 -109.5t117 -55t182 -14.5h164q81 0 134 3.5t97.5 15.5t69 30t41.5 51.5t23 76t6 106.5v190h-490v154z" />
    <glyph glyph-name="H" unicode="H" horiz-adv-x="1536" 
d="M1393 1536v-1536h-174v707h-900v-707h-174v1536h174v-676h900v676h174z" />
    <glyph glyph-name="I" unicode="I" horiz-adv-x="466" 
d="M322 1536v-1536h-175v1536h175z" />
    <glyph glyph-name="J" unicode="J" horiz-adv-x="1157" 
d="M838 1536h172v-1165q0 -90 -23 -157.5t-62 -110t-99.5 -69t-128 -36.5t-154.5 -10q-62 0 -111 3t-101 12.5t-90.5 25t-74 42t-58.5 62.5t-36 86.5t-13 114.5v225h174v-174q0 -62 5.5 -99t21.5 -68t48 -46.5t80.5 -23t123.5 -7.5h53t51 2t51 5.5t44.5 10.5t41.5 17
t33.5 25.5t27.5 35.5t15.5 48t6.5 61z" />
    <glyph glyph-name="K" unicode="K" horiz-adv-x="1388" 
d="M322 1536v-672h151l627 672h227l-702 -743l786 -793h-235l-703 711h-151v-711h-175v1536h175z" />
    <glyph glyph-name="L" unicode="L" horiz-adv-x="1142" 
d="M328 1536v-1382h782v-154h-956v1536h174z" />
    <glyph glyph-name="M" unicode="M" horiz-adv-x="1976" 
d="M1655 1405l-580 -1405h-172l-581 1405h-5v-1405h-174v1536h301l543 -1315l545 1315h301v-1536h-174v1405h-4z" />
    <glyph glyph-name="N" unicode="N" horiz-adv-x="1603" 
d="M1464 1536v-1536h-284l-863 1393h-4v-1393h-174v1536h287l860 -1403h4v1403h174z" />
    <glyph glyph-name="O" unicode="O" horiz-adv-x="1374" 
d="M584 1548h207q146 -2 240 -28t153 -88t82.5 -157t23.5 -243v-547q0 -273 -111.5 -385t-387.5 -112h-207q-276 0 -388 112.5t-112 384.5v547q0 118 15.5 201.5t50 145t93.5 97.5t141.5 53.5t199.5 18.5zM791 1395h-207q-101 0 -160.5 -14t-98.5 -55.5t-53 -110t-14 -183.5
v-547q0 -76 8 -131t27 -93t43 -61.5t64 -36.5t81 -17t103 -5h207q62 1 103 5t81 17t63.5 36.5t42.5 61.5t27 93t8 131v547q0 115 -14 183t-52.5 110t-98 56t-160.5 14z" />
    <glyph glyph-name="P" unicode="P" horiz-adv-x="1353" 
d="M121 0v1536h782q108 0 182 -34.5t113.5 -100.5t55.5 -145t16 -185q0 -42 -1 -70t-8.5 -82.5t-20.5 -92t-41 -84t-66.5 -75.5t-99.5 -49t-138 -20h-600v-598h-174zM827 1382h-532v-630h450q153 0 205 13q89 22 121 104q25 64 25 180q0 76 -4.5 127.5t-18 90t-31 60
t-50.5 34.5t-70 17t-95 4z" />
    <glyph glyph-name="Q" unicode="Q" horiz-adv-x="1509" 
d="M1503 188l-71 -118l-115 77q-71 -87 -182 -123t-263 -36h-239q-109 0 -190.5 14.5t-141 46.5t-97.5 77t-61 113.5t-32 148t-9 187.5v435q0 284 121 406.5t410 131.5h239q296 0 415.5 -120t119.5 -418v-435q0 -107 -6.5 -175t-26.5 -126zM778 668l443 -291q12 33 12 121
v571q0 77 -12.5 131.5t-46.5 101t-100.5 70t-166.5 23.5h-293q-193 0 -265.5 -77.5t-72.5 -273.5v-499q0 -87 6.5 -148.5t23.5 -107.5t41 -74t64 -45t87.5 -23t115.5 -6h293q204 0 271 97l-480 311z" />
    <glyph glyph-name="R" unicode="R" horiz-adv-x="1435" 
d="M315 614v-614h-174v1536h709q130 0 215.5 -20t146.5 -70t88 -135.5t27 -216.5q0 -73 -4.5 -122.5t-20 -103t-43.5 -87t-78.5 -59t-121.5 -34.5v-4q248 -17 248 -276v-408h-174v326q0 155 -53.5 221.5t-205.5 66.5h-559zM315 768h537q68 2 115.5 10t81.5 27t54 42.5
t31.5 65t15 86t3.5 113.5q0 54 -3 88.5t-14 68.5t-31 52.5t-53.5 33.5t-82 21t-117.5 6h-537v-614z" />
    <glyph glyph-name="S" unicode="S" horiz-adv-x="1288" 
d="M637 709q-35 3 -104 7q-72 4 -107.5 7t-94 13t-88 25t-68 43t-56.5 67t-31.5 97.5t-13.5 133.5q0 77 8.5 137t27.5 105.5t43 78.5t63 55.5t78.5 36.5t98.5 21t114 9.5t134 2.5q86 0 137.5 -2t119.5 -10.5t107 -25.5t82 -48.5t64.5 -77t34 -113t8.5 -155.5h-174
q-2 53 -5 89t-13.5 67.5t-20.5 50t-35 33.5t-47.5 21.5t-67.5 11t-85.5 5.5t-110.5 1q-106 0 -171.5 -7t-111 -21.5t-66.5 -46t-29.5 -72t-8.5 -109.5q0 -167 69 -223q52 -42 182 -49q32 -2 106 -3q45 -1 69 -2q217 -12 277 -22q141 -23 201 -99q71 -91 71 -305
q0 -92 -14 -161.5t-34.5 -117.5t-64 -79.5t-82.5 -49.5t-111.5 -27t-129.5 -11t-156 -2q-92 0 -156.5 4t-131 16t-109 33.5t-80 57.5t-56.5 88t-27 125t-1 167h174q-1 -52 0 -91.5t8 -73.5t11.5 -57.5t22 -42.5t27.5 -31t40.5 -20.5t48.5 -12.5t64 -6.5t74 -2.5h91t92 0.5
t76.5 2t67 5.5t52.5 11.5t45 18t31.5 27.5t26 38.5t15 51t10.5 65t2 81.5q0 44 -4.5 78t-11 60t-20.5 44.5t-27.5 31t-37.5 21t-44.5 13t-54 7t-61.5 4t-71.5 3.5t-79.5 5z" />
    <glyph glyph-name="T" unicode="T" horiz-adv-x="1185" 
d="M680 1382v-1382h-174v1382h-498v154h1170v-154h-498z" />
    <glyph glyph-name="U" unicode="U" horiz-adv-x="1509" 
d="M1190 1536h174v-1106q0 -68 -9.5 -123.5t-25 -98.5t-43 -76t-56.5 -56t-72 -39.5t-83 -25.5t-96.5 -14.5t-105.5 -7t-117 -1.5q-90 0 -141 1.5t-125 10t-116 25.5t-91.5 49t-75 78.5t-43 116.5t-17.5 161v1106h175v-1106q0 -66 5.5 -108.5t24 -77t46 -53t80 -31t116 -16
t162.5 -3.5q83 0 123 1t97 6t82 16.5t57 31.5t44.5 51.5t21.5 76t9 106.5v1106z" />
    <glyph glyph-name="V" unicode="V" horiz-adv-x="1316" 
d="M1143 1536h186l-545 -1536h-247l-549 1536h186l483 -1403h7z" />
    <glyph glyph-name="W" unicode="W" horiz-adv-x="2299" 
d="M2296 1536l-484 -1536h-264l-401 1382h-4l-408 -1382h-260l-471 1536h178l418 -1403h4l414 1403h256l409 -1403h5l428 1403h180z" />
    <glyph glyph-name="X" unicode="X" horiz-adv-x="1337" 
d="M1313 1536l-492 -741l529 -795h-205l-467 707l-477 -707h-213l549 795l-504 741h209l436 -657l430 657h205z" />
    <glyph glyph-name="Y" unicode="Y" horiz-adv-x="1294" 
d="M1307 1536l-582 -895v-641h-174v641l-563 895h202l455 -719l455 719h207z" />
    <glyph glyph-name="Z" unicode="Z" horiz-adv-x="1304" 
d="M1231 1536v-162l-967 -1220h987v-154h-1198v152l965 1230h-936v154h1149z" />
    <glyph glyph-name="bracketleft" unicode="[" horiz-adv-x="636" 
d="M113 1548h397v-153h-223v-1549h223v-153h-397v1855z" />
    <glyph glyph-name="backslash" unicode="\" horiz-adv-x="569" 
d="M485 -231l-587 1767h190l584 -1767h-187z" />
    <glyph glyph-name="bracketright" unicode="]" horiz-adv-x="636" 
d="M524 -307h-397v153h223v1549h-223v153h397v-1855z" />
    <glyph glyph-name="asciicircum" unicode="^" horiz-adv-x="1196" 
d="M526 1536h144l424 -1001h-164l-332 800l-332 -800h-164z" />
    <glyph glyph-name="underscore" unicode="_" horiz-adv-x="1024" 
d="M1024 -154v-102h-1024v102h1024z" />
    <glyph glyph-name="grave" unicode="`" horiz-adv-x="692" 
d="M236 1522l303 -232l-54 -84l-331 205z" />
    <glyph glyph-name="a" unicode="a" horiz-adv-x="1167" 
d="M539 119q34 0 54 0.5t51.5 2t51 5.5t45.5 11t41.5 16.5t33 25t27 35t15.5 46t6 58.5q0 59 -16 98t-36.5 59.5t-69.5 30.5t-84.5 11.5t-112.5 1.5h-6q-47 0 -76.5 -1t-61.5 -5t-50.5 -12t-36.5 -21.5t-26.5 -33.5t-14 -48t-5.5 -65q0 -38 3.5 -68t13 -52t20 -38t30 -26.5
t37 -16.5t47 -9t55 -4t65.5 -1zM1030 0h-162v111l-4 4q-15 -30 -37.5 -52t-52.5 -35.5t-58.5 -22t-68.5 -12t-67.5 -4.5t-69.5 -1q-79 0 -136 6.5t-112 27t-88.5 55.5t-53.5 94.5t-20 141.5q0 73 12 128t38.5 92t59.5 60.5t83.5 36t102.5 17t124 4.5q313 0 338 -108h10v198
q0 42 -6.5 74t-18 55t-31.5 38.5t-41 25t-53 14.5t-62.5 6.5t-73.5 1.5q-37 0 -56.5 -0.5t-54.5 -3t-54.5 -8t-45 -16t-38.5 -26t-22.5 -39t-9.5 -54.5v-37h-168v23q0 58 12 103t31 76t51.5 52.5t65 33.5t81 18.5t89.5 7.5t100 1q93 1 154 -4t126 -25.5t102.5 -57.5
t61.5 -104t23 -163v-733z" />
    <glyph glyph-name="b" unicode="b" horiz-adv-x="1175" 
d="M903 537q0 94 -4 154t-16 110.5t-31.5 77.5t-54.5 46t-79.5 25t-111.5 6q-61 0 -106 -8t-77.5 -21t-54 -40t-34.5 -55t-19 -78t-8 -96t-2 -121q0 -107 9 -177.5t28 -119.5t56 -74.5t85 -36t123 -10.5q43 0 78 3.5t63 12t49.5 18.5t38 28.5t27.5 35.5t19 46t12 53
t6.5 64.5t3 72.5t0.5 84zM139 0v1536h162v-600h4q15 39 44.5 68t63 44.5t78.5 24.5t80.5 11.5t79.5 2.5q78 0 140 -13.5t106 -36.5t75 -61.5t50.5 -80.5t30.5 -102.5t14.5 -119t3.5 -136.5q0 -82 -3.5 -141.5t-14.5 -120t-30 -102t-50 -79t-75.5 -59.5t-106 -34.5
t-140.5 -12.5q-274 0 -346 143l-4 -4v-127h-162z" />
    <glyph glyph-name="c" unicode="c" horiz-adv-x="1118" 
d="M872 389h162v-59q0 -64 -12 -114.5t-33 -86t-54.5 -61.5t-69.5 -41t-85 -24t-95.5 -12t-106.5 -3q-74 0 -133.5 7t-106.5 18.5t-82 34t-60.5 46.5t-43 63t-28 76t-16 93.5t-7 107.5t-1.5 125q0 94 6.5 161.5t24 130.5t49 104t81.5 72.5t121.5 45.5t168.5 14
q63 0 108.5 -2.5t97 -10.5t87.5 -22t70.5 -39t55.5 -59.5t33.5 -85t12.5 -114.5v-29h-162v33q0 32 -4.5 58t-10.5 45.5t-20 34.5t-25.5 25t-34 16.5t-39.5 10.5t-47.5 5.5t-52 2t-59.5 0.5q-63 0 -107 -7.5t-76.5 -18.5t-52.5 -41t-32 -55.5t-17 -83t-6.5 -102.5t-1.5 -134
q0 -88 2.5 -135.5t13 -100t30.5 -76.5t57 -46.5t91 -29.5t134 -7q67 0 107.5 4t76.5 16t54 36.5t28 63t10 97.5v53z" />
    <glyph glyph-name="d" unicode="d" horiz-adv-x="1175" 
d="M573 119q65 0 110 7.5t79.5 27.5t55 49t33 78.5t17 109t4.5 146.5q0 68 -2.5 116.5t-10.5 95t-22 77.5t-35.5 57.5t-53.5 41.5t-75 23t-100 8q-67 0 -109 -4.5t-79.5 -20.5t-57.5 -42.5t-34.5 -75.5t-19.5 -114t-5 -162q0 -81 5 -140.5t14.5 -105t28 -75.5t40 -49.5
t56.5 -30t71 -14t90 -3.5zM872 0v135l-4 4q-43 -88 -130.5 -119.5t-215.5 -31.5q-81 0 -144 14t-107 37t-75.5 62.5t-50 81t-29 102.5t-13.5 117.5t-3 134.5q0 77 3 133t13.5 117t28.5 103t49.5 82t75.5 63.5t107.5 37.5t144.5 14q294 0 346 -145h4v594h162v-1536h-162z" />
    <glyph glyph-name="e" unicode="e" horiz-adv-x="1157" 
d="M883 326h166v-39q0 -52 -9.5 -94.5t-29 -72.5t-42.5 -52.5t-59 -37t-68 -23t-79 -13t-83 -5.5t-89 -1q-106 0 -181.5 11.5t-130.5 40.5t-88 68t-52 105t-25.5 140t-6.5 184q0 115 9 196t31.5 144.5t57 102t90.5 63.5t126 34.5t170 9.5q91 0 155 -7.5t118 -28t87.5 -54
t56.5 -87.5t32.5 -126.5t9.5 -173.5v-108h-775q0 -94 2.5 -147.5t15 -102t31 -70.5t57 -38.5t85.5 -20.5t125 -4q74 0 116.5 3t81 11.5t57 27.5t28.5 48.5t10 75.5v41zM274 633h607q-2 81 -6.5 130.5t-18.5 88.5t-30.5 57.5t-53.5 30t-75 14t-107 2.5q-45 0 -80 -2t-64 -8
t-51 -12.5t-39.5 -20.5t-29 -25.5t-20.5 -34.5t-14 -40.5t-8.5 -51t-5.5 -59t-4 -69.5z" />
    <glyph glyph-name="f" unicode="f" horiz-adv-x="618" 
d="M342 1075h285v-131h-285v-944h-162v944h-164v131h164v129q0 197 74 270.5t272 73.5q35 0 101 -4v-131q-66 4 -101 4q-61 0 -97 -9.5t-55.5 -35.5t-25.5 -59.5t-6 -91.5v-146z" />
    <glyph glyph-name="g" unicode="g" horiz-adv-x="1173" 
d="M567 119q65 0 115 12t83 28t55.5 50.5t34 61t17 80t6.5 86.5t1 100q0 63 -1.5 104.5t-6.5 86.5t-14 73.5t-25 57t-38.5 44.5t-55 29t-74.5 18.5t-97 5.5t-97.5 -5t-73.5 -21t-52 -29.5t-35 -46.5t-21.5 -55t-11 -72t-4 -81t-0.5 -98v-11q0 -171 6 -217q15 -116 88 -160
q67 -41 201 -41zM1040 1075v-1202q0 -84 -25 -146.5t-66 -101t-103.5 -62t-129 -32t-149.5 -8.5q-84 0 -143.5 6.5t-119.5 27.5t-95.5 58t-56 102t-15.5 156h162q0 -44 6.5 -77.5t16.5 -56.5t29.5 -39t38.5 -25t50 -13.5t58 -6t69 -1.5q65 0 107 3.5t84.5 17t66 38
t38.5 67.5t16 105v248h-5q-16 -46 -53.5 -77t-90.5 -45t-99 -18.5t-103 -4.5q-104 0 -178 22.5t-121.5 64t-75.5 111t-38.5 152t-10.5 199.5q0 97 6 166t22 135t45.5 109t76 76.5t115 48.5t159.5 15q63 0 110 -5.5t94.5 -20.5t83 -45.5t58.5 -77.5l5 2v135h161z" />
    <glyph glyph-name="h" unicode="h" horiz-adv-x="1187" 
d="M303 1536v-592h4q18 46 54.5 76.5t86.5 44t93 18t98 4.5q109 0 181.5 -16t125.5 -57.5t76 -114.5t22 -184v-715h-161v727q0 74 -14 119t-48 69.5t-78 32.5t-118 8q-67 0 -115.5 -7t-85 -23.5t-59.5 -40.5t-37 -62.5t-19.5 -84.5t-5.5 -111v-627h-162v1536h162z" />
    <glyph glyph-name="i" unicode="i" horiz-adv-x="440" 
d="M301 1075v-1075h-162v1075h162zM301 1536v-178h-162v178h162z" />
    <glyph glyph-name="j" unicode="j" horiz-adv-x="428" 
d="M301 1075v-1204q-2 -57 -7 -95.5t-19 -80.5t-38.5 -66.5t-66 -40.5t-100.5 -16q-35 0 -80 10v125q5 0 16.5 -1t16.5 -1q19 0 35 3.5t27.5 9t20.5 16t14.5 19t9.5 24t6 26t3 29.5t1 29.5t-0.5 32t-0.5 30.5v1151h162zM301 1536v-178h-162v178h162z" />
    <glyph glyph-name="k" unicode="k" horiz-adv-x="997" 
d="M301 1536v-889h66l387 428h198l-460 -493l544 -582h-213l-456 516h-66v-516h-162v1536h162z" />
    <glyph glyph-name="l" unicode="l" horiz-adv-x="438" 
d="M301 1536v-1536h-162v1536h162z" />
    <glyph glyph-name="m" unicode="m" horiz-adv-x="1882" 
d="M297 1075v-166h4q39 95 138.5 136.5t219.5 41.5q53 0 102 -8.5t97.5 -27.5t84 -55.5t48.5 -86.5q90 178 383 178q204 0 288.5 -88t84.5 -290v-709h-162v692q0 75 -7.5 119t-31.5 80t-71 50.5t-125 14.5q-177 0 -252.5 -64t-75.5 -233v-659h-162v721q-4 105 -18 141
q-27 70 -126 87q-41 7 -95 7q-163 0 -243.5 -74t-80.5 -235v-647h-162v1075h162z" />
    <glyph glyph-name="n" unicode="n" horiz-adv-x="1187" 
d="M303 1075v-131h4q18 46 54.5 76.5t86.5 44t93 18t98 4.5q109 0 181.5 -16t125.5 -57.5t76 -114.5t22 -184v-715h-161v727q0 74 -14 119t-48 69.5t-78 32.5t-118 8q-67 0 -115.5 -7t-85 -23.5t-59.5 -40.5t-37 -62.5t-19.5 -84.5t-5.5 -111v-627h-162v1075h162z" />
    <glyph glyph-name="o" unicode="o" horiz-adv-x="1167" 
d="M106 537q0 119 7.5 199.5t28.5 145t53 101.5t88 62t126.5 33.5t174.5 8.5t174.5 -8.5t126 -33.5t88 -62t53.5 -102t28 -145t7 -199t-7 -198.5t-28 -144.5t-53.5 -102t-88 -62t-126 -33.5t-174.5 -8.5t-174.5 8.5t-126.5 33.5t-88 62t-53 101.5t-28.5 145t-7.5 198.5z
M274 537q0 -77 1 -125.5t7 -97t14 -74.5t25 -51.5t37.5 -36t55.5 -20t73.5 -11.5t96.5 -2t96.5 2t73.5 11.5t55 20t37.5 36t25 51.5t13.5 75t7 96.5t1 125.5t-1 126t-7 97t-13.5 75t-25 51.5t-37.5 36.5t-55 20t-73.5 11t-96.5 2t-96.5 -2t-73.5 -11t-55.5 -20t-38 -36.5
t-25 -51.5t-13.5 -74.5t-7 -97t-1 -126.5z" />
    <glyph glyph-name="p" unicode="p" horiz-adv-x="1173" 
d="M602 956q-46 0 -83 -3.5t-66 -13.5t-51.5 -19t-39 -30.5t-27.5 -35.5t-18.5 -47t-11.5 -53t-5.5 -64.5t-2 -71t-0.5 -81.5q0 -48 1 -81.5t4.5 -73.5t9.5 -66.5t17 -57t27 -49.5t38.5 -38t52.5 -29t68.5 -16.5t86.5 -6.5q65 0 109 6.5t79 25t54.5 46.5t32.5 77.5
t17.5 110.5t4.5 152q0 67 -1.5 111t-6.5 90t-13.5 73.5t-24 55t-37 42t-52.5 26.5t-70.5 16.5t-91.5 4.5zM297 1075v-131l4 -4q79 147 346 147q64 0 117 -8.5t93.5 -23t72 -39.5t53.5 -51.5t37.5 -66t24.5 -75.5t14 -87t6.5 -95t1.5 -104q0 -162 -21 -266t-71.5 -168
t-128.5 -89.5t-199 -25.5q-55 0 -99 4.5t-95.5 17.5t-90.5 43t-61 74h-4v-592h-162v1540h162z" />
    <glyph glyph-name="q" unicode="q" horiz-adv-x="1177" 
d="M582 119q51 0 91 6t70 20.5t51.5 31.5t36 46.5t23 58t13 73t6 84t1.5 98.5t-1 94t-4 79.5t-9 69.5t-17 55t-27.5 46t-40 33t-55 24.5t-72 12.5t-91.5 5q-59 0 -97 -5t-72.5 -21t-54 -43.5t-34 -75t-20 -113.5t-5.5 -161q0 -78 1.5 -119t7 -94t18 -79t34 -55.5t55 -41.5
t80.5 -20.5t112 -8.5zM1040 1075v-1540h-161v588h-5q-58 -135 -315 -135q-86 0 -147 8.5t-114.5 31t-87.5 61.5t-58.5 100t-35 146.5t-10.5 201.5q0 83 3.5 142t15 120.5t31.5 102.5t53.5 79t81.5 59.5t114.5 34t153.5 12.5q241 0 315 -145l5 4v129h161z" />
    <glyph glyph-name="r" unicode="r" horiz-adv-x="905" 
d="M119 1075h157l-8 -133l4 -4q69 149 306 149q154 0 226.5 -75.5t72.5 -227.5v-77h-154v71q0 100 -39.5 139t-140.5 39q-146 0 -205.5 -69.5t-56.5 -216.5v-670h-162v1075z" />
    <glyph glyph-name="s" unicode="s" horiz-adv-x="1099" 
d="M991 836v-41h-168v41q0 20 -3 35.5t-12.5 27t-18 19t-28.5 13t-33.5 8t-43.5 4t-49 1.5h-59h-5q-164 0 -212 -11q-70 -17 -84 -77q-5 -18 -5 -43q0 -124 34 -152t149 -32q25 -1 39 -2q35 -2 102 -4q66 -2 98.5 -4t86.5 -9.5t81.5 -19.5t64 -35t53.5 -56t29.5 -82.5
t12.5 -113.5q0 -56 -9 -100.5t-28 -76.5t-41 -55.5t-57 -38.5t-65.5 -24t-77.5 -13.5t-82 -5.5t-89 -1q-60 0 -101 1.5t-95 7t-90.5 15t-75.5 28.5t-62 45t-38 65.5t-15 89.5v100h168v-84q0 -76 61.5 -100.5t247.5 -24.5q10 0 38 -0.5t42.5 -0.5t41 1.5t42 6t36.5 12
t33.5 20t24.5 29.5t17.5 42t5.5 56q0 38 -4.5 65t-11 45.5t-22 30.5t-28.5 18t-40 9t-47.5 3.5t-59.5 1.5t-68 3q-25 2 -73 4q-82 4 -123 8t-103.5 21t-92.5 46t-53.5 84t-23.5 134q0 66 12 115.5t29 83.5t53 56.5t67 34.5t89 18.5t100 7.5t119 1q38 0 64 -0.5t64.5 -3
t64.5 -7t59 -13.5t55 -21.5t45 -32t37 -43.5t22.5 -57t8.5 -73z" />
    <glyph glyph-name="t" unicode="t" horiz-adv-x="749" 
d="M709 1075v-131h-416v-682q1 -87 31 -115t120 -28q32 0 56.5 5.5t40.5 12.5t26.5 22t16.5 27t8.5 35t3 37t0.5 43v80h154v-80q0 -162 -73 -237.5t-237 -75.5q-77 0 -129 10t-88.5 31t-56 60t-27.5 91t-8 131v633h-143v131h143v260h162v-260h416z" />
    <glyph glyph-name="u" unicode="u" horiz-adv-x="1167" 
d="M860 0v143h-4q-21 -47 -56 -79t-81.5 -48t-93 -22t-105.5 -6q-212 0 -298.5 91.5t-86.5 305.5v690h162v-690q0 -43 1.5 -70t6 -58.5t13.5 -50t25 -37t39.5 -28.5t57.5 -16t78 -6q61 0 104.5 4t85 15t68 31.5t47 52.5t30 79t9.5 111v663h162v-1075h-164z" />
    <glyph glyph-name="v" unicode="v" horiz-adv-x="927" 
d="M936 1075l-361 -1075h-227l-356 1075h164l305 -952h4l295 952h176z" />
    <glyph glyph-name="w" unicode="w" horiz-adv-x="1544" 
d="M1538 1075l-301 -1075h-236l-229 963h-4l-231 -963h-238l-291 1075h166l244 -962h4l235 962h232l233 -962h4l244 962h168z" />
    <glyph glyph-name="x" unicode="x" horiz-adv-x="929" 
d="M897 1075l-342 -514l383 -561h-195l-278 434l-279 -434h-194l389 561l-348 514h182l250 -393l244 393h188z" />
    <glyph glyph-name="y" unicode="y" horiz-adv-x="894" 
d="M903 1075l-309 -1151q-45 -161 -74 -221q-66 -137 -192 -169q-44 -11 -97 -11q-15 0 -73 10v125q27 -6 57 -6q40 0 72.5 18t52 44t36.5 67t25 73t19.5 78.5t17.5 67.5h-57l-389 1075h166l331 -956h5l241 956h168z" />
    <glyph glyph-name="z" unicode="z" horiz-adv-x="929" 
d="M881 1075v-149l-641 -795h641v-131h-830v150l641 794h-588v131h777z" />
    <glyph glyph-name="braceleft" unicode="{" horiz-adv-x="684" 
d="M98 545v153q97 11 128.5 74.5t31.5 196.5v336q0 99 59.5 171t108.5 72h170v-153h-90q-42 0 -58 -30.5t-16 -94.5v-334q0 -60 -14 -113.5t-32 -86t-42 -60.5t-36 -38t-23 -17q147 -114 147 -316v-332q0 -64 16 -95.5t58 -31.5h90v-153h-170q-50 0 -109 72t-59 172v335
q0 132 -31.5 196t-128.5 77z" />
    <glyph glyph-name="bar" unicode="|" horiz-adv-x="532" 
d="M344 1536v-2048h-154v2048h154z" />
    <glyph glyph-name="braceright" unicode="}" horiz-adv-x="684" 
d="M586 696v-153q-97 -11 -128.5 -74.5t-31.5 -196.5v-335q0 -99 -59.5 -171.5t-108.5 -72.5h-170v153h90q42 0 58 30.5t16 94.5v334q0 60 14 113.5t32 86.5t42 61t36 38t23 17q-147 114 -147 315v332q0 64 -16 95.5t-58 31.5h-90v153h170q50 0 109 -71.5t59 -171.5v-336
q0 -132 31.5 -196t128.5 -77z" />
    <glyph glyph-name="asciitilde" unicode="~" horiz-adv-x="1196" 
d="M246 440h-144q2 60 14 113t36.5 103t69.5 82t106 38q82 5 137 -28l299 -181q53 -29 96 -26q54 0 75.5 52.5t14.5 121.5h144q6 -72 -19.5 -147t-84 -129t-134.5 -54q-84 -3 -184 57l-246 156q-39 33 -82 33q-42 0 -73 -59t-25 -132z" />
    <glyph glyph-name="uni00A0" unicode="&#xa0;" horiz-adv-x="706" 
 />
    <glyph glyph-name="exclamdown" unicode="&#xa1;" horiz-adv-x="552" 
d="M362 1075v-209h-182v209h182zM180 -461l17 1112h149l16 -1112h-182z" />
    <glyph glyph-name="cent" unicode="&#xa2;" 
d="M614 291v833q-59 -2 -100 -13t-67 -39t-40.5 -52.5t-21 -82t-7.5 -96.5t-1 -125v-3q0 -63 1 -105t5 -86.5t11 -72.5t19.5 -56t29.5 -44t41.5 -30t56.5 -20t73 -8zM614 1407h134v-150q70 -1 125 -11.5t104 -35.5t81 -65t49 -103t15 -147h-164q7 129 -37.5 176.5
t-172.5 52.5v-833q64 0 104 7.5t70.5 30t44 64t14.5 107.5v59h164v-59q-4 -194 -99.5 -270.5t-297.5 -71.5v-170h-134v170q-79 -2 -141 13t-104.5 40t-73.5 67t-48.5 86t-27.5 106t-13 116t-3 127q0 57 1.5 100.5t7 92t14.5 85t25 74t37.5 64.5t52.5 51.5t70 40t90 25
t113 11.5v150z" />
    <glyph glyph-name="sterling" unicode="&#xa3;" 
d="M905 743v-143h-436v-127q3 -54 0.5 -103t-12 -89t-38 -77.5t-77.5 -68.5l4 -4l991 19v-150h-1192v131q31 5 55.5 20t40.5 31.5t27 46.5t16 50t8 58.5t3 56.5v57v22v127h-189v143h189v344q0 86 10 152.5t28.5 115t50.5 83t69 56t91.5 33.5t110.5 16.5t133 4.5
q107 0 182 -7t136 -26.5t97.5 -50t61.5 -81t34.5 -116t9.5 -157.5v-33h-164v33q0 65 -4.5 107t-18.5 76t-34.5 52t-59 30.5t-85 16t-118.5 3.5q-67 0 -110 -1t-83.5 -7.5t-62.5 -13.5t-42.5 -26t-29 -37.5t-15.5 -55.5t-9 -72t-4 -95v-344h436z" />
    <glyph glyph-name="currency" unicode="&#xa4;" 
d="M274 1018l111 117l119 -121q99 46 190 49q102 3 209 -49l115 110l121 -125l-119 -112q38 -58 53 -174q4 -108 -61 -217l116 -117l-118 -113l-109 113q-103 -65 -205 -68q-45 -1 -85.5 10.5t-104.5 40.5l-111 -104l-112 121l100 104q-63 79 -59 213q0 141 69 199zM694 444
q40 0 81.5 15t79 44.5t61.5 79.5t24 113q0 58 -24 104.5t-61.5 73.5t-79 41.5t-81.5 14.5t-81 -14.5t-77.5 -42t-58.5 -75.5t-20 -108q-2 -61 20 -110t59 -77.5t78 -43.5t80 -15z" />
    <glyph glyph-name="yen" unicode="&#xa5;" 
d="M1034 1049h209v-144h-297l-139 -229h436v-144h-457v-532h-174v532h-442v144h422l-137 229h-285v144h201l-293 487h203l430 -719l424 719h200z" />
    <glyph glyph-name="brokenbar" unicode="&#xa6;" horiz-adv-x="532" 
d="M344 -358h-154v716h154v-716zM344 1382v-716h-154v716h154z" />
    <glyph glyph-name="section" unicode="&#xa7;" 
d="M518 424l299 -84q152 -44 209 1.5t57 207.5q0 19 -3.5 35t-8 29t-14 24.5t-17 19t-22.5 16t-23.5 13t-27.5 11t-27 9t-30 9t-29 8.5l-285 84q-145 51 -207.5 12t-62.5 -196q0 -27 2 -49t9.5 -39t12.5 -29t20.5 -23.5t23 -17t31.5 -14t34 -11.5t41 -11q12 -3 18 -5z
M852 174l-426 113q-65 18 -105 34.5t-71.5 40t-47 57.5t-23 80t-7.5 115q0 57 6.5 98.5t24 81t54 64.5t91.5 35v4q-36 18 -59.5 47t-34.5 67t-14.5 72.5t-3.5 79.5q0 92 10.5 156.5t40 107.5t61 67t95 36t119.5 15t155 3q81 0 138.5 -3t110 -11.5t86 -21t62 -35.5
t44.5 -51.5t27.5 -72t15.5 -93.5t5 -119h-153q0 64 -3 102t-17 71t-33 48t-60.5 26.5t-91 14t-131.5 2.5q-158 0 -199 -7q-82 -13 -109 -73q-20 -45 -20 -125q0 -48 2.5 -77t12 -53.5t22.5 -37.5t40 -26.5t58.5 -23t83.5 -24.5q5 -1 8 -2l299 -84q16 -5 48 -14
q46 -13 68.5 -20t58 -20.5t52.5 -26.5t39 -35t31.5 -48t17 -62.5t7.5 -82.5q0 -258 -150 -301v-4q50 -18 82.5 -48.5t47 -74t19.5 -83.5t5 -97q0 -83 -13 -146t-32 -105.5t-59 -71t-74 -44.5t-99 -23.5t-112.5 -9t-134.5 -1.5q-72 0 -119.5 1.5t-101.5 6t-88 14t-71 24.5
t-59 37.5t-43 54t-31.5 74t-17 96t-6.5 120.5h154q2 -129 15 -169q20 -63 90 -88q78 -28 278 -28q157 0 197 5q105 15 143 85q30 56 30 160q0 36 -4 63t-10.5 47t-21 35.5t-28 25t-38.5 19t-46.5 15.5t-58.5 15q-18 5 -28 7z" />
    <glyph glyph-name="dieresis" unicode="&#xa8;" horiz-adv-x="897" 
d="M334 1337v-151h-180v151h180zM743 1337v-151h-180v151h180z" />
    <glyph glyph-name="copyright" unicode="&#xa9;" horiz-adv-x="1597" 
d="M801 1548q159 0 303.5 -62t249 -166.5t166 -249t61.5 -302.5q0 -160 -61.5 -304.5t-166 -248.5t-249 -165.5t-303.5 -61.5q-160 0 -305.5 61.5t-250.5 165.5t-167 248.5t-62 304.5q0 158 62 302.5t167 249t250.5 166.5t305.5 62zM801 1425q-134 0 -256 -52t-210 -140
t-140 -208.5t-52 -252.5q0 -135 52 -257.5t140 -211t209.5 -140.5t256.5 -52q133 0 254 52t208.5 140.5t139 211t51.5 257.5q0 132 -51.5 252.5t-139 208.5t-208.5 140t-254 52zM1075 625h123q-15 -136 -119 -219.5t-243 -83.5q-194 0 -314.5 128.5t-120.5 323.5
q0 197 116 323t312 126q143 0 244.5 -79t124.5 -216h-123q-17 91 -82.5 140.5t-161.5 49.5q-150 0 -228.5 -94.5t-78.5 -247.5q0 -148 83 -249t229 -101q95 0 161 52.5t78 146.5z" />
    <glyph glyph-name="ordfeminine" unicode="&#xaa;" horiz-adv-x="901" 
d="M637 891v49l-4 4q-19 -23 -44.5 -37.5t-61 -20t-57 -6.5t-62.5 -1q-62 0 -106 7.5t-83.5 27.5t-59.5 61.5t-20 103.5q0 65 18 108t55.5 65.5t82.5 31t111 8.5q49 0 79 -1.5t73 -14t65 -35.5q0 37 -0.5 53.5t-2.5 43t-6 37t-12 27t-19.5 23t-29.5 14t-41.5 9.5t-54.5 2
q-104 0 -140 -17.5t-30 -82.5h-123q0 40 8.5 71.5t21 52t35 35t42.5 22t53 11.5t56.5 5t61.5 1q59 0 97.5 -3t82 -15t68 -34.5t40.5 -64t15 -100.5v-440h-108zM426 977q38 0 59.5 1t52 6.5t46 16t27.5 31.5t12 51q0 31 -8.5 51.5t-21.5 32.5t-38 18t-48 7.5t-61 1.5
q-106 0 -142 -17t-36 -85q0 -41 8.5 -64.5t32 -34.5t47 -13.5t70.5 -2.5z" />
    <glyph glyph-name="guillemotleft" unicode="&#xab;" horiz-adv-x="1030" 
d="M391 1178l119 -72l-242 -514l269 -518l-113 -74l-309 592zM770 1178l119 -72l-242 -514l268 -518l-112 -74l-309 592z" />
    <glyph glyph-name="logicalnot" unicode="&#xac;" horiz-adv-x="1196" 
d="M940 264v400h-838v153h992v-553h-154z" />
    <glyph glyph-name="uni00AD" unicode="&#xad;" horiz-adv-x="534" 
d="M0 637h535v-154h-535v154z" />
    <glyph glyph-name="registered" unicode="&#xae;" horiz-adv-x="1597" 
d="M801 1548q159 0 303.5 -62t249 -166.5t166 -249t61.5 -302.5q0 -160 -61.5 -304.5t-166 -248.5t-249 -165.5t-303.5 -61.5q-160 0 -305.5 61.5t-250.5 165.5t-167 248.5t-62 304.5q0 158 62 302.5t167 249t250.5 166.5t305.5 62zM801 1425q-134 0 -256 -52t-210 -140
t-140 -208.5t-52 -252.5q0 -135 52 -257.5t140 -211t209.5 -140.5t256.5 -52q133 0 254 52t208.5 140.5t139 211t51.5 257.5q0 132 -51.5 252.5t-139 208.5t-208.5 140t-254 52zM930 725l260 -395h-137l-250 383h-170v-383h-123v874h381q311 0 311 -231q0 -123 -74 -184
t-198 -64zM633 1100v-283h229q122 0 169.5 42.5t47.5 115.5q0 33 -14 57t-34 37t-51 20t-56 9t-58 2h-233z" />
    <glyph glyph-name="macron" unicode="&#xaf;" horiz-adv-x="888" 
d="M162 1327h565v-131h-565v131z" />
    <glyph glyph-name="degree" unicode="&#xb0;" horiz-adv-x="819" 
d="M717 1241q0 -127 -90.5 -217t-216.5 -90q-128 0 -218 90t-90 217q-1 126 89.5 216.5t218.5 90.5q126 0 216.5 -90.5t90.5 -216.5zM614 1241q0 83 -61 144t-145 61q-83 0 -143 -61t-60 -144q0 -86 60 -145.5t145 -59.5q84 0 144 59.5t60 145.5z" />
    <glyph glyph-name="plusminus" unicode="&#xb1;" horiz-adv-x="1196" 
d="M522 1075h154v-311h418v-154h-418v-311h-154v311h-420v154h420v311zM102 20v154h992v-154h-992z" />
    <glyph glyph-name="twosuperior" unicode="&#xb2;" horiz-adv-x="847" 
d="M215 741h586v-123h-719v156q0 46 4.5 82t17 63.5t25.5 47.5t38.5 35t47.5 24.5t61.5 16.5t71 11t84.5 9q130 14 156 21q53 16 70 62q12 35 12 109q0 41 -3.5 68.5t-15 47t-24.5 30t-41 16t-55.5 7t-75.5 1.5q-60 0 -95 -1.5t-65 -7.5t-44 -15t-24 -28t-11.5 -41.5
t-0.5 -59.5v-47h-133v47q0 57 3.5 91.5t16.5 69.5t37 53.5t65.5 34.5t102.5 21.5t148 5.5q202 0 275 -60t73 -233q0 -75 -12.5 -126.5t-36 -86t-67 -55.5t-96 -31t-132.5 -16q-151 -11 -197.5 -37.5t-46.5 -114.5v-47z" />
    <glyph glyph-name="threesuperior" unicode="&#xb3;" horiz-adv-x="847" 
d="M367 1040v113h118q100 2 124 10q44 14 53 73q4 22 4 54q0 36 -2.5 57t-12 39t-23.5 26.5t-43.5 14.5t-64 7.5t-92.5 1.5q-129 0 -165 -24t-40 -116v-39h-133v39q0 50 8 88t21 65t37.5 45t49.5 29t66 16.5t77.5 7t92.5 1.5q157 -1 212 -14q100 -24 129 -111
q16 -46 16 -114q0 -51 -5.5 -84t-21.5 -64t-50 -47.5t-87 -19.5v-4q109 -7 146.5 -55.5t37.5 -155.5q0 -57 -10 -99.5t-23.5 -71t-44.5 -47.5t-55 -29.5t-74 -15t-82 -5.5t-98 -1q-75 0 -126 5t-98 20t-74 41.5t-42 71t-14 108.5v62h133v-52q0 -35 2 -56.5t12.5 -38.5
t22 -25t41.5 -13.5t58.5 -7t84.5 -2.5q64 -1 96.5 0t67 6.5t47.5 15t25.5 30t15 47t2.5 69.5q0 23 -1.5 41.5t-7.5 32.5t-9.5 25t-15 19t-17 13.5t-23.5 9t-25 5t-31 2.5t-33 1h-38h-118z" />
    <glyph glyph-name="acute" unicode="&#xb4;" horiz-adv-x="692" 
d="M459 1522l80 -111l-330 -205l-55 84z" />
    <glyph glyph-name="mu" unicode="&#xb5;" horiz-adv-x="1167" 
d="M864 0v143h-4q-21 -47 -56 -79t-81.5 -48t-93 -22t-105.5 -6q-145 0 -223 41v-494h-162v1540h162v-690q0 -43 1.5 -70t6 -58.5t13.5 -50t25 -37t39.5 -28.5t57.5 -16t78 -6q74 0 123.5 6t94.5 24t71 50t40.5 85t14.5 128v663h162v-1075h-164z" />
    <glyph glyph-name="paragraph" unicode="&#xb6;" 
d="M1343 -428h-153v1821h-182v-1821h-154v1030h-358q-83 0 -142 9t-116 37.5t-91.5 78t-55.5 134.5t-21 204q0 95 10.5 164t38.5 129.5t75 98t122.5 58.5t179.5 21h847v-1964zM854 745v648h-358q-51 0 -88.5 -6t-65 -15.5t-45.5 -31t-29 -43t-16 -61t-6.5 -75.5t-1.5 -96
q0 -103 17 -169t53 -98t77 -42.5t105 -10.5h358z" />
    <glyph glyph-name="periodcentered" unicode="&#xb7;" horiz-adv-x="706" 
d="M444 686v-209h-182v209h182z" />
    <glyph glyph-name="cedilla" unicode="&#xb8;" horiz-adv-x="552" 
d="M266 -82l111 -61l-158 -219l-88 47z" />
    <glyph glyph-name="onesuperior" unicode="&#xb9;" horiz-adv-x="847" 
d="M551 1548v-930h-133v832l-256 -262l-70 84l275 276h184z" />
    <glyph glyph-name="ordmasculine" unicode="&#xba;" horiz-adv-x="901" 
d="M461 1548q75 0 124 -9.5t83.5 -30.5t52.5 -60.5t25.5 -93t7.5 -135.5q0 -69 -3 -112.5t-13.5 -86t-30 -66t-52.5 -42.5t-80 -26t-114 -7q-72 0 -119.5 5.5t-84 21.5t-57 38t-33 63.5t-16.5 89t-4 122.5q0 66 3.5 108.5t15 83t32.5 63.5t56 41.5t85.5 25.5t121.5 7z
M461 1450q-47 0 -75.5 -2t-52 -12t-34.5 -23t-18.5 -42.5t-9 -62t-1.5 -89.5q0 -50 0.5 -79.5t5 -59t7 -44t16 -28.5t22.5 -18t34.5 -8.5t45 -4.5h60.5q42 0 69 3t47 15.5t30 26.5t16 46t7 62.5t1 88.5q0 55 -1 83.5t-6.5 60t-15.5 44t-30 25t-47.5 15.5t-69.5 3z" />
    <glyph glyph-name="guillemotright" unicode="&#xbb;" horiz-adv-x="1030" 
d="M520 1106l119 72l276 -586l-309 -592l-112 74l268 518zM141 1106l119 72l277 -586l-310 -592l-112 74l268 518z" />
    <glyph glyph-name="onequarter" unicode="&#xbc;" horiz-adv-x="2119" 
d="M1874 922v-613h135v-123h-135v-186h-133v186h-551v148l496 588h188zM1645 1536l-1043 -1536h-137l1036 1536h144zM1741 309v525h-6l-443 -525h449zM571 1536v-922h-133v824l-256 -262l-69 84l274 276h184z" />
    <glyph glyph-name="onehalf" unicode="&#xbd;" horiz-adv-x="2119" 
d="M1606 1536l-1043 -1536h-137l1036 1536h144zM371 1536h184v-922h-133v824l-256 -262l-70 84zM1436 123h585v-123h-718v156q0 46 4.5 82t17 63.5t25.5 47.5t38.5 34.5t47.5 24t61.5 16.5t71 11t84.5 9q130 14 157 22q52 16 68 62q12 37 12 109q0 41 -3.5 68.5t-15 47
t-24.5 30t-41 16t-55.5 7t-75.5 1.5q-59 0 -94.5 -1.5t-65.5 -8t-43.5 -15t-23.5 -28t-11.5 -41.5t-0.5 -60v-47h-133v47q0 49 2.5 80t10.5 63.5t24.5 51.5t43 36.5t66.5 26.5t95 14t130 5q202 0 275 -60t73 -233q0 -75 -12.5 -126.5t-36 -86t-67 -55.5t-96 -31t-132.5 -16
q-151 -11 -197 -37.5t-46 -114.5v-47z" />
    <glyph glyph-name="threequarters" unicode="&#xbe;" horiz-adv-x="2119" 
d="M1894 922v-613h136v-123h-136v-186h-133v186h-551v148l496 588h188zM1761 309v525h-6l-442 -525h448zM1741 1536l-1043 -1536h-137l1036 1536h144zM381 1040v113h119q99 2 123 10q44 14 53 71q4 24 4 56q0 36 -2.5 57t-12 39t-23.5 26.5t-43.5 14.5t-64 7.5t-92.5 1.5
q-129 0 -164.5 -24t-39.5 -116v-39h-134v39q0 50 8 88t21 65t38 45.5t50 29t66 16t77.5 7t92.5 1.5q157 -1 212 -15q99 -23 128 -110q16 -46 16 -114q0 -51 -5.5 -84t-21.5 -64t-50 -47.5t-87 -19.5v-4q109 -7 147 -55.5t38 -155.5q0 -57 -9.5 -99.5t-22.5 -71.5t-43 -48
t-52 -29t-71 -15t-78.5 -5.5t-94.5 -0.5h-9h-8q-75 0 -126 5t-98 20t-74 41.5t-42 71t-14 108.5v62h133v-52q0 -35 2 -56.5t12.5 -38.5t22 -25t41.5 -13.5t58.5 -7t84.5 -2.5q64 -1 96.5 0t67 6.5t47.5 15t25.5 30t15 47t2.5 69.5q0 25 -3 44.5t-6.5 34.5t-13 26t-16 18.5
t-22 12.5t-25.5 7.5t-31.5 4t-34.5 1.5h-41h-7h-119z" />
    <glyph glyph-name="questiondown" unicode="&#xbf;" horiz-adv-x="1196" 
d="M586 633h174v-55q0 -51 -4.5 -87.5t-19 -67t-33 -51.5t-54.5 -43t-75.5 -39t-102.5 -40q-50 -20 -73.5 -30.5t-50 -29.5t-35.5 -36t-18.5 -50t-11 -71t-1.5 -101q0 -59 4.5 -98.5t19.5 -69.5t34.5 -46t57.5 -26t80.5 -13t110.5 -3q55 0 88 1t71 5t58.5 11t43 20t33 31
t20.5 45t13 61.5t3 81.5v88h163v-88q-2 -80 -13 -140.5t-29.5 -104.5t-51 -73.5t-67.5 -47.5t-91 -27.5t-109 -12.5t-132 -3q-106 0 -179 10.5t-131.5 37t-92 73.5t-51 117t-17.5 171q0 60 2 99.5t8 83.5t17.5 73.5t31 60.5t48 54t68.5 44.5t93 39.5q52 18 75.5 26.5t52 22
t38 23.5t20.5 28.5t13 38.5t2 52v55zM762 1075v-209h-182v209h182z" />
    <glyph glyph-name="Agrave" unicode="&#xc0;" horiz-adv-x="1402" 
d="M1090 326h-777l-118 -326h-183l559 1536h246l574 -1536h-181zM1040 469l-342 924l-338 -924h680zM592 1982l303 -231l-53 -84l-332 205z" />
    <glyph glyph-name="Aacute" unicode="&#xc1;" horiz-adv-x="1402" 
d="M1090 326h-777l-118 -326h-183l559 1536h246l574 -1536h-181zM1040 469l-342 924l-338 -924h680zM815 1982l80 -110l-330 -205l-55 84z" />
    <glyph glyph-name="Acircumflex" unicode="&#xc2;" horiz-adv-x="1402" 
d="M1090 326h-777l-118 -326h-183l559 1536h246l574 -1536h-181zM1040 469l-342 924l-338 -924h680zM705 1968l354 -221l-49 -86l-305 156l-318 -156l-43 86z" />
    <glyph glyph-name="Atilde" unicode="&#xc3;" horiz-adv-x="1402" 
d="M1090 326h-777l-118 -326h-183l559 1536h246l574 -1536h-181zM1040 469l-342 924l-338 -924h680zM961 1872l88 -57q-89 -154 -211 -154q-50 0 -150 45q-5 2 -23.5 10t-25.5 10.5t-22.5 8t-24.5 8t-21 4.5t-22 2q-11 0 -20.5 -2t-16.5 -4t-15 -9t-11.5 -9.5t-11 -13.5
t-9 -13.5t-10 -16.5t-9.5 -16l-92 53q78 152 197 152q9 0 19 -1t22.5 -4.5t19.5 -5t23 -7.5t20.5 -7.5t23.5 -9t21 -8.5q100 -45 142 -45q67 0 119 90z" />
    <glyph glyph-name="Adieresis" unicode="&#xc4;" horiz-adv-x="1402" 
d="M1090 326h-777l-118 -326h-183l559 1536h246l574 -1536h-181zM1040 469l-342 924l-338 -924h680zM588 1798v-151h-180v151h180zM997 1798v-151h-180v151h180z" />
    <glyph glyph-name="Aring" unicode="&#xc5;" horiz-adv-x="1402" 
d="M1090 326h-777l-118 -326h-183l559 1536h246l574 -1536h-181zM1040 469l-342 924l-338 -924h680zM524 1790q0 72 52 125t124 53q73 0 126 -53t53 -125q0 -73 -52.5 -125.5t-126.5 -52.5q-72 0 -124 52.5t-52 125.5zM602 1790q0 -41 28.5 -70.5t69.5 -29.5t71 29.5
t30 70.5t-30 70.5t-71 29.5t-69.5 -29.5t-28.5 -70.5z" />
    <glyph glyph-name="AE" unicode="&#xc6;" horiz-adv-x="2138" 
d="M1257 1382v-522h768v-143h-768v-563h805v-154h-979v317h-716l-179 -317h-204l847 1536h1231v-154h-805zM1083 471v911h-147l-490 -911h637z" />
    <glyph glyph-name="Ccedilla" unicode="&#xc7;" horiz-adv-x="1361" 
d="M694 -82l111 -61l-158 -219l-88 47zM784 -12h-245q-211 0 -329 126.5t-118 356.5v594q0 91 16.5 163t44.5 122.5t74.5 86.5t96 57.5t120 33.5t136 16t153.5 4h144q120 0 201 -26t129 -82t68.5 -136.5t20.5 -197.5v-49h-174v43q0 85 -10.5 137.5t-40 90t-82 52.5
t-137.5 15h-98q-96 0 -161.5 -4.5t-124.5 -17t-94 -35t-61 -59t-36.5 -87t-10.5 -121.5v-422q0 -67 1 -110t4 -94.5t9.5 -83t17 -67.5t26.5 -57t38.5 -41.5t52.5 -31t69 -17t87 -6.5h207q89 0 146 6t102.5 21.5t69 45.5t35.5 74t12 111v123h174v-143q0 -74 -14 -132.5
t-37.5 -99t-62 -70t-80 -46.5t-100 -27t-112.5 -13t-127 -3z" />
    <glyph glyph-name="Egrave" unicode="&#xc8;" horiz-adv-x="1146" 
d="M258 1382v-522h778v-143h-778v-563h813v-154h-987v1536h987v-154h-813zM463 1982l303 -231l-53 -84l-332 205z" />
    <glyph glyph-name="Eacute" unicode="&#xc9;" horiz-adv-x="1146" 
d="M258 1382v-522h778v-143h-778v-563h813v-154h-987v1536h987v-154h-813zM686 1982l80 -110l-330 -205l-55 84z" />
    <glyph glyph-name="Ecircumflex" unicode="&#xca;" horiz-adv-x="1146" 
d="M258 1382v-522h778v-143h-778v-563h813v-154h-987v1536h987v-154h-813zM578 1968l354 -221l-49 -86l-305 156l-318 -156l-43 86z" />
    <glyph glyph-name="Edieresis" unicode="&#xcb;" horiz-adv-x="1146" 
d="M258 1382v-522h778v-143h-778v-563h813v-154h-987v1536h987v-154h-813zM459 1798v-151h-180v151h180zM868 1798v-151h-180v151h180z" />
    <glyph glyph-name="Igrave" unicode="&#xcc;" horiz-adv-x="466" 
d="M322 1536v-1536h-175v1536h175zM123 1982l303 -231l-53 -84l-332 205z" />
    <glyph glyph-name="Iacute" unicode="&#xcd;" horiz-adv-x="466" 
d="M322 1536v-1536h-175v1536h175zM346 1982l80 -110l-330 -205l-55 84z" />
    <glyph glyph-name="Icircumflex" unicode="&#xce;" horiz-adv-x="466" 
d="M322 1536v-1536h-175v1536h175zM238 1968l354 -221l-49 -86l-305 156l-318 -156l-43 86z" />
    <glyph glyph-name="Idieresis" unicode="&#xcf;" horiz-adv-x="466" 
d="M322 1536v-1536h-175v1536h175zM119 1798v-151h-180v151h180zM528 1798v-151h-180v151h180z" />
    <glyph glyph-name="Eth" unicode="&#xd0;" horiz-adv-x="1503" 
d="M143 862v674h748q38 0 67.5 -1.5t73.5 -8t78.5 -18t76 -33t73 -51t62.5 -75t50.5 -102t32 -134t12.5 -169.5v-366q0 -31 -1.5 -60t-7 -74t-15 -84t-27.5 -85.5t-42 -84t-61.5 -74t-83.5 -61.5t-109.5 -40t-137.5 -15h-789v719h-211v143h211zM317 1382v-520h424v-143h-424
v-565h574q90 0 154 22t101.5 58t59 97t29 123.5t8.5 153.5v404q0 34 -5 72t-25 94.5t-52.5 99t-95 73.5t-145.5 31h-603z" />
    <glyph glyph-name="Ntilde" unicode="&#xd1;" horiz-adv-x="1603" 
d="M1464 1536v-1536h-284l-863 1393h-4v-1393h-174v1536h287l860 -1403h4v1403h174zM1061 1872l88 -57q-89 -154 -211 -154q-50 0 -150 45q-5 2 -23.5 10t-25.5 10.5t-22.5 8t-24.5 8t-21 4.5t-22 2q-12 0 -22 -1.5t-19.5 -7.5t-14.5 -9t-13.5 -14.5t-10.5 -14.5t-11.5 -19
t-10.5 -18l-92 53q78 152 196 152q40 0 150 -43q100 -45 141 -45q67 0 119 90z" />
    <glyph glyph-name="Ograve" unicode="&#xd2;" horiz-adv-x="1374" 
d="M584 1548h207q146 -2 240 -28t153 -88t82.5 -157t23.5 -243v-547q0 -273 -111.5 -385t-387.5 -112h-207q-276 0 -388 112.5t-112 384.5v547q0 118 15.5 201.5t50 145t93.5 97.5t141.5 53.5t199.5 18.5zM791 1395h-207q-101 0 -160.5 -14t-98.5 -55.5t-53 -110t-14 -183.5
v-547q0 -76 8 -131t27 -93t43 -61.5t64 -36.5t81 -17t103 -5h207q62 1 103 5t81 17t63.5 36.5t42.5 61.5t27 93t8 131v547q0 115 -14 183t-52.5 110t-98 56t-160.5 14zM537 1982l303 -231l-54 -84l-331 205z" />
    <glyph glyph-name="Oacute" unicode="&#xd3;" horiz-adv-x="1374" 
d="M584 1548h207q146 -2 240 -28t153 -88t82.5 -157t23.5 -243v-547q0 -273 -111.5 -385t-387.5 -112h-207q-276 0 -388 112.5t-112 384.5v547q0 118 15.5 201.5t50 145t93.5 97.5t141.5 53.5t199.5 18.5zM791 1395h-207q-101 0 -160.5 -14t-98.5 -55.5t-53 -110t-14 -183.5
v-547q0 -76 8 -131t27 -93t43 -61.5t64 -36.5t81 -17t103 -5h207q62 1 103 5t81 17t63.5 36.5t42.5 61.5t27 93t8 131v547q0 115 -14 183t-52.5 110t-98 56t-160.5 14zM801 1982l80 -110l-330 -205l-55 84z" />
    <glyph glyph-name="Ocircumflex" unicode="&#xd4;" horiz-adv-x="1374" 
d="M584 1548h207q146 -2 240 -28t153 -88t82.5 -157t23.5 -243v-547q0 -273 -111.5 -385t-387.5 -112h-207q-276 0 -388 112.5t-112 384.5v547q0 118 15.5 201.5t50 145t93.5 97.5t141.5 53.5t199.5 18.5zM791 1395h-207q-101 0 -160.5 -14t-98.5 -55.5t-53 -110t-14 -183.5
v-547q0 -76 8 -131t27 -93t43 -61.5t64 -36.5t81 -17t103 -5h207q62 1 103 5t81 17t63.5 36.5t42.5 61.5t27 93t8 131v547q0 115 -14 183t-52.5 110t-98 56t-160.5 14zM690 1968l354 -221l-49 -86l-305 156l-317 -156l-43 86z" />
    <glyph glyph-name="Otilde" unicode="&#xd5;" horiz-adv-x="1374" 
d="M584 1548h207q146 -2 240 -28t153 -88t82.5 -157t23.5 -243v-547q0 -273 -111.5 -385t-387.5 -112h-207q-276 0 -388 112.5t-112 384.5v547q0 118 15.5 201.5t50 145t93.5 97.5t141.5 53.5t199.5 18.5zM791 1395h-207q-101 0 -160.5 -14t-98.5 -55.5t-53 -110t-14 -183.5
v-547q0 -76 8 -131t27 -93t43 -61.5t64 -36.5t81 -17t103 -5h207q62 1 103 5t81 17t63.5 36.5t42.5 61.5t27 93t8 131v547q0 115 -14 183t-52.5 110t-98 56t-160.5 14zM946 1872l88 -57q-89 -154 -211 -154q-49 0 -149 45q-5 2 -23.5 10t-25.5 10.5t-22.5 8t-24.5 8t-21 4.5
t-22 2q-11 0 -20.5 -2t-16.5 -4t-15 -9t-11.5 -9.5t-11 -13.5t-9 -13.5t-10 -16.5t-9.5 -16l-92 53q78 152 197 152q9 0 19 -1t22.5 -4.5t19.5 -5t23 -7.5t20.5 -7.5t23.5 -9t21 -8.5q100 -45 141 -45q67 0 119 90z" />
    <glyph glyph-name="Odieresis" unicode="&#xd6;" horiz-adv-x="1374" 
d="M584 1548h207q146 -2 240 -28t153 -88t82.5 -157t23.5 -243v-547q0 -273 -111.5 -385t-387.5 -112h-207q-276 0 -388 112.5t-112 384.5v547q0 118 15.5 201.5t50 145t93.5 97.5t141.5 53.5t199.5 18.5zM791 1395h-207q-101 0 -160.5 -14t-98.5 -55.5t-53 -110t-14 -183.5
v-547q0 -76 8 -131t27 -93t43 -61.5t64 -36.5t81 -17t103 -5h207q62 1 103 5t81 17t63.5 36.5t42.5 61.5t27 93t8 131v547q0 115 -14 183t-52.5 110t-98 56t-160.5 14zM573 1798v-151h-180v151h180zM983 1798v-151h-180v151h180z" />
    <glyph glyph-name="multiply" unicode="&#xd7;" horiz-adv-x="1196" 
d="M102 893l101 102l395 -397l395 397l101 -102l-396 -395l396 -396l-101 -102l-395 397l-395 -397l-101 102l396 396z" />
    <glyph glyph-name="Oslash" unicode="&#xd8;" horiz-adv-x="1480" 
d="M1221 1145l-916 -887q14 -33 45 -56.5t63.5 -34.5t78.5 -17.5t72 -7.5t63 -1h278q95 0 157.5 21.5t97 67t48 105.5t13.5 148v662zM262 391l914 893q-16 35 -43 58t-65 34t-75.5 15t-87.5 4h-278q-82 0 -139.5 -8t-99 -29.5t-66 -50t-38.5 -78t-18.5 -104.5t-3.5 -138
v-596zM1448 1538v-176l-94 -78q10 -19 17 -38t11.5 -44t7.5 -39.5t4 -46t1 -41v-47v-41.5v-504q0 -140 -30.5 -236t-94.5 -153t-152 -81.5t-213 -24.5h-278q-59 0 -100.5 2t-95.5 11t-94.5 24.5t-82 45t-72.5 70.5l-149 -139v166l92 90q-10 26 -23.5 95.5t-13.5 129.5v504
q0 137 25 236.5t68.5 162t113 99t148 50t184.5 13.5h278q277 0 391 -147z" />
    <glyph glyph-name="Ugrave" unicode="&#xd9;" horiz-adv-x="1509" 
d="M1190 1536h174v-1106q0 -68 -9.5 -123.5t-25 -98.5t-43 -76t-56.5 -56t-72 -39.5t-83 -25.5t-96.5 -14.5t-105.5 -7t-117 -1.5q-90 0 -141 1.5t-125 10t-116 25.5t-91.5 49t-75 78.5t-43 116.5t-17.5 161v1106h175v-1106q0 -66 5.5 -108.5t24 -77t46 -53t80 -31t116 -16
t162.5 -3.5q83 0 123 1t97 6t82 16.5t57 31.5t44.5 51.5t21.5 76t9 106.5v1106zM563 1982l303 -231l-53 -84l-332 205z" />
    <glyph glyph-name="Uacute" unicode="&#xda;" horiz-adv-x="1509" 
d="M1190 1536h174v-1106q0 -68 -9.5 -123.5t-25 -98.5t-43 -76t-56.5 -56t-72 -39.5t-83 -25.5t-96.5 -14.5t-105.5 -7t-117 -1.5q-90 0 -141 1.5t-125 10t-116 25.5t-91.5 49t-75 78.5t-43 116.5t-17.5 161v1106h175v-1106q0 -66 5.5 -108.5t24 -77t46 -53t80 -31t116 -16
t162.5 -3.5q83 0 123 1t97 6t82 16.5t57 31.5t44.5 51.5t21.5 76t9 106.5v1106zM868 1982l80 -110l-330 -205l-55 84z" />
    <glyph glyph-name="Ucircumflex" unicode="&#xdb;" horiz-adv-x="1509" 
d="M1190 1536h174v-1106q0 -68 -9.5 -123.5t-25 -98.5t-43 -76t-56.5 -56t-72 -39.5t-83 -25.5t-96.5 -14.5t-105.5 -7t-117 -1.5q-90 0 -141 1.5t-125 10t-116 25.5t-91.5 49t-75 78.5t-43 116.5t-17.5 161v1106h175v-1106q0 -66 5.5 -108.5t24 -77t46 -53t80 -31t116 -16
t162.5 -3.5q83 0 123 1t97 6t82 16.5t57 31.5t44.5 51.5t21.5 76t9 106.5v1106zM758 1968l354 -221l-49 -86l-305 156l-318 -156l-43 86z" />
    <glyph glyph-name="Udieresis" unicode="&#xdc;" horiz-adv-x="1509" 
d="M1190 1536h174v-1106q0 -68 -9.5 -123.5t-25 -98.5t-43 -76t-56.5 -56t-72 -39.5t-83 -25.5t-96.5 -14.5t-105.5 -7t-117 -1.5q-90 0 -141 1.5t-125 10t-116 25.5t-91.5 49t-75 78.5t-43 116.5t-17.5 161v1106h175v-1106q0 -66 5.5 -108.5t24 -77t46 -53t80 -31t116 -16
t162.5 -3.5q83 0 123 1t97 6t82 16.5t57 31.5t44.5 51.5t21.5 76t9 106.5v1106zM641 1798v-151h-180v151h180zM1051 1798v-151h-181v151h181z" />
    <glyph glyph-name="Yacute" unicode="&#xdd;" horiz-adv-x="1294" 
d="M1307 1536l-582 -895v-641h-174v641l-563 895h202l455 -719l455 719h207zM797 1982l80 -110l-330 -205l-55 84z" />
    <glyph glyph-name="Thorn" unicode="&#xde;" horiz-adv-x="1353" 
d="M121 0v1536h174v-299h608q108 0 182 -34.5t113.5 -100.5t55.5 -145t16 -185q0 -42 -1 -70t-8.5 -82.5t-20.5 -92t-41 -84t-66.5 -75.5t-99.5 -49t-138 -20h-600v-299h-174zM827 1083h-532v-630h450q153 0 205 13q89 22 121 104q25 65 25 180q0 76 -4.5 127.5t-18 90
t-31 60t-50.5 34.5t-70 17t-95 4z" />
    <glyph glyph-name="germandbls" unicode="&#xdf;" horiz-adv-x="1208" 
d="M170 0v1202q0 74 11 129t35.5 93t57 62.5t83.5 38t105.5 18.5t131.5 5q71 0 126 -5.5t114 -24.5t98 -50.5t64.5 -88t25.5 -132.5q0 -200 -205 -256v-4q50 -8 90 -22.5t69 -37t50.5 -46.5t35 -59.5t22 -66.5t12.5 -76t5 -80t1 -87q0 -67 -2 -114t-10 -106t-23 -99.5
t-42 -82t-64.5 -66.5t-93.5 -40.5t-128 -15.5q-136 0 -221.5 66.5t-85.5 197.5v74h154v-37q0 -84 35 -127t118 -43q46 0 74.5 7.5t54.5 29.5t38.5 65.5t20 114t7.5 176.5q0 53 -1.5 90t-6 79.5t-14 71t-24 58t-37 48t-53.5 34t-73 22.5t-94 7h-135v131h100q60 0 104 5.5
t71.5 17.5t45 25.5t25 35.5t10 40t2.5 46q0 45 -6.5 77.5t-23 54t-35 34t-51.5 18.5t-63.5 8t-80.5 2q-59 0 -96.5 -4t-72 -16t-53 -35.5t-29.5 -63t-11 -96.5v-1202h-162z" />
    <glyph glyph-name="agrave" unicode="&#xe0;" horiz-adv-x="1167" 
d="M539 119q34 0 54 0.5t51.5 2t51 5.5t45.5 11t41.5 16.5t33 25t27 35t15.5 46t6 58.5q0 59 -16 98t-36.5 59.5t-69.5 30.5t-84.5 11.5t-112.5 1.5h-6q-47 0 -76.5 -1t-61.5 -5t-50.5 -12t-36.5 -21.5t-26.5 -33.5t-14 -48t-5.5 -65q0 -38 3.5 -68t13 -52t20 -38t30 -26.5
t37 -16.5t47 -9t55 -4t65.5 -1zM1030 0h-162v111l-4 4q-15 -30 -37.5 -52t-52.5 -35.5t-58.5 -22t-68.5 -12t-67.5 -4.5t-69.5 -1q-79 0 -136 6.5t-112 27t-88.5 55.5t-53.5 94.5t-20 141.5q0 73 12 128t38.5 92t59.5 60.5t83.5 36t102.5 17t124 4.5q313 0 338 -108h10v198
q0 42 -6.5 74t-18 55t-31.5 38.5t-41 25t-53 14.5t-62.5 6.5t-73.5 1.5q-37 0 -56.5 -0.5t-54.5 -3t-54.5 -8t-45 -16t-38.5 -26t-22.5 -39t-9.5 -54.5v-37h-168v23q0 58 12 103t31 76t51.5 52.5t65 33.5t81 18.5t89.5 7.5t100 1q93 1 154 -4t126 -25.5t102.5 -57.5
t61.5 -104t23 -163v-733zM432 1522l303 -232l-53 -84l-332 205z" />
    <glyph glyph-name="aacute" unicode="&#xe1;" horiz-adv-x="1167" 
d="M539 119q34 0 54 0.5t51.5 2t51 5.5t45.5 11t41.5 16.5t33 25t27 35t15.5 46t6 58.5q0 59 -16 98t-36.5 59.5t-69.5 30.5t-84.5 11.5t-112.5 1.5h-6q-47 0 -76.5 -1t-61.5 -5t-50.5 -12t-36.5 -21.5t-26.5 -33.5t-14 -48t-5.5 -65q0 -38 3.5 -68t13 -52t20 -38t30 -26.5
t37 -16.5t47 -9t55 -4t65.5 -1zM1030 0h-162v111l-4 4q-15 -30 -37.5 -52t-52.5 -35.5t-58.5 -22t-68.5 -12t-67.5 -4.5t-69.5 -1q-79 0 -136 6.5t-112 27t-88.5 55.5t-53.5 94.5t-20 141.5q0 73 12 128t38.5 92t59.5 60.5t83.5 36t102.5 17t124 4.5q313 0 338 -108h10v198
q0 42 -6.5 74t-18 55t-31.5 38.5t-41 25t-53 14.5t-62.5 6.5t-73.5 1.5q-37 0 -56.5 -0.5t-54.5 -3t-54.5 -8t-45 -16t-38.5 -26t-22.5 -39t-9.5 -54.5v-37h-168v23q0 58 12 103t31 76t51.5 52.5t65 33.5t81 18.5t89.5 7.5t100 1q93 1 154 -4t126 -25.5t102.5 -57.5
t61.5 -104t23 -163v-733zM696 1522l80 -111l-330 -205l-55 84z" />
    <glyph glyph-name="acircumflex" unicode="&#xe2;" horiz-adv-x="1167" 
d="M539 119q34 0 54 0.5t51.5 2t51 5.5t45.5 11t41.5 16.5t33 25t27 35t15.5 46t6 58.5q0 59 -16 98t-36.5 59.5t-69.5 30.5t-84.5 11.5t-112.5 1.5h-6q-47 0 -76.5 -1t-61.5 -5t-50.5 -12t-36.5 -21.5t-26.5 -33.5t-14 -48t-5.5 -65q0 -38 3.5 -68t13 -52t20 -38t30 -26.5
t37 -16.5t47 -9t55 -4t65.5 -1zM1030 0h-162v111l-4 4q-15 -30 -37.5 -52t-52.5 -35.5t-58.5 -22t-68.5 -12t-67.5 -4.5t-69.5 -1q-79 0 -136 6.5t-112 27t-88.5 55.5t-53.5 94.5t-20 141.5q0 73 12 128t38.5 92t59.5 60.5t83.5 36t102.5 17t124 4.5q313 0 338 -108h10v198
q0 42 -6.5 74t-18 55t-31.5 38.5t-41 25t-53 14.5t-62.5 6.5t-73.5 1.5q-37 0 -56.5 -0.5t-54.5 -3t-54.5 -8t-45 -16t-38.5 -26t-22.5 -39t-9.5 -54.5v-37h-168v23q0 58 12 103t31 76t51.5 52.5t65 33.5t81 18.5t89.5 7.5t100 1q93 1 154 -4t126 -25.5t102.5 -57.5
t61.5 -104t23 -163v-733zM588 1507l354 -221l-49 -86l-305 156l-318 -156l-43 86z" />
    <glyph glyph-name="atilde" unicode="&#xe3;" horiz-adv-x="1167" 
d="M539 119q34 0 54 0.5t51.5 2t51 5.5t45.5 11t41.5 16.5t33 25t27 35t15.5 46t6 58.5q0 59 -16 98t-36.5 59.5t-69.5 30.5t-84.5 11.5t-112.5 1.5h-6q-47 0 -76.5 -1t-61.5 -5t-50.5 -12t-36.5 -21.5t-26.5 -33.5t-14 -48t-5.5 -65q0 -38 3.5 -68t13 -52t20 -38t30 -26.5
t37 -16.5t47 -9t55 -4t65.5 -1zM1030 0h-162v111l-4 4q-15 -30 -37.5 -52t-52.5 -35.5t-58.5 -22t-68.5 -12t-67.5 -4.5t-69.5 -1q-79 0 -136 6.5t-112 27t-88.5 55.5t-53.5 94.5t-20 141.5q0 73 12 128t38.5 92t59.5 60.5t83.5 36t102.5 17t124 4.5q313 0 338 -108h10v198
q0 42 -6.5 74t-18 55t-31.5 38.5t-41 25t-53 14.5t-62.5 6.5t-73.5 1.5q-37 0 -56.5 -0.5t-54.5 -3t-54.5 -8t-45 -16t-38.5 -26t-22.5 -39t-9.5 -54.5v-37h-168v23q0 58 12 103t31 76t51.5 52.5t65 33.5t81 18.5t89.5 7.5t100 1q93 1 154 -4t126 -25.5t102.5 -57.5
t61.5 -104t23 -163v-733zM844 1411l88 -57q-89 -154 -211 -154q-50 0 -150 45q-5 2 -23.5 10t-25.5 10.5t-22.5 8t-24.5 8t-21 4.5t-22 2q-12 0 -22 -1.5t-19.5 -7.5t-14.5 -9t-13.5 -14.5t-10.5 -14.5t-11.5 -19t-10.5 -18l-92 53q78 152 196 152q40 0 150 -43
q100 -45 141 -45q67 0 119 90z" />
    <glyph glyph-name="adieresis" unicode="&#xe4;" horiz-adv-x="1167" 
d="M539 119q34 0 54 0.5t51.5 2t51 5.5t45.5 11t41.5 16.5t33 25t27 35t15.5 46t6 58.5q0 59 -16 98t-36.5 59.5t-69.5 30.5t-84.5 11.5t-112.5 1.5h-6q-47 0 -76.5 -1t-61.5 -5t-50.5 -12t-36.5 -21.5t-26.5 -33.5t-14 -48t-5.5 -65q0 -38 3.5 -68t13 -52t20 -38t30 -26.5
t37 -16.5t47 -9t55 -4t65.5 -1zM1030 0h-162v111l-4 4q-15 -30 -37.5 -52t-52.5 -35.5t-58.5 -22t-68.5 -12t-67.5 -4.5t-69.5 -1q-79 0 -136 6.5t-112 27t-88.5 55.5t-53.5 94.5t-20 141.5q0 73 12 128t38.5 92t59.5 60.5t83.5 36t102.5 17t124 4.5q313 0 338 -108h10v198
q0 42 -6.5 74t-18 55t-31.5 38.5t-41 25t-53 14.5t-62.5 6.5t-73.5 1.5q-37 0 -56.5 -0.5t-54.5 -3t-54.5 -8t-45 -16t-38.5 -26t-22.5 -39t-9.5 -54.5v-37h-168v23q0 58 12 103t31 76t51.5 52.5t65 33.5t81 18.5t89.5 7.5t100 1q93 1 154 -4t126 -25.5t102.5 -57.5
t61.5 -104t23 -163v-733zM469 1337v-151h-180v151h180zM879 1337v-151h-181v151h181z" />
    <glyph glyph-name="aring" unicode="&#xe5;" horiz-adv-x="1167" 
d="M539 119q34 0 54 0.5t51.5 2t51 5.5t45.5 11t41.5 16.5t33 25t27 35t15.5 46t6 58.5q0 59 -16 98t-36.5 59.5t-69.5 30.5t-84.5 11.5t-112.5 1.5h-6q-47 0 -76.5 -1t-61.5 -5t-50.5 -12t-36.5 -21.5t-26.5 -33.5t-14 -48t-5.5 -65q0 -38 3.5 -68t13 -52t20 -38t30 -26.5
t37 -16.5t47 -9t55 -4t65.5 -1zM1030 0h-162v111l-4 4q-15 -30 -37.5 -52t-52.5 -35.5t-58.5 -22t-68.5 -12t-67.5 -4.5t-69.5 -1q-79 0 -136 6.5t-112 27t-88.5 55.5t-53.5 94.5t-20 141.5q0 73 12 128t38.5 92t59.5 60.5t83.5 36t102.5 17t124 4.5q313 0 338 -108h10v198
q0 42 -6.5 74t-18 55t-31.5 38.5t-41 25t-53 14.5t-62.5 6.5t-73.5 1.5q-37 0 -56.5 -0.5t-54.5 -3t-54.5 -8t-45 -16t-38.5 -26t-22.5 -39t-9.5 -54.5v-37h-168v23q0 58 12 103t31 76t51.5 52.5t65 33.5t81 18.5t89.5 7.5t100 1q93 1 154 -4t126 -25.5t102.5 -57.5
t61.5 -104t23 -163v-733zM408 1329q0 72 52 125t124 53q73 0 125.5 -53t52.5 -125q0 -73 -52 -125.5t-126 -52.5q-72 0 -124 52.5t-52 125.5zM485 1329q0 -41 29 -70.5t70 -29.5t70.5 29.5t29.5 70.5t-29.5 71t-70.5 30t-70 -30t-29 -71z" />
    <glyph glyph-name="ae" unicode="&#xe6;" horiz-adv-x="1908" 
d="M1036 633h606q-2 60 -4.5 101.5t-10 77.5t-15.5 57.5t-26 39t-35.5 26t-51 14t-64.5 6.5t-83 1q-45 0 -80 -2t-64 -8t-51 -12.5t-39.5 -20.5t-29 -25.5t-20.5 -34.5t-14 -40.5t-8.5 -51t-5.5 -59t-4 -69.5zM539 520q-47 0 -76.5 -1t-61.5 -5t-50.5 -12t-36.5 -21.5
t-26.5 -33.5t-14 -48t-5.5 -65q0 -38 3.5 -68t13 -52t20 -38t30 -26.5t37 -16.5t47 -9t55 -4t65.5 -1q34 0 54 0.5t51.5 2t51 5.5t45.5 11t41.5 16.5t33 25t27 35t15.5 46t6 58.5q0 59 -16 98t-36.5 59.5t-69.5 30.5t-84.5 11.5t-112.5 1.5h-6zM868 543v198q0 42 -6.5 74
t-18 55t-31.5 38.5t-41 25t-53 14.5t-62.5 6.5t-73.5 1.5q-37 0 -56.5 -0.5t-54.5 -3t-54.5 -8t-45 -16t-38.5 -26t-22.5 -39t-9.5 -54.5v-37h-168v23q0 58 12 103t31 76t51.5 52.5t65 33.5t81 18.5t89.5 7.5t100 1q159 0 236 -17q135 -31 159 -118q16 31 42.5 54t61 37.5
t68.5 23.5t77 13t74 5.5t71 1.5q110 0 182 -12t128.5 -41.5t87 -84.5t45.5 -136.5t15 -202.5v-108h-774q0 -94 2.5 -147.5t15 -102t31 -70.5t57 -38.5t85.5 -20.5t125 -4q74 0 116.5 3t81 11.5t57 27.5t28.5 48.5t10 75.5v41h165v-39q0 -60 -13.5 -106.5t-34.5 -77.5
t-57.5 -53t-70.5 -34t-87 -18.5t-93.5 -8t-101.5 -1.5t-101.5 2t-96 12t-92.5 28t-70 52.5t-48 83.5h-4q-18 -57 -60.5 -94.5t-106.5 -54.5t-123 -23t-140 -6q-79 0 -136 6.5t-112 27t-88.5 55.5t-53.5 94.5t-20 141.5q0 73 12 128t38.5 92t59.5 60.5t83.5 36t102.5 17
t124 4.5q313 0 338 -108h10z" />
    <glyph glyph-name="ccedilla" unicode="&#xe7;" horiz-adv-x="1118" 
d="M571 -82l111 -61l-158 -219l-88 47zM872 389h162v-59q0 -64 -12 -114.5t-33 -86t-54.5 -61.5t-69.5 -41t-85 -24t-95.5 -12t-106.5 -3q-74 0 -133.5 7t-106.5 18.5t-82 34t-60.5 46.5t-43 63t-28 76t-16 93.5t-7 107.5t-1.5 125q0 94 6.5 161.5t24 130.5t49 104
t81.5 72.5t121.5 45.5t168.5 14q63 0 108.5 -2.5t97 -10.5t87.5 -22t70.5 -39t55.5 -59.5t33.5 -85t12.5 -114.5v-29h-162v33q0 32 -4.5 58t-10.5 45.5t-20 34.5t-25.5 25t-34 16.5t-39.5 10.5t-47.5 5.5t-52 2t-59.5 0.5q-63 0 -107 -7.5t-76.5 -18.5t-52.5 -41t-32 -55.5
t-17 -83t-6.5 -102.5t-1.5 -134q0 -88 2.5 -135.5t13 -100t30.5 -76.5t57 -46.5t91 -29.5t134 -7q67 0 107.5 4t76.5 16t54 36.5t28 63t10 97.5v53z" />
    <glyph glyph-name="egrave" unicode="&#xe8;" horiz-adv-x="1157" 
d="M883 326h166v-39q0 -52 -9.5 -94.5t-29 -72.5t-42.5 -52.5t-59 -37t-68 -23t-79 -13t-83 -5.5t-89 -1q-106 0 -181.5 11.5t-130.5 40.5t-88 68t-52 105t-25.5 140t-6.5 184q0 115 9 196t31.5 144.5t57 102t90.5 63.5t126 34.5t170 9.5q91 0 155 -7.5t118 -28t87.5 -54
t56.5 -87.5t32.5 -126.5t9.5 -173.5v-108h-775q0 -94 2.5 -147.5t15 -102t31 -70.5t57 -38.5t85.5 -20.5t125 -4q74 0 116.5 3t81 11.5t57 27.5t28.5 48.5t10 75.5v41zM274 633h607q-2 81 -6.5 130.5t-18.5 88.5t-30.5 57.5t-53.5 30t-75 14t-107 2.5q-45 0 -80 -2t-64 -8
t-51 -12.5t-39.5 -20.5t-29 -25.5t-20.5 -34.5t-14 -40.5t-8.5 -51t-5.5 -59t-4 -69.5zM428 1522l303 -232l-53 -84l-332 205z" />
    <glyph glyph-name="eacute" unicode="&#xe9;" horiz-adv-x="1157" 
d="M883 326h166v-39q0 -52 -9.5 -94.5t-29 -72.5t-42.5 -52.5t-59 -37t-68 -23t-79 -13t-83 -5.5t-89 -1q-106 0 -181.5 11.5t-130.5 40.5t-88 68t-52 105t-25.5 140t-6.5 184q0 115 9 196t31.5 144.5t57 102t90.5 63.5t126 34.5t170 9.5q91 0 155 -7.5t118 -28t87.5 -54
t56.5 -87.5t32.5 -126.5t9.5 -173.5v-108h-775q0 -94 2.5 -147.5t15 -102t31 -70.5t57 -38.5t85.5 -20.5t125 -4q74 0 116.5 3t81 11.5t57 27.5t28.5 48.5t10 75.5v41zM274 633h607q-2 81 -6.5 130.5t-18.5 88.5t-30.5 57.5t-53.5 30t-75 14t-107 2.5q-45 0 -80 -2t-64 -8
t-51 -12.5t-39.5 -20.5t-29 -25.5t-20.5 -34.5t-14 -40.5t-8.5 -51t-5.5 -59t-4 -69.5zM692 1522l80 -111l-330 -205l-55 84z" />
    <glyph glyph-name="ecircumflex" unicode="&#xea;" horiz-adv-x="1157" 
d="M883 326h166v-39q0 -52 -9.5 -94.5t-29 -72.5t-42.5 -52.5t-59 -37t-68 -23t-79 -13t-83 -5.5t-89 -1q-106 0 -181.5 11.5t-130.5 40.5t-88 68t-52 105t-25.5 140t-6.5 184q0 115 9 196t31.5 144.5t57 102t90.5 63.5t126 34.5t170 9.5q91 0 155 -7.5t118 -28t87.5 -54
t56.5 -87.5t32.5 -126.5t9.5 -173.5v-108h-775q0 -94 2.5 -147.5t15 -102t31 -70.5t57 -38.5t85.5 -20.5t125 -4q74 0 116.5 3t81 11.5t57 27.5t28.5 48.5t10 75.5v41zM274 633h607q-2 81 -6.5 130.5t-18.5 88.5t-30.5 57.5t-53.5 30t-75 14t-107 2.5q-45 0 -80 -2t-64 -8
t-51 -12.5t-39.5 -20.5t-29 -25.5t-20.5 -34.5t-14 -40.5t-8.5 -51t-5.5 -59t-4 -69.5zM582 1507l354 -221l-49 -86l-305 156l-318 -156l-43 86z" />
    <glyph glyph-name="edieresis" unicode="&#xeb;" horiz-adv-x="1157" 
d="M883 326h166v-39q0 -52 -9.5 -94.5t-29 -72.5t-42.5 -52.5t-59 -37t-68 -23t-79 -13t-83 -5.5t-89 -1q-106 0 -181.5 11.5t-130.5 40.5t-88 68t-52 105t-25.5 140t-6.5 184q0 115 9 196t31.5 144.5t57 102t90.5 63.5t126 34.5t170 9.5q91 0 155 -7.5t118 -28t87.5 -54
t56.5 -87.5t32.5 -126.5t9.5 -173.5v-108h-775q0 -94 2.5 -147.5t15 -102t31 -70.5t57 -38.5t85.5 -20.5t125 -4q74 0 116.5 3t81 11.5t57 27.5t28.5 48.5t10 75.5v41zM274 633h607q-2 81 -6.5 130.5t-18.5 88.5t-30.5 57.5t-53.5 30t-75 14t-107 2.5q-45 0 -80 -2t-64 -8
t-51 -12.5t-39.5 -20.5t-29 -25.5t-20.5 -34.5t-14 -40.5t-8.5 -51t-5.5 -59t-4 -69.5zM465 1337v-151h-180v151h180zM874 1337v-151h-180v151h180z" />
    <glyph glyph-name="igrave" unicode="&#xec;" horiz-adv-x="440" 
d="M301 1075v-1075h-162v1075h162zM111 1522l303 -232l-54 -84l-331 205z" />
    <glyph glyph-name="iacute" unicode="&#xed;" horiz-adv-x="440" 
d="M301 1075v-1075h-162v1075h162zM334 1522l80 -111l-330 -205l-55 84z" />
    <glyph glyph-name="icircumflex" unicode="&#xee;" horiz-adv-x="440" 
d="M301 1075v-1075h-162v1075h162zM223 1507l355 -221l-50 -86l-305 156l-317 -156l-43 86z" />
    <glyph glyph-name="idieresis" unicode="&#xef;" horiz-adv-x="440" 
d="M301 1075v-1075h-162v1075h162zM106 1337v-151h-180v151h180zM516 1337v-151h-180v151h180z" />
    <glyph glyph-name="eth" unicode="&#xf0;" horiz-adv-x="1167" 
d="M274 537q0 -77 1 -125.5t7 -97t14 -74.5t25 -51.5t37.5 -36t55.5 -20t73.5 -11.5t96.5 -2t96.5 2t73.5 11.5t55 20t37.5 36t25 51.5t13.5 75t7 96.5t1 125.5t-1 126t-7 97t-13.5 75t-25 51.5t-37.5 36.5t-55 20t-73.5 11t-96.5 2t-96.5 -2t-73.5 -11t-55.5 -20t-38 -36.5
t-25 -51.5t-13.5 -74.5t-7 -97t-1 -126.5zM381 1499l147 49q121 -73 201 -151l213 69l96 -84l-225 -69q248 -273 248 -662q0 -94 -2 -164t-8.5 -134t-14.5 -109t-24.5 -84.5t-34.5 -64.5t-47.5 -45.5t-60.5 -31.5t-77.5 -18.5t-94 -9.5t-113.5 -2q-104 0 -174.5 8.5
t-126.5 33.5t-88 62t-53 101.5t-28.5 145t-7.5 198.5q0 119 7.5 199.5t28.5 145t53 101.5t88 62t126.5 33.5t174.5 8.5q97 0 143.5 -13.5t97.5 -49.5q-49 115 -166 242l-229 -72l-90 76l242 78q-141 114 -201 151z" />
    <glyph glyph-name="ntilde" unicode="&#xf1;" horiz-adv-x="1187" 
d="M303 1075v-131h4q18 46 54.5 76.5t86.5 44t93 18t98 4.5q109 0 181.5 -16t125.5 -57.5t76 -114.5t22 -184v-715h-161v727q0 74 -14 119t-48 69.5t-78 32.5t-118 8q-67 0 -115.5 -7t-85 -23.5t-59.5 -40.5t-37 -62.5t-19.5 -84.5t-5.5 -111v-627h-162v1075h162zM854 1411
l88 -57q-89 -154 -211 -154q-49 0 -149 45q-105 43 -140 43q-12 0 -22 -1.5t-19.5 -7.5t-14.5 -9t-13.5 -14.5t-10.5 -14.5t-11.5 -19t-10.5 -18l-92 53q78 152 196 152q40 0 150 -43q100 -45 141 -45q67 0 119 90z" />
    <glyph glyph-name="ograve" unicode="&#xf2;" horiz-adv-x="1167" 
d="M106 537q0 119 7.5 199.5t28.5 145t53 101.5t88 62t126.5 33.5t174.5 8.5t174.5 -8.5t126 -33.5t88 -62t53.5 -102t28 -145t7 -199t-7 -198.5t-28 -144.5t-53.5 -102t-88 -62t-126 -33.5t-174.5 -8.5t-174.5 8.5t-126.5 33.5t-88 62t-53 101.5t-28.5 145t-7.5 198.5z
M274 537q0 -77 1 -125.5t7 -97t14 -74.5t25 -51.5t37.5 -36t55.5 -20t73.5 -11.5t96.5 -2t96.5 2t73.5 11.5t55 20t37.5 36t25 51.5t13.5 75t7 96.5t1 125.5t-1 126t-7 97t-13.5 75t-25 51.5t-37.5 36.5t-55 20t-73.5 11t-96.5 2t-96.5 -2t-73.5 -11t-55.5 -20t-38 -36.5
t-25 -51.5t-13.5 -74.5t-7 -97t-1 -126.5zM432 1522l303 -232l-53 -84l-332 205z" />
    <glyph glyph-name="oacute" unicode="&#xf3;" horiz-adv-x="1167" 
d="M106 537q0 119 7.5 199.5t28.5 145t53 101.5t88 62t126.5 33.5t174.5 8.5t174.5 -8.5t126 -33.5t88 -62t53.5 -102t28 -145t7 -199t-7 -198.5t-28 -144.5t-53.5 -102t-88 -62t-126 -33.5t-174.5 -8.5t-174.5 8.5t-126.5 33.5t-88 62t-53 101.5t-28.5 145t-7.5 198.5z
M274 537q0 -77 1 -125.5t7 -97t14 -74.5t25 -51.5t37.5 -36t55.5 -20t73.5 -11.5t96.5 -2t96.5 2t73.5 11.5t55 20t37.5 36t25 51.5t13.5 75t7 96.5t1 125.5t-1 126t-7 97t-13.5 75t-25 51.5t-37.5 36.5t-55 20t-73.5 11t-96.5 2t-96.5 -2t-73.5 -11t-55.5 -20t-38 -36.5
t-25 -51.5t-13.5 -74.5t-7 -97t-1 -126.5zM696 1522l80 -111l-330 -205l-55 84z" />
    <glyph glyph-name="ocircumflex" unicode="&#xf4;" horiz-adv-x="1167" 
d="M106 537q0 119 7.5 199.5t28.5 145t53 101.5t88 62t126.5 33.5t174.5 8.5t174.5 -8.5t126 -33.5t88 -62t53.5 -102t28 -145t7 -199t-7 -198.5t-28 -144.5t-53.5 -102t-88 -62t-126 -33.5t-174.5 -8.5t-174.5 8.5t-126.5 33.5t-88 62t-53 101.5t-28.5 145t-7.5 198.5z
M274 537q0 -77 1 -125.5t7 -97t14 -74.5t25 -51.5t37.5 -36t55.5 -20t73.5 -11.5t96.5 -2t96.5 2t73.5 11.5t55 20t37.5 36t25 51.5t13.5 75t7 96.5t1 125.5t-1 126t-7 97t-13.5 75t-25 51.5t-37.5 36.5t-55 20t-73.5 11t-96.5 2t-96.5 -2t-73.5 -11t-55.5 -20t-38 -36.5
t-25 -51.5t-13.5 -74.5t-7 -97t-1 -126.5zM588 1507l354 -221l-49 -86l-305 156l-318 -156l-43 86z" />
    <glyph glyph-name="otilde" unicode="&#xf5;" horiz-adv-x="1167" 
d="M106 537q0 119 7.5 199.5t28.5 145t53 101.5t88 62t126.5 33.5t174.5 8.5t174.5 -8.5t126 -33.5t88 -62t53.5 -102t28 -145t7 -199t-7 -198.5t-28 -144.5t-53.5 -102t-88 -62t-126 -33.5t-174.5 -8.5t-174.5 8.5t-126.5 33.5t-88 62t-53 101.5t-28.5 145t-7.5 198.5z
M274 537q0 -77 1 -125.5t7 -97t14 -74.5t25 -51.5t37.5 -36t55.5 -20t73.5 -11.5t96.5 -2t96.5 2t73.5 11.5t55 20t37.5 36t25 51.5t13.5 75t7 96.5t1 125.5t-1 126t-7 97t-13.5 75t-25 51.5t-37.5 36.5t-55 20t-73.5 11t-96.5 2t-96.5 -2t-73.5 -11t-55.5 -20t-38 -36.5
t-25 -51.5t-13.5 -74.5t-7 -97t-1 -126.5zM844 1411l88 -57q-89 -154 -211 -154q-50 0 -150 45q-5 2 -23.5 10t-25.5 10.5t-22.5 8t-24.5 8t-21 4.5t-22 2q-12 0 -22 -1.5t-19.5 -7.5t-14.5 -9t-13.5 -14.5t-10.5 -14.5t-11.5 -19t-10.5 -18l-92 53q78 152 196 152
q40 0 150 -43q100 -45 141 -45q67 0 119 90z" />
    <glyph glyph-name="odieresis" unicode="&#xf6;" horiz-adv-x="1167" 
d="M106 537q0 119 7.5 199.5t28.5 145t53 101.5t88 62t126.5 33.5t174.5 8.5t174.5 -8.5t126 -33.5t88 -62t53.5 -102t28 -145t7 -199t-7 -198.5t-28 -144.5t-53.5 -102t-88 -62t-126 -33.5t-174.5 -8.5t-174.5 8.5t-126.5 33.5t-88 62t-53 101.5t-28.5 145t-7.5 198.5z
M274 537q0 -77 1 -125.5t7 -97t14 -74.5t25 -51.5t37.5 -36t55.5 -20t73.5 -11.5t96.5 -2t96.5 2t73.5 11.5t55 20t37.5 36t25 51.5t13.5 75t7 96.5t1 125.5t-1 126t-7 97t-13.5 75t-25 51.5t-37.5 36.5t-55 20t-73.5 11t-96.5 2t-96.5 -2t-73.5 -11t-55.5 -20t-38 -36.5
t-25 -51.5t-13.5 -74.5t-7 -97t-1 -126.5zM469 1337v-151h-180v151h180zM879 1337v-151h-181v151h181z" />
    <glyph glyph-name="divide" unicode="&#xf7;" horiz-adv-x="1196" 
d="M1094 657v-153h-992v153h992zM705 86h-213v213h213v-213zM705 862h-213v213h213v-213z" />
    <glyph glyph-name="oslash" unicode="&#xf8;" horiz-adv-x="1167" 
d="M1090 1106v-139l-70 -74q29 -68 36 -144t5 -212q-1 -71 -4 -122.5t-9.5 -104.5t-18 -90t-29.5 -73t-43.5 -59.5t-59.5 -44t-79 -32t-100.5 -17.5t-125.5 -6q-306 0 -399 104l-130 -125v135l84 82q-7 13 -12.5 29.5t-9.5 31.5t-7 36.5t-5 36t-3.5 39.5t-2 37t-1 39
t-0.5 36v36.5v31.5q0 85 2.5 144t11 117.5t23.5 96.5t40.5 73.5t61 55.5t86 35.5t114 21.5t147.5 6q48 0 75.5 -0.5t77.5 -6t84 -15t72.5 -29.5t65.5 -49zM889 758l-578 -549q25 -90 281 -90q78 0 120 2.5t80 21t53 38t27.5 77t15 112t5.5 167.5q0 147 -4 221zM281 317
l575 555q-37 84 -264 84q-78 0 -122.5 -3.5t-86 -19t-60 -40.5t-33 -75t-17 -114.5t0.5 -166.5q5 -185 7 -220z" />
    <glyph glyph-name="ugrave" unicode="&#xf9;" horiz-adv-x="1167" 
d="M860 0v143h-4q-21 -47 -56 -79t-81.5 -48t-93 -22t-105.5 -6q-212 0 -298.5 91.5t-86.5 305.5v690h162v-690q0 -43 1.5 -70t6 -58.5t13.5 -50t25 -37t39.5 -28.5t57.5 -16t78 -6q61 0 104.5 4t85 15t68 31.5t47 52.5t30 79t9.5 111v663h162v-1075h-164zM391 1522
l303 -232l-53 -84l-332 205z" />
    <glyph glyph-name="uacute" unicode="&#xfa;" horiz-adv-x="1167" 
d="M860 0v143h-4q-21 -47 -56 -79t-81.5 -48t-93 -22t-105.5 -6q-212 0 -298.5 91.5t-86.5 305.5v690h162v-690q0 -43 1.5 -70t6 -58.5t13.5 -50t25 -37t39.5 -28.5t57.5 -16t78 -6q61 0 104.5 4t85 15t68 31.5t47 52.5t30 79t9.5 111v663h162v-1075h-164zM696 1522l80 -111
l-330 -205l-55 84z" />
    <glyph glyph-name="ucircumflex" unicode="&#xfb;" horiz-adv-x="1167" 
d="M860 0v143h-4q-21 -47 -56 -79t-81.5 -48t-93 -22t-105.5 -6q-212 0 -298.5 91.5t-86.5 305.5v690h162v-690q0 -43 1.5 -70t6 -58.5t13.5 -50t25 -37t39.5 -28.5t57.5 -16t78 -6q61 0 104.5 4t85 15t68 31.5t47 52.5t30 79t9.5 111v663h162v-1075h-164zM588 1507
l354 -221l-49 -86l-305 156l-318 -156l-43 86z" />
    <glyph glyph-name="udieresis" unicode="&#xfc;" horiz-adv-x="1167" 
d="M860 0v143h-4q-21 -47 -56 -79t-81.5 -48t-93 -22t-105.5 -6q-212 0 -298.5 91.5t-86.5 305.5v690h162v-690q0 -43 1.5 -70t6 -58.5t13.5 -50t25 -37t39.5 -28.5t57.5 -16t78 -6q61 0 104.5 4t85 15t68 31.5t47 52.5t30 79t9.5 111v663h162v-1075h-164zM469 1337v-151
h-180v151h180zM879 1337v-151h-181v151h181z" />
    <glyph glyph-name="yacute" unicode="&#xfd;" horiz-adv-x="894" 
d="M903 1075l-309 -1151q-45 -161 -74 -221q-66 -137 -192 -169q-44 -11 -97 -11q-15 0 -73 10v125q27 -6 57 -6q40 0 72.5 18t52 44t36.5 67t25 73t19.5 78.5t17.5 67.5h-57l-389 1075h166l331 -956h5l241 956h168zM598 1522l80 -111l-330 -205l-55 84z" />
    <glyph glyph-name="thorn" unicode="&#xfe;" horiz-adv-x="1173" 
d="M602 956q-46 0 -83 -3.5t-66 -13.5t-51.5 -19t-39 -30.5t-27.5 -35.5t-18.5 -47t-11.5 -53t-5.5 -64.5t-2 -71t-0.5 -81.5q0 -48 1 -81.5t4.5 -73.5t9.5 -66.5t17 -57t27 -49.5t38.5 -38t52.5 -29t68.5 -16.5t86.5 -6.5q65 0 109 6.5t79 25t54.5 46.5t32.5 77.5
t17.5 110.5t4.5 152q0 67 -1.5 111t-6.5 90t-13.5 73.5t-24 55t-37 42t-52.5 26.5t-70.5 16.5t-91.5 4.5zM297 127v-592h-162v2001h162v-592l4 -4q79 147 346 147q64 0 117 -8.5t93.5 -23t72 -39.5t53.5 -51.5t37.5 -66t24.5 -75.5t14 -87t6.5 -95t1.5 -104q0 -162 -21 -266
t-71.5 -168t-128.5 -89.5t-199 -25.5q-55 0 -99 4.5t-95.5 17.5t-90.5 43t-61 74h-4z" />
    <glyph glyph-name="ydieresis" unicode="&#xff;" horiz-adv-x="894" 
d="M903 1075l-309 -1151q-45 -161 -74 -221q-66 -137 -192 -169q-44 -11 -97 -11q-15 0 -73 10v125q27 -6 57 -6q40 0 72.5 18t52 44t36.5 67t25 73t19.5 78.5t17.5 67.5h-57l-389 1075h166l331 -956h5l241 956h168zM334 1337v-151h-180v151h180zM743 1337v-151h-180v151
h180z" />
    <glyph glyph-name="dotlessi" unicode="&#x131;" horiz-adv-x="440" 
d="M301 1075v-1075h-162v1075h162z" />
    <glyph glyph-name="Lslash" unicode="&#x141;" horiz-adv-x="1142" 
d="M328 817v-663h782v-154h-956v670l-172 -162v176l172 160v692h174v-545l321 316v-174z" />
    <glyph glyph-name="lslash" unicode="&#x142;" horiz-adv-x="438" 
d="M301 874v-874h-162v743l-133 -131v148l133 129v647h162v-518l131 131v-143z" />
    <glyph glyph-name="OE" unicode="&#x152;" horiz-adv-x="2271" 
d="M723 1395q-65 0 -105 -1t-87 -4.5t-74 -9.5t-58.5 -17.5t-48 -27.5t-35 -40.5t-26.5 -54.5t-16 -71.5t-10.5 -90t-2.5 -111.5l-2 -412q0 -77 4 -134.5t19 -101.5t29 -73.5t48 -49.5t61 -31t83 -16.5t98.5 -6.5t122.5 -1q111 0 170 3t124 16t94 38t56 72.5t35 115t8 169.5
v412q0 79 -4 136.5t-17.5 104t-27 76t-46.5 51.5t-62.5 33t-87 17.5t-107 8t-135.5 1.5zM1384 1382v-522h777v-143h-777v-563h811v-154h-985v160h-4q-18 -35 -45.5 -63t-55.5 -45.5t-68.5 -30.5t-72 -19t-80.5 -9.5t-79 -4t-82 -0.5q-74 0 -129.5 2t-112.5 7.5t-98 15.5
t-82 26.5t-69 39.5t-54 54.5t-41.5 72t-28 93t-17.5 116t-5 140.5v412q0 175 28.5 283.5t104 177t194 94.5t310.5 26q445 0 483 -176h4v164h985v-154h-811z" />
    <glyph glyph-name="oe" unicode="&#x153;" horiz-adv-x="1929" 
d="M885 537q0 67 -0.5 108t-4 86t-7 70t-14 53t-20.5 40.5t-31 27t-41 19t-55 9.5t-68 5.5t-85 0.5q-44 0 -77.5 -1.5t-62 -9t-48.5 -13t-36 -24t-26 -30t-18 -43.5t-11 -52.5t-5 -68t-2.5 -80t-0.5 -97.5q0 -72 1.5 -118.5t7 -93.5t14 -74.5t25 -53.5t37.5 -38.5t54.5 -23
t73.5 -13.5t95 -3q77 0 126 5.5t85 27.5t53.5 44.5t27.5 80t11.5 108t1.5 152.5zM104 537q0 91 2.5 148.5t12.5 122t29 102.5t51 76t80 57.5t116 31.5t158 12h23h63t67 -3t71.5 -8t64 -16t59 -27t41.5 -40.5t25 -56.5h4q12 35 35 61t56 42t66 26t78.5 14.5t79.5 6t82 1.5
q91 0 155 -7.5t118 -28t87.5 -54t56.5 -87.5t32.5 -126.5t9.5 -173.5v-108h-774q0 -70 1.5 -114.5t7 -88.5t14 -68t26 -47.5t38.5 -33.5t56 -18.5t74.5 -10.5t97.5 -2q74 0 116.5 3t81 11.5t57 27.5t28.5 48.5t10 75.5v41h166v-39q0 -52 -9.5 -94.5t-29 -72.5t-42.5 -52.5
t-59 -37t-68 -23t-79 -13t-83 -5.5t-89 -1q-62 0 -104 2t-93.5 10.5t-86 24t-66 44t-49.5 68.5q-10 -27 -25.5 -49.5t-38.5 -37.5t-43 -26t-53 -18t-53.5 -11t-59 -5.5t-55 -1.5h-54.5h-22q-77 0 -137.5 7.5t-107.5 25t-81 40.5t-58 59t-39 75.5t-23.5 95.5t-11.5 112.5
t-3 133.5zM1053 633h606q-2 81 -6.5 130.5t-18.5 88.5t-30.5 57.5t-53.5 30t-75 14t-107 2.5q-74 0 -124 -5.5t-85 -24.5t-54 -37.5t-30 -63t-14.5 -81.5t-7.5 -111z" />
    <glyph glyph-name="Scaron" unicode="&#x160;" horiz-adv-x="1288" 
d="M637 709q-35 3 -104 7q-72 4 -107.5 7t-94 13t-88 25t-68 43t-56.5 67t-31.5 97.5t-13.5 133.5q0 77 8.5 137t27.5 105.5t43 78.5t63 55.5t78.5 36.5t98.5 21t114 9.5t134 2.5q86 0 137.5 -2t119.5 -10.5t107 -25.5t82 -48.5t64.5 -77t34 -113t8.5 -155.5h-174
q-2 53 -5 89t-13.5 67.5t-20.5 50t-35 33.5t-47.5 21.5t-67.5 11t-85.5 5.5t-110.5 1q-106 0 -171.5 -7t-111 -21.5t-66.5 -46t-29.5 -72t-8.5 -109.5q0 -167 69 -223q52 -42 182 -49q32 -2 106 -3q45 -1 69 -2q217 -12 277 -22q141 -23 201 -99q71 -91 71 -305
q0 -92 -14 -161.5t-34.5 -117.5t-64 -79.5t-82.5 -49.5t-111.5 -27t-129.5 -11t-156 -2q-92 0 -156.5 4t-131 16t-109 33.5t-80 57.5t-56.5 88t-27 125t-1 167h174q-1 -52 0 -91.5t8 -73.5t11.5 -57.5t22 -42.5t27.5 -31t40.5 -20.5t48.5 -12.5t64 -6.5t74 -2.5h91t92 0.5
t76.5 2t67 5.5t52.5 11.5t45 18t31.5 27.5t26 38.5t15 51t10.5 65t2 81.5q0 44 -4.5 78t-11 60t-20.5 44.5t-27.5 31t-37.5 21t-44.5 13t-54 7t-61.5 4t-71.5 3.5t-79.5 5zM639 1661l-352 219l49 88l303 -156l319 156l43 -88z" />
    <glyph glyph-name="scaron" unicode="&#x161;" horiz-adv-x="1099" 
d="M991 836v-41h-168v41q0 20 -3 35.5t-12.5 27t-18 19t-28.5 13t-33.5 8t-43.5 4t-49 1.5h-59h-5q-164 0 -212 -11q-70 -17 -84 -77q-5 -18 -5 -43q0 -124 34 -152t149 -32q25 -1 39 -2q35 -2 102 -4q66 -2 98.5 -4t86.5 -9.5t81.5 -19.5t64 -35t53.5 -56t29.5 -82.5
t12.5 -113.5q0 -56 -9 -100.5t-28 -76.5t-41 -55.5t-57 -38.5t-65.5 -24t-77.5 -13.5t-82 -5.5t-89 -1q-60 0 -101 1.5t-95 7t-90.5 15t-75.5 28.5t-62 45t-38 65.5t-15 89.5v100h168v-84q0 -76 61.5 -100.5t247.5 -24.5q10 0 38 -0.5t42.5 -0.5t41 1.5t42 6t36.5 12
t33.5 20t24.5 29.5t17.5 42t5.5 56q0 38 -4.5 65t-11 45.5t-22 30.5t-28.5 18t-40 9t-47.5 3.5t-59.5 1.5t-68 3q-25 2 -73 4q-82 4 -123 8t-103.5 21t-92.5 46t-53.5 84t-23.5 134q0 66 12 115.5t29 83.5t53 56.5t67 34.5t89 18.5t100 7.5t119 1q38 0 64 -0.5t64.5 -3
t64.5 -7t59 -13.5t55 -21.5t45 -32t37 -43.5t22.5 -57t8.5 -73zM545 1200l-352 219l49 88l303 -155l319 155l43 -88z" />
    <glyph glyph-name="Ydieresis" unicode="&#x178;" horiz-adv-x="1294" 
d="M1307 1536l-582 -895v-641h-174v641l-563 895h202l455 -719l455 719h207zM532 1798v-151h-180v151h180zM942 1798v-151h-180v151h180z" />
    <glyph glyph-name="Zcaron" unicode="&#x17d;" horiz-adv-x="1304" 
d="M1231 1536v-162l-967 -1220h987v-154h-1198v152l965 1230h-936v154h1149zM647 1661l-352 219l49 88l303 -156l320 156l43 -88z" />
    <glyph glyph-name="zcaron" unicode="&#x17e;" horiz-adv-x="929" 
d="M881 1075v-149l-641 -795h641v-131h-830v150l641 794h-588v131h777zM461 1200l-352 219l49 88l303 -155l319 155l43 -88z" />
    <glyph glyph-name="florin" unicode="&#x192;" 
d="M846 860l-176 -985q-11 -70 -23 -118t-31.5 -90t-46 -67.5t-67 -43.5t-93 -25.5t-124.5 -7.5q-55 0 -121 16l22 131q68 -14 119 -14q34 0 60.5 4.5t45 11.5t33 22t23.5 28t16.5 39t11.5 45t11 55l176 999h-211l23 133h211l38 211q15 102 37.5 163.5t65.5 104.5t109 59.5
t169 16.5q43 0 125 -4l-22 -135q-117 6 -119 6q-41 0 -70 -4t-49.5 -16.5t-33 -24.5t-22 -39.5t-14 -48t-12.5 -63.5l-39 -226h285l-25 -133h-282z" />
    <glyph glyph-name="circumflex" unicode="&#x2c6;" horiz-adv-x="1021" 
d="M514 1507l354 -221l-49 -86l-305 156l-317 -156l-43 86z" />
    <glyph glyph-name="caron" unicode="&#x2c7;" horiz-adv-x="1021" 
d="M506 1200l-352 219l49 88l303 -155l319 155l43 -88z" />
    <glyph glyph-name="uni02C9" unicode="&#x2c9;" horiz-adv-x="888" 
d="M162 1327h565v-131h-565v131z" />
    <glyph glyph-name="breve" unicode="&#x2d8;" horiz-adv-x="997" 
d="M154 1509h108q15 -84 82.5 -139t153.5 -55q87 0 153.5 55t81.5 139h111q-14 -131 -114 -221t-232 -90q-131 0 -231 90.5t-113 220.5z" />
    <glyph glyph-name="dotaccent" unicode="&#x2d9;" horiz-adv-x="487" 
d="M334 1337v-151h-180v151h180z" />
    <glyph glyph-name="ring" unicode="&#x2da;" horiz-adv-x="661" 
d="M154 1329q0 72 52 125t124 53q73 0 125.5 -53t52.5 -125q0 -73 -52 -125.5t-126 -52.5q-72 0 -124 52.5t-52 125.5zM231 1329q0 -41 29 -70.5t70 -29.5t70.5 29.5t29.5 70.5t-29.5 71t-70.5 30t-70 -30t-29 -71z" />
    <glyph glyph-name="ogonek" unicode="&#x2db;" horiz-adv-x="628" 
d="M309 0h117q-166 -98 -166 -184q0 -55 38.5 -82t96.5 -27q45 0 80 17v-101q-49 -18 -104 -18q-89 0 -153 46.5t-64 131.5q0 134 155 217z" />
    <glyph glyph-name="tilde" unicode="&#x2dc;" horiz-adv-x="1001" 
d="M760 1411l88 -57q-89 -154 -211 -154q-50 0 -150 45q-5 2 -23.5 10t-25.5 10.5t-22.5 8t-24.5 8t-21 4.5t-22 2q-12 0 -22 -1.5t-19.5 -7.5t-14.5 -9t-13.5 -14.5t-10.5 -14.5t-11.5 -19t-10.5 -18l-92 53q78 152 196 152q40 0 150 -43q100 -45 141 -45q67 0 119 90z" />
    <glyph glyph-name="hungarumlaut" unicode="&#x2dd;" horiz-adv-x="1001" 
d="M432 1534l92 -102l-307 -238l-63 78zM756 1534l92 -102l-307 -238l-64 78z" />
    <glyph glyph-name="uni03A9" unicode="&#x3a9;" horiz-adv-x="1849" 
d="M516 123v6q-71 50 -132 115.5t-111.5 148.5t-79.5 187.5t-29 216.5q0 207 102 375t277 262t387 94q166 0 309 -60.5t239 -161.5t150.5 -232t54.5 -271q0 -154 -54 -292t-131 -229t-171 -153v-6h391v-123h-602v92q80 41 150 102.5t129.5 146t94 198.5t34.5 243
q0 111 -39.5 220t-112 199.5t-187.5 147t-253 56.5q-178 0 -318 -86.5t-214 -230t-74 -314.5q0 -121 34.5 -232.5t92.5 -196.5t129.5 -149.5t150.5 -103.5v-92h-604v123h387z" />
    <glyph glyph-name="uni03BC" unicode="&#x3bc;" horiz-adv-x="1167" 
d="M864 0v143h-4q-21 -47 -56 -79t-81.5 -48t-93 -22t-105.5 -6q-145 0 -223 41v-494h-162v1540h162v-690q0 -43 1.5 -70t6 -58.5t13.5 -50t25 -37t39.5 -28.5t57.5 -16t78 -6q74 0 123.5 6t94.5 24t71 50t40.5 85t14.5 128v663h162v-1075h-164z" />
    <glyph glyph-name="pi" unicode="&#x3c0;" horiz-adv-x="1417" 
d="M1356 989h-211v-651q0 -209 35 -338h-156q-41 59 -41 315v674h-483q-13 -238 -68.5 -548t-118.5 -441h-159q67 158 121 455.5t65 533.5q-202 0 -293 -33l-27 101q106 59 351 59h1001z" />
    <glyph glyph-name="endash" unicode="&#x2013;" horiz-adv-x="1024" 
d="M0 637h1024v-154h-1024v154z" />
    <glyph glyph-name="emdash" unicode="&#x2014;" horiz-adv-x="2048" 
d="M0 637h2048v-154h-2048v154z" />
    <glyph glyph-name="quoteleft" unicode="&#x2018;" horiz-adv-x="411" 
d="M209 1319h78v-209h-183v248q0 45 5.5 76t21.5 59t48.5 41.5t82.5 13.5h47v-92q-57 -2 -78.5 -22t-21.5 -76v-39z" />
    <glyph glyph-name="quoteright" unicode="&#x2019;" horiz-adv-x="411" 
d="M205 1327h-78v209h182v-248q0 -46 -5.5 -76.5t-21.5 -58.5t-48 -41.5t-82 -13.5h-48v92q57 2 79 22t22 76v39z" />
    <glyph glyph-name="quotesinglbase" unicode="&#x201a;" horiz-adv-x="466" 
d="M231 0h-77v209h182v-248q0 -45 -5.5 -76t-21.5 -59t-48.5 -41.5t-82.5 -13.5h-47v92q57 2 78.5 22t21.5 76v39z" />
    <glyph glyph-name="quotedblleft" unicode="&#x201c;" horiz-adv-x="735" 
d="M530 1319h78v-209h-182v248q0 45 5.5 76t21.5 59t48.5 41.5t82.5 13.5h47v-92q-57 -2 -79 -22t-22 -76v-39zM209 1319h78v-209h-183v248q0 45 5.5 76t21.5 59t48.5 41.5t82.5 13.5h47v-92q-57 -2 -78.5 -22t-21.5 -76v-39z" />
    <glyph glyph-name="quotedblright" unicode="&#x201d;" horiz-adv-x="735" 
d="M205 1327h-78v209h182v-248q0 -46 -5.5 -76.5t-21.5 -58.5t-48 -41.5t-82 -13.5h-48v92q57 2 79 22t22 76v39zM526 1327h-77v209h182v-248q0 -45 -5.5 -76t-21.5 -59t-48.5 -41.5t-82.5 -13.5h-47v92q57 2 78.5 22t21.5 76v39z" />
    <glyph glyph-name="quotedblbase" unicode="&#x201e;" horiz-adv-x="735" 
d="M205 0h-78v209h182v-248q0 -46 -5.5 -76.5t-21.5 -58.5t-48 -41.5t-82 -13.5h-48v92q57 2 79 22t22 76v39zM526 0h-77v209h182v-248q0 -45 -5.5 -76t-21.5 -59t-48.5 -41.5t-82.5 -13.5h-47v92q57 2 78.5 22t21.5 76v39z" />
    <glyph glyph-name="dagger" unicode="&#x2020;" 
d="M793 1536v-422h354v-143h-354v-1399h-175v1399h-352v143h352v422h175z" />
    <glyph glyph-name="daggerdbl" unicode="&#x2021;" 
d="M793 1536v-483h354v-144h-354v-673h354v-144h-354v-520h-175v520h-352v144h352v673h-352v144h352v483h175z" />
    <glyph glyph-name="bullet" unicode="&#x2022;" horiz-adv-x="1064" 
d="M918 768q0 -158 -113 -270.5t-273 -112.5q-159 0 -270.5 111t-111.5 272q-3 160 109 272.5t273 112.5q160 0 273 -112.5t113 -272.5z" />
    <glyph glyph-name="ellipsis" unicode="&#x2026;" horiz-adv-x="2048" 
d="M434 209v-209h-182v209h182zM1116 209v-209h-182v209h182zM1798 209v-209h-182v209h182z" />
    <glyph glyph-name="perthousand" unicode="&#x2030;" horiz-adv-x="2625" 
d="M1642 270v226q0 113 -36.5 136t-180.5 23h-46.5t-38.5 -1.5t-33 -3t-25.5 -6t-21 -10l-14.5 -14.5t-11.5 -20t-6 -27t-4.5 -34.5t-1 -42.5v-226q0 -26 0.5 -46t4.5 -37t6.5 -29t11.5 -21.5t14.5 -15.5t21.5 -10t25 -6t33 -3.5t38.5 -1.5h46.5q41 0 59 0.5t46 2.5t39 6
t27.5 12.5t22 20t13 30t9 42.5t1.5 56zM1765 492v-226q-1 -74 -14.5 -123.5t-37 -80.5t-67 -47t-92.5 -21.5t-127 -5.5q-79 0 -126.5 5.5t-89.5 21t-63.5 46.5t-33.5 79.5t-14 123.5v225q2 62 9.5 106t25 75.5t40.5 50.5t62 29.5t81.5 14t106.5 3.5q79 0 128 -5t93 -21
t67.5 -46.5t37 -80t14.5 -123.5zM1493 1536l-1042 -1548h-138l1037 1548h143zM2580 492v-226q-1 -74 -14.5 -123.5t-36.5 -80.5t-66.5 -47t-92.5 -21.5t-127 -5.5q-65 0 -107.5 3.5t-82 13.5t-62.5 28.5t-41 49.5t-25.5 75t-9.5 106v225q2 62 9.5 106t25.5 75.5t40.5 50.5
t62 29.5t82 14t106.5 3.5q65 0 108.5 -3.5t84.5 -13.5t65.5 -28.5t43.5 -49.5t27.5 -75t9.5 -106zM2458 270v226q0 113 -36.5 136t-180.5 23h-46.5t-38.5 -1.5t-33 -3t-25.5 -6t-21.5 -10t-15 -14.5t-11.5 -20t-6 -27t-4.5 -34.5t-1 -42.5v-226q0 -33 1 -56t7.5 -42
t11 -30.5t19.5 -20t25 -12.5t37 -6t44.5 -2.5t57.5 -0.5q41 0 59 0.5t46 2.5t39 6t27.5 12.5t22 20t13 30t9 42.5t1.5 56zM711 1272v-225q-1 -74 -14.5 -123.5t-37 -80.5t-67 -47.5t-92.5 -22t-127 -5.5q-65 0 -107.5 3.5t-82 13.5t-62.5 28.5t-41 49.5t-25.5 75t-9.5 106
v226q2 62 9.5 106t25.5 75.5t40.5 50t62 29t82 14t106.5 3.5q79 0 128 -5t93 -21t67.5 -46.5t37 -80t14.5 -123.5zM588 1051v225q0 24 -1 42.5t-4.5 34.5t-7 27t-12.5 20.5t-15.5 15t-22.5 9.5t-27.5 6t-35.5 3.5t-41 1.5h-50q-38 0 -57 -0.5t-45 -2.5t-36.5 -6t-25.5 -12
t-19.5 -19t-10.5 -28.5t-7.5 -39t-1.5 -52.5v-225q0 -33 1 -56t7.5 -42t11 -30.5t19.5 -20t25 -12.5t37 -6t44.5 -2.5t57.5 -0.5q41 0 59 0.5t46 2.5t39 6t27.5 12.5t22 20t13 30t9 42.5t1.5 56z" />
    <glyph glyph-name="guilsinglleft" unicode="&#x2039;" horiz-adv-x="651" 
d="M391 1178l119 -72l-242 -514l269 -518l-113 -74l-309 592z" />
    <glyph glyph-name="guilsinglright" unicode="&#x203a;" horiz-adv-x="651" 
d="M141 1106l119 72l277 -586l-310 -592l-112 74l268 518z" />
    <glyph glyph-name="fraction" unicode="&#x2044;" horiz-adv-x="1159" 
d="M1169 1536l-1042 -1536h-137l1036 1536h143z" />
    <glyph glyph-name="Euro" unicode="&#x20ac;" 
d="M1399 1374l-62 -184q-48 101 -143 153t-217 52h-277q-72 0 -124 -13.5t-96.5 -47.5t-67.5 -100t-23 -163v-84h887l-41 -133h-846v-127h807l-41 -133h-766q0 -73 3 -123.5t10.5 -102t21 -84t36 -62.5t54.5 -46t76.5 -25.5t103.5 -9.5h289q257 0 365 193v-203
q-29 -35 -66 -61.5t-80.5 -41t-77.5 -24t-82 -12.5t-66 -3.5t-56 -0.5h-258q-211 0 -329 126.5t-118 356.5v123h-190l41 133h149v127h-190l41 133h149v78q0 85 17.5 155.5t45.5 119.5t68.5 87t83 60.5t92 36.5t92 19t86.5 5h230h12q46 0 74.5 -1t86 -10t101.5 -26t98 -52
t97 -85z" />
    <glyph glyph-name="afii61289" unicode="&#x2113;" horiz-adv-x="1198" 
d="M1057 356l82 -67q-169 -291 -465 -291q-97 0 -173.5 32.5t-124 89t-74.5 125.5t-32 148v25q-18 -13 -68 -51.5t-77 -57.5l-51 92q13 10 86 65t108 85v596q0 145 32.5 252t87.5 164.5t117 83.5t132 26q102 0 173.5 -51t103.5 -129.5t32 -175.5q0 -199 -135 -394.5
t-393 -418.5l2 -51q1 -83 25.5 -148.5t65.5 -104.5t90 -59t104 -20q113 0 206 70t146 165zM418 1174v-523q195 188 301 346t106 312q0 115 -45 183.5t-143 68.5q-38 0 -74.5 -20t-70 -62.5t-54 -121.5t-20.5 -183z" />
    <glyph glyph-name="trademark" unicode="&#x2122;" horiz-adv-x="2048" 
d="M1929 1536v-862h-143v739h-4l-295 -739h-80l-287 739h-4v-739h-143v862h227l248 -608l256 608h225zM827 1536v-123h-272v-739h-154v739h-272v123h698z" />
    <glyph glyph-name="Omega" unicode="&#x2126;" horiz-adv-x="1849" 
d="M516 123v6q-71 50 -132 115.5t-111.5 148.5t-79.5 187.5t-29 216.5q0 207 102 375t277 262t387 94q166 0 309 -60.5t239 -161.5t150.5 -232t54.5 -271q0 -154 -54 -292t-131 -229t-171 -153v-6h391v-123h-602v92q80 41 150 102.5t129.5 146t94 198.5t34.5 243
q0 111 -39.5 220t-112 199.5t-187.5 147t-253 56.5q-178 0 -318 -86.5t-214 -230t-74 -314.5q0 -121 34.5 -232.5t92.5 -196.5t129.5 -149.5t150.5 -103.5v-92h-604v123h387z" />
    <glyph glyph-name="estimated" unicode="&#x212e;" horiz-adv-x="1882" 
d="M1806 745h-1403q-12 0 -12 -8v-426q0 -20 19 -47q106 -109 242 -170t288 -61q165 0 310 69t249 189h125q-118 -139 -298.5 -220t-387.5 -81q-176 0 -336 61.5t-275.5 165.5t-184 248.5t-68.5 302.5t68.5 302.5t184 249t275.5 166.5t336 62q177 0 338 -62t277 -166.5
t184.5 -249t68.5 -302.5v-23zM1489 801v428q0 28 -23 51q-105 103 -240 162t-286 59q-150 0 -286 -61t-242 -168q-21 -21 -21 -53v-418q0 -4 3.5 -8.5t8.5 -4.5h1076q4 0 7 4.5t3 8.5z" />
    <glyph glyph-name="partialdiff" unicode="&#x2202;" horiz-adv-x="1349" 
d="M250 1466l-60 103q168 127 412 127q124 0 235.5 -54.5t198 -156t138 -260t51.5 -351.5q0 -136 -25 -263.5t-78 -239.5t-127.5 -195.5t-181 -131.5t-231.5 -48q-96 0 -177 31t-136 81.5t-93.5 116.5t-56 135t-17.5 138q0 159 73 283.5t191.5 189.5t258.5 65
q71 0 137.5 -19.5t114 -48t88 -64t63 -64t35.5 -52.5h2q4 31 4 111q0 152 -39 280t-105.5 213t-153.5 132t-183 47q-186 0 -338 -105zM594 117h2q91 0 169.5 44t134 119t92 168.5t50.5 196.5q-15 40 -48 85t-82 88.5t-118 71.5t-143 28q-159 0 -275 -121t-116 -293
q0 -163 93 -275t241 -112z" />
    <glyph glyph-name="Delta" unicode="&#x2206;" horiz-adv-x="1632" 
d="M76 0v111l649 1437h186l643 -1437v-111h-1478zM240 123h1138l-387 864q-16 40 -86.5 199.5t-89.5 212.5h-10q-10 -31 -38.5 -97t-64.5 -149t-53 -123z" />
    <glyph glyph-name="product" unicode="&#x220f;" horiz-adv-x="1740" 
d="M1679 1366h-286v-1573h-154v1573h-737v-1573h-156v1573h-287v135h1620v-135z" />
    <glyph glyph-name="summation" unicode="&#x2211;" horiz-adv-x="1382" 
d="M1325 -207h-1274v96l684 754l-651 754v104h1206v-133h-977v-8l609 -701l-652 -718v-9h1055v-139z" />
    <glyph glyph-name="minus" unicode="&#x2212;" horiz-adv-x="1196" 
d="M102 504v153h992v-153h-992z" />
    <glyph glyph-name="uni2215" unicode="&#x2215;" horiz-adv-x="1159" 
d="M1169 1536l-1042 -1536h-137l1036 1536h143z" />
    <glyph glyph-name="uni2219" unicode="&#x2219;" horiz-adv-x="706" 
d="M444 686v-209h-182v209h182z" />
    <glyph glyph-name="radical" unicode="&#x221a;" horiz-adv-x="1394" 
d="M1405 1778l-555 -2104h-145l-402 1006l-186 -70l-35 90l315 125l336 -858q33 -102 41 -137h4q3 18 8 41.5t12.5 53t10.5 44.5l473 1809h123z" />
    <glyph glyph-name="infinity" unicode="&#x221e;" horiz-adv-x="1853" 
d="M1729 623v-2q0 -109 -51.5 -194.5t-133 -130t-174.5 -44.5q-75 0 -147.5 36t-136 93t-156.5 158q-51 -57 -78.5 -86t-78.5 -74.5t-91 -68t-95 -40.5t-112 -18q-142 0 -246 105.5t-104 256.5q0 158 105.5 263.5t263.5 105.5q52 0 104 -17t93 -42t88.5 -67t80 -76.5
t78.5 -86.5q110 121 151 158q138 124 280 131h17q156 -1 249.5 -101t93.5 -259zM492 352h2q37 0 76.5 13.5t68 30t67 49.5t58.5 52.5t58 60t50 52.5q-100 121 -149 167q-120 110 -248 110q-110 0 -177 -81.5t-65 -195.5q0 -109 71.5 -183.5t187.5 -74.5zM1376 887h-2
q-47 0 -93.5 -18t-90 -52.5t-74 -64t-70.5 -73t-55 -58.5q141 -150 220 -209.5t167 -59.5q111 0 177.5 79.5t66.5 182.5q0 126 -69.5 199.5t-176.5 73.5z" />
    <glyph glyph-name="integral" unicode="&#x222b;" horiz-adv-x="833" 
d="M807 1796l-29 -102q-37 26 -94 26q-81 0 -125 -49q-46 -50 -66 -142.5t-20 -246.5q0 -166 16.5 -539t16.5 -546q0 -289 -105 -433q-37 -52 -96.5 -79t-126.5 -27q-43 0 -89.5 12t-70.5 27l29 106q60 -30 117 -30q69 0 115 49q43 50 66.5 135.5t23.5 243.5
q0 174 -17.5 552t-17.5 545q0 176 29.5 282.5t99.5 170.5q80 80 211 80q36 0 74 -11t59 -24z" />
    <glyph glyph-name="approxequal" unicode="&#x2248;" horiz-adv-x="1402" 
d="M1214 948l66 -61q-59 -100 -133.5 -156.5t-179.5 -56.5q-66 0 -120 20t-150 69q-16 9 -25 13q-45 25 -75 39t-74.5 26.5t-84.5 12.5q-79 0 -136.5 -45.5t-115.5 -128.5l-67 57q58 102 145.5 159.5t190.5 57.5q42 0 85.5 -11.5t68.5 -23t67 -34.5t55 -29q103 -55 142 -67
q48 -15 100 -15q74 0 130 41.5t111 132.5zM1214 547l66 -60q-59 -100 -133 -156.5t-180 -56.5q-47 0 -93.5 13t-80 28.5t-100.5 50.5q-3 2 -5 3l-5 2.5t-5.5 3t-5.5 2.5q-48 25 -77 38.5t-73.5 26.5t-83.5 13q-43 0 -80 -13.5t-68 -41t-54 -54.5t-50 -67l-67 59
q58 102 145 159.5t189 57.5q42 0 87.5 -12t66.5 -21t70.5 -36t53.5 -29q12 -6 39 -20t39.5 -20t36 -16t40.5 -14.5t40 -8t47 -3.5q74 0 128.5 40.5t112.5 131.5z" />
    <glyph glyph-name="notequal" unicode="&#x2260;" horiz-adv-x="1402" 
d="M987 1135l-117 -244h406v-100h-449l-172 -357h621v-102h-666l-139 -291l-82 41l119 250h-383v102h430l168 357h-598v100h643l135 285z" />
    <glyph glyph-name="lessequal" unicode="&#x2264;" horiz-adv-x="1402" 
d="M1268 182l-1127 527v106l1127 526v-120l-1012 -455v-4l1012 -461v-119zM1274 -14h-1149v100h1149v-100z" />
    <glyph glyph-name="greaterequal" unicode="&#x2265;" horiz-adv-x="1402" 
d="M141 1341l1129 -526v-108l-1129 -525v119l1010 459v4l-1010 457v120zM1272 -14h-1145v100h1145v-100z" />
    <glyph glyph-name="lozenge" unicode="&#x25ca;" horiz-adv-x="1396" 
d="M1262 750l-504 -863h-125l-500 863l502 864h125zM1116 745l-373 646q-35 68 -47 100h-4q-17 -44 -49 -100l-367 -637l375 -650q40 -81 45 -98h6q9 32 46 98z" />
    </font>
</defs>
</svg>
