<svg xmlns="http://www.w3.org/2000/svg" width="94.787" height="88.39" viewBox="0 0 94.787 88.39"><defs><style>.a{fill:#f7000a;stroke:#fff;}</style></defs><path class="a" d="M-19584.281,67.692V55.553L-19601,44.543l15.459-10.175L-19601,24.187l13.242-8.714,1.742,2.585-9.316,6.133,12.209,8.041a28.38,28.38,0,0,1-.246-3.735A28.767,28.767,0,0,1-19554.918.008c.26-.012.547-.012.8,0a28.768,28.768,0,0,1,28.451,28.489,28.064,28.064,0,0,1-.25,3.734l12.211-8.04-9.32-6.133,1.746-2.585,13.242,8.714-15.463,10.182,15.459,10.175-16.719,11.01V67.692l-29.764,19.6Zm31.334,14.831,25.049-16.493V57.623l-11.162,7.351-13.887-9.146Zm-28.187-16.493,25.045,16.492v-26.7l-13.887,9.146-11.158-7.348Zm29.449-13.1,12.625,8.314,25.359-16.7-12.627-8.31Zm-43.646-8.388,25.355,16.7,12.625-8.314-25.357-16.7Zm39.246,5.488V43.542a67.586,67.586,0,0,0-7.854.638c.123.319.248.627.373.927Zm3.143-.005,7.475-4.92c.127-.3.254-.611.375-.926a67.669,67.669,0,0,0-7.85-.637Zm-15.613-8.2.52-.1a50.016,50.016,0,0,1-1.672-11.665h-10.473a25.074,25.074,0,0,0,.711,4.585Zm28.078,0,10.914-7.185a25.578,25.578,0,0,0,.711-4.582h-10.473a49.986,49.986,0,0,1-1.668,11.665Zm-24.447-.635a70.8,70.8,0,0,1,8.84-.746V30.053h-10.482A46.433,46.433,0,0,0-19564.926,41.185Zm20.82,0a46.5,46.5,0,0,0,1.637-11.132h-10.475V40.439A70.856,70.856,0,0,1-19544.105,41.184Zm15.252-14.236a25.055,25.055,0,0,0-4.965-13.459,69.775,69.775,0,0,1-7.176,1.794,49.7,49.7,0,0,1,1.668,11.665Zm-13.615,0a46.329,46.329,0,0,0-1.637-11.132,70.931,70.931,0,0,1-8.838.746V26.949Zm-13.617,0V16.563a70.888,70.888,0,0,1-8.838-.747,46.4,46.4,0,0,0-1.645,11.133Zm-13.623,0a49.825,49.825,0,0,1,1.674-11.665,69.987,69.987,0,0,1-7.182-1.795,25.044,25.044,0,0,0-4.967,13.46Zm13.623-13.491V3.341c-3.027.9-5.889,4.355-7.85,9.481A67.7,67.7,0,0,0-19556.086,13.458Zm3.143,0a67.766,67.766,0,0,0,7.848-.637c-1.967-5.132-4.832-8.584-7.848-9.483Zm-14.148-1.156a25.986,25.986,0,0,1,4.3-7.838,25.9,25.9,0,0,0-10.219,6.439Q-19570.079,11.737-19567.092,12.3Zm25.152,0q2.985-.565,5.912-1.4a25.9,25.9,0,0,0-10.223-6.442A26.035,26.035,0,0,1-19541.939,12.3Z" transform="translate(19601.91 0.501)"/></svg>