<svg xmlns="http://www.w3.org/2000/svg" width="92.15" height="59.997" viewBox="0 0 92.15 59.997"><defs><style>.a{fill:#f7000a;stroke:#fff;}</style></defs><g transform="translate(726.476 -1311.505)"><g transform="translate(-725.401 1326.054)"><path class="a" d="M-688.515,1373.559l-14.088-7.407-14.087,7.407,2.69-15.688-11.4-11.111,15.752-2.288,7.047-14.273,7.047,14.273,15.752,2.288-11.4,11.111Zm-14.088-10.8,10.1,5.312-1.929-11.25,8.175-7.967-11.294-1.641-5.054-10.237-5.054,10.237-11.294,1.641,8.175,7.967-1.929,11.25Z" transform="translate(725.401 -1330.198)"/><path class="a" d="M-692.682,1366.585l-6.116-3.216-6.116,3.216,1.168-6.812-4.949-4.823,6.836-.992,3.061-6.2,3.061,6.2,6.836.992-4.949,4.823Zm-6.116-6.607,2.13,1.121-.406-2.372,1.724-1.68-2.379-.345-1.068-2.165-1.069,2.165-2.378.345,1.723,1.68-.406,2.372Z" transform="translate(721.596 -1334.197)"/></g><g transform="translate(-704.101 1312.005)"><path class="a" d="M-635.29,1370.294l-14.126-14.125h-27.332v-3h28.576l9.881,9.882v-9.882h6.745V1315h-63.273v6.27h-3V1312h69.275v44.164h-6.745Z" transform="translate(697.82 -1312.005)"/><g transform="translate(9.961 8.578)"><rect class="a" width="49.353" height="3"/><rect class="a" width="49.353" height="3.001" transform="translate(0 6.002)"/><rect class="a" width="49.353" height="3.002" transform="translate(0 12.005)"/><rect class="a" width="24.677" height="3" transform="translate(24.676 18.008)"/><rect class="a" width="24.677" height="3.001" transform="translate(24.676 24.009)"/></g></g></g></svg>