<svg xmlns="http://www.w3.org/2000/svg" width="66.938" height="88.74" viewBox="0 0 66.938 88.74"><defs><style>.a{fill:#f7000a;stroke:#fff;}</style></defs><path class="a" d="M-19601,87.74V5.288h26.32a6.834,6.834,0,0,1,6.65-5.288,6.834,6.834,0,0,1,6.646,5.288h26.32V87.74Zm3.049-3.051h59.836V8.339h-2.906V81.784h-54.018V8.339h-2.912Zm5.959-5.952h47.922V8.339h-10.852V18.927h-26.219V8.339h-10.852Zm13.9-62.857h20.117V8.343h-6.291V6.818a3.772,3.772,0,0,0-3.768-3.77,3.775,3.775,0,0,0-3.771,3.77V8.343h-6.287Zm10.059,53.447V66.279h9.518v3.048Zm-17.408-5.35,2.156-2.159,2.311,2.31,5.7-5.7,2.158,2.155-7.857,7.857Zm17.408-1.425V59.5h19.037v3.048Zm0-8.807V50.693h9.518v3.051Zm-17.408-5.354,2.156-2.155,2.311,2.31,5.7-5.7,2.158,2.155-7.857,7.857Zm17.408-1.421V43.922h19.037V46.97Zm0-8.811V35.111h9.518v3.048Zm-17.408-5.35,2.156-2.155,2.311,2.31,5.7-5.7,2.158,2.159-7.857,7.853Zm17.408-1.421V28.336h19.037v3.051Zm-1.525-24.574a1.526,1.526,0,0,1,1.525-1.526,1.523,1.523,0,0,1,1.521,1.526,1.523,1.523,0,0,1-1.521,1.526A1.526,1.526,0,0,1-19569.555,6.814Z" transform="translate(19601.5 0.5)"/></svg>