<svg xmlns="http://www.w3.org/2000/svg" width="93.827" height="73.849" viewBox="0 0 93.827 73.849"><defs><style>.a{fill:#f7000a;stroke:#fff;}</style></defs><g transform="translate(-1688.233 -1129.821)"><g transform="translate(1728.409 1130.321)"><path class="a" d="M1766.171,1176.094a17.024,17.024,0,1,1,17.029-17.03A17.047,17.047,0,0,1,1766.171,1176.094Zm0-30.881a13.857,13.857,0,1,0,13.863,13.851A13.872,13.872,0,0,0,1766.171,1145.213Z" transform="translate(-1739.596 -1132.492)"/><path class="a" d="M1764,1202.624l-21.1-29.577a27.511,27.511,0,0,1-5.47-16.152,26.576,26.576,0,0,1,53.151,0,27.837,27.837,0,0,1-5.471,16.15Zm0-69.136a23.433,23.433,0,0,0-23.406,23.406,24.411,24.411,0,0,0,4.881,14.314L1764,1197.172l18.531-25.967a24.369,24.369,0,0,0,4.882-14.31A23.436,23.436,0,0,0,1764,1133.488Z" transform="translate(-1737.426 -1130.321)"/></g><g transform="translate(1688.733 1130.321)"><path class="a" d="M1702.674,1168.255l-11.088-15.539a14.392,14.392,0,0,1-2.853-8.453,13.942,13.942,0,0,1,27.885,0,14.557,14.557,0,0,1-2.854,8.452Zm0-34.767a10.786,10.786,0,0,0-10.774,10.774,11.3,11.3,0,0,0,2.264,6.614l8.51,11.927,8.512-11.929a11.26,11.26,0,0,0,2.264-6.611A10.788,10.788,0,0,0,1702.674,1133.488Z" transform="translate(-1688.733 -1130.321)"/><path class="a" d="M1704.217,1152.959a7.15,7.15,0,1,1,7.152-7.152A7.16,7.16,0,0,1,1704.217,1152.959Zm0-11.135a3.984,3.984,0,1,0,3.986,3.982A3.988,3.988,0,0,0,1704.217,1141.824Z" transform="translate(-1690.276 -1131.865)"/></g><path class="a" d="M1740.118,1212.285v-3.167h3.121v3.167Zm-6.947,0v-3.167h3.121v3.167Zm-6.947,0v-3.167h3.122v3.167Zm-6.946,0v-3.167h3.121v3.167Zm-6.949,0v-3.167h3.122v3.167Zm-6.946,0v-3.167h3.121v3.167Zm-3.826,0a10.687,10.687,0,0,1-3.627-.654l1.14-2.955a7.51,7.51,0,0,0,2.487.442Zm-7.354-2.98a10.694,10.694,0,0,1-2.194-2.981l2.859-1.363a7.553,7.553,0,0,0,1.488,2.021Zm-3.3-7.238c-.008-.169-.011-.34-.011-.514a10.768,10.768,0,0,1,.471-3.157l3.013.979a7.547,7.547,0,0,0-.318,2.178c0,.105,0,.209.006.314Zm2.586-7.517a10.727,10.727,0,0,1,2.862-2.348l1.511,2.783a7.569,7.569,0,0,0-1.941,1.592Zm7.055-3.675a10.758,10.758,0,0,1,1.079-.054h2.224v3.167h-2.224c-.24,0-.479.011-.712.033Zm21.022,3.113v-3.167h.022a4.013,4.013,0,0,0,2.072-.571l1.745,2.645a7.173,7.173,0,0,1-3.816,1.093Zm-6.946,0v-3.167h3.121v3.167Zm-6.947,0v-3.167h3.122v3.167Zm17.748-5.908a4.024,4.024,0,0,0,.215-1.3,4.136,4.136,0,0,0-.081-.811l3.074-.765a7.271,7.271,0,0,1,.173,1.575,7.177,7.177,0,0,1-.432,2.461Zm-1.331-4.487a4.019,4.019,0,0,0-1.949-.827l.29-3.155a7.144,7.144,0,0,1,3.723,1.58Zm-8.75-.864v-3.166h3.122v3.166Zm-6.946,0v-3.166h3.121v3.166Zm-6.947,0v-3.166h3.122v3.166Z" transform="translate(-0.4 -9.119)"/></g></svg>