<svg xmlns="http://www.w3.org/2000/svg" width="110.51" height="90.581" viewBox="0 0 110.51 90.581"><defs><style>.a{fill:#f7000a;stroke:#fff;}</style></defs><path class="a" d="M-19527.2,89.581V82.719h-37.334v6.862h-3.289V68.855a38,38,0,0,1-15.82-29.242h-11.066l2.26,2.266-2.322,2.333L-19601,37.96l6.225-6.248,2.322,2.333-2.256,2.266h11.063A37.926,37.926,0,0,1-19545.869,0a37.92,37.92,0,0,1,37.77,36.311h2.783l4.582-4.6,2.324,2.333-2.258,2.266h1.863l4.58-4.6,2.324,2.333-3.9,3.919,3.9,3.915-2.324,2.333-4.576-4.6h-1.869l2.26,2.266-2.324,2.333-4.578-4.6h-2.787a37.985,37.985,0,0,1-15.814,29.241V89.581Zm0-10.159V70.969a37.443,37.443,0,0,1-18.666,4.959,37.467,37.467,0,0,1-18.668-4.958v8.452Zm-53.2-41.458a34.638,34.638,0,0,0,34.529,34.667,34.632,34.632,0,0,0,34.484-33.018h-6.1a28.52,28.52,0,0,1-28.381,26.9A28.525,28.525,0,0,1-19574.3,37.96a28.521,28.521,0,0,1,28.434-28.544,28.515,28.515,0,0,1,28.381,26.9h6.1A34.628,34.628,0,0,0-19545.869,3.3,34.638,34.638,0,0,0-19580.4,37.964Zm9.381,0a25.228,25.228,0,0,0,25.148,25.251,25.22,25.22,0,0,0,25.09-23.6h-6.115a19.1,19.1,0,0,1-18.975,17.48,19.115,19.115,0,0,1-19.055-19.128,19.115,19.115,0,0,1,19.055-19.128,19.105,19.105,0,0,1,18.975,17.475h6.115a25.219,25.219,0,0,0-25.09-23.6A25.227,25.227,0,0,0-19571.018,37.96Zm9.381,0a15.818,15.818,0,0,0,15.768,15.831,15.816,15.816,0,0,0,15.68-14.182h-6.152a9.7,9.7,0,0,1-9.527,8.064,9.706,9.706,0,0,1-9.674-9.712,9.706,9.706,0,0,1,9.674-9.712,9.692,9.692,0,0,1,9.525,8.059h6.154a15.813,15.813,0,0,0-15.68-14.178A15.815,15.815,0,0,0-19561.637,37.964Zm9.379,0a6.409,6.409,0,0,0,6.389,6.415,6.4,6.4,0,0,0,6.168-4.766h-6.168v-3.3h6.168a6.4,6.4,0,0,0-6.168-4.762A6.406,6.406,0,0,0-19552.258,37.964Z" transform="translate(19601.705 0.5)"/></svg>