<svg xmlns="http://www.w3.org/2000/svg" width="280.603" height="297.873" viewBox="0 0 280.603 297.873"><defs><style>.a{fill:#e33125;}.a,.b,.c{stroke:#323232;stroke-linecap:square;stroke-linejoin:round;}.b{fill:#e1e2e4;}.c{fill:#fff;}</style></defs><g transform="translate(296.553 16.475)"><path class="a" d="M-67.134,108.976-262.605-5.135c-18.474-10.666-33.448.655-33.448,25.286V82.265c0,24.631,14.974,53.244,33.448,63.91l97.933,56,25.6,75.4,25.6-45.819,46.343,28.538c18.472,10.666,33.448-.655,33.448-25.286V172.886C-33.686,148.255-48.661,119.643-67.134,108.976Z" transform="translate(0 3.331)"/><path class="b" d="M-154.892,158.226l-10.417-6.018L-190.9,198.027l20.543-12.109Z" transform="translate(51.833 82.871)"/><g transform="translate(-284.726 -15.906)"><path class="b" d="M-53.637,102.2l-195.47-114.11c-7.911-4.568-15.17-5.076-20.9-2.26l-.184-.2-18.28,10.733.067.225c5.891-3.507,13.593-3.279,22.054,1.6L-70.874,112.307c18.474,10.666,33.448,39.278,33.448,63.912v62.113c0,11.972-3.558,20.762-9.314,25.449l10.194-6.712c8.568-4.912,16.357-12.55,16.357-28.842V166.111C-20.19,141.481-35.164,112.867-53.637,102.2Z" transform="translate(288.466 15.906)"/></g><ellipse class="c" cx="13.313" cy="23.059" rx="13.313" ry="23.059" transform="translate(-239.96 87.869) rotate(-30.31)"/><path class="c" d="M-186.942,98.678c0,10.366-7.323,14.541-16.355,9.325s-16.357-17.845-16.357-28.211,7.323-14.541,16.357-9.326S-186.942,88.312-186.942,98.678Z" transform="translate(37.661 41.47)"/><path class="c" d="M-153.461,117.727c0,10.367-7.323,14.541-16.355,9.326s-16.357-17.847-16.357-28.212,7.323-14.541,16.357-9.325S-153.461,107.363-153.461,117.727Z" transform="translate(54.165 50.86)"/></g></svg>