<svg xmlns="http://www.w3.org/2000/svg" width="186.431" height="257.383" viewBox="0 0 186.431 257.383"><defs><style>.a{fill:#e33125;}.a,.b{stroke:#323232;stroke-linejoin:round;}.b,.c{fill:#fff;}</style></defs><g transform="translate(495.465 -192.316)"><g transform="translate(-494.781 193)"><g transform="translate(123.274 163.274)"><g transform="translate(5.586 16.34)"><path class="a" d="M-366.8,340.2l-22.38,12.058,33.384,61.587,0,0s.028.062.045.091c1.939,3.6,8.521,3.817,14.7.487s9.619-8.947,7.679-12.545c-.016-.031-.035-.059-.052-.088l0,0Z" transform="translate(389.177 -340.197)"/></g><g transform="translate(5.07 13.536)"><path class="b" d="M-366.679,340.747c1.939,3.6-1.5,9.216-7.679,12.546s-12.762,3.112-14.7-.487,1.5-9.215,7.679-12.545S-368.618,337.149-366.679,340.747Z" transform="translate(389.6 -337.899)"/></g><path class="a" d="M-380.444,326.806l-13.311,7.174,9.465,17.566,0,0a.361.361,0,0,1,.017.038c1.163,2.159,5.077,2.288,8.754.307s5.72-5.323,4.567-7.463a.392.392,0,0,0-.021-.034l-.009-.02Z" transform="translate(393.755 -326.806)"/></g><g transform="translate(39.815 13.692)"><path class="b" d="M-402.961,212.6c-16.573-9.569-31.6-10.666-42.6-4.71-.309.167-16.091,8.972-16.589,9.735,11.192-8.442,27.759-8.313,46.249,2.361,33.7,19.459,61.026,66.587,61.026,105.262,0,19.734-7.116,33.449-18.561,39.57a13.791,13.791,0,0,0,2.979-1.309c.326-.182,11.087-6.7,11.405-6.9,10.6-6.477,17.117-19.858,17.117-38.75C-341.935,279.188-369.258,232.062-402.961,212.6Z" transform="translate(462.151 -204.221)"/></g><g transform="translate(0 0)"><ellipse class="a" cx="49.67" cy="86.035" rx="49.67" ry="86.035" transform="matrix(0.863, -0.505, 0.505, 0.863, 0, 50.136)"/></g><path class="c" d="M-408,330.111c-24.229-13.987-43.868-47.865-43.868-75.666,0-11.288,3.276-19.78,8.745-25.02-9.4,3.808-15.37,14.044-15.37,29.35,0,27.8,19.641,61.68,43.868,75.668,14.391,8.31,27.124,7.673,35.124.007C-387.171,337.558-397.111,336.4-408,330.111Z" transform="translate(502.772 -184.978)"/></g><g transform="translate(-458.398 228.516)"><path class="c" d="M-393.134,349.759c-7.03,0-14.585-2.306-22.462-6.853-27.221-15.717-49.368-53.919-49.368-85.16,0-21.65,10.992-35.64,28.005-35.64,7.028,0,14.585,2.306,22.462,6.853,27.223,15.718,49.37,53.921,49.37,85.16C-365.126,335.769-376.12,349.759-393.134,349.759ZM-436.959,224.3c-15.917,0-25.807,12.815-25.807,33.442,0,30.54,21.652,67.889,48.269,83.255,7.536,4.351,14.726,6.559,21.363,6.559,15.919,0,25.809-12.815,25.809-33.441,0-30.539-21.654-67.889-48.271-83.255C-423.132,226.512-430.322,224.3-436.959,224.3Z" transform="translate(464.964 -222.106)"/></g></g></svg>