<svg xmlns="http://www.w3.org/2000/svg" width="12.5" height="12.5" viewBox="0 0 12.5 12.5"><defs><style>.a{fill:#fff;stroke:#323232;stroke-width:0.5px;}</style></defs><g transform="translate(-139.75 -19.75)"><g transform="translate(140 20)"><path class="a" d="M14.34,11.253a7.629,7.629,0,0,1-2.353-.373.652.652,0,0,0-.673.16l-1.047,1.313A10.122,10.122,0,0,1,5.673,7.8l1.3-1.107a.68.68,0,0,0,.16-.68A7.435,7.435,0,0,1,6.76,3.66.666.666,0,0,0,6.1,3H3.793C3.433,3,3,3.16,3,3.66A11.435,11.435,0,0,0,14.34,15a.7.7,0,0,0,.66-.787v-2.3a.666.666,0,0,0-.66-.66Z" transform="translate(-3 -3)"/></g></g></svg>