<svg xmlns="http://www.w3.org/2000/svg" width="450.344" height="257.284" viewBox="0 0 450.344 257.284"><defs><style>.a{fill:#fff;stroke:#323232;}.b{fill:#a7a7a7;}.c{fill:#f7000a;}</style></defs><g transform="translate(1132.49 -184.076)"><path class="a" d="M-853.424,431.994l166.9-124.786-276.55-118.618-166.9,124.786Z" transform="translate(3.386 8.793)"/><path class="a" d="M-870.89,439.306l180.472-104.2-260.6-150.457-180.472,104.2Z" transform="translate(0 0)"/><g transform="translate(-1064.795 234.817)"><path class="b" d="M-1088.607,214.209a2.42,2.42,0,0,0-2.393,0l-18.668,10.781a2.393,2.393,0,0,0-1.2,2.07,2.393,2.393,0,0,0,1.2,2.07l18.542,10.707a2.369,2.369,0,0,0,1.2.323,2.385,2.385,0,0,0,1.2-.32l18.668-10.778a2.4,2.4,0,0,0,1.2-2.073,2.39,2.39,0,0,0-1.193-2.066Zm-1.316,23.519-18.532-10.642,18.632-10.778,18.555,10.649Z" transform="translate(1110.865 -169.508)"/><path class="b" d="M-1095.052,240.368a1.2,1.2,0,0,0,.608-.162l65.428-37.776a1.212,1.212,0,0,0,.446-1.656,1.219,1.219,0,0,0-1.659-.446l-65.428,37.776a1.214,1.214,0,0,0-.446,1.659A1.216,1.216,0,0,0-1095.052,240.368Z" transform="translate(1143.476 -200.166)"/><path class="b" d="M-1075.344,222.127a2.42,2.42,0,0,0-2.393,0l-18.668,10.781a2.389,2.389,0,0,0-1.2,2.07,2.393,2.393,0,0,0,1.2,2.07l18.545,10.707a2.368,2.368,0,0,0,1.2.323,2.4,2.4,0,0,0,1.2-.32l18.668-10.778a2.4,2.4,0,0,0,1.2-2.073,2.39,2.39,0,0,0-1.193-2.066Zm-1.316,23.519-18.532-10.639,18.633-10.781,18.555,10.649Z" transform="translate(1140.49 -151.822)"/><path class="b" d="M-1082.839,247.681a1.217,1.217,0,0,0,1.051.6,1.215,1.215,0,0,0,.608-.162l65.428-37.776a1.21,1.21,0,0,0,.446-1.656,1.217,1.217,0,0,0-1.659-.446l-65.428,37.776A1.214,1.214,0,0,0-1082.839,247.681Z" transform="translate(1173.102 -182.479)"/><path class="b" d="M-1062.081,230.044a2.427,2.427,0,0,0-2.393,0l-18.668,10.781a2.388,2.388,0,0,0-1.2,2.07,2.385,2.385,0,0,0,1.2,2.07l18.549,10.71a2.4,2.4,0,0,0,1.2.32,2.4,2.4,0,0,0,1.2-.32l18.668-10.778a2.393,2.393,0,0,0,1.2-2.073,2.39,2.39,0,0,0-1.193-2.066Zm-1.316,23.519-18.532-10.639,18.633-10.781,18.555,10.649Z" transform="translate(1170.116 -134.134)"/><path class="b" d="M-1069.576,255.6a1.215,1.215,0,0,0,1.051.6,1.194,1.194,0,0,0,.6-.162l65.431-37.776a1.21,1.21,0,0,0,.446-1.656,1.216,1.216,0,0,0-1.659-.446l-65.431,37.776A1.216,1.216,0,0,0-1069.576,255.6Z" transform="translate(1202.727 -164.793)"/><path class="b" d="M-1048.818,237.962a2.428,2.428,0,0,0-2.393,0l-18.668,10.781a2.393,2.393,0,0,0-1.2,2.07,2.4,2.4,0,0,0,1.193,2.07l18.555,10.713a2.439,2.439,0,0,0,1.2.32,2.444,2.444,0,0,0,1.193-.32l18.665-10.781a2.389,2.389,0,0,0,1.2-2.073,2.386,2.386,0,0,0-1.2-2.066Zm-1.316,23.519-18.536-10.639,18.636-10.781,18.552,10.649Z" transform="translate(1199.742 -116.448)"/><path class="b" d="M-1056.313,263.515a1.217,1.217,0,0,0,1.051.6,1.2,1.2,0,0,0,.6-.162l65.434-37.776a1.212,1.212,0,0,0,.443-1.656,1.213,1.213,0,0,0-1.655-.443l-65.434,37.773A1.215,1.215,0,0,0-1056.313,263.515Z" transform="translate(1232.353 -147.104)"/><path class="b" d="M-1035.555,245.88a2.428,2.428,0,0,0-2.393,0l-18.668,10.781a2.391,2.391,0,0,0-1.2,2.07,2.391,2.391,0,0,0,1.193,2.07l18.561,10.717a2.444,2.444,0,0,0,1.19.317,2.442,2.442,0,0,0,1.193-.32l18.665-10.781a2.389,2.389,0,0,0,1.2-2.073,2.39,2.39,0,0,0-1.2-2.066Zm-1.316,23.519-18.535-10.636,18.636-10.781,18.552,10.645Z" transform="translate(1229.368 -98.761)"/><path class="b" d="M-975.517,232.444a1.215,1.215,0,0,0-1.656-.443l-65.434,37.773a1.215,1.215,0,0,0-.443,1.659,1.219,1.219,0,0,0,1.051.608,1.236,1.236,0,0,0,.6-.162l65.434-37.78A1.211,1.211,0,0,0-975.517,232.444Z" transform="translate(1261.979 -129.417)"/></g><g transform="translate(-1067.554 277.165)"><path class="c" d="M-1087.176,213.819l1.65,13.665-25.308-4.906-.884,4.556,31.564,6.12-2.412-19.994Z" transform="translate(1111.718 -213.262)"/><path class="c" d="M-1073.914,221.737l1.65,13.665-25.307-4.906-.884,4.557,31.563,6.12-2.412-19.994Z" transform="translate(1141.344 -195.575)"/><path class="c" d="M-1060.65,229.655l1.65,13.665-25.308-4.905-.884,4.556,31.564,6.12-2.412-19.994Z" transform="translate(1170.97 -177.888)"/><path class="c" d="M-1047.388,237.573l1.65,13.664-25.307-4.905-.884,4.556,31.563,6.12-2.412-19.994Z" transform="translate(1200.596 -160.201)"/><path class="c" d="M-1029.514,244.934l-4.611.558,1.651,13.664-25.308-4.905-.884,4.556,31.564,6.12Z" transform="translate(1230.222 -142.515)"/></g></g></svg>