<svg xmlns="http://www.w3.org/2000/svg" width="357.51" height="247.924" viewBox="0 0 357.51 247.924"><defs><style>.a{fill:#e33125;}.a,.b{stroke:#323232;stroke-linejoin:round;}.b{fill:#fff;}</style></defs><g transform="translate(719.722 -211.143)"><g transform="translate(-714.121 260.645)"><path class="a" d="M-364.544,356.021-552.195,243.077l-163.759,70.885,207.48,125.561,3.394-1.784Z" transform="translate(715.953 -243.077)"/></g><g transform="translate(-692.48 249.402)"><path class="b" d="M-508.926,429.982l133.476-77.415-191.4-115.814a6.106,6.106,0,0,0-6.2-.073l-129.04,74.835Z" transform="translate(702.083 -235.871)"/></g><g transform="translate(-692.48 241.36)"><path class="b" d="M-508.926,424.828l133.476-77.415L-566.847,231.6a6.11,6.11,0,0,0-6.2-.075l-129.04,74.836Z" transform="translate(702.083 -230.717)"/></g><g transform="translate(-692.48 232.893)"><path class="b" d="M-508.926,419.4l133.476-77.417-191.4-115.814a6.106,6.106,0,0,0-6.2-.073l-129.04,74.834Z" transform="translate(702.083 -225.29)"/></g><g transform="translate(-719.222 211.72)"><path class="b" d="M-362.712,336.037l-203.9-123.377a6.5,6.5,0,0,0-6.6-.08L-710.68,292.3a16.983,16.983,0,0,0-8.542,14.737v19.337a6.664,6.664,0,0,0,3.976,6.1l206.721,124.887-2.748-26.606,6.368-12.25Zm-316.439,9.335c-5.03-2.9-9.109-9.939-9.109-15.711s4.079-8.1,9.109-5.194,9.107,9.939,9.107,15.712S-674.12,348.276-679.151,345.372Z" transform="translate(719.222 -211.72)"/></g><g transform="translate(-710.68 211.72)"><path class="a" d="M-507.973,418.509l142.194-82.472-203.9-123.377a6.5,6.5,0,0,0-6.6-.08L-713.747,292.3Z" transform="translate(713.747 -211.72)"/></g><g transform="translate(-512.047 336.037)"><path class="b" d="M-577.642,410.666a4.057,4.057,0,0,1-2.036.557A4.134,4.134,0,0,1-583.8,407.1V387.761a14.372,14.372,0,0,1,7.213-12.447L-437.107,294.2v-2.8L-577.9,373.022a16.985,16.985,0,0,0-8.541,14.737V407.1a6.755,6.755,0,0,0,10.112,5.862l139.223-80.728v-3.283Z" transform="translate(586.442 -291.396)"/></g><g transform="translate(-640.591 345.246)"><path class="b" d="M-584.619,372.318l-84.208-51.063V297.3l84.208,51.063Z" transform="translate(668.826 -297.298)"/></g><g transform="translate(-577.24 383.661)"><path class="a" d="M-628.225,345.876l20.858,12.648V334.566l-20.858-12.648Z" transform="translate(628.225 -321.918)"/></g></g></svg>