<svg xmlns="http://www.w3.org/2000/svg" width="412.666" height="246.954" viewBox="0 0 412.666 246.954"><defs><style>.a{fill:#e33125;}.a,.b{stroke:#323232;}.b{fill:#fff;}.c{mix-blend-mode:multiply;isolation:isolate;}.d{fill:#a7a7a7;}</style></defs><g transform="translate(994.565 -67.516)"><path class="a" d="M-810.266,307.436l94.69-60.667,5.09.327a12.036,12.036,0,0,0,6.825-1.6l6.522-3.784a12.037,12.037,0,0,0,3.823-3.509l5.153-7.359,98.645-51.278c9.637-5.563,9.782-8.446-1.346-14.87L-744.407,76.4c-11.127-6.424-13.726-5.851-23.364-.288l-219.786,127.1c-9.637,5.563-8.436,10.883,2.692,17.307l149.537,86.338C-824.2,313.284-819.9,313-810.266,307.436Z" transform="translate(0 2.326)"/><path class="b" d="M-750.783,236.442l3.3-2.38A371.126,371.126,0,0,1-707.872,209.1l74.857-40.817L-801.667,71.046-919.434,139.21Z" transform="translate(46.845 1.878)"/><path class="b" d="M-823.369,278.315l117.886-68.136-168.651-97.233L-991.872,179.67l-.007,1.474Z" transform="translate(1.373 28.177)"/><path class="b" d="M-823.314,269.085l41.025-25.885a264.877,264.877,0,0,1,69-30.791l7.857-2.23-168.651-97.234-117.886,58.905Z" transform="translate(1.319 28.177)"/><path class="b" d="M-821.424,262.726l43.633-33.027a92.59,92.59,0,0,1,61-19.639l10.173.426-168.651-97.234h0a92.592,92.592,0,0,0-68.045,18.026l-46.765,34.214Z" transform="translate(2.505 27.872)"/><g transform="translate(-963.186 152.361)"><g class="c"><path class="d" d="M-974.054,163.973a1.037,1.037,0,0,1-.84-.425,1.039,1.039,0,0,1,.226-1.452l34.865-25.509A83.023,83.023,0,0,1-881,120.338a1.041,1.041,0,0,1,.918,1.149,1.035,1.035,0,0,1-1.148.916,80.8,80.8,0,0,0-57.336,15.849l-34.881,25.52A1.029,1.029,0,0,1-974.054,163.973Z" transform="translate(975.094 -119.85)"/></g><g class="c" transform="translate(9.635 5.497)"><path class="d" d="M-968.135,167.35a1.039,1.039,0,0,1-.84-.425,1.04,1.04,0,0,1,.226-1.452l34.866-25.509a83.021,83.021,0,0,1,58.806-16.249,1.041,1.041,0,0,1,.916,1.149,1.029,1.029,0,0,1-1.146.918,82.2,82.2,0,0,0-57.336,15.847l-34.883,25.52A1.026,1.026,0,0,1-968.135,167.35Z" transform="translate(969.175 -123.227)"/></g><g class="c" transform="translate(19.27 10.993)"><path class="d" d="M-962.217,170.727a1.034,1.034,0,0,1-.838-.423,1.041,1.041,0,0,1,.225-1.454l34.866-25.509a83.024,83.024,0,0,1,58.806-16.249,1.041,1.041,0,0,1,.918,1.149,1.032,1.032,0,0,1-1.148.918,82.162,82.162,0,0,0-57.336,15.847l-34.881,25.52A1.03,1.03,0,0,1-962.217,170.727Z" transform="translate(963.255 -126.604)"/></g><g class="c" transform="translate(28.904 16.49)"><path class="d" d="M-956.3,174.1a1.035,1.035,0,0,1-.84-.423,1.039,1.039,0,0,1,.226-1.452l34.866-25.51a83.021,83.021,0,0,1,58.806-16.249,1.041,1.041,0,0,1,.916,1.149,1.03,1.03,0,0,1-1.146.918A82.123,82.123,0,0,0-920.8,148.385L-955.686,173.9A1.019,1.019,0,0,1-956.3,174.1Z" transform="translate(957.336 -129.981)"/></g><g class="c" transform="translate(38.539 21.988)"><path class="d" d="M-950.377,177.482a1.039,1.039,0,0,1-.84-.425,1.04,1.04,0,0,1,.226-1.452l34.866-25.509a83.01,83.01,0,0,1,58.806-16.249A1.041,1.041,0,0,1-856.4,135a1.03,1.03,0,0,1-1.147.916,82.085,82.085,0,0,0-57.336,15.849l-34.881,25.52A1.031,1.031,0,0,1-950.377,177.482Z" transform="translate(951.417 -133.359)"/></g><g class="c" transform="translate(48.174 27.484)"><path class="d" d="M-944.457,180.859a1.037,1.037,0,0,1-.84-.425,1.039,1.039,0,0,1,.226-1.452l34.866-25.509A83.01,83.01,0,0,1-851.4,137.224a1.039,1.039,0,0,1,.916,1.149,1.03,1.03,0,0,1-1.146.916,82.045,82.045,0,0,0-57.336,15.849l-34.883,25.52A1.029,1.029,0,0,1-944.457,180.859Z" transform="translate(945.497 -136.736)"/></g><g class="c" transform="translate(57.809 32.981)"><path class="d" d="M-938.538,184.236a1.039,1.039,0,0,1-.84-.425,1.04,1.04,0,0,1,.226-1.452l34.866-25.509A83.01,83.01,0,0,1-845.479,140.6a1.039,1.039,0,0,1,.916,1.149,1.03,1.03,0,0,1-1.146.916,82.009,82.009,0,0,0-57.336,15.849l-34.881,25.52A1.031,1.031,0,0,1-938.538,184.236Z" transform="translate(939.578 -140.113)"/></g><g class="c" transform="translate(67.444 38.478)"><path class="d" d="M-932.618,187.613a1.032,1.032,0,0,1-.84-.425,1.039,1.039,0,0,1,.226-1.452l34.866-25.509a83.01,83.01,0,0,1,58.806-16.249,1.04,1.04,0,0,1,.916,1.149,1.031,1.031,0,0,1-1.146.916,81.966,81.966,0,0,0-57.336,15.849l-34.883,25.52A1.03,1.03,0,0,1-932.618,187.613Z" transform="translate(933.658 -143.49)"/></g><g class="c" transform="translate(77.079 43.974)"><path class="d" d="M-926.7,190.99a1.037,1.037,0,0,1-.84-.423,1.042,1.042,0,0,1,.226-1.453l34.866-25.509a83.012,83.012,0,0,1,58.806-16.249,1.039,1.039,0,0,1,.916,1.149,1.03,1.03,0,0,1-1.146.916,81.924,81.924,0,0,0-57.336,15.85l-34.883,25.519A1.015,1.015,0,0,1-926.7,190.99Z" transform="translate(927.739 -146.867)"/></g><g class="c" transform="translate(86.714 49.471)"><path class="d" d="M-920.78,194.369a1.036,1.036,0,0,1-.838-.425,1.038,1.038,0,0,1,.225-1.452l34.868-25.509a83.013,83.013,0,0,1,58.806-16.251,1.04,1.04,0,0,1,.916,1.149,1.032,1.032,0,0,1-1.147.916,81.88,81.88,0,0,0-57.335,15.85l-34.883,25.52A1.031,1.031,0,0,1-920.78,194.369Z" transform="translate(921.819 -150.244)"/></g><g class="c" transform="translate(96.348 54.968)"><path class="d" d="M-914.86,197.746a1.036,1.036,0,0,1-.84-.425,1.039,1.039,0,0,1,.226-1.452l34.866-25.509A83.015,83.015,0,0,1-821.8,154.109a1.039,1.039,0,0,1,.916,1.149,1.031,1.031,0,0,1-1.146.916,81.846,81.846,0,0,0-57.336,15.85l-34.883,25.52A1.029,1.029,0,0,1-914.86,197.746Z" transform="translate(915.9 -153.621)"/></g><g class="c" transform="translate(105.983 60.465)"><path class="d" d="M-908.941,201.123a1.038,1.038,0,0,1-.84-.425,1.04,1.04,0,0,1,.226-1.452l34.868-25.509a83.013,83.013,0,0,1,58.806-16.251,1.041,1.041,0,0,1,.917,1.149,1.033,1.033,0,0,1-1.148.916,81.8,81.8,0,0,0-57.335,15.85l-34.883,25.52A1.031,1.031,0,0,1-908.941,201.123Z" transform="translate(909.981 -156.998)"/></g><g class="c" transform="translate(115.618 65.961)"><path class="d" d="M-903.021,204.5a1.037,1.037,0,0,1-.84-.425,1.039,1.039,0,0,1,.226-1.452l34.866-25.509a83.015,83.015,0,0,1,58.806-16.251,1.04,1.04,0,0,1,.916,1.149,1.032,1.032,0,0,1-1.146.916,81.76,81.76,0,0,0-57.336,15.85l-34.883,25.52A1.029,1.029,0,0,1-903.021,204.5Z" transform="translate(904.061 -160.375)"/></g><g class="c" transform="translate(125.253 71.458)"><path class="d" d="M-897.1,207.877a1.037,1.037,0,0,1-.84-.423,1.042,1.042,0,0,1,.226-1.454l34.868-25.509a83.023,83.023,0,0,1,58.806-16.251,1.041,1.041,0,0,1,.916,1.149,1.037,1.037,0,0,1-1.148.916,80.829,80.829,0,0,0-57.336,15.852l-34.881,25.519A1.034,1.034,0,0,1-897.1,207.877Z" transform="translate(898.142 -163.752)"/></g></g><path class="b" d="M-807.1,68.054l-15.572,4.375a177.5,177.5,0,0,0-97.083,68.658h0l168.651,97.082,1.532-2.111a177.5,177.5,0,0,1,96.837-67.011l14.286-3.911Z" transform="translate(46.641)"/><g transform="translate(-851.013 81.765)"><g class="c"><path class="d" d="M-905.141,137.268a1.028,1.028,0,0,1-.643-.225,1.036,1.036,0,0,1-.169-1.457,164.453,164.453,0,0,1,83.76-55.81l11.607-3.26a1.03,1.03,0,0,1,1.281.718,1.036,1.036,0,0,1-.718,1.279l-11.607,3.263a162.375,162.375,0,0,0-82.7,55.1A1.034,1.034,0,0,1-905.141,137.268Z" transform="translate(906.178 -76.478)"/></g><g class="c" transform="translate(9.584 5.507)"><path class="d" d="M-899.253,140.651a1.036,1.036,0,0,1-.645-.225,1.037,1.037,0,0,1-.168-1.457,164.446,164.446,0,0,1,83.76-55.81L-804.7,79.9a1.032,1.032,0,0,1,1.281.718,1.038,1.038,0,0,1-.718,1.281l-11.607,3.262a162.362,162.362,0,0,0-82.7,55.1A1.042,1.042,0,0,1-899.253,140.651Z" transform="translate(900.29 -79.861)"/></g><g class="c" transform="translate(19.166 11.014)"><path class="d" d="M-893.365,144.036a1.032,1.032,0,0,1-.645-.225,1.04,1.04,0,0,1-.169-1.458,164.464,164.464,0,0,1,83.762-55.808l11.607-3.262a1.034,1.034,0,0,1,1.281.719,1.038,1.038,0,0,1-.719,1.279l-11.607,3.262a162.386,162.386,0,0,0-82.7,55.1A1.033,1.033,0,0,1-893.365,144.036Z" transform="translate(894.403 -83.245)"/></g><g class="c" transform="translate(28.75 16.522)"><path class="d" d="M-887.478,147.418a1.031,1.031,0,0,1-.643-.225,1.038,1.038,0,0,1-.169-1.457,164.451,164.451,0,0,1,83.762-55.81l11.607-3.26a1.031,1.031,0,0,1,1.279.718,1.038,1.038,0,0,1-.718,1.281l-11.607,3.262a162.383,162.383,0,0,0-82.7,55.1A1.033,1.033,0,0,1-887.478,147.418Z" transform="translate(888.515 -86.628)"/></g><g class="c" transform="translate(38.333 22.029)"><path class="d" d="M-881.59,150.8a1.028,1.028,0,0,1-.643-.225,1.036,1.036,0,0,1-.169-1.457,164.453,164.453,0,0,1,83.76-55.81l11.609-3.26a1.034,1.034,0,0,1,1.279.718,1.037,1.037,0,0,1-.718,1.281l-11.607,3.262a162.369,162.369,0,0,0-82.7,55.1A1.037,1.037,0,0,1-881.59,150.8Z" transform="translate(882.627 -90.012)"/></g><g class="c" transform="translate(47.917 27.536)"><path class="d" d="M-875.7,154.185a1.033,1.033,0,0,1-.645-.225,1.039,1.039,0,0,1-.168-1.458,164.467,164.467,0,0,1,83.76-55.81l11.607-3.26a1.035,1.035,0,0,1,1.281.719,1.037,1.037,0,0,1-.718,1.279l-11.607,3.262a162.372,162.372,0,0,0-82.7,55.1A1.038,1.038,0,0,1-875.7,154.185Z" transform="translate(876.739 -93.395)"/></g><g class="c" transform="translate(57.5 33.043)"><path class="d" d="M-869.814,157.568a1.033,1.033,0,0,1-.645-.225,1.038,1.038,0,0,1-.169-1.457,164.457,164.457,0,0,1,83.762-55.81l11.607-3.262a1.038,1.038,0,0,1,1.281.719,1.04,1.04,0,0,1-.718,1.281l-11.609,3.262a162.383,162.383,0,0,0-82.7,55.1A1.032,1.032,0,0,1-869.814,157.568Z" transform="translate(870.852 -96.778)"/></g><g class="c" transform="translate(67.084 38.551)"><path class="d" d="M-863.927,160.951a1.031,1.031,0,0,1-.643-.225,1.038,1.038,0,0,1-.169-1.457,164.45,164.45,0,0,1,83.762-55.81l11.607-3.26a1.037,1.037,0,0,1,1.281.718,1.04,1.04,0,0,1-.719,1.281l-11.607,3.262a162.369,162.369,0,0,0-82.7,55.1A1.036,1.036,0,0,1-863.927,160.951Z" transform="translate(864.964 -100.162)"/></g><g class="c" transform="translate(76.667 44.058)"><path class="d" d="M-858.039,164.335a1.028,1.028,0,0,1-.643-.225,1.038,1.038,0,0,1-.169-1.458,164.474,164.474,0,0,1,83.76-55.81l11.609-3.26a1.037,1.037,0,0,1,1.279.719,1.038,1.038,0,0,1-.718,1.281l-11.607,3.26a162.373,162.373,0,0,0-82.7,55.1A1.04,1.04,0,0,1-858.039,164.335Z" transform="translate(859.076 -103.546)"/></g><g class="c" transform="translate(86.25 49.565)"><path class="d" d="M-852.151,167.718a1.033,1.033,0,0,1-.645-.225,1.038,1.038,0,0,1-.168-1.457,164.446,164.446,0,0,1,83.76-55.81l11.607-3.262a1.041,1.041,0,0,1,1.281.719,1.038,1.038,0,0,1-.718,1.281l-11.607,3.262a162.382,162.382,0,0,0-82.7,55.1A1.032,1.032,0,0,1-852.151,167.718Z" transform="translate(853.188 -106.929)"/></g><g class="c" transform="translate(95.833 55.072)"><path class="d" d="M-846.265,171.1a1.031,1.031,0,0,1-.643-.225,1.037,1.037,0,0,1-.169-1.457,164.451,164.451,0,0,1,83.762-55.81l11.607-3.262a1.042,1.042,0,0,1,1.281.719,1.04,1.04,0,0,1-.718,1.281l-11.609,3.262a162.377,162.377,0,0,0-82.7,55.1A1.036,1.036,0,0,1-846.265,171.1Z" transform="translate(847.301 -110.312)"/></g><g class="c" transform="translate(105.416 60.579)"><path class="d" d="M-840.376,174.485a1.028,1.028,0,0,1-.643-.225,1.038,1.038,0,0,1-.169-1.458,164.474,164.474,0,0,1,83.76-55.81l11.609-3.26a1.041,1.041,0,0,1,1.281.718,1.041,1.041,0,0,1-.718,1.283l-11.609,3.26a162.38,162.38,0,0,0-82.7,55.1A1.038,1.038,0,0,1-840.376,174.485Z" transform="translate(841.413 -113.696)"/></g><g class="c" transform="translate(115 66.086)"><path class="d" d="M-834.488,177.867a1.036,1.036,0,0,1-.645-.225,1.037,1.037,0,0,1-.168-1.457,164.467,164.467,0,0,1,83.76-55.811l11.609-3.26a1.041,1.041,0,0,1,1.279.719,1.038,1.038,0,0,1-.718,1.281l-11.607,3.262a162.361,162.361,0,0,0-82.7,55.1A1.038,1.038,0,0,1-834.488,177.867Z" transform="translate(835.525 -117.079)"/></g><g class="c" transform="translate(124.583 71.593)"><path class="d" d="M-828.6,181.25a1.032,1.032,0,0,1-.645-.225,1.038,1.038,0,0,1-.169-1.457,164.458,164.458,0,0,1,83.762-55.81l11.609-3.262a1.044,1.044,0,0,1,1.279.719,1.038,1.038,0,0,1-.718,1.281l-11.607,3.262a162.374,162.374,0,0,0-82.7,55.1A1.036,1.036,0,0,1-828.6,181.25Z" transform="translate(829.638 -120.463)"/></g></g></g></svg>